%TF.GenerationSoftware,KiCad,Pcbnew,(6.0.9)*%
%TF.CreationDate,2022-11-01T00:51:48+09:00*%
%TF.ProjectId,STM32-FC,53544d33-322d-4464-932e-6b696361645f,rev?*%
%TF.SameCoordinates,Original*%
%TF.FileFunction,Copper,L4,Bot*%
%TF.FilePolarity,Positive*%
%FSLAX46Y46*%
G04 Gerber Fmt 4.6, Leading zero omitted, Abs format (unit mm)*
G04 Created by KiCad (PCBNEW (6.0.9)) date 2022-11-01 00:51:48*
%MOMM*%
%LPD*%
G01*
G04 APERTURE LIST*
%TA.AperFunction,ComponentPad*%
%ADD10R,1.700000X1.700000*%
%TD*%
%TA.AperFunction,ComponentPad*%
%ADD11O,1.700000X1.700000*%
%TD*%
%TA.AperFunction,ComponentPad*%
%ADD12C,1.450000*%
%TD*%
%TA.AperFunction,ComponentPad*%
%ADD13O,1.900000X1.200000*%
%TD*%
%TA.AperFunction,ViaPad*%
%ADD14C,0.600000*%
%TD*%
%TA.AperFunction,ViaPad*%
%ADD15C,0.800000*%
%TD*%
%TA.AperFunction,ViaPad*%
%ADD16C,1.000000*%
%TD*%
%TA.AperFunction,Conductor*%
%ADD17C,0.200000*%
%TD*%
%TA.AperFunction,Conductor*%
%ADD18C,0.800000*%
%TD*%
%TA.AperFunction,Conductor*%
%ADD19C,0.500000*%
%TD*%
G04 APERTURE END LIST*
D10*
%TO.P,J3,1,Pin_1*%
%TO.N,/UART4_TX*%
X143475000Y-85275000D03*
D11*
%TO.P,J3,2,Pin_2*%
%TO.N,/UART4_RX*%
X143475000Y-82735000D03*
%TO.P,J3,3,Pin_3*%
%TO.N,/UART5_TX*%
X146015000Y-85275000D03*
%TO.P,J3,4,Pin_4*%
%TO.N,/UART5_RX*%
X146015000Y-82735000D03*
%TO.P,J3,5,Pin_5*%
%TO.N,/UART6_TX*%
X148555000Y-85275000D03*
%TO.P,J3,6,Pin_6*%
%TO.N,/UART6_RX*%
X148555000Y-82735000D03*
%TD*%
D12*
%TO.P,J1,6,Shield*%
%TO.N,unconnected-(J1-Pad6)*%
X172537500Y-95150000D03*
D13*
X175237500Y-101150000D03*
D12*
X172537500Y-100150000D03*
D13*
X175237500Y-94150000D03*
%TD*%
D10*
%TO.P,J4,1,CH1*%
%TO.N,/TIM5_CH1*%
X148190000Y-120460000D03*
D11*
%TO.P,J4,2,CH2*%
%TO.N,/TIM5_CH2*%
X150730000Y-120460000D03*
%TO.P,J4,3,CH3*%
%TO.N,/TIM5_CH3*%
X153270000Y-120460000D03*
%TO.P,J4,4,CH4*%
%TO.N,/TIM5_CH4*%
X155810000Y-120460000D03*
%TO.P,J4,5,5V*%
%TO.N,/PWM_5V*%
X150730000Y-123000000D03*
X148190000Y-123000000D03*
X153270000Y-123000000D03*
X155810000Y-123000000D03*
%TO.P,J4,6,GND*%
%TO.N,GND*%
X150730000Y-125540000D03*
X155810000Y-125540000D03*
X148190000Y-125540000D03*
X153270000Y-125540000D03*
%TD*%
D10*
%TO.P,J2,1,Pin_1*%
%TO.N,/UART1_RX_INV*%
X160975000Y-92000000D03*
D11*
%TO.P,J2,2,Pin_2*%
%TO.N,+5V*%
X163515000Y-92000000D03*
%TO.P,J2,3,Pin_3*%
%TO.N,GND*%
X166055000Y-92000000D03*
%TD*%
D14*
%TO.N,/SPI1_SCK*%
X149000000Y-116000000D03*
%TO.N,/GYRO_NSS*%
X150300000Y-107150000D03*
%TO.N,/ACC_NSS*%
X150300000Y-108200000D03*
%TO.N,GND*%
X142000000Y-93000000D03*
X163700000Y-109700000D03*
D15*
X173500000Y-88500000D03*
D14*
X173100000Y-105300000D03*
X155400000Y-113000000D03*
X145750000Y-115800000D03*
X147000000Y-89700000D03*
D15*
X171500000Y-86500000D03*
D14*
X175600000Y-104100000D03*
X162000000Y-113000000D03*
X174000000Y-104100000D03*
X162700000Y-103650000D03*
X156000000Y-91600000D03*
X152600000Y-109100000D03*
X145700000Y-88400000D03*
X146500000Y-108750000D03*
D15*
X172500000Y-87500000D03*
D14*
X140650000Y-92950000D03*
X155100000Y-108750000D03*
X141650000Y-99000000D03*
X152400000Y-115000000D03*
X171250000Y-96350000D03*
X161300000Y-85400000D03*
X135100000Y-93900000D03*
X174800000Y-103150000D03*
X168000000Y-96250000D03*
D15*
X171500000Y-88500000D03*
D14*
X158400000Y-106000000D03*
X141400000Y-112800000D03*
X158750000Y-94900000D03*
D15*
X128700000Y-106850000D03*
X173500000Y-86500000D03*
D14*
X158000000Y-116150000D03*
X138900000Y-101500000D03*
X153730000Y-87935000D03*
%TO.N,/NRST*%
X150000000Y-97000000D03*
X154000000Y-87000000D03*
D16*
%TO.N,+5V*%
X165000000Y-99500000D03*
X173500000Y-82000000D03*
X173500000Y-80000000D03*
X171500000Y-82000000D03*
X171500000Y-80000000D03*
D14*
%TO.N,/UART1_RX*%
X157200000Y-99000000D03*
X159500000Y-84500000D03*
%TO.N,+3.3V*%
X142000000Y-94000000D03*
X156700000Y-81750000D03*
X138900000Y-102500000D03*
X155400000Y-112000000D03*
X169500000Y-106500000D03*
X146750000Y-115800000D03*
X156270000Y-87935000D03*
X171000000Y-108000000D03*
X147500000Y-108750000D03*
X171000000Y-106500000D03*
X146000000Y-89700000D03*
X151600000Y-109100000D03*
X164500000Y-94600000D03*
X153910000Y-85000000D03*
X141400000Y-111800000D03*
X158750000Y-95900000D03*
X169500000Y-108000000D03*
X172500000Y-107500000D03*
X154100000Y-108750000D03*
X159000000Y-116150000D03*
X162000000Y-112000000D03*
%TO.N,/LED_RED*%
X135100000Y-100500000D03*
X148000000Y-101000000D03*
%TO.N,/LED_GREEN*%
X135100000Y-98800000D03*
X147000000Y-101000000D03*
%TO.N,/LED_BLUE*%
X146000000Y-101000000D03*
X135100000Y-97100000D03*
%TO.N,/TIM5_CH4*%
X141700000Y-106900000D03*
X144600000Y-106900000D03*
%TO.N,/SPI1_SCK*%
X143800000Y-110200000D03*
X148800000Y-112600000D03*
X144900000Y-112100000D03*
%TO.N,/ACC_NSS*%
X146800000Y-110100000D03*
%TO.N,/GYRO_NSS*%
X144000000Y-113900000D03*
%TO.N,/MAG_NSS*%
X150500000Y-112500000D03*
X151725000Y-107700000D03*
%TO.N,/BARO_NSS*%
X152600000Y-107100000D03*
X158500000Y-112500000D03*
%TO.N,/UART6_TX*%
X150000000Y-101000000D03*
%TO.N,/UART6_RX*%
X153250000Y-97000000D03*
X152000000Y-91800000D03*
%TO.N,/UART5_TX*%
X150200000Y-91000000D03*
%TD*%
D17*
%TO.N,/SPI1_SCK*%
X148800000Y-115800000D02*
X148800000Y-112600000D01*
X149000000Y-116000000D02*
X148800000Y-115800000D01*
%TO.N,/ACC_NSS*%
X150300000Y-109300000D02*
X150300000Y-108200000D01*
X149500000Y-110100000D02*
X150300000Y-109300000D01*
X146800000Y-110100000D02*
X149500000Y-110100000D01*
%TO.N,/GYRO_NSS*%
X147950000Y-109500000D02*
X150300000Y-107150000D01*
X146500000Y-109500000D02*
X147950000Y-109500000D01*
X146000000Y-110000000D02*
X146500000Y-109500000D01*
X146000000Y-111900000D02*
X146000000Y-110000000D01*
X144000000Y-113900000D02*
X146000000Y-111900000D01*
%TO.N,/UART1_RX*%
X157200000Y-99000000D02*
X157500000Y-99000000D01*
X157500000Y-99000000D02*
X159500000Y-97000000D01*
X159500000Y-97000000D02*
X159500000Y-84500000D01*
%TO.N,/NRST*%
X152000000Y-87000000D02*
X154000000Y-87000000D01*
X151300000Y-87700000D02*
X151300000Y-95700000D01*
X151300000Y-87700000D02*
X152000000Y-87000000D01*
X150000000Y-97000000D02*
X151300000Y-95700000D01*
D18*
%TO.N,+5V*%
X168500000Y-87000000D02*
X169200000Y-86300000D01*
X169200000Y-86300000D02*
X169200000Y-84300000D01*
X165000000Y-96500000D02*
X168500000Y-93000000D01*
D19*
X163515000Y-92000000D02*
X166500000Y-94985000D01*
D18*
X169200000Y-84300000D02*
X171500000Y-82000000D01*
X168500000Y-93000000D02*
X168500000Y-87000000D01*
X165000000Y-99500000D02*
X165000000Y-96500000D01*
D17*
%TO.N,/LED_RED*%
X135400000Y-100800000D02*
X135100000Y-100500000D01*
X145200000Y-104800000D02*
X138800000Y-104800000D01*
X138800000Y-104800000D02*
X135400000Y-101400000D01*
X148000000Y-102000000D02*
X145200000Y-104800000D01*
X148000000Y-101000000D02*
X148000000Y-102000000D01*
X135400000Y-101400000D02*
X135400000Y-100800000D01*
%TO.N,/LED_GREEN*%
X135900000Y-99600000D02*
X135100000Y-98800000D01*
X144700000Y-104300000D02*
X139000000Y-104300000D01*
X135900000Y-101200000D02*
X135900000Y-99600000D01*
X139000000Y-104300000D02*
X135900000Y-101200000D01*
X147000000Y-101000000D02*
X147000000Y-102000000D01*
X147000000Y-102000000D02*
X144700000Y-104300000D01*
%TO.N,/LED_BLUE*%
X144200000Y-103800000D02*
X139200000Y-103800000D01*
X146000000Y-102000000D02*
X144200000Y-103800000D01*
X139200000Y-103800000D02*
X136400000Y-101000000D01*
X136400000Y-98400000D02*
X135100000Y-97100000D01*
X136400000Y-101000000D02*
X136400000Y-98400000D01*
X146000000Y-101000000D02*
X146000000Y-102000000D01*
%TO.N,/TIM5_CH4*%
X144600000Y-106900000D02*
X141700000Y-106900000D01*
%TO.N,/SPI1_SCK*%
X143800000Y-110200000D02*
X144900000Y-111300000D01*
X144900000Y-111300000D02*
X144900000Y-112100000D01*
%TO.N,/MAG_NSS*%
X150900000Y-108525000D02*
X151725000Y-107700000D01*
X150900000Y-112100000D02*
X150900000Y-108525000D01*
X150500000Y-112500000D02*
X150900000Y-112100000D01*
%TO.N,/BARO_NSS*%
X152600000Y-107100000D02*
X152600000Y-108100000D01*
X157500000Y-111000000D02*
X158500000Y-112000000D01*
X158500000Y-112000000D02*
X158500000Y-112500000D01*
X155500000Y-111000000D02*
X157500000Y-111000000D01*
X152600000Y-108100000D02*
X155500000Y-111000000D01*
%TO.N,/UART6_TX*%
X144000000Y-91000000D02*
X144000000Y-95000000D01*
X148555000Y-85275000D02*
X147280000Y-84000000D01*
X142000000Y-89000000D02*
X144000000Y-91000000D01*
X147280000Y-84000000D02*
X142500000Y-84000000D01*
X142000000Y-84500000D02*
X142000000Y-89000000D01*
X144000000Y-95000000D02*
X150000000Y-101000000D01*
X142500000Y-84000000D02*
X142000000Y-84500000D01*
%TO.N,/UART6_RX*%
X153250000Y-97000000D02*
X153250000Y-93050000D01*
X153250000Y-93050000D02*
X152000000Y-91800000D01*
%TO.N,/UART5_TX*%
X146015000Y-86815000D02*
X146015000Y-85275000D01*
X150200000Y-91000000D02*
X146015000Y-86815000D01*
%TD*%
%TA.AperFunction,Conductor*%
%TO.N,+5V*%
G36*
X173508188Y-79501078D02*
G01*
X173612963Y-79514872D01*
X173644735Y-79523385D01*
X173734674Y-79560639D01*
X173763160Y-79577086D01*
X173840393Y-79636349D01*
X173863651Y-79659607D01*
X173922914Y-79736840D01*
X173939361Y-79765326D01*
X173976615Y-79855265D01*
X173985128Y-79887037D01*
X173998922Y-79991812D01*
X174000000Y-80008258D01*
X174000000Y-81991742D01*
X173998922Y-82008188D01*
X173985128Y-82112963D01*
X173976615Y-82144735D01*
X173939361Y-82234674D01*
X173922914Y-82263160D01*
X173863651Y-82340393D01*
X173840393Y-82363651D01*
X173763160Y-82422914D01*
X173734674Y-82439361D01*
X173644735Y-82476615D01*
X173612963Y-82485128D01*
X173508188Y-82498922D01*
X173491742Y-82500000D01*
X171508258Y-82500000D01*
X171491812Y-82498922D01*
X171387037Y-82485128D01*
X171355265Y-82476615D01*
X171265326Y-82439361D01*
X171236840Y-82422914D01*
X171159607Y-82363651D01*
X171136349Y-82340393D01*
X171077086Y-82263160D01*
X171060639Y-82234674D01*
X171023385Y-82144735D01*
X171014872Y-82112963D01*
X171001078Y-82008188D01*
X171000000Y-81991742D01*
X171000000Y-80008258D01*
X171001078Y-79991812D01*
X171014872Y-79887037D01*
X171023385Y-79855265D01*
X171060639Y-79765326D01*
X171077086Y-79736840D01*
X171136349Y-79659607D01*
X171159607Y-79636349D01*
X171236840Y-79577086D01*
X171265326Y-79560639D01*
X171355265Y-79523385D01*
X171387037Y-79514872D01*
X171491812Y-79501078D01*
X171508258Y-79500000D01*
X173491742Y-79500000D01*
X173508188Y-79501078D01*
G37*
%TD.AperFunction*%
%TD*%
M02*
