M48
; DRILL file {KiCad (6.0.9)} date 2022년 11월 01일 (화) 오전 12시 51분 48초
; FORMAT={-:-/ absolute / inch / decimal}
; #@! TF.CreationDate,2022-11-01T00:51:48+09:00
; #@! TF.GenerationSoftware,Kicad,Pcbnew,(6.0.9)
; #@! TF.FileFunction,Plated,1,4,PTH
FMAT,2
INCH
; #@! TA.AperFunction,Plated,PTH,ViaDrill
T1C0.0118
; #@! TA.AperFunction,Plated,PTH,ViaDrill
T2C0.0157
; #@! TA.AperFunction,Plated,PTH,ViaDrill
T3C0.0197
; #@! TA.AperFunction,Plated,PTH,ComponentDrill
T4C0.0236
; #@! TA.AperFunction,Plated,PTH,ComponentDrill
T5C0.0335
; #@! TA.AperFunction,Plated,PTH,ComponentDrill
T6C0.0394
%
G90
G05
T1
X5.3189Y-3.6969
X5.3189Y-3.8228
X5.3189Y-3.8898
X5.3189Y-3.9567
X5.4685Y-3.9961
X5.4685Y-4.0354
X5.5374Y-3.6594
X5.5669Y-4.4016
X5.5669Y-4.4409
X5.5768Y-3.8976
X5.5787Y-4.2087
X5.5906Y-3.6614
X5.5906Y-3.7008
X5.6614Y-4.3386
X5.6693Y-4.4843
X5.6929Y-4.2087
X5.7047Y-4.4134
X5.7362Y-3.4803
X5.7382Y-4.5591
X5.748Y-3.5315
X5.748Y-3.9764
X5.7677Y-4.2815
X5.7776Y-4.5591
X5.7795Y-4.3346
X5.7874Y-3.5315
X5.7874Y-3.9764
X5.8071Y-4.2815
X5.8268Y-3.9764
X5.8583Y-4.4331
X5.8661Y-4.5669
X5.9055Y-3.8189
X5.9055Y-3.9764
X5.9134Y-3.5827
X5.9173Y-4.2185
X5.9173Y-4.2598
X5.9252Y-4.4291
X5.9685Y-4.2953
X5.9734Y-4.2402
X5.9843Y-3.6142
X6.0Y-4.5276
X6.0079Y-4.2165
X6.0079Y-4.2953
X6.0335Y-3.8189
X6.0524Y-3.462
X6.0594Y-3.3465
X6.063Y-3.4252
X6.0669Y-4.2815
X6.1063Y-4.2815
X6.1181Y-4.4094
X6.1181Y-4.4488
X6.1417Y-3.6063
X6.1524Y-3.462
X6.1693Y-3.2185
X6.189Y-3.8976
X6.2205Y-4.5728
X6.2362Y-4.1732
X6.2402Y-4.4291
X6.25Y-3.7362
X6.25Y-3.7756
X6.2598Y-4.5728
X6.2795Y-3.3268
X6.3504Y-3.3622
X6.378Y-4.4094
X6.378Y-4.4488
X6.4055Y-4.0807
X6.4449Y-4.3189
X6.4764Y-3.7244
X6.6142Y-3.7894
X6.6732Y-4.1929
X6.6732Y-4.252
X6.7323Y-4.1929
X6.7323Y-4.252
X6.7421Y-3.7933
X6.7913Y-4.2323
X6.815Y-4.1457
X6.8504Y-4.0984
X6.8819Y-4.061
X6.9134Y-4.0984
T2
X5.0669Y-4.2067
X6.752Y-3.4055
X6.752Y-3.4843
X6.7913Y-3.4449
X6.8307Y-3.4055
X6.8307Y-3.4843
T3
X6.4961Y-3.9173
X6.752Y-3.1496
X6.752Y-3.2283
X6.8307Y-3.1496
X6.8307Y-3.2283
T5
X6.7928Y-3.7461
X6.7928Y-3.9429
T6
X5.6486Y-3.2573
X5.6486Y-3.3573
X5.7486Y-3.2573
X5.7486Y-3.3573
X5.8343Y-4.7425
X5.8343Y-4.8425
X5.8343Y-4.9425
X5.8486Y-3.2573
X5.8486Y-3.3573
X5.9343Y-4.7425
X5.9343Y-4.8425
X5.9343Y-4.9425
X6.0343Y-4.7425
X6.0343Y-4.8425
X6.0343Y-4.9425
X6.1343Y-4.7425
X6.1343Y-4.8425
X6.1343Y-4.9425
X6.3376Y-3.622
X6.4376Y-3.622
X6.5376Y-3.622
T4
G00X6.8853Y-3.7067
M15
G01X6.9129Y-3.7067
M16
G05
G00X6.9129Y-3.9823
M15
G01X6.8853Y-3.9823
M16
G05
T0
M30
