%TF.GenerationSoftware,KiCad,Pcbnew,(6.0.9)*%
%TF.CreationDate,2022-11-01T00:51:48+09:00*%
%TF.ProjectId,STM32-FC,53544d33-322d-4464-932e-6b696361645f,rev?*%
%TF.SameCoordinates,Original*%
%TF.FileFunction,Copper,L3,Inr*%
%TF.FilePolarity,Positive*%
%FSLAX46Y46*%
G04 Gerber Fmt 4.6, Leading zero omitted, Abs format (unit mm)*
G04 Created by KiCad (PCBNEW (6.0.9)) date 2022-11-01 00:51:48*
%MOMM*%
%LPD*%
G01*
G04 APERTURE LIST*
%TA.AperFunction,ComponentPad*%
%ADD10R,1.700000X1.700000*%
%TD*%
%TA.AperFunction,ComponentPad*%
%ADD11O,1.700000X1.700000*%
%TD*%
%TA.AperFunction,ComponentPad*%
%ADD12C,1.450000*%
%TD*%
%TA.AperFunction,ComponentPad*%
%ADD13O,1.900000X1.200000*%
%TD*%
%TA.AperFunction,ViaPad*%
%ADD14C,0.600000*%
%TD*%
%TA.AperFunction,ViaPad*%
%ADD15C,0.800000*%
%TD*%
%TA.AperFunction,ViaPad*%
%ADD16C,1.000000*%
%TD*%
G04 APERTURE END LIST*
D10*
%TO.N,/UART4_TX*%
%TO.C,J3*%
X143475000Y-85275000D03*
D11*
%TO.N,/UART4_RX*%
X143475000Y-82735000D03*
%TO.N,/UART5_TX*%
X146015000Y-85275000D03*
%TO.N,/UART5_RX*%
X146015000Y-82735000D03*
%TO.N,/UART6_TX*%
X148555000Y-85275000D03*
%TO.N,/UART6_RX*%
X148555000Y-82735000D03*
%TD*%
D12*
%TO.N,unconnected-(J1-Pad6)*%
%TO.C,J1*%
X172537500Y-95150000D03*
D13*
X175237500Y-101150000D03*
D12*
X172537500Y-100150000D03*
D13*
X175237500Y-94150000D03*
%TD*%
D10*
%TO.N,/TIM5_CH1*%
%TO.C,J4*%
X148190000Y-120460000D03*
D11*
%TO.N,/TIM5_CH2*%
X150730000Y-120460000D03*
%TO.N,/TIM5_CH3*%
X153270000Y-120460000D03*
%TO.N,/TIM5_CH4*%
X155810000Y-120460000D03*
%TO.N,/PWM_5V*%
X150730000Y-123000000D03*
X148190000Y-123000000D03*
X153270000Y-123000000D03*
X155810000Y-123000000D03*
%TO.N,GND*%
X150730000Y-125540000D03*
X155810000Y-125540000D03*
X148190000Y-125540000D03*
X153270000Y-125540000D03*
%TD*%
D10*
%TO.N,/UART1_RX_INV*%
%TO.C,J2*%
X160975000Y-92000000D03*
D11*
%TO.N,+5V*%
X163515000Y-92000000D03*
%TO.N,GND*%
X166055000Y-92000000D03*
%TD*%
D14*
%TO.N,/SPI1_SCK*%
X149000000Y-116000000D03*
%TO.N,/GYRO_NSS*%
X150300000Y-107150000D03*
%TO.N,/ACC_NSS*%
X150300000Y-108200000D03*
%TO.N,GND*%
X142000000Y-93000000D03*
X163700000Y-109700000D03*
D15*
X173500000Y-88500000D03*
D14*
X173100000Y-105300000D03*
X155400000Y-113000000D03*
X145750000Y-115800000D03*
X147000000Y-89700000D03*
D15*
X171500000Y-86500000D03*
D14*
X175600000Y-104100000D03*
X162000000Y-113000000D03*
X174000000Y-104100000D03*
X162700000Y-103650000D03*
X156000000Y-91600000D03*
X152600000Y-109100000D03*
X145700000Y-88400000D03*
X146500000Y-108750000D03*
D15*
X172500000Y-87500000D03*
D14*
X140650000Y-92950000D03*
X155100000Y-108750000D03*
X141650000Y-99000000D03*
X152400000Y-115000000D03*
X171250000Y-96350000D03*
X161300000Y-85400000D03*
X135100000Y-93900000D03*
X174800000Y-103150000D03*
X168000000Y-96250000D03*
D15*
X171500000Y-88500000D03*
D14*
X158400000Y-106000000D03*
X141400000Y-112800000D03*
X158750000Y-94900000D03*
D15*
X128700000Y-106850000D03*
X173500000Y-86500000D03*
D14*
X158000000Y-116150000D03*
X138900000Y-101500000D03*
X153730000Y-87935000D03*
%TO.N,/NRST*%
X150000000Y-97000000D03*
X154000000Y-87000000D03*
D16*
%TO.N,+5V*%
X165000000Y-99500000D03*
X173500000Y-82000000D03*
X173500000Y-80000000D03*
X171500000Y-82000000D03*
X171500000Y-80000000D03*
D14*
%TO.N,/UART1_RX*%
X157200000Y-99000000D03*
X159500000Y-84500000D03*
%TO.N,+3.3V*%
X142000000Y-94000000D03*
X156700000Y-81750000D03*
X138900000Y-102500000D03*
X155400000Y-112000000D03*
X169500000Y-106500000D03*
X146750000Y-115800000D03*
X156270000Y-87935000D03*
X171000000Y-108000000D03*
X147500000Y-108750000D03*
X171000000Y-106500000D03*
X146000000Y-89700000D03*
X151600000Y-109100000D03*
X164500000Y-94600000D03*
X153910000Y-85000000D03*
X141400000Y-111800000D03*
X158750000Y-95900000D03*
X169500000Y-108000000D03*
X172500000Y-107500000D03*
X154100000Y-108750000D03*
X159000000Y-116150000D03*
X162000000Y-112000000D03*
%TO.N,/LED_RED*%
X135100000Y-100500000D03*
X148000000Y-101000000D03*
%TO.N,/LED_GREEN*%
X135100000Y-98800000D03*
X147000000Y-101000000D03*
%TO.N,/LED_BLUE*%
X146000000Y-101000000D03*
X135100000Y-97100000D03*
%TO.N,/TIM5_CH4*%
X141700000Y-106900000D03*
X144600000Y-106900000D03*
%TO.N,/SPI1_SCK*%
X143800000Y-110200000D03*
X148800000Y-112600000D03*
X144900000Y-112100000D03*
%TO.N,/ACC_NSS*%
X146800000Y-110100000D03*
%TO.N,/GYRO_NSS*%
X144000000Y-113900000D03*
%TO.N,/MAG_NSS*%
X150500000Y-112500000D03*
X151725000Y-107700000D03*
%TO.N,/BARO_NSS*%
X152600000Y-107100000D03*
X158500000Y-112500000D03*
%TO.N,/UART6_TX*%
X150000000Y-101000000D03*
%TO.N,/UART6_RX*%
X153250000Y-97000000D03*
X152000000Y-91800000D03*
%TO.N,/UART5_TX*%
X150200000Y-91000000D03*
%TD*%
%TA.AperFunction,Conductor*%
%TO.N,+3.3V*%
G36*
X172487103Y-72756921D02*
G01*
X172500000Y-72759486D01*
X172512170Y-72757065D01*
X172522599Y-72757065D01*
X172535735Y-72756060D01*
X172856412Y-72770061D01*
X172908103Y-72772318D01*
X172919051Y-72773276D01*
X173318604Y-72825878D01*
X173329413Y-72827785D01*
X173722854Y-72915008D01*
X173733471Y-72917853D01*
X174117813Y-73039036D01*
X174128128Y-73042789D01*
X174500468Y-73197017D01*
X174510412Y-73201655D01*
X174795219Y-73349916D01*
X174867867Y-73387734D01*
X174877387Y-73393230D01*
X175217262Y-73609755D01*
X175226266Y-73616059D01*
X175545993Y-73861393D01*
X175554397Y-73868445D01*
X175630501Y-73938182D01*
X175851519Y-74140709D01*
X175859291Y-74148481D01*
X175970515Y-74269860D01*
X176131555Y-74445603D01*
X176138607Y-74454007D01*
X176268743Y-74623604D01*
X176383941Y-74773734D01*
X176390245Y-74782738D01*
X176606770Y-75122613D01*
X176612266Y-75132133D01*
X176798341Y-75489579D01*
X176802987Y-75499541D01*
X176957208Y-75871865D01*
X176960967Y-75882194D01*
X177082147Y-76266528D01*
X177084992Y-76277146D01*
X177172214Y-76670579D01*
X177174123Y-76681404D01*
X177226724Y-77080948D01*
X177227682Y-77091898D01*
X177243940Y-77464265D01*
X177242935Y-77477401D01*
X177242935Y-77487830D01*
X177240514Y-77500000D01*
X177242935Y-77512170D01*
X177243079Y-77512894D01*
X177245500Y-77537476D01*
X177245500Y-93555333D01*
X177225498Y-93623454D01*
X177213674Y-93639043D01*
X176664731Y-94256604D01*
X176604524Y-94294229D01*
X176533533Y-94293332D01*
X176474297Y-94254196D01*
X176445623Y-94189247D01*
X176444730Y-94179489D01*
X176436339Y-94019389D01*
X176435982Y-94012576D01*
X176434172Y-94006004D01*
X176434171Y-94005999D01*
X176388492Y-93840165D01*
X176386679Y-93833583D01*
X176300090Y-93669352D01*
X176180255Y-93527546D01*
X176174830Y-93523398D01*
X176038185Y-93418925D01*
X176038181Y-93418923D01*
X176032764Y-93414781D01*
X176026584Y-93411899D01*
X176026582Y-93411898D01*
X175870677Y-93339198D01*
X175870674Y-93339197D01*
X175864500Y-93336318D01*
X175857852Y-93334832D01*
X175857849Y-93334831D01*
X175688349Y-93296944D01*
X175688350Y-93296944D01*
X175683312Y-93295818D01*
X175677624Y-93295500D01*
X174841115Y-93295500D01*
X174702927Y-93310512D01*
X174618506Y-93338923D01*
X174533436Y-93367552D01*
X174533434Y-93367553D01*
X174526965Y-93369730D01*
X174367823Y-93465351D01*
X174362866Y-93470039D01*
X174362863Y-93470041D01*
X174269631Y-93558207D01*
X174232928Y-93592916D01*
X174128572Y-93746471D01*
X174126039Y-93752805D01*
X174126037Y-93752808D01*
X174062158Y-93912516D01*
X174062157Y-93912521D01*
X174059624Y-93918853D01*
X174058510Y-93925580D01*
X174058509Y-93925585D01*
X174030416Y-94095282D01*
X174029301Y-94102019D01*
X174029658Y-94108836D01*
X174029658Y-94108840D01*
X174034330Y-94197981D01*
X174039018Y-94287424D01*
X174040828Y-94293996D01*
X174040829Y-94294001D01*
X174074336Y-94415645D01*
X174088321Y-94466417D01*
X174174910Y-94630648D01*
X174294745Y-94772454D01*
X174300168Y-94776601D01*
X174300170Y-94776602D01*
X174436815Y-94881075D01*
X174436819Y-94881077D01*
X174442236Y-94885219D01*
X174448416Y-94888101D01*
X174448418Y-94888102D01*
X174604323Y-94960802D01*
X174604326Y-94960803D01*
X174610500Y-94963682D01*
X174617148Y-94965168D01*
X174617151Y-94965169D01*
X174716211Y-94987311D01*
X174791688Y-95004182D01*
X174797376Y-95004500D01*
X175633885Y-95004500D01*
X175772073Y-94989488D01*
X175920624Y-94939495D01*
X175941564Y-94932448D01*
X175941566Y-94932447D01*
X175948035Y-94930270D01*
X176107177Y-94834649D01*
X176112134Y-94829961D01*
X176112137Y-94829959D01*
X176232927Y-94715732D01*
X176296164Y-94683460D01*
X176366811Y-94690500D01*
X176422437Y-94734616D01*
X176445500Y-94807280D01*
X176445500Y-100497110D01*
X176425498Y-100565231D01*
X176371842Y-100611724D01*
X176301568Y-100621828D01*
X176236988Y-100592334D01*
X176223262Y-100578438D01*
X176204038Y-100555689D01*
X176180255Y-100527546D01*
X176174830Y-100523398D01*
X176038185Y-100418925D01*
X176038181Y-100418923D01*
X176032764Y-100414781D01*
X176026584Y-100411899D01*
X176026582Y-100411898D01*
X175870677Y-100339198D01*
X175870674Y-100339197D01*
X175864500Y-100336318D01*
X175857852Y-100334832D01*
X175857849Y-100334831D01*
X175688349Y-100296944D01*
X175688350Y-100296944D01*
X175683312Y-100295818D01*
X175677624Y-100295500D01*
X174841115Y-100295500D01*
X174702927Y-100310512D01*
X174617689Y-100339198D01*
X174533436Y-100367552D01*
X174533434Y-100367553D01*
X174526965Y-100369730D01*
X174367823Y-100465351D01*
X174362866Y-100470039D01*
X174362863Y-100470041D01*
X174237886Y-100588227D01*
X174232928Y-100592916D01*
X174128572Y-100746471D01*
X174126039Y-100752805D01*
X174126037Y-100752808D01*
X174062158Y-100912516D01*
X174062157Y-100912521D01*
X174059624Y-100918853D01*
X174058510Y-100925580D01*
X174058509Y-100925585D01*
X174030416Y-101095282D01*
X174029301Y-101102019D01*
X174029658Y-101108836D01*
X174029658Y-101108840D01*
X174031940Y-101152380D01*
X174039018Y-101287424D01*
X174040828Y-101293996D01*
X174040829Y-101294001D01*
X174068780Y-101395474D01*
X174088321Y-101466417D01*
X174174910Y-101630648D01*
X174294745Y-101772454D01*
X174300168Y-101776601D01*
X174300170Y-101776602D01*
X174436815Y-101881075D01*
X174436819Y-101881077D01*
X174442236Y-101885219D01*
X174448416Y-101888101D01*
X174448418Y-101888102D01*
X174604323Y-101960802D01*
X174604326Y-101960803D01*
X174610500Y-101963682D01*
X174617148Y-101965168D01*
X174617151Y-101965169D01*
X174725950Y-101989488D01*
X174791688Y-102004182D01*
X174797376Y-102004500D01*
X175633885Y-102004500D01*
X175772073Y-101989488D01*
X175892710Y-101948889D01*
X175941564Y-101932448D01*
X175941566Y-101932447D01*
X175948035Y-101930270D01*
X176107177Y-101834649D01*
X176112134Y-101829961D01*
X176112137Y-101829959D01*
X176237114Y-101711773D01*
X176237116Y-101711771D01*
X176242072Y-101707084D01*
X176346428Y-101553529D01*
X176353012Y-101537068D01*
X176412842Y-101387484D01*
X176412843Y-101387479D01*
X176415376Y-101381147D01*
X176416490Y-101374420D01*
X176416491Y-101374415D01*
X176444584Y-101204718D01*
X176444584Y-101204715D01*
X176445699Y-101197981D01*
X176442910Y-101144754D01*
X176442180Y-101130831D01*
X176458589Y-101061757D01*
X176509738Y-101012520D01*
X176579387Y-100998752D01*
X176645423Y-101024825D01*
X176662181Y-101040527D01*
X177213674Y-101660957D01*
X177243981Y-101725160D01*
X177245500Y-101744667D01*
X177245500Y-122462524D01*
X177243079Y-122487103D01*
X177240514Y-122500000D01*
X177242935Y-122512170D01*
X177242935Y-122522599D01*
X177243940Y-122535735D01*
X177227682Y-122908102D01*
X177226724Y-122919051D01*
X177193982Y-123167755D01*
X177174123Y-123318596D01*
X177172215Y-123329413D01*
X177164193Y-123365602D01*
X177084992Y-123722854D01*
X177082147Y-123733471D01*
X176964150Y-124107712D01*
X176960967Y-124117806D01*
X176957211Y-124128128D01*
X176816604Y-124467585D01*
X176802987Y-124500459D01*
X176798345Y-124510412D01*
X176646341Y-124802409D01*
X176612266Y-124867867D01*
X176606770Y-124877387D01*
X176390245Y-125217262D01*
X176383941Y-125226266D01*
X176138607Y-125545993D01*
X176131555Y-125554397D01*
X176088185Y-125601727D01*
X175859291Y-125851519D01*
X175851519Y-125859291D01*
X175801993Y-125904674D01*
X175554397Y-126131555D01*
X175545993Y-126138607D01*
X175393434Y-126255669D01*
X175226266Y-126383941D01*
X175217262Y-126390245D01*
X174877387Y-126606770D01*
X174867868Y-126612265D01*
X174510412Y-126798345D01*
X174500468Y-126802983D01*
X174128128Y-126957211D01*
X174117813Y-126960964D01*
X173733472Y-127082147D01*
X173722855Y-127084992D01*
X173329413Y-127172215D01*
X173318604Y-127174122D01*
X172919052Y-127226724D01*
X172908103Y-127227682D01*
X172856412Y-127229939D01*
X172535735Y-127243940D01*
X172522599Y-127242935D01*
X172512170Y-127242935D01*
X172500000Y-127240514D01*
X172487103Y-127243079D01*
X172462524Y-127245500D01*
X127537476Y-127245500D01*
X127512897Y-127243079D01*
X127500000Y-127240514D01*
X127487830Y-127242935D01*
X127477401Y-127242935D01*
X127464265Y-127243940D01*
X127143588Y-127229939D01*
X127091897Y-127227682D01*
X127080948Y-127226724D01*
X126681396Y-127174122D01*
X126670587Y-127172215D01*
X126277145Y-127084992D01*
X126266528Y-127082147D01*
X125882187Y-126960964D01*
X125871872Y-126957211D01*
X125499532Y-126802983D01*
X125489588Y-126798345D01*
X125132132Y-126612265D01*
X125122613Y-126606770D01*
X124782738Y-126390245D01*
X124773734Y-126383941D01*
X124606566Y-126255669D01*
X124454007Y-126138607D01*
X124445603Y-126131555D01*
X124198007Y-125904674D01*
X124148481Y-125859291D01*
X124140709Y-125851519D01*
X123911815Y-125601727D01*
X123868445Y-125554397D01*
X123861393Y-125545993D01*
X123834514Y-125510964D01*
X147081148Y-125510964D01*
X147094424Y-125713522D01*
X147095845Y-125719118D01*
X147095846Y-125719123D01*
X147116119Y-125798945D01*
X147144392Y-125910269D01*
X147146809Y-125915512D01*
X147184010Y-125996208D01*
X147229377Y-126094616D01*
X147346533Y-126260389D01*
X147491938Y-126402035D01*
X147660720Y-126514812D01*
X147666023Y-126517090D01*
X147666026Y-126517092D01*
X147754707Y-126555192D01*
X147847228Y-126594942D01*
X147912555Y-126609724D01*
X148039579Y-126638467D01*
X148039584Y-126638468D01*
X148045216Y-126639742D01*
X148050987Y-126639969D01*
X148050989Y-126639969D01*
X148110756Y-126642317D01*
X148248053Y-126647712D01*
X148348499Y-126633148D01*
X148443231Y-126619413D01*
X148443236Y-126619412D01*
X148448945Y-126618584D01*
X148454409Y-126616729D01*
X148454414Y-126616728D01*
X148635693Y-126555192D01*
X148635698Y-126555190D01*
X148641165Y-126553334D01*
X148818276Y-126454147D01*
X148880934Y-126402035D01*
X148969913Y-126328031D01*
X148974345Y-126324345D01*
X149104147Y-126168276D01*
X149203334Y-125991165D01*
X149205190Y-125985698D01*
X149205192Y-125985693D01*
X149266728Y-125804414D01*
X149266729Y-125804409D01*
X149268584Y-125798945D01*
X149269412Y-125793236D01*
X149269413Y-125793231D01*
X149297179Y-125601727D01*
X149297712Y-125598053D01*
X149299232Y-125540000D01*
X149296564Y-125510964D01*
X149621148Y-125510964D01*
X149634424Y-125713522D01*
X149635845Y-125719118D01*
X149635846Y-125719123D01*
X149656119Y-125798945D01*
X149684392Y-125910269D01*
X149686809Y-125915512D01*
X149724010Y-125996208D01*
X149769377Y-126094616D01*
X149886533Y-126260389D01*
X150031938Y-126402035D01*
X150200720Y-126514812D01*
X150206023Y-126517090D01*
X150206026Y-126517092D01*
X150294707Y-126555192D01*
X150387228Y-126594942D01*
X150452555Y-126609724D01*
X150579579Y-126638467D01*
X150579584Y-126638468D01*
X150585216Y-126639742D01*
X150590987Y-126639969D01*
X150590989Y-126639969D01*
X150650756Y-126642317D01*
X150788053Y-126647712D01*
X150888499Y-126633148D01*
X150983231Y-126619413D01*
X150983236Y-126619412D01*
X150988945Y-126618584D01*
X150994409Y-126616729D01*
X150994414Y-126616728D01*
X151175693Y-126555192D01*
X151175698Y-126555190D01*
X151181165Y-126553334D01*
X151358276Y-126454147D01*
X151420934Y-126402035D01*
X151509913Y-126328031D01*
X151514345Y-126324345D01*
X151644147Y-126168276D01*
X151743334Y-125991165D01*
X151745190Y-125985698D01*
X151745192Y-125985693D01*
X151806728Y-125804414D01*
X151806729Y-125804409D01*
X151808584Y-125798945D01*
X151809412Y-125793236D01*
X151809413Y-125793231D01*
X151837179Y-125601727D01*
X151837712Y-125598053D01*
X151839232Y-125540000D01*
X151836564Y-125510964D01*
X152161148Y-125510964D01*
X152174424Y-125713522D01*
X152175845Y-125719118D01*
X152175846Y-125719123D01*
X152196119Y-125798945D01*
X152224392Y-125910269D01*
X152226809Y-125915512D01*
X152264010Y-125996208D01*
X152309377Y-126094616D01*
X152426533Y-126260389D01*
X152571938Y-126402035D01*
X152740720Y-126514812D01*
X152746023Y-126517090D01*
X152746026Y-126517092D01*
X152834707Y-126555192D01*
X152927228Y-126594942D01*
X152992555Y-126609724D01*
X153119579Y-126638467D01*
X153119584Y-126638468D01*
X153125216Y-126639742D01*
X153130987Y-126639969D01*
X153130989Y-126639969D01*
X153190756Y-126642317D01*
X153328053Y-126647712D01*
X153428499Y-126633148D01*
X153523231Y-126619413D01*
X153523236Y-126619412D01*
X153528945Y-126618584D01*
X153534409Y-126616729D01*
X153534414Y-126616728D01*
X153715693Y-126555192D01*
X153715698Y-126555190D01*
X153721165Y-126553334D01*
X153898276Y-126454147D01*
X153960934Y-126402035D01*
X154049913Y-126328031D01*
X154054345Y-126324345D01*
X154184147Y-126168276D01*
X154283334Y-125991165D01*
X154285190Y-125985698D01*
X154285192Y-125985693D01*
X154346728Y-125804414D01*
X154346729Y-125804409D01*
X154348584Y-125798945D01*
X154349412Y-125793236D01*
X154349413Y-125793231D01*
X154377179Y-125601727D01*
X154377712Y-125598053D01*
X154379232Y-125540000D01*
X154376564Y-125510964D01*
X154701148Y-125510964D01*
X154714424Y-125713522D01*
X154715845Y-125719118D01*
X154715846Y-125719123D01*
X154736119Y-125798945D01*
X154764392Y-125910269D01*
X154766809Y-125915512D01*
X154804010Y-125996208D01*
X154849377Y-126094616D01*
X154966533Y-126260389D01*
X155111938Y-126402035D01*
X155280720Y-126514812D01*
X155286023Y-126517090D01*
X155286026Y-126517092D01*
X155374707Y-126555192D01*
X155467228Y-126594942D01*
X155532555Y-126609724D01*
X155659579Y-126638467D01*
X155659584Y-126638468D01*
X155665216Y-126639742D01*
X155670987Y-126639969D01*
X155670989Y-126639969D01*
X155730756Y-126642317D01*
X155868053Y-126647712D01*
X155968499Y-126633148D01*
X156063231Y-126619413D01*
X156063236Y-126619412D01*
X156068945Y-126618584D01*
X156074409Y-126616729D01*
X156074414Y-126616728D01*
X156255693Y-126555192D01*
X156255698Y-126555190D01*
X156261165Y-126553334D01*
X156438276Y-126454147D01*
X156500934Y-126402035D01*
X156589913Y-126328031D01*
X156594345Y-126324345D01*
X156724147Y-126168276D01*
X156823334Y-125991165D01*
X156825190Y-125985698D01*
X156825192Y-125985693D01*
X156886728Y-125804414D01*
X156886729Y-125804409D01*
X156888584Y-125798945D01*
X156889412Y-125793236D01*
X156889413Y-125793231D01*
X156917179Y-125601727D01*
X156917712Y-125598053D01*
X156919232Y-125540000D01*
X156900658Y-125337859D01*
X156899090Y-125332299D01*
X156847125Y-125148046D01*
X156847124Y-125148044D01*
X156845557Y-125142487D01*
X156834978Y-125121033D01*
X156758331Y-124965609D01*
X156755776Y-124960428D01*
X156634320Y-124797779D01*
X156485258Y-124659987D01*
X156480375Y-124656906D01*
X156480371Y-124656903D01*
X156318464Y-124554748D01*
X156313581Y-124551667D01*
X156125039Y-124476446D01*
X156119379Y-124475320D01*
X156119375Y-124475319D01*
X155931613Y-124437971D01*
X155931610Y-124437971D01*
X155925946Y-124436844D01*
X155920171Y-124436768D01*
X155920167Y-124436768D01*
X155818793Y-124435441D01*
X155722971Y-124434187D01*
X155717274Y-124435166D01*
X155717273Y-124435166D01*
X155528607Y-124467585D01*
X155522910Y-124468564D01*
X155332463Y-124538824D01*
X155158010Y-124642612D01*
X155153670Y-124646418D01*
X155153666Y-124646421D01*
X155133723Y-124663911D01*
X155005392Y-124776455D01*
X154879720Y-124935869D01*
X154877031Y-124940980D01*
X154877029Y-124940983D01*
X154864073Y-124965609D01*
X154785203Y-125115515D01*
X154725007Y-125309378D01*
X154701148Y-125510964D01*
X154376564Y-125510964D01*
X154360658Y-125337859D01*
X154359090Y-125332299D01*
X154307125Y-125148046D01*
X154307124Y-125148044D01*
X154305557Y-125142487D01*
X154294978Y-125121033D01*
X154218331Y-124965609D01*
X154215776Y-124960428D01*
X154094320Y-124797779D01*
X153945258Y-124659987D01*
X153940375Y-124656906D01*
X153940371Y-124656903D01*
X153778464Y-124554748D01*
X153773581Y-124551667D01*
X153585039Y-124476446D01*
X153579379Y-124475320D01*
X153579375Y-124475319D01*
X153391613Y-124437971D01*
X153391610Y-124437971D01*
X153385946Y-124436844D01*
X153380171Y-124436768D01*
X153380167Y-124436768D01*
X153278793Y-124435441D01*
X153182971Y-124434187D01*
X153177274Y-124435166D01*
X153177273Y-124435166D01*
X152988607Y-124467585D01*
X152982910Y-124468564D01*
X152792463Y-124538824D01*
X152618010Y-124642612D01*
X152613670Y-124646418D01*
X152613666Y-124646421D01*
X152593723Y-124663911D01*
X152465392Y-124776455D01*
X152339720Y-124935869D01*
X152337031Y-124940980D01*
X152337029Y-124940983D01*
X152324073Y-124965609D01*
X152245203Y-125115515D01*
X152185007Y-125309378D01*
X152161148Y-125510964D01*
X151836564Y-125510964D01*
X151820658Y-125337859D01*
X151819090Y-125332299D01*
X151767125Y-125148046D01*
X151767124Y-125148044D01*
X151765557Y-125142487D01*
X151754978Y-125121033D01*
X151678331Y-124965609D01*
X151675776Y-124960428D01*
X151554320Y-124797779D01*
X151405258Y-124659987D01*
X151400375Y-124656906D01*
X151400371Y-124656903D01*
X151238464Y-124554748D01*
X151233581Y-124551667D01*
X151045039Y-124476446D01*
X151039379Y-124475320D01*
X151039375Y-124475319D01*
X150851613Y-124437971D01*
X150851610Y-124437971D01*
X150845946Y-124436844D01*
X150840171Y-124436768D01*
X150840167Y-124436768D01*
X150738793Y-124435441D01*
X150642971Y-124434187D01*
X150637274Y-124435166D01*
X150637273Y-124435166D01*
X150448607Y-124467585D01*
X150442910Y-124468564D01*
X150252463Y-124538824D01*
X150078010Y-124642612D01*
X150073670Y-124646418D01*
X150073666Y-124646421D01*
X150053723Y-124663911D01*
X149925392Y-124776455D01*
X149799720Y-124935869D01*
X149797031Y-124940980D01*
X149797029Y-124940983D01*
X149784073Y-124965609D01*
X149705203Y-125115515D01*
X149645007Y-125309378D01*
X149621148Y-125510964D01*
X149296564Y-125510964D01*
X149280658Y-125337859D01*
X149279090Y-125332299D01*
X149227125Y-125148046D01*
X149227124Y-125148044D01*
X149225557Y-125142487D01*
X149214978Y-125121033D01*
X149138331Y-124965609D01*
X149135776Y-124960428D01*
X149014320Y-124797779D01*
X148865258Y-124659987D01*
X148860375Y-124656906D01*
X148860371Y-124656903D01*
X148698464Y-124554748D01*
X148693581Y-124551667D01*
X148505039Y-124476446D01*
X148499379Y-124475320D01*
X148499375Y-124475319D01*
X148311613Y-124437971D01*
X148311610Y-124437971D01*
X148305946Y-124436844D01*
X148300171Y-124436768D01*
X148300167Y-124436768D01*
X148198793Y-124435441D01*
X148102971Y-124434187D01*
X148097274Y-124435166D01*
X148097273Y-124435166D01*
X147908607Y-124467585D01*
X147902910Y-124468564D01*
X147712463Y-124538824D01*
X147538010Y-124642612D01*
X147533670Y-124646418D01*
X147533666Y-124646421D01*
X147513723Y-124663911D01*
X147385392Y-124776455D01*
X147259720Y-124935869D01*
X147257031Y-124940980D01*
X147257029Y-124940983D01*
X147244073Y-124965609D01*
X147165203Y-125115515D01*
X147105007Y-125309378D01*
X147081148Y-125510964D01*
X123834514Y-125510964D01*
X123616059Y-125226266D01*
X123609755Y-125217262D01*
X123393230Y-124877387D01*
X123387734Y-124867867D01*
X123353659Y-124802409D01*
X123201655Y-124510412D01*
X123197013Y-124500459D01*
X123183397Y-124467585D01*
X123042789Y-124128128D01*
X123039033Y-124117806D01*
X123035851Y-124107712D01*
X122917853Y-123733471D01*
X122915008Y-123722854D01*
X122835807Y-123365602D01*
X122827785Y-123329413D01*
X122825877Y-123318596D01*
X122806019Y-123167755D01*
X122780111Y-122970964D01*
X147081148Y-122970964D01*
X147094424Y-123173522D01*
X147095845Y-123179118D01*
X147095846Y-123179123D01*
X147132653Y-123324047D01*
X147144392Y-123370269D01*
X147146809Y-123375512D01*
X147184010Y-123456208D01*
X147229377Y-123554616D01*
X147346533Y-123720389D01*
X147491938Y-123862035D01*
X147660720Y-123974812D01*
X147666023Y-123977090D01*
X147666026Y-123977092D01*
X147754707Y-124015192D01*
X147847228Y-124054942D01*
X147920244Y-124071464D01*
X148039579Y-124098467D01*
X148039584Y-124098468D01*
X148045216Y-124099742D01*
X148050987Y-124099969D01*
X148050989Y-124099969D01*
X148110756Y-124102317D01*
X148248053Y-124107712D01*
X148348499Y-124093148D01*
X148443231Y-124079413D01*
X148443236Y-124079412D01*
X148448945Y-124078584D01*
X148454409Y-124076729D01*
X148454414Y-124076728D01*
X148635693Y-124015192D01*
X148635698Y-124015190D01*
X148641165Y-124013334D01*
X148818276Y-123914147D01*
X148880934Y-123862035D01*
X148969913Y-123788031D01*
X148974345Y-123784345D01*
X149104147Y-123628276D01*
X149203334Y-123451165D01*
X149205190Y-123445698D01*
X149205192Y-123445693D01*
X149266728Y-123264414D01*
X149266729Y-123264409D01*
X149268584Y-123258945D01*
X149269412Y-123253236D01*
X149269413Y-123253231D01*
X149297179Y-123061727D01*
X149297712Y-123058053D01*
X149299232Y-123000000D01*
X149296564Y-122970964D01*
X149621148Y-122970964D01*
X149634424Y-123173522D01*
X149635845Y-123179118D01*
X149635846Y-123179123D01*
X149672653Y-123324047D01*
X149684392Y-123370269D01*
X149686809Y-123375512D01*
X149724010Y-123456208D01*
X149769377Y-123554616D01*
X149886533Y-123720389D01*
X150031938Y-123862035D01*
X150200720Y-123974812D01*
X150206023Y-123977090D01*
X150206026Y-123977092D01*
X150294707Y-124015192D01*
X150387228Y-124054942D01*
X150460244Y-124071464D01*
X150579579Y-124098467D01*
X150579584Y-124098468D01*
X150585216Y-124099742D01*
X150590987Y-124099969D01*
X150590989Y-124099969D01*
X150650756Y-124102317D01*
X150788053Y-124107712D01*
X150888499Y-124093148D01*
X150983231Y-124079413D01*
X150983236Y-124079412D01*
X150988945Y-124078584D01*
X150994409Y-124076729D01*
X150994414Y-124076728D01*
X151175693Y-124015192D01*
X151175698Y-124015190D01*
X151181165Y-124013334D01*
X151358276Y-123914147D01*
X151420934Y-123862035D01*
X151509913Y-123788031D01*
X151514345Y-123784345D01*
X151644147Y-123628276D01*
X151743334Y-123451165D01*
X151745190Y-123445698D01*
X151745192Y-123445693D01*
X151806728Y-123264414D01*
X151806729Y-123264409D01*
X151808584Y-123258945D01*
X151809412Y-123253236D01*
X151809413Y-123253231D01*
X151837179Y-123061727D01*
X151837712Y-123058053D01*
X151839232Y-123000000D01*
X151836564Y-122970964D01*
X152161148Y-122970964D01*
X152174424Y-123173522D01*
X152175845Y-123179118D01*
X152175846Y-123179123D01*
X152212653Y-123324047D01*
X152224392Y-123370269D01*
X152226809Y-123375512D01*
X152264010Y-123456208D01*
X152309377Y-123554616D01*
X152426533Y-123720389D01*
X152571938Y-123862035D01*
X152740720Y-123974812D01*
X152746023Y-123977090D01*
X152746026Y-123977092D01*
X152834707Y-124015192D01*
X152927228Y-124054942D01*
X153000244Y-124071464D01*
X153119579Y-124098467D01*
X153119584Y-124098468D01*
X153125216Y-124099742D01*
X153130987Y-124099969D01*
X153130989Y-124099969D01*
X153190756Y-124102317D01*
X153328053Y-124107712D01*
X153428499Y-124093148D01*
X153523231Y-124079413D01*
X153523236Y-124079412D01*
X153528945Y-124078584D01*
X153534409Y-124076729D01*
X153534414Y-124076728D01*
X153715693Y-124015192D01*
X153715698Y-124015190D01*
X153721165Y-124013334D01*
X153898276Y-123914147D01*
X153960934Y-123862035D01*
X154049913Y-123788031D01*
X154054345Y-123784345D01*
X154184147Y-123628276D01*
X154283334Y-123451165D01*
X154285190Y-123445698D01*
X154285192Y-123445693D01*
X154346728Y-123264414D01*
X154346729Y-123264409D01*
X154348584Y-123258945D01*
X154349412Y-123253236D01*
X154349413Y-123253231D01*
X154377179Y-123061727D01*
X154377712Y-123058053D01*
X154379232Y-123000000D01*
X154376564Y-122970964D01*
X154701148Y-122970964D01*
X154714424Y-123173522D01*
X154715845Y-123179118D01*
X154715846Y-123179123D01*
X154752653Y-123324047D01*
X154764392Y-123370269D01*
X154766809Y-123375512D01*
X154804010Y-123456208D01*
X154849377Y-123554616D01*
X154966533Y-123720389D01*
X155111938Y-123862035D01*
X155280720Y-123974812D01*
X155286023Y-123977090D01*
X155286026Y-123977092D01*
X155374707Y-124015192D01*
X155467228Y-124054942D01*
X155540244Y-124071464D01*
X155659579Y-124098467D01*
X155659584Y-124098468D01*
X155665216Y-124099742D01*
X155670987Y-124099969D01*
X155670989Y-124099969D01*
X155730756Y-124102317D01*
X155868053Y-124107712D01*
X155968499Y-124093148D01*
X156063231Y-124079413D01*
X156063236Y-124079412D01*
X156068945Y-124078584D01*
X156074409Y-124076729D01*
X156074414Y-124076728D01*
X156255693Y-124015192D01*
X156255698Y-124015190D01*
X156261165Y-124013334D01*
X156438276Y-123914147D01*
X156500934Y-123862035D01*
X156589913Y-123788031D01*
X156594345Y-123784345D01*
X156724147Y-123628276D01*
X156823334Y-123451165D01*
X156825190Y-123445698D01*
X156825192Y-123445693D01*
X156886728Y-123264414D01*
X156886729Y-123264409D01*
X156888584Y-123258945D01*
X156889412Y-123253236D01*
X156889413Y-123253231D01*
X156917179Y-123061727D01*
X156917712Y-123058053D01*
X156919232Y-123000000D01*
X156900658Y-122797859D01*
X156899090Y-122792299D01*
X156847125Y-122608046D01*
X156847124Y-122608044D01*
X156845557Y-122602487D01*
X156834978Y-122581033D01*
X156758331Y-122425609D01*
X156755776Y-122420428D01*
X156634320Y-122257779D01*
X156485258Y-122119987D01*
X156480375Y-122116906D01*
X156480371Y-122116903D01*
X156318464Y-122014748D01*
X156313581Y-122011667D01*
X156125039Y-121936446D01*
X156119379Y-121935320D01*
X156119375Y-121935319D01*
X155931613Y-121897971D01*
X155931610Y-121897971D01*
X155925946Y-121896844D01*
X155920171Y-121896768D01*
X155920167Y-121896768D01*
X155818793Y-121895441D01*
X155722971Y-121894187D01*
X155717274Y-121895166D01*
X155717273Y-121895166D01*
X155528607Y-121927585D01*
X155522910Y-121928564D01*
X155332463Y-121998824D01*
X155158010Y-122102612D01*
X155153670Y-122106418D01*
X155153666Y-122106421D01*
X155133723Y-122123911D01*
X155005392Y-122236455D01*
X154879720Y-122395869D01*
X154877031Y-122400980D01*
X154877029Y-122400983D01*
X154864073Y-122425609D01*
X154785203Y-122575515D01*
X154725007Y-122769378D01*
X154701148Y-122970964D01*
X154376564Y-122970964D01*
X154360658Y-122797859D01*
X154359090Y-122792299D01*
X154307125Y-122608046D01*
X154307124Y-122608044D01*
X154305557Y-122602487D01*
X154294978Y-122581033D01*
X154218331Y-122425609D01*
X154215776Y-122420428D01*
X154094320Y-122257779D01*
X153945258Y-122119987D01*
X153940375Y-122116906D01*
X153940371Y-122116903D01*
X153778464Y-122014748D01*
X153773581Y-122011667D01*
X153585039Y-121936446D01*
X153579379Y-121935320D01*
X153579375Y-121935319D01*
X153391613Y-121897971D01*
X153391610Y-121897971D01*
X153385946Y-121896844D01*
X153380171Y-121896768D01*
X153380167Y-121896768D01*
X153278793Y-121895441D01*
X153182971Y-121894187D01*
X153177274Y-121895166D01*
X153177273Y-121895166D01*
X152988607Y-121927585D01*
X152982910Y-121928564D01*
X152792463Y-121998824D01*
X152618010Y-122102612D01*
X152613670Y-122106418D01*
X152613666Y-122106421D01*
X152593723Y-122123911D01*
X152465392Y-122236455D01*
X152339720Y-122395869D01*
X152337031Y-122400980D01*
X152337029Y-122400983D01*
X152324073Y-122425609D01*
X152245203Y-122575515D01*
X152185007Y-122769378D01*
X152161148Y-122970964D01*
X151836564Y-122970964D01*
X151820658Y-122797859D01*
X151819090Y-122792299D01*
X151767125Y-122608046D01*
X151767124Y-122608044D01*
X151765557Y-122602487D01*
X151754978Y-122581033D01*
X151678331Y-122425609D01*
X151675776Y-122420428D01*
X151554320Y-122257779D01*
X151405258Y-122119987D01*
X151400375Y-122116906D01*
X151400371Y-122116903D01*
X151238464Y-122014748D01*
X151233581Y-122011667D01*
X151045039Y-121936446D01*
X151039379Y-121935320D01*
X151039375Y-121935319D01*
X150851613Y-121897971D01*
X150851610Y-121897971D01*
X150845946Y-121896844D01*
X150840171Y-121896768D01*
X150840167Y-121896768D01*
X150738793Y-121895441D01*
X150642971Y-121894187D01*
X150637274Y-121895166D01*
X150637273Y-121895166D01*
X150448607Y-121927585D01*
X150442910Y-121928564D01*
X150252463Y-121998824D01*
X150078010Y-122102612D01*
X150073670Y-122106418D01*
X150073666Y-122106421D01*
X150053723Y-122123911D01*
X149925392Y-122236455D01*
X149799720Y-122395869D01*
X149797031Y-122400980D01*
X149797029Y-122400983D01*
X149784073Y-122425609D01*
X149705203Y-122575515D01*
X149645007Y-122769378D01*
X149621148Y-122970964D01*
X149296564Y-122970964D01*
X149280658Y-122797859D01*
X149279090Y-122792299D01*
X149227125Y-122608046D01*
X149227124Y-122608044D01*
X149225557Y-122602487D01*
X149214978Y-122581033D01*
X149138331Y-122425609D01*
X149135776Y-122420428D01*
X149014320Y-122257779D01*
X148865258Y-122119987D01*
X148860375Y-122116906D01*
X148860371Y-122116903D01*
X148698464Y-122014748D01*
X148693581Y-122011667D01*
X148505039Y-121936446D01*
X148499379Y-121935320D01*
X148499375Y-121935319D01*
X148311613Y-121897971D01*
X148311610Y-121897971D01*
X148305946Y-121896844D01*
X148300171Y-121896768D01*
X148300167Y-121896768D01*
X148198793Y-121895441D01*
X148102971Y-121894187D01*
X148097274Y-121895166D01*
X148097273Y-121895166D01*
X147908607Y-121927585D01*
X147902910Y-121928564D01*
X147712463Y-121998824D01*
X147538010Y-122102612D01*
X147533670Y-122106418D01*
X147533666Y-122106421D01*
X147513723Y-122123911D01*
X147385392Y-122236455D01*
X147259720Y-122395869D01*
X147257031Y-122400980D01*
X147257029Y-122400983D01*
X147244073Y-122425609D01*
X147165203Y-122575515D01*
X147105007Y-122769378D01*
X147081148Y-122970964D01*
X122780111Y-122970964D01*
X122773276Y-122919051D01*
X122772318Y-122908102D01*
X122756060Y-122535735D01*
X122757065Y-122522599D01*
X122757065Y-122512170D01*
X122759486Y-122500000D01*
X122756921Y-122487103D01*
X122754500Y-122462524D01*
X122754500Y-119584933D01*
X147085500Y-119584933D01*
X147085501Y-121335066D01*
X147100266Y-121409301D01*
X147107161Y-121419620D01*
X147107162Y-121419622D01*
X147147516Y-121480015D01*
X147156516Y-121493484D01*
X147240699Y-121549734D01*
X147314933Y-121564500D01*
X148189858Y-121564500D01*
X149065066Y-121564499D01*
X149100818Y-121557388D01*
X149127126Y-121552156D01*
X149127128Y-121552155D01*
X149139301Y-121549734D01*
X149149621Y-121542839D01*
X149149622Y-121542838D01*
X149213168Y-121500377D01*
X149223484Y-121493484D01*
X149279734Y-121409301D01*
X149294500Y-121335067D01*
X149294499Y-120430964D01*
X149621148Y-120430964D01*
X149634424Y-120633522D01*
X149635845Y-120639118D01*
X149635846Y-120639123D01*
X149656119Y-120718945D01*
X149684392Y-120830269D01*
X149686809Y-120835512D01*
X149724010Y-120916208D01*
X149769377Y-121014616D01*
X149886533Y-121180389D01*
X150031938Y-121322035D01*
X150200720Y-121434812D01*
X150206023Y-121437090D01*
X150206026Y-121437092D01*
X150337283Y-121493484D01*
X150387228Y-121514942D01*
X150460244Y-121531464D01*
X150579579Y-121558467D01*
X150579584Y-121558468D01*
X150585216Y-121559742D01*
X150590987Y-121559969D01*
X150590989Y-121559969D01*
X150650756Y-121562317D01*
X150788053Y-121567712D01*
X150895348Y-121552155D01*
X150983231Y-121539413D01*
X150983236Y-121539412D01*
X150988945Y-121538584D01*
X150994409Y-121536729D01*
X150994414Y-121536728D01*
X151175693Y-121475192D01*
X151175698Y-121475190D01*
X151181165Y-121473334D01*
X151358276Y-121374147D01*
X151397969Y-121341135D01*
X151509913Y-121248031D01*
X151514345Y-121244345D01*
X151644147Y-121088276D01*
X151743334Y-120911165D01*
X151745190Y-120905698D01*
X151745192Y-120905693D01*
X151806728Y-120724414D01*
X151806729Y-120724409D01*
X151808584Y-120718945D01*
X151809412Y-120713236D01*
X151809413Y-120713231D01*
X151837179Y-120521727D01*
X151837712Y-120518053D01*
X151839232Y-120460000D01*
X151836564Y-120430964D01*
X152161148Y-120430964D01*
X152174424Y-120633522D01*
X152175845Y-120639118D01*
X152175846Y-120639123D01*
X152196119Y-120718945D01*
X152224392Y-120830269D01*
X152226809Y-120835512D01*
X152264010Y-120916208D01*
X152309377Y-121014616D01*
X152426533Y-121180389D01*
X152571938Y-121322035D01*
X152740720Y-121434812D01*
X152746023Y-121437090D01*
X152746026Y-121437092D01*
X152877283Y-121493484D01*
X152927228Y-121514942D01*
X153000244Y-121531464D01*
X153119579Y-121558467D01*
X153119584Y-121558468D01*
X153125216Y-121559742D01*
X153130987Y-121559969D01*
X153130989Y-121559969D01*
X153190756Y-121562317D01*
X153328053Y-121567712D01*
X153435348Y-121552155D01*
X153523231Y-121539413D01*
X153523236Y-121539412D01*
X153528945Y-121538584D01*
X153534409Y-121536729D01*
X153534414Y-121536728D01*
X153715693Y-121475192D01*
X153715698Y-121475190D01*
X153721165Y-121473334D01*
X153898276Y-121374147D01*
X153937969Y-121341135D01*
X154049913Y-121248031D01*
X154054345Y-121244345D01*
X154184147Y-121088276D01*
X154283334Y-120911165D01*
X154285190Y-120905698D01*
X154285192Y-120905693D01*
X154346728Y-120724414D01*
X154346729Y-120724409D01*
X154348584Y-120718945D01*
X154349412Y-120713236D01*
X154349413Y-120713231D01*
X154377179Y-120521727D01*
X154377712Y-120518053D01*
X154379232Y-120460000D01*
X154376564Y-120430964D01*
X154701148Y-120430964D01*
X154714424Y-120633522D01*
X154715845Y-120639118D01*
X154715846Y-120639123D01*
X154736119Y-120718945D01*
X154764392Y-120830269D01*
X154766809Y-120835512D01*
X154804010Y-120916208D01*
X154849377Y-121014616D01*
X154966533Y-121180389D01*
X155111938Y-121322035D01*
X155280720Y-121434812D01*
X155286023Y-121437090D01*
X155286026Y-121437092D01*
X155417283Y-121493484D01*
X155467228Y-121514942D01*
X155540244Y-121531464D01*
X155659579Y-121558467D01*
X155659584Y-121558468D01*
X155665216Y-121559742D01*
X155670987Y-121559969D01*
X155670989Y-121559969D01*
X155730756Y-121562317D01*
X155868053Y-121567712D01*
X155975348Y-121552155D01*
X156063231Y-121539413D01*
X156063236Y-121539412D01*
X156068945Y-121538584D01*
X156074409Y-121536729D01*
X156074414Y-121536728D01*
X156255693Y-121475192D01*
X156255698Y-121475190D01*
X156261165Y-121473334D01*
X156438276Y-121374147D01*
X156477969Y-121341135D01*
X156589913Y-121248031D01*
X156594345Y-121244345D01*
X156724147Y-121088276D01*
X156823334Y-120911165D01*
X156825190Y-120905698D01*
X156825192Y-120905693D01*
X156886728Y-120724414D01*
X156886729Y-120724409D01*
X156888584Y-120718945D01*
X156889412Y-120713236D01*
X156889413Y-120713231D01*
X156917179Y-120521727D01*
X156917712Y-120518053D01*
X156919232Y-120460000D01*
X156900658Y-120257859D01*
X156899090Y-120252299D01*
X156847125Y-120068046D01*
X156847124Y-120068044D01*
X156845557Y-120062487D01*
X156834978Y-120041033D01*
X156758331Y-119885609D01*
X156755776Y-119880428D01*
X156634320Y-119717779D01*
X156485258Y-119579987D01*
X156480375Y-119576906D01*
X156480371Y-119576903D01*
X156318464Y-119474748D01*
X156313581Y-119471667D01*
X156125039Y-119396446D01*
X156119379Y-119395320D01*
X156119375Y-119395319D01*
X155931613Y-119357971D01*
X155931610Y-119357971D01*
X155925946Y-119356844D01*
X155920171Y-119356768D01*
X155920167Y-119356768D01*
X155818793Y-119355441D01*
X155722971Y-119354187D01*
X155717274Y-119355166D01*
X155717273Y-119355166D01*
X155629397Y-119370266D01*
X155522910Y-119388564D01*
X155332463Y-119458824D01*
X155158010Y-119562612D01*
X155153670Y-119566418D01*
X155153666Y-119566421D01*
X155009733Y-119692648D01*
X155005392Y-119696455D01*
X154879720Y-119855869D01*
X154877031Y-119860980D01*
X154877029Y-119860983D01*
X154864073Y-119885609D01*
X154785203Y-120035515D01*
X154725007Y-120229378D01*
X154701148Y-120430964D01*
X154376564Y-120430964D01*
X154360658Y-120257859D01*
X154359090Y-120252299D01*
X154307125Y-120068046D01*
X154307124Y-120068044D01*
X154305557Y-120062487D01*
X154294978Y-120041033D01*
X154218331Y-119885609D01*
X154215776Y-119880428D01*
X154094320Y-119717779D01*
X153945258Y-119579987D01*
X153940375Y-119576906D01*
X153940371Y-119576903D01*
X153778464Y-119474748D01*
X153773581Y-119471667D01*
X153585039Y-119396446D01*
X153579379Y-119395320D01*
X153579375Y-119395319D01*
X153391613Y-119357971D01*
X153391610Y-119357971D01*
X153385946Y-119356844D01*
X153380171Y-119356768D01*
X153380167Y-119356768D01*
X153278793Y-119355441D01*
X153182971Y-119354187D01*
X153177274Y-119355166D01*
X153177273Y-119355166D01*
X153089397Y-119370266D01*
X152982910Y-119388564D01*
X152792463Y-119458824D01*
X152618010Y-119562612D01*
X152613670Y-119566418D01*
X152613666Y-119566421D01*
X152469733Y-119692648D01*
X152465392Y-119696455D01*
X152339720Y-119855869D01*
X152337031Y-119860980D01*
X152337029Y-119860983D01*
X152324073Y-119885609D01*
X152245203Y-120035515D01*
X152185007Y-120229378D01*
X152161148Y-120430964D01*
X151836564Y-120430964D01*
X151820658Y-120257859D01*
X151819090Y-120252299D01*
X151767125Y-120068046D01*
X151767124Y-120068044D01*
X151765557Y-120062487D01*
X151754978Y-120041033D01*
X151678331Y-119885609D01*
X151675776Y-119880428D01*
X151554320Y-119717779D01*
X151405258Y-119579987D01*
X151400375Y-119576906D01*
X151400371Y-119576903D01*
X151238464Y-119474748D01*
X151233581Y-119471667D01*
X151045039Y-119396446D01*
X151039379Y-119395320D01*
X151039375Y-119395319D01*
X150851613Y-119357971D01*
X150851610Y-119357971D01*
X150845946Y-119356844D01*
X150840171Y-119356768D01*
X150840167Y-119356768D01*
X150738793Y-119355441D01*
X150642971Y-119354187D01*
X150637274Y-119355166D01*
X150637273Y-119355166D01*
X150549397Y-119370266D01*
X150442910Y-119388564D01*
X150252463Y-119458824D01*
X150078010Y-119562612D01*
X150073670Y-119566418D01*
X150073666Y-119566421D01*
X149929733Y-119692648D01*
X149925392Y-119696455D01*
X149799720Y-119855869D01*
X149797031Y-119860980D01*
X149797029Y-119860983D01*
X149784073Y-119885609D01*
X149705203Y-120035515D01*
X149645007Y-120229378D01*
X149621148Y-120430964D01*
X149294499Y-120430964D01*
X149294499Y-119584934D01*
X149279734Y-119510699D01*
X149253654Y-119471667D01*
X149230377Y-119436832D01*
X149223484Y-119426516D01*
X149139301Y-119370266D01*
X149065067Y-119355500D01*
X148190142Y-119355500D01*
X147314934Y-119355501D01*
X147279182Y-119362612D01*
X147252874Y-119367844D01*
X147252872Y-119367845D01*
X147240699Y-119370266D01*
X147230379Y-119377161D01*
X147230378Y-119377162D01*
X147169985Y-119417516D01*
X147156516Y-119426516D01*
X147100266Y-119510699D01*
X147085500Y-119584933D01*
X122754500Y-119584933D01*
X122754500Y-115292186D01*
X132891018Y-115292186D01*
X132916579Y-115560100D01*
X132917664Y-115564534D01*
X132917665Y-115564540D01*
X132957660Y-115727986D01*
X132980547Y-115821518D01*
X133081583Y-116070963D01*
X133217569Y-116303210D01*
X133385658Y-116513395D01*
X133582327Y-116697113D01*
X133803457Y-116850516D01*
X134044416Y-116970391D01*
X134048750Y-116971812D01*
X134048753Y-116971813D01*
X134295823Y-117052807D01*
X134295829Y-117052808D01*
X134300156Y-117054227D01*
X134304647Y-117055007D01*
X134304648Y-117055007D01*
X134561538Y-117099611D01*
X134561546Y-117099612D01*
X134565319Y-117100267D01*
X134569156Y-117100458D01*
X134648777Y-117104422D01*
X134648785Y-117104422D01*
X134650348Y-117104500D01*
X134818374Y-117104500D01*
X134820642Y-117104335D01*
X134820654Y-117104335D01*
X134951457Y-117094844D01*
X135018425Y-117089985D01*
X135022880Y-117089001D01*
X135022883Y-117089001D01*
X135276770Y-117032947D01*
X135276772Y-117032946D01*
X135281226Y-117031963D01*
X135532900Y-116936613D01*
X135768172Y-116805931D01*
X135918367Y-116691306D01*
X135978491Y-116645421D01*
X135978495Y-116645417D01*
X135982116Y-116642654D01*
X136170249Y-116450203D01*
X136249513Y-116341306D01*
X136325942Y-116236304D01*
X136325947Y-116236297D01*
X136328630Y-116232610D01*
X136453941Y-115994433D01*
X136522603Y-115800000D01*
X145190715Y-115800000D01*
X145209772Y-115944754D01*
X145265645Y-116079642D01*
X145354526Y-116195474D01*
X145361076Y-116200500D01*
X145361079Y-116200503D01*
X145407736Y-116236304D01*
X145470357Y-116284355D01*
X145605246Y-116340228D01*
X145750000Y-116359285D01*
X145758188Y-116358207D01*
X145886566Y-116341306D01*
X145894754Y-116340228D01*
X146029643Y-116284355D01*
X146092264Y-116236304D01*
X146138921Y-116200503D01*
X146138924Y-116200500D01*
X146145474Y-116195474D01*
X146234355Y-116079642D01*
X146267344Y-116000000D01*
X148440715Y-116000000D01*
X148459772Y-116144754D01*
X148462931Y-116152380D01*
X148497694Y-116236304D01*
X148515645Y-116279642D01*
X148604526Y-116395474D01*
X148611076Y-116400500D01*
X148611079Y-116400503D01*
X148713804Y-116479327D01*
X148720357Y-116484355D01*
X148855246Y-116540228D01*
X149000000Y-116559285D01*
X149008188Y-116558207D01*
X149136566Y-116541306D01*
X149144754Y-116540228D01*
X149279643Y-116484355D01*
X149286196Y-116479327D01*
X149388921Y-116400503D01*
X149388924Y-116400500D01*
X149395474Y-116395474D01*
X149484355Y-116279642D01*
X149502307Y-116236304D01*
X149537069Y-116152380D01*
X149538055Y-116150000D01*
X157440715Y-116150000D01*
X157459772Y-116294754D01*
X157515645Y-116429642D01*
X157604526Y-116545474D01*
X157611076Y-116550500D01*
X157611079Y-116550503D01*
X157713804Y-116629327D01*
X157720357Y-116634355D01*
X157855246Y-116690228D01*
X158000000Y-116709285D01*
X158008188Y-116708207D01*
X158136566Y-116691306D01*
X158144754Y-116690228D01*
X158279643Y-116634355D01*
X158286196Y-116629327D01*
X158388921Y-116550503D01*
X158388924Y-116550500D01*
X158395474Y-116545474D01*
X158484355Y-116429642D01*
X158540228Y-116294754D01*
X158559285Y-116150000D01*
X158540228Y-116005246D01*
X158484355Y-115870358D01*
X158395474Y-115754526D01*
X158388924Y-115749500D01*
X158388921Y-115749497D01*
X158286196Y-115670673D01*
X158286194Y-115670672D01*
X158279643Y-115665645D01*
X158144754Y-115609772D01*
X158000000Y-115590715D01*
X157991812Y-115591793D01*
X157863432Y-115608694D01*
X157863430Y-115608695D01*
X157855246Y-115609772D01*
X157807430Y-115629578D01*
X157727986Y-115662485D01*
X157727984Y-115662486D01*
X157720358Y-115665645D01*
X157604526Y-115754526D01*
X157515645Y-115870358D01*
X157459772Y-116005246D01*
X157440715Y-116150000D01*
X149538055Y-116150000D01*
X149540228Y-116144754D01*
X149559285Y-116000000D01*
X149540228Y-115855246D01*
X149501222Y-115761077D01*
X149487515Y-115727986D01*
X149487514Y-115727984D01*
X149484355Y-115720358D01*
X149401924Y-115612932D01*
X149400501Y-115611077D01*
X149400500Y-115611076D01*
X149395474Y-115604526D01*
X149388924Y-115599500D01*
X149388921Y-115599497D01*
X149286196Y-115520673D01*
X149286194Y-115520672D01*
X149279643Y-115515645D01*
X149144754Y-115459772D01*
X149000000Y-115440715D01*
X148991812Y-115441793D01*
X148863432Y-115458694D01*
X148863430Y-115458695D01*
X148855246Y-115459772D01*
X148808037Y-115479327D01*
X148727986Y-115512485D01*
X148727984Y-115512486D01*
X148720358Y-115515645D01*
X148604526Y-115604526D01*
X148515645Y-115720358D01*
X148512486Y-115727984D01*
X148512485Y-115727986D01*
X148498778Y-115761077D01*
X148459772Y-115855246D01*
X148440715Y-116000000D01*
X146267344Y-116000000D01*
X146290228Y-115944754D01*
X146309285Y-115800000D01*
X146290228Y-115655246D01*
X146250033Y-115558207D01*
X146237515Y-115527986D01*
X146237514Y-115527984D01*
X146234355Y-115520358D01*
X146145474Y-115404526D01*
X146138924Y-115399500D01*
X146138921Y-115399497D01*
X146036196Y-115320673D01*
X146036194Y-115320672D01*
X146029643Y-115315645D01*
X145894754Y-115259772D01*
X145750000Y-115240715D01*
X145741812Y-115241793D01*
X145613432Y-115258694D01*
X145613430Y-115258695D01*
X145605246Y-115259772D01*
X145557430Y-115279578D01*
X145477986Y-115312485D01*
X145477984Y-115312486D01*
X145470358Y-115315645D01*
X145354526Y-115404526D01*
X145265645Y-115520358D01*
X145262486Y-115527984D01*
X145262485Y-115527986D01*
X145249967Y-115558207D01*
X145209772Y-115655246D01*
X145190715Y-115800000D01*
X136522603Y-115800000D01*
X136536348Y-115761077D01*
X136542034Y-115744975D01*
X136542034Y-115744974D01*
X136543557Y-115740662D01*
X136573111Y-115590715D01*
X136594720Y-115481083D01*
X136594721Y-115481077D01*
X136595601Y-115476611D01*
X136596493Y-115458694D01*
X136608755Y-115212383D01*
X136608755Y-115212377D01*
X136608982Y-115207814D01*
X136589155Y-115000000D01*
X151840715Y-115000000D01*
X151859772Y-115144754D01*
X151915645Y-115279642D01*
X152004526Y-115395474D01*
X152011076Y-115400500D01*
X152011079Y-115400503D01*
X152113804Y-115479327D01*
X152120357Y-115484355D01*
X152255246Y-115540228D01*
X152400000Y-115559285D01*
X152408188Y-115558207D01*
X152428386Y-115555548D01*
X152544754Y-115540228D01*
X152679643Y-115484355D01*
X152686196Y-115479327D01*
X152788921Y-115400503D01*
X152788924Y-115400500D01*
X152795474Y-115395474D01*
X152874730Y-115292186D01*
X163391018Y-115292186D01*
X163416579Y-115560100D01*
X163417664Y-115564534D01*
X163417665Y-115564540D01*
X163457660Y-115727986D01*
X163480547Y-115821518D01*
X163581583Y-116070963D01*
X163717569Y-116303210D01*
X163885658Y-116513395D01*
X164082327Y-116697113D01*
X164303457Y-116850516D01*
X164544416Y-116970391D01*
X164548750Y-116971812D01*
X164548753Y-116971813D01*
X164795823Y-117052807D01*
X164795829Y-117052808D01*
X164800156Y-117054227D01*
X164804647Y-117055007D01*
X164804648Y-117055007D01*
X165061538Y-117099611D01*
X165061546Y-117099612D01*
X165065319Y-117100267D01*
X165069156Y-117100458D01*
X165148777Y-117104422D01*
X165148785Y-117104422D01*
X165150348Y-117104500D01*
X165318374Y-117104500D01*
X165320642Y-117104335D01*
X165320654Y-117104335D01*
X165451457Y-117094844D01*
X165518425Y-117089985D01*
X165522880Y-117089001D01*
X165522883Y-117089001D01*
X165776770Y-117032947D01*
X165776772Y-117032946D01*
X165781226Y-117031963D01*
X166032900Y-116936613D01*
X166268172Y-116805931D01*
X166418367Y-116691306D01*
X166478491Y-116645421D01*
X166478495Y-116645417D01*
X166482116Y-116642654D01*
X166670249Y-116450203D01*
X166749513Y-116341306D01*
X166825942Y-116236304D01*
X166825947Y-116236297D01*
X166828630Y-116232610D01*
X166953941Y-115994433D01*
X167036348Y-115761077D01*
X167042034Y-115744975D01*
X167042034Y-115744974D01*
X167043557Y-115740662D01*
X167073111Y-115590715D01*
X167094720Y-115481083D01*
X167094721Y-115481077D01*
X167095601Y-115476611D01*
X167096493Y-115458694D01*
X167108755Y-115212383D01*
X167108755Y-115212377D01*
X167108982Y-115207814D01*
X167083421Y-114939900D01*
X167062707Y-114855246D01*
X167020539Y-114682920D01*
X167019453Y-114678482D01*
X166918417Y-114429037D01*
X166782431Y-114196790D01*
X166614342Y-113986605D01*
X166417673Y-113802887D01*
X166196543Y-113649484D01*
X165955584Y-113529609D01*
X165951250Y-113528188D01*
X165951247Y-113528187D01*
X165704177Y-113447193D01*
X165704171Y-113447192D01*
X165699844Y-113445773D01*
X165695352Y-113444993D01*
X165438462Y-113400389D01*
X165438454Y-113400388D01*
X165434681Y-113399733D01*
X165424718Y-113399237D01*
X165351223Y-113395578D01*
X165351215Y-113395578D01*
X165349652Y-113395500D01*
X165181626Y-113395500D01*
X165179358Y-113395665D01*
X165179346Y-113395665D01*
X165048543Y-113405156D01*
X164981575Y-113410015D01*
X164977120Y-113410999D01*
X164977117Y-113410999D01*
X164723230Y-113467053D01*
X164723228Y-113467054D01*
X164718774Y-113468037D01*
X164467100Y-113563387D01*
X164231828Y-113694069D01*
X164228196Y-113696841D01*
X164021509Y-113854579D01*
X164021505Y-113854583D01*
X164017884Y-113857346D01*
X163829751Y-114049797D01*
X163827066Y-114053486D01*
X163674058Y-114263696D01*
X163674053Y-114263703D01*
X163671370Y-114267390D01*
X163546059Y-114505567D01*
X163456443Y-114759338D01*
X163455560Y-114763820D01*
X163410623Y-114991812D01*
X163404399Y-115023389D01*
X163404172Y-115027942D01*
X163404172Y-115027945D01*
X163392632Y-115259772D01*
X163391018Y-115292186D01*
X152874730Y-115292186D01*
X152884355Y-115279642D01*
X152940228Y-115144754D01*
X152959285Y-115000000D01*
X152940228Y-114855246D01*
X152884355Y-114720358D01*
X152795474Y-114604526D01*
X152788924Y-114599500D01*
X152788921Y-114599497D01*
X152686196Y-114520673D01*
X152686194Y-114520672D01*
X152679643Y-114515645D01*
X152544754Y-114459772D01*
X152400000Y-114440715D01*
X152391812Y-114441793D01*
X152263432Y-114458694D01*
X152263430Y-114458695D01*
X152255246Y-114459772D01*
X152207430Y-114479578D01*
X152127986Y-114512485D01*
X152127984Y-114512486D01*
X152120358Y-114515645D01*
X152004526Y-114604526D01*
X151915645Y-114720358D01*
X151859772Y-114855246D01*
X151840715Y-115000000D01*
X136589155Y-115000000D01*
X136583421Y-114939900D01*
X136562707Y-114855246D01*
X136520539Y-114682920D01*
X136519453Y-114678482D01*
X136418417Y-114429037D01*
X136282431Y-114196790D01*
X136114342Y-113986605D01*
X136021632Y-113900000D01*
X143440715Y-113900000D01*
X143441793Y-113908188D01*
X143452117Y-113986605D01*
X143459772Y-114044754D01*
X143515645Y-114179642D01*
X143604526Y-114295474D01*
X143611076Y-114300500D01*
X143611079Y-114300503D01*
X143713804Y-114379327D01*
X143720357Y-114384355D01*
X143855246Y-114440228D01*
X144000000Y-114459285D01*
X144008188Y-114458207D01*
X144136566Y-114441306D01*
X144144754Y-114440228D01*
X144279643Y-114384355D01*
X144286196Y-114379327D01*
X144388921Y-114300503D01*
X144388924Y-114300500D01*
X144395474Y-114295474D01*
X144484355Y-114179642D01*
X144540228Y-114044754D01*
X144547884Y-113986605D01*
X144558207Y-113908188D01*
X144559285Y-113900000D01*
X144553305Y-113854579D01*
X144541306Y-113763432D01*
X144541305Y-113763430D01*
X144540228Y-113755246D01*
X144513969Y-113691851D01*
X144487515Y-113627986D01*
X144487514Y-113627984D01*
X144484355Y-113620358D01*
X144395474Y-113504526D01*
X144388924Y-113499500D01*
X144388921Y-113499497D01*
X144286196Y-113420673D01*
X144286194Y-113420672D01*
X144279643Y-113415645D01*
X144144754Y-113359772D01*
X144000000Y-113340715D01*
X143991812Y-113341793D01*
X143863432Y-113358694D01*
X143863430Y-113358695D01*
X143855246Y-113359772D01*
X143807430Y-113379578D01*
X143727986Y-113412485D01*
X143727984Y-113412486D01*
X143720358Y-113415645D01*
X143604526Y-113504526D01*
X143515645Y-113620358D01*
X143512486Y-113627984D01*
X143512485Y-113627986D01*
X143486031Y-113691851D01*
X143459772Y-113755246D01*
X143458695Y-113763430D01*
X143458694Y-113763432D01*
X143446695Y-113854579D01*
X143440715Y-113900000D01*
X136021632Y-113900000D01*
X135917673Y-113802887D01*
X135696543Y-113649484D01*
X135455584Y-113529609D01*
X135451250Y-113528188D01*
X135451247Y-113528187D01*
X135204177Y-113447193D01*
X135204171Y-113447192D01*
X135199844Y-113445773D01*
X135195352Y-113444993D01*
X134938462Y-113400389D01*
X134938454Y-113400388D01*
X134934681Y-113399733D01*
X134924718Y-113399237D01*
X134851223Y-113395578D01*
X134851215Y-113395578D01*
X134849652Y-113395500D01*
X134681626Y-113395500D01*
X134679358Y-113395665D01*
X134679346Y-113395665D01*
X134548543Y-113405156D01*
X134481575Y-113410015D01*
X134477120Y-113410999D01*
X134477117Y-113410999D01*
X134223230Y-113467053D01*
X134223228Y-113467054D01*
X134218774Y-113468037D01*
X133967100Y-113563387D01*
X133731828Y-113694069D01*
X133728196Y-113696841D01*
X133521509Y-113854579D01*
X133521505Y-113854583D01*
X133517884Y-113857346D01*
X133329751Y-114049797D01*
X133327066Y-114053486D01*
X133174058Y-114263696D01*
X133174053Y-114263703D01*
X133171370Y-114267390D01*
X133046059Y-114505567D01*
X132956443Y-114759338D01*
X132955560Y-114763820D01*
X132910623Y-114991812D01*
X132904399Y-115023389D01*
X132904172Y-115027942D01*
X132904172Y-115027945D01*
X132892632Y-115259772D01*
X132891018Y-115292186D01*
X122754500Y-115292186D01*
X122754500Y-112800000D01*
X140840715Y-112800000D01*
X140859772Y-112944754D01*
X140862931Y-112952380D01*
X140907213Y-113059285D01*
X140915645Y-113079642D01*
X141004526Y-113195474D01*
X141011076Y-113200500D01*
X141011079Y-113200503D01*
X141104274Y-113272014D01*
X141120357Y-113284355D01*
X141255246Y-113340228D01*
X141400000Y-113359285D01*
X141408188Y-113358207D01*
X141536566Y-113341306D01*
X141544754Y-113340228D01*
X141679643Y-113284355D01*
X141695726Y-113272014D01*
X141788921Y-113200503D01*
X141788924Y-113200500D01*
X141795474Y-113195474D01*
X141884355Y-113079642D01*
X141892788Y-113059285D01*
X141937069Y-112952380D01*
X141940228Y-112944754D01*
X141959285Y-112800000D01*
X141940228Y-112655246D01*
X141884355Y-112520358D01*
X141795474Y-112404526D01*
X141788924Y-112399500D01*
X141788921Y-112399497D01*
X141686196Y-112320673D01*
X141686194Y-112320672D01*
X141679643Y-112315645D01*
X141544754Y-112259772D01*
X141400000Y-112240715D01*
X141391812Y-112241793D01*
X141263432Y-112258694D01*
X141263430Y-112258695D01*
X141255246Y-112259772D01*
X141207430Y-112279578D01*
X141127986Y-112312485D01*
X141127984Y-112312486D01*
X141120358Y-112315645D01*
X141004526Y-112404526D01*
X140915645Y-112520358D01*
X140859772Y-112655246D01*
X140840715Y-112800000D01*
X122754500Y-112800000D01*
X122754500Y-112100000D01*
X144340715Y-112100000D01*
X144341793Y-112108188D01*
X144355338Y-112211072D01*
X144359772Y-112244754D01*
X144362931Y-112252380D01*
X144408931Y-112363432D01*
X144415645Y-112379642D01*
X144504526Y-112495474D01*
X144511076Y-112500500D01*
X144511079Y-112500503D01*
X144613804Y-112579327D01*
X144620357Y-112584355D01*
X144755246Y-112640228D01*
X144900000Y-112659285D01*
X144908188Y-112658207D01*
X144930680Y-112655246D01*
X145044754Y-112640228D01*
X145141873Y-112600000D01*
X148240715Y-112600000D01*
X148259772Y-112744754D01*
X148262931Y-112752380D01*
X148308931Y-112863432D01*
X148315645Y-112879642D01*
X148404526Y-112995474D01*
X148411076Y-113000500D01*
X148411079Y-113000503D01*
X148487685Y-113059285D01*
X148520357Y-113084355D01*
X148655246Y-113140228D01*
X148800000Y-113159285D01*
X148808188Y-113158207D01*
X148936566Y-113141306D01*
X148944754Y-113140228D01*
X149079643Y-113084355D01*
X149112315Y-113059285D01*
X149188921Y-113000503D01*
X149188924Y-113000500D01*
X149195474Y-112995474D01*
X149284355Y-112879642D01*
X149291070Y-112863432D01*
X149337069Y-112752380D01*
X149340228Y-112744754D01*
X149359285Y-112600000D01*
X149348842Y-112520673D01*
X149346120Y-112500000D01*
X149940715Y-112500000D01*
X149941793Y-112508188D01*
X149955338Y-112611072D01*
X149959772Y-112644754D01*
X149965791Y-112659285D01*
X150004353Y-112752380D01*
X150015645Y-112779642D01*
X150031266Y-112800000D01*
X150092378Y-112879642D01*
X150104526Y-112895474D01*
X150111076Y-112900500D01*
X150111079Y-112900503D01*
X150213804Y-112979327D01*
X150220357Y-112984355D01*
X150355246Y-113040228D01*
X150500000Y-113059285D01*
X150508188Y-113058207D01*
X150636566Y-113041306D01*
X150644754Y-113040228D01*
X150741873Y-113000000D01*
X154840715Y-113000000D01*
X154859772Y-113144754D01*
X154915645Y-113279642D01*
X155004526Y-113395474D01*
X155011076Y-113400500D01*
X155011079Y-113400503D01*
X155099091Y-113468037D01*
X155120357Y-113484355D01*
X155255246Y-113540228D01*
X155400000Y-113559285D01*
X155408188Y-113558207D01*
X155536566Y-113541306D01*
X155544754Y-113540228D01*
X155679643Y-113484355D01*
X155700909Y-113468037D01*
X155788921Y-113400503D01*
X155788924Y-113400500D01*
X155795474Y-113395474D01*
X155884355Y-113279642D01*
X155940228Y-113144754D01*
X155959285Y-113000000D01*
X155940228Y-112855246D01*
X155911625Y-112786193D01*
X155887515Y-112727986D01*
X155887514Y-112727984D01*
X155884355Y-112720358D01*
X155795474Y-112604526D01*
X155788924Y-112599500D01*
X155788921Y-112599497D01*
X155686196Y-112520673D01*
X155686194Y-112520672D01*
X155679643Y-112515645D01*
X155641873Y-112500000D01*
X157940715Y-112500000D01*
X157941793Y-112508188D01*
X157955338Y-112611072D01*
X157959772Y-112644754D01*
X157965791Y-112659285D01*
X158004353Y-112752380D01*
X158015645Y-112779642D01*
X158031266Y-112800000D01*
X158092378Y-112879642D01*
X158104526Y-112895474D01*
X158111076Y-112900500D01*
X158111079Y-112900503D01*
X158213804Y-112979327D01*
X158220357Y-112984355D01*
X158355246Y-113040228D01*
X158500000Y-113059285D01*
X158508188Y-113058207D01*
X158636566Y-113041306D01*
X158644754Y-113040228D01*
X158741873Y-113000000D01*
X161440715Y-113000000D01*
X161459772Y-113144754D01*
X161515645Y-113279642D01*
X161604526Y-113395474D01*
X161611076Y-113400500D01*
X161611079Y-113400503D01*
X161699091Y-113468037D01*
X161720357Y-113484355D01*
X161855246Y-113540228D01*
X162000000Y-113559285D01*
X162008188Y-113558207D01*
X162136566Y-113541306D01*
X162144754Y-113540228D01*
X162279643Y-113484355D01*
X162300909Y-113468037D01*
X162388921Y-113400503D01*
X162388924Y-113400500D01*
X162395474Y-113395474D01*
X162484355Y-113279642D01*
X162540228Y-113144754D01*
X162559285Y-113000000D01*
X162540228Y-112855246D01*
X162511625Y-112786193D01*
X162487515Y-112727986D01*
X162487514Y-112727984D01*
X162484355Y-112720358D01*
X162395474Y-112604526D01*
X162388924Y-112599500D01*
X162388921Y-112599497D01*
X162286196Y-112520673D01*
X162286194Y-112520672D01*
X162279643Y-112515645D01*
X162144754Y-112459772D01*
X162000000Y-112440715D01*
X161991812Y-112441793D01*
X161863432Y-112458694D01*
X161863430Y-112458695D01*
X161855246Y-112459772D01*
X161846410Y-112463432D01*
X161727986Y-112512485D01*
X161727984Y-112512486D01*
X161720358Y-112515645D01*
X161604526Y-112604526D01*
X161515645Y-112720358D01*
X161512486Y-112727984D01*
X161512485Y-112727986D01*
X161488375Y-112786193D01*
X161459772Y-112855246D01*
X161440715Y-113000000D01*
X158741873Y-113000000D01*
X158779643Y-112984355D01*
X158786196Y-112979327D01*
X158888921Y-112900503D01*
X158888924Y-112900500D01*
X158895474Y-112895474D01*
X158907623Y-112879642D01*
X158968734Y-112800000D01*
X158984355Y-112779642D01*
X158995648Y-112752380D01*
X159034209Y-112659285D01*
X159040228Y-112644754D01*
X159044663Y-112611072D01*
X159058207Y-112508188D01*
X159059285Y-112500000D01*
X159046716Y-112404526D01*
X159041306Y-112363432D01*
X159041305Y-112363430D01*
X159040228Y-112355246D01*
X159001990Y-112262932D01*
X158987515Y-112227986D01*
X158987514Y-112227984D01*
X158984355Y-112220358D01*
X158895474Y-112104526D01*
X158888924Y-112099500D01*
X158888921Y-112099497D01*
X158786196Y-112020673D01*
X158786194Y-112020672D01*
X158779643Y-112015645D01*
X158644754Y-111959772D01*
X158500000Y-111940715D01*
X158491812Y-111941793D01*
X158363432Y-111958694D01*
X158363430Y-111958695D01*
X158355246Y-111959772D01*
X158346410Y-111963432D01*
X158227986Y-112012485D01*
X158227984Y-112012486D01*
X158220358Y-112015645D01*
X158104526Y-112104526D01*
X158015645Y-112220358D01*
X158012486Y-112227984D01*
X158012485Y-112227986D01*
X157998010Y-112262932D01*
X157959772Y-112355246D01*
X157958695Y-112363430D01*
X157958694Y-112363432D01*
X157953284Y-112404526D01*
X157940715Y-112500000D01*
X155641873Y-112500000D01*
X155544754Y-112459772D01*
X155400000Y-112440715D01*
X155391812Y-112441793D01*
X155263432Y-112458694D01*
X155263430Y-112458695D01*
X155255246Y-112459772D01*
X155246410Y-112463432D01*
X155127986Y-112512485D01*
X155127984Y-112512486D01*
X155120358Y-112515645D01*
X155004526Y-112604526D01*
X154915645Y-112720358D01*
X154912486Y-112727984D01*
X154912485Y-112727986D01*
X154888375Y-112786193D01*
X154859772Y-112855246D01*
X154840715Y-113000000D01*
X150741873Y-113000000D01*
X150779643Y-112984355D01*
X150786196Y-112979327D01*
X150888921Y-112900503D01*
X150888924Y-112900500D01*
X150895474Y-112895474D01*
X150907623Y-112879642D01*
X150968734Y-112800000D01*
X150984355Y-112779642D01*
X150995648Y-112752380D01*
X151034209Y-112659285D01*
X151040228Y-112644754D01*
X151044663Y-112611072D01*
X151058207Y-112508188D01*
X151059285Y-112500000D01*
X151046716Y-112404526D01*
X151041306Y-112363432D01*
X151041305Y-112363430D01*
X151040228Y-112355246D01*
X151001990Y-112262932D01*
X150987515Y-112227986D01*
X150987514Y-112227984D01*
X150984355Y-112220358D01*
X150895474Y-112104526D01*
X150888924Y-112099500D01*
X150888921Y-112099497D01*
X150786196Y-112020673D01*
X150786194Y-112020672D01*
X150779643Y-112015645D01*
X150644754Y-111959772D01*
X150500000Y-111940715D01*
X150491812Y-111941793D01*
X150363432Y-111958694D01*
X150363430Y-111958695D01*
X150355246Y-111959772D01*
X150346410Y-111963432D01*
X150227986Y-112012485D01*
X150227984Y-112012486D01*
X150220358Y-112015645D01*
X150104526Y-112104526D01*
X150015645Y-112220358D01*
X150012486Y-112227984D01*
X150012485Y-112227986D01*
X149998010Y-112262932D01*
X149959772Y-112355246D01*
X149958695Y-112363430D01*
X149958694Y-112363432D01*
X149953284Y-112404526D01*
X149940715Y-112500000D01*
X149346120Y-112500000D01*
X149341306Y-112463432D01*
X149341305Y-112463430D01*
X149340228Y-112455246D01*
X149311625Y-112386193D01*
X149287515Y-112327986D01*
X149287514Y-112327984D01*
X149284355Y-112320358D01*
X149220061Y-112236568D01*
X149200501Y-112211077D01*
X149200500Y-112211076D01*
X149195474Y-112204526D01*
X149188924Y-112199500D01*
X149188921Y-112199497D01*
X149086196Y-112120673D01*
X149086194Y-112120672D01*
X149079643Y-112115645D01*
X148944754Y-112059772D01*
X148800000Y-112040715D01*
X148791812Y-112041793D01*
X148663432Y-112058694D01*
X148663430Y-112058695D01*
X148655246Y-112059772D01*
X148607430Y-112079578D01*
X148527986Y-112112485D01*
X148527984Y-112112486D01*
X148520358Y-112115645D01*
X148404526Y-112204526D01*
X148399503Y-112211072D01*
X148380168Y-112236270D01*
X148315645Y-112320358D01*
X148312486Y-112327984D01*
X148312485Y-112327986D01*
X148288375Y-112386193D01*
X148259772Y-112455246D01*
X148258695Y-112463430D01*
X148258694Y-112463432D01*
X148251158Y-112520673D01*
X148240715Y-112600000D01*
X145141873Y-112600000D01*
X145179643Y-112584355D01*
X145186196Y-112579327D01*
X145288921Y-112500503D01*
X145288924Y-112500500D01*
X145295474Y-112495474D01*
X145384355Y-112379642D01*
X145391070Y-112363432D01*
X145437069Y-112252380D01*
X145440228Y-112244754D01*
X145444663Y-112211072D01*
X145458207Y-112108188D01*
X145459285Y-112100000D01*
X145448842Y-112020673D01*
X145441306Y-111963432D01*
X145441305Y-111963430D01*
X145440228Y-111955246D01*
X145384355Y-111820358D01*
X145295474Y-111704526D01*
X145288924Y-111699500D01*
X145288921Y-111699497D01*
X145186196Y-111620673D01*
X145186194Y-111620672D01*
X145179643Y-111615645D01*
X145044754Y-111559772D01*
X144900000Y-111540715D01*
X144891812Y-111541793D01*
X144763432Y-111558694D01*
X144763430Y-111558695D01*
X144755246Y-111559772D01*
X144707430Y-111579578D01*
X144627986Y-111612485D01*
X144627984Y-111612486D01*
X144620358Y-111615645D01*
X144504526Y-111704526D01*
X144415645Y-111820358D01*
X144359772Y-111955246D01*
X144358695Y-111963430D01*
X144358694Y-111963432D01*
X144351158Y-112020673D01*
X144340715Y-112100000D01*
X122754500Y-112100000D01*
X122754500Y-110200000D01*
X143240715Y-110200000D01*
X143259772Y-110344754D01*
X143315645Y-110479642D01*
X143404526Y-110595474D01*
X143411076Y-110600500D01*
X143411079Y-110600503D01*
X143487685Y-110659285D01*
X143520357Y-110684355D01*
X143655246Y-110740228D01*
X143800000Y-110759285D01*
X143808188Y-110758207D01*
X143936566Y-110741306D01*
X143944754Y-110740228D01*
X144079643Y-110684355D01*
X144112315Y-110659285D01*
X144188921Y-110600503D01*
X144188924Y-110600500D01*
X144195474Y-110595474D01*
X144284355Y-110479642D01*
X144340228Y-110344754D01*
X144359285Y-110200000D01*
X144346120Y-110100000D01*
X146240715Y-110100000D01*
X146259772Y-110244754D01*
X146265791Y-110259285D01*
X146304353Y-110352380D01*
X146315645Y-110379642D01*
X146320672Y-110386193D01*
X146392378Y-110479642D01*
X146404526Y-110495474D01*
X146411076Y-110500500D01*
X146411079Y-110500503D01*
X146513804Y-110579327D01*
X146520357Y-110584355D01*
X146655246Y-110640228D01*
X146800000Y-110659285D01*
X146808188Y-110658207D01*
X146936566Y-110641306D01*
X146944754Y-110640228D01*
X147079643Y-110584355D01*
X147086196Y-110579327D01*
X147188921Y-110500503D01*
X147188924Y-110500500D01*
X147195474Y-110495474D01*
X147207623Y-110479642D01*
X147279328Y-110386193D01*
X147284355Y-110379642D01*
X147295648Y-110352380D01*
X147334209Y-110259285D01*
X147340228Y-110244754D01*
X147359285Y-110100000D01*
X147340228Y-109955246D01*
X147297619Y-109852380D01*
X147287515Y-109827986D01*
X147287514Y-109827984D01*
X147284355Y-109820358D01*
X147195474Y-109704526D01*
X147189576Y-109700000D01*
X163140715Y-109700000D01*
X163141793Y-109708188D01*
X163155338Y-109811072D01*
X163159772Y-109844754D01*
X163162931Y-109852380D01*
X163208931Y-109963432D01*
X163215645Y-109979642D01*
X163304526Y-110095474D01*
X163311076Y-110100500D01*
X163311079Y-110100503D01*
X163413804Y-110179327D01*
X163420357Y-110184355D01*
X163555246Y-110240228D01*
X163700000Y-110259285D01*
X163708188Y-110258207D01*
X163836566Y-110241306D01*
X163844754Y-110240228D01*
X163979643Y-110184355D01*
X163986196Y-110179327D01*
X164088921Y-110100503D01*
X164088924Y-110100500D01*
X164095474Y-110095474D01*
X164184355Y-109979642D01*
X164191070Y-109963432D01*
X164237069Y-109852380D01*
X164240228Y-109844754D01*
X164244663Y-109811072D01*
X164258207Y-109708188D01*
X164259285Y-109700000D01*
X164248842Y-109620673D01*
X164241306Y-109563432D01*
X164241305Y-109563430D01*
X164240228Y-109555246D01*
X164220422Y-109507430D01*
X164187515Y-109427986D01*
X164187514Y-109427984D01*
X164184355Y-109420358D01*
X164095474Y-109304526D01*
X164088924Y-109299500D01*
X164088921Y-109299497D01*
X163986196Y-109220673D01*
X163986194Y-109220672D01*
X163979643Y-109215645D01*
X163844754Y-109159772D01*
X163700000Y-109140715D01*
X163691812Y-109141793D01*
X163563432Y-109158694D01*
X163563430Y-109158695D01*
X163555246Y-109159772D01*
X163507430Y-109179578D01*
X163427986Y-109212485D01*
X163427984Y-109212486D01*
X163420358Y-109215645D01*
X163372484Y-109252380D01*
X163323160Y-109290228D01*
X163304526Y-109304526D01*
X163215645Y-109420358D01*
X163212486Y-109427984D01*
X163212485Y-109427986D01*
X163179578Y-109507430D01*
X163159772Y-109555246D01*
X163158695Y-109563430D01*
X163158694Y-109563432D01*
X163151158Y-109620673D01*
X163140715Y-109700000D01*
X147189576Y-109700000D01*
X147188924Y-109699500D01*
X147188921Y-109699497D01*
X147086196Y-109620673D01*
X147086194Y-109620672D01*
X147079643Y-109615645D01*
X146944754Y-109559772D01*
X146800000Y-109540715D01*
X146791812Y-109541793D01*
X146663432Y-109558694D01*
X146663430Y-109558695D01*
X146655246Y-109559772D01*
X146646410Y-109563432D01*
X146527986Y-109612485D01*
X146527984Y-109612486D01*
X146520358Y-109615645D01*
X146404526Y-109704526D01*
X146315645Y-109820358D01*
X146312486Y-109827984D01*
X146312485Y-109827986D01*
X146302381Y-109852380D01*
X146259772Y-109955246D01*
X146240715Y-110100000D01*
X144346120Y-110100000D01*
X144340228Y-110055246D01*
X144311625Y-109986193D01*
X144287515Y-109927986D01*
X144287514Y-109927984D01*
X144284355Y-109920358D01*
X144220061Y-109836568D01*
X144200501Y-109811077D01*
X144200500Y-109811076D01*
X144195474Y-109804526D01*
X144188924Y-109799500D01*
X144188921Y-109799497D01*
X144086196Y-109720673D01*
X144086194Y-109720672D01*
X144079643Y-109715645D01*
X143944754Y-109659772D01*
X143800000Y-109640715D01*
X143791812Y-109641793D01*
X143663432Y-109658694D01*
X143663430Y-109658695D01*
X143655246Y-109659772D01*
X143607430Y-109679578D01*
X143527986Y-109712485D01*
X143527984Y-109712486D01*
X143520358Y-109715645D01*
X143404526Y-109804526D01*
X143399503Y-109811072D01*
X143380168Y-109836270D01*
X143315645Y-109920358D01*
X143312486Y-109927984D01*
X143312485Y-109927986D01*
X143288375Y-109986193D01*
X143259772Y-110055246D01*
X143240715Y-110200000D01*
X122754500Y-110200000D01*
X122754500Y-108750000D01*
X145940715Y-108750000D01*
X145959772Y-108894754D01*
X146015645Y-109029642D01*
X146104526Y-109145474D01*
X146111076Y-109150500D01*
X146111079Y-109150503D01*
X146202525Y-109220672D01*
X146220357Y-109234355D01*
X146355246Y-109290228D01*
X146500000Y-109309285D01*
X146508188Y-109308207D01*
X146536149Y-109304526D01*
X146644754Y-109290228D01*
X146779643Y-109234355D01*
X146797475Y-109220672D01*
X146888921Y-109150503D01*
X146888924Y-109150500D01*
X146895474Y-109145474D01*
X146930367Y-109100000D01*
X152040715Y-109100000D01*
X152041793Y-109108188D01*
X152056602Y-109220673D01*
X152059772Y-109244754D01*
X152062931Y-109252380D01*
X152082448Y-109299497D01*
X152115645Y-109379642D01*
X152204526Y-109495474D01*
X152211076Y-109500500D01*
X152211079Y-109500503D01*
X152313804Y-109579327D01*
X152320357Y-109584355D01*
X152455246Y-109640228D01*
X152600000Y-109659285D01*
X152608188Y-109658207D01*
X152736566Y-109641306D01*
X152744754Y-109640228D01*
X152879643Y-109584355D01*
X152886196Y-109579327D01*
X152988921Y-109500503D01*
X152988924Y-109500500D01*
X152995474Y-109495474D01*
X153084355Y-109379642D01*
X153117553Y-109299497D01*
X153137069Y-109252380D01*
X153140228Y-109244754D01*
X153143399Y-109220673D01*
X153158207Y-109108188D01*
X153159285Y-109100000D01*
X153140228Y-108955246D01*
X153084355Y-108820358D01*
X153030367Y-108750000D01*
X154540715Y-108750000D01*
X154559772Y-108894754D01*
X154615645Y-109029642D01*
X154704526Y-109145474D01*
X154711076Y-109150500D01*
X154711079Y-109150503D01*
X154802525Y-109220672D01*
X154820357Y-109234355D01*
X154955246Y-109290228D01*
X155100000Y-109309285D01*
X155108188Y-109308207D01*
X155136149Y-109304526D01*
X155244754Y-109290228D01*
X155379643Y-109234355D01*
X155397475Y-109220672D01*
X155488921Y-109150503D01*
X155488924Y-109150500D01*
X155495474Y-109145474D01*
X155584355Y-109029642D01*
X155640228Y-108894754D01*
X155659285Y-108750000D01*
X155640228Y-108605246D01*
X155584355Y-108470358D01*
X155495474Y-108354526D01*
X155488924Y-108349500D01*
X155488921Y-108349497D01*
X155386196Y-108270673D01*
X155386194Y-108270672D01*
X155379643Y-108265645D01*
X155244754Y-108209772D01*
X155100000Y-108190715D01*
X155076255Y-108193841D01*
X154963432Y-108208694D01*
X154963430Y-108208695D01*
X154955246Y-108209772D01*
X154907430Y-108229578D01*
X154827986Y-108262485D01*
X154827984Y-108262486D01*
X154820358Y-108265645D01*
X154704526Y-108354526D01*
X154615645Y-108470358D01*
X154559772Y-108605246D01*
X154540715Y-108750000D01*
X153030367Y-108750000D01*
X152995474Y-108704526D01*
X152988924Y-108699500D01*
X152988921Y-108699497D01*
X152886196Y-108620673D01*
X152886194Y-108620672D01*
X152879643Y-108615645D01*
X152744754Y-108559772D01*
X152600000Y-108540715D01*
X152591812Y-108541793D01*
X152463432Y-108558694D01*
X152463430Y-108558695D01*
X152455246Y-108559772D01*
X152407430Y-108579578D01*
X152327986Y-108612485D01*
X152327984Y-108612486D01*
X152320358Y-108615645D01*
X152204526Y-108704526D01*
X152115645Y-108820358D01*
X152059772Y-108955246D01*
X152040715Y-109100000D01*
X146930367Y-109100000D01*
X146984355Y-109029642D01*
X147040228Y-108894754D01*
X147059285Y-108750000D01*
X147040228Y-108605246D01*
X146984355Y-108470358D01*
X146895474Y-108354526D01*
X146888924Y-108349500D01*
X146888921Y-108349497D01*
X146786196Y-108270673D01*
X146786194Y-108270672D01*
X146779643Y-108265645D01*
X146644754Y-108209772D01*
X146570527Y-108200000D01*
X149740715Y-108200000D01*
X149759772Y-108344754D01*
X149815645Y-108479642D01*
X149904526Y-108595474D01*
X149911076Y-108600500D01*
X149911079Y-108600503D01*
X150013804Y-108679327D01*
X150020357Y-108684355D01*
X150155246Y-108740228D01*
X150300000Y-108759285D01*
X150308188Y-108758207D01*
X150308333Y-108758188D01*
X150444754Y-108740228D01*
X150579643Y-108684355D01*
X150586196Y-108679327D01*
X150688921Y-108600503D01*
X150688924Y-108600500D01*
X150695474Y-108595474D01*
X150784355Y-108479642D01*
X150840228Y-108344754D01*
X150859285Y-108200000D01*
X150840228Y-108055246D01*
X150811625Y-107986193D01*
X150787515Y-107927986D01*
X150787514Y-107927984D01*
X150784355Y-107920358D01*
X150695474Y-107804526D01*
X150656944Y-107774961D01*
X150615078Y-107717624D01*
X150614028Y-107700000D01*
X151165715Y-107700000D01*
X151166793Y-107708188D01*
X151180338Y-107811072D01*
X151184772Y-107844754D01*
X151187931Y-107852380D01*
X151216089Y-107920358D01*
X151240645Y-107979642D01*
X151329526Y-108095474D01*
X151336076Y-108100500D01*
X151336079Y-108100503D01*
X151438804Y-108179327D01*
X151445357Y-108184355D01*
X151580246Y-108240228D01*
X151725000Y-108259285D01*
X151733188Y-108258207D01*
X151861566Y-108241306D01*
X151869754Y-108240228D01*
X152004643Y-108184355D01*
X152011196Y-108179327D01*
X152113921Y-108100503D01*
X152113924Y-108100500D01*
X152120474Y-108095474D01*
X152209355Y-107979642D01*
X152233912Y-107920358D01*
X152262069Y-107852380D01*
X152265228Y-107844754D01*
X152269662Y-107811077D01*
X152279155Y-107738969D01*
X152307878Y-107674041D01*
X152367143Y-107634950D01*
X152438134Y-107634105D01*
X152443540Y-107635975D01*
X152447614Y-107637067D01*
X152455246Y-107640228D01*
X152600000Y-107659285D01*
X152608188Y-107658207D01*
X152736566Y-107641306D01*
X152744754Y-107640228D01*
X152879643Y-107584355D01*
X152886196Y-107579327D01*
X152988921Y-107500503D01*
X152988924Y-107500500D01*
X152995474Y-107495474D01*
X153014769Y-107470329D01*
X153051842Y-107422014D01*
X153084355Y-107379642D01*
X153140228Y-107244754D01*
X153143399Y-107220672D01*
X153158207Y-107108188D01*
X153159285Y-107100000D01*
X153140228Y-106955246D01*
X153104044Y-106867891D01*
X153087515Y-106827986D01*
X153087514Y-106827984D01*
X153084355Y-106820358D01*
X153029986Y-106749503D01*
X153000501Y-106711077D01*
X153000500Y-106711076D01*
X152995474Y-106704526D01*
X152988924Y-106699500D01*
X152988921Y-106699497D01*
X152886196Y-106620673D01*
X152886194Y-106620672D01*
X152879643Y-106615645D01*
X152744754Y-106559772D01*
X152600000Y-106540715D01*
X152591812Y-106541793D01*
X152463432Y-106558694D01*
X152463430Y-106558695D01*
X152455246Y-106559772D01*
X152407430Y-106579578D01*
X152327986Y-106612485D01*
X152327984Y-106612486D01*
X152320358Y-106615645D01*
X152204526Y-106704526D01*
X152115645Y-106820358D01*
X152112486Y-106827984D01*
X152112485Y-106827986D01*
X152095956Y-106867891D01*
X152059772Y-106955246D01*
X152058695Y-106963430D01*
X152058694Y-106963432D01*
X152045845Y-107061031D01*
X152017122Y-107125959D01*
X151957857Y-107165050D01*
X151886866Y-107165895D01*
X151881460Y-107164025D01*
X151877386Y-107162933D01*
X151869754Y-107159772D01*
X151725000Y-107140715D01*
X151713834Y-107142185D01*
X151588432Y-107158694D01*
X151588430Y-107158695D01*
X151580246Y-107159772D01*
X151546385Y-107173798D01*
X151452986Y-107212485D01*
X151452984Y-107212486D01*
X151445358Y-107215645D01*
X151329526Y-107304526D01*
X151240645Y-107420358D01*
X151237486Y-107427984D01*
X151237485Y-107427986D01*
X151207126Y-107501279D01*
X151184772Y-107555246D01*
X151183695Y-107563430D01*
X151183694Y-107563432D01*
X151180524Y-107587515D01*
X151165715Y-107700000D01*
X150614028Y-107700000D01*
X150610857Y-107646753D01*
X150645622Y-107584850D01*
X150656939Y-107575043D01*
X150695474Y-107545474D01*
X150725998Y-107505695D01*
X150755754Y-107466916D01*
X150784355Y-107429642D01*
X150799028Y-107394220D01*
X150837069Y-107302380D01*
X150840228Y-107294754D01*
X150842065Y-107280805D01*
X150857893Y-107160571D01*
X150859285Y-107150000D01*
X150853780Y-107108188D01*
X150841306Y-107013432D01*
X150841305Y-107013430D01*
X150840228Y-107005246D01*
X150784355Y-106870358D01*
X150695474Y-106754526D01*
X150688924Y-106749500D01*
X150688921Y-106749497D01*
X150586196Y-106670673D01*
X150586194Y-106670672D01*
X150579643Y-106665645D01*
X150444754Y-106609772D01*
X150300000Y-106590715D01*
X150291812Y-106591793D01*
X150163432Y-106608694D01*
X150163430Y-106608695D01*
X150155246Y-106609772D01*
X150128929Y-106620673D01*
X150027986Y-106662485D01*
X150027984Y-106662486D01*
X150020358Y-106665645D01*
X149904526Y-106754526D01*
X149815645Y-106870358D01*
X149759772Y-107005246D01*
X149758695Y-107013430D01*
X149758694Y-107013432D01*
X149746220Y-107108188D01*
X149740715Y-107150000D01*
X149742107Y-107160571D01*
X149757936Y-107280805D01*
X149759772Y-107294754D01*
X149762931Y-107302380D01*
X149800973Y-107394220D01*
X149815645Y-107429642D01*
X149844246Y-107466916D01*
X149874003Y-107505695D01*
X149904526Y-107545474D01*
X149943056Y-107575039D01*
X149984922Y-107632376D01*
X149989143Y-107703247D01*
X149954378Y-107765150D01*
X149943053Y-107774963D01*
X149911075Y-107799500D01*
X149911072Y-107799503D01*
X149904526Y-107804526D01*
X149815645Y-107920358D01*
X149812486Y-107927984D01*
X149812485Y-107927986D01*
X149788375Y-107986193D01*
X149759772Y-108055246D01*
X149740715Y-108200000D01*
X146570527Y-108200000D01*
X146500000Y-108190715D01*
X146476255Y-108193841D01*
X146363432Y-108208694D01*
X146363430Y-108208695D01*
X146355246Y-108209772D01*
X146307430Y-108229578D01*
X146227986Y-108262485D01*
X146227984Y-108262486D01*
X146220358Y-108265645D01*
X146104526Y-108354526D01*
X146015645Y-108470358D01*
X145959772Y-108605246D01*
X145940715Y-108750000D01*
X122754500Y-108750000D01*
X122754500Y-106843096D01*
X128040729Y-106843096D01*
X128049421Y-106921824D01*
X128054015Y-106963432D01*
X128058113Y-107000553D01*
X128060723Y-107007684D01*
X128060723Y-107007686D01*
X128104005Y-107125959D01*
X128112553Y-107149319D01*
X128116789Y-107155622D01*
X128116789Y-107155623D01*
X128123692Y-107165895D01*
X128200908Y-107280805D01*
X128206527Y-107285918D01*
X128206528Y-107285919D01*
X128216238Y-107294754D01*
X128318076Y-107387419D01*
X128457293Y-107463008D01*
X128610522Y-107503207D01*
X128694477Y-107504526D01*
X128761319Y-107505576D01*
X128761322Y-107505576D01*
X128768916Y-107505695D01*
X128923332Y-107470329D01*
X129004230Y-107429642D01*
X129058072Y-107402563D01*
X129058075Y-107402561D01*
X129064855Y-107399151D01*
X129070626Y-107394222D01*
X129070629Y-107394220D01*
X129179536Y-107301204D01*
X129179536Y-107301203D01*
X129185314Y-107296269D01*
X129277755Y-107167624D01*
X129336842Y-107020641D01*
X129354011Y-106900000D01*
X141140715Y-106900000D01*
X141141793Y-106908188D01*
X141156598Y-107020641D01*
X141159772Y-107044754D01*
X141162931Y-107052380D01*
X141209951Y-107165895D01*
X141215645Y-107179642D01*
X141304526Y-107295474D01*
X141311076Y-107300500D01*
X141311079Y-107300503D01*
X141404274Y-107372014D01*
X141420357Y-107384355D01*
X141555246Y-107440228D01*
X141700000Y-107459285D01*
X141708188Y-107458207D01*
X141836566Y-107441306D01*
X141844754Y-107440228D01*
X141979643Y-107384355D01*
X141995726Y-107372014D01*
X142088921Y-107300503D01*
X142088924Y-107300500D01*
X142095474Y-107295474D01*
X142184355Y-107179642D01*
X142190050Y-107165895D01*
X142237069Y-107052380D01*
X142240228Y-107044754D01*
X142243403Y-107020641D01*
X142258207Y-106908188D01*
X142259285Y-106900000D01*
X144040715Y-106900000D01*
X144041793Y-106908188D01*
X144056598Y-107020641D01*
X144059772Y-107044754D01*
X144062931Y-107052380D01*
X144109951Y-107165895D01*
X144115645Y-107179642D01*
X144204526Y-107295474D01*
X144211076Y-107300500D01*
X144211079Y-107300503D01*
X144304274Y-107372014D01*
X144320357Y-107384355D01*
X144455246Y-107440228D01*
X144600000Y-107459285D01*
X144608188Y-107458207D01*
X144736566Y-107441306D01*
X144744754Y-107440228D01*
X144879643Y-107384355D01*
X144895726Y-107372014D01*
X144988921Y-107300503D01*
X144988924Y-107300500D01*
X144995474Y-107295474D01*
X145084355Y-107179642D01*
X145090050Y-107165895D01*
X145137069Y-107052380D01*
X145140228Y-107044754D01*
X145143403Y-107020641D01*
X145158207Y-106908188D01*
X145159285Y-106900000D01*
X145153247Y-106854134D01*
X145141306Y-106763432D01*
X145141305Y-106763430D01*
X145140228Y-106755246D01*
X145108628Y-106678957D01*
X145087515Y-106627986D01*
X145087514Y-106627984D01*
X145084355Y-106620358D01*
X145026933Y-106545524D01*
X145000501Y-106511077D01*
X145000500Y-106511076D01*
X144995474Y-106504526D01*
X144988924Y-106499500D01*
X144988921Y-106499497D01*
X144886196Y-106420673D01*
X144886194Y-106420672D01*
X144879643Y-106415645D01*
X144744754Y-106359772D01*
X144600000Y-106340715D01*
X144591812Y-106341793D01*
X144463432Y-106358694D01*
X144463430Y-106358695D01*
X144455246Y-106359772D01*
X144407430Y-106379578D01*
X144327986Y-106412485D01*
X144327984Y-106412486D01*
X144320358Y-106415645D01*
X144204526Y-106504526D01*
X144199503Y-106511072D01*
X144180168Y-106536270D01*
X144115645Y-106620358D01*
X144112486Y-106627984D01*
X144112485Y-106627986D01*
X144091372Y-106678957D01*
X144059772Y-106755246D01*
X144058695Y-106763430D01*
X144058694Y-106763432D01*
X144046753Y-106854134D01*
X144040715Y-106900000D01*
X142259285Y-106900000D01*
X142253247Y-106854134D01*
X142241306Y-106763432D01*
X142241305Y-106763430D01*
X142240228Y-106755246D01*
X142208628Y-106678957D01*
X142187515Y-106627986D01*
X142187514Y-106627984D01*
X142184355Y-106620358D01*
X142126933Y-106545524D01*
X142100501Y-106511077D01*
X142100500Y-106511076D01*
X142095474Y-106504526D01*
X142088924Y-106499500D01*
X142088921Y-106499497D01*
X141986196Y-106420673D01*
X141986194Y-106420672D01*
X141979643Y-106415645D01*
X141844754Y-106359772D01*
X141700000Y-106340715D01*
X141691812Y-106341793D01*
X141563432Y-106358694D01*
X141563430Y-106358695D01*
X141555246Y-106359772D01*
X141507430Y-106379578D01*
X141427986Y-106412485D01*
X141427984Y-106412486D01*
X141420358Y-106415645D01*
X141304526Y-106504526D01*
X141299503Y-106511072D01*
X141280168Y-106536270D01*
X141215645Y-106620358D01*
X141212486Y-106627984D01*
X141212485Y-106627986D01*
X141191372Y-106678957D01*
X141159772Y-106755246D01*
X141158695Y-106763430D01*
X141158694Y-106763432D01*
X141146753Y-106854134D01*
X141140715Y-106900000D01*
X129354011Y-106900000D01*
X129358581Y-106867891D01*
X129358581Y-106867888D01*
X129359162Y-106863807D01*
X129359307Y-106850000D01*
X129340276Y-106692733D01*
X129284280Y-106544546D01*
X129275814Y-106532228D01*
X129198855Y-106420251D01*
X129198854Y-106420249D01*
X129194553Y-106413992D01*
X129076275Y-106308611D01*
X129068889Y-106304700D01*
X128942988Y-106238039D01*
X128942989Y-106238039D01*
X128936274Y-106234484D01*
X128782633Y-106195892D01*
X128775034Y-106195852D01*
X128775033Y-106195852D01*
X128709181Y-106195507D01*
X128624221Y-106195062D01*
X128616841Y-106196834D01*
X128616839Y-106196834D01*
X128477563Y-106230271D01*
X128477560Y-106230272D01*
X128470184Y-106232043D01*
X128329414Y-106304700D01*
X128210039Y-106408838D01*
X128118950Y-106538444D01*
X128098150Y-106591793D01*
X128067397Y-106670672D01*
X128061406Y-106686037D01*
X128060414Y-106693570D01*
X128060414Y-106693571D01*
X128051528Y-106761072D01*
X128040729Y-106843096D01*
X122754500Y-106843096D01*
X122754500Y-106000000D01*
X157840715Y-106000000D01*
X157859772Y-106144754D01*
X157862931Y-106152380D01*
X157897371Y-106235524D01*
X157915645Y-106279642D01*
X158004526Y-106395474D01*
X158011076Y-106400500D01*
X158011079Y-106400503D01*
X158113804Y-106479327D01*
X158120357Y-106484355D01*
X158255246Y-106540228D01*
X158263434Y-106541306D01*
X158327623Y-106549757D01*
X158400000Y-106559285D01*
X158408188Y-106558207D01*
X158536566Y-106541306D01*
X158544754Y-106540228D01*
X158679643Y-106484355D01*
X158686196Y-106479327D01*
X158788921Y-106400503D01*
X158788924Y-106400500D01*
X158795474Y-106395474D01*
X158884355Y-106279642D01*
X158902630Y-106235524D01*
X158937069Y-106152380D01*
X158940228Y-106144754D01*
X158959285Y-106000000D01*
X158940228Y-105855246D01*
X158884355Y-105720358D01*
X158795474Y-105604526D01*
X158788924Y-105599500D01*
X158788921Y-105599497D01*
X158686196Y-105520673D01*
X158686194Y-105520672D01*
X158679643Y-105515645D01*
X158544754Y-105459772D01*
X158400000Y-105440715D01*
X158391812Y-105441793D01*
X158263432Y-105458694D01*
X158263430Y-105458695D01*
X158255246Y-105459772D01*
X158207430Y-105479578D01*
X158127986Y-105512485D01*
X158127984Y-105512486D01*
X158120358Y-105515645D01*
X158004526Y-105604526D01*
X157915645Y-105720358D01*
X157859772Y-105855246D01*
X157840715Y-106000000D01*
X122754500Y-106000000D01*
X122754500Y-105300000D01*
X172540715Y-105300000D01*
X172559772Y-105444754D01*
X172562931Y-105452380D01*
X172591219Y-105520672D01*
X172615645Y-105579642D01*
X172704526Y-105695474D01*
X172711076Y-105700500D01*
X172711079Y-105700503D01*
X172813804Y-105779327D01*
X172820357Y-105784355D01*
X172955246Y-105840228D01*
X173100000Y-105859285D01*
X173108188Y-105858207D01*
X173130680Y-105855246D01*
X173244754Y-105840228D01*
X173379643Y-105784355D01*
X173386196Y-105779327D01*
X173488921Y-105700503D01*
X173488924Y-105700500D01*
X173495474Y-105695474D01*
X173584355Y-105579642D01*
X173608782Y-105520672D01*
X173637069Y-105452380D01*
X173640228Y-105444754D01*
X173659285Y-105300000D01*
X173640228Y-105155246D01*
X173584355Y-105020358D01*
X173495474Y-104904526D01*
X173488924Y-104899500D01*
X173488921Y-104899497D01*
X173386196Y-104820673D01*
X173386194Y-104820672D01*
X173379643Y-104815645D01*
X173244754Y-104759772D01*
X173100000Y-104740715D01*
X173091812Y-104741793D01*
X172963432Y-104758694D01*
X172963430Y-104758695D01*
X172955246Y-104759772D01*
X172907430Y-104779578D01*
X172827986Y-104812485D01*
X172827984Y-104812486D01*
X172820358Y-104815645D01*
X172704526Y-104904526D01*
X172615645Y-105020358D01*
X172559772Y-105155246D01*
X172540715Y-105300000D01*
X122754500Y-105300000D01*
X122754500Y-103650000D01*
X162140715Y-103650000D01*
X162141793Y-103658188D01*
X162151094Y-103728834D01*
X162159772Y-103794754D01*
X162215645Y-103929642D01*
X162304526Y-104045474D01*
X162311076Y-104050500D01*
X162311079Y-104050503D01*
X162413804Y-104129327D01*
X162420357Y-104134355D01*
X162555246Y-104190228D01*
X162700000Y-104209285D01*
X162708188Y-104208207D01*
X162836566Y-104191306D01*
X162844754Y-104190228D01*
X162979643Y-104134355D01*
X162986196Y-104129327D01*
X163024416Y-104100000D01*
X173440715Y-104100000D01*
X173441793Y-104108188D01*
X173454961Y-104208207D01*
X173459772Y-104244754D01*
X173515645Y-104379642D01*
X173604526Y-104495474D01*
X173611076Y-104500500D01*
X173611079Y-104500503D01*
X173713804Y-104579327D01*
X173720357Y-104584355D01*
X173855246Y-104640228D01*
X174000000Y-104659285D01*
X174008188Y-104658207D01*
X174136566Y-104641306D01*
X174144754Y-104640228D01*
X174279643Y-104584355D01*
X174286196Y-104579327D01*
X174388921Y-104500503D01*
X174388924Y-104500500D01*
X174395474Y-104495474D01*
X174484355Y-104379642D01*
X174540228Y-104244754D01*
X174545040Y-104208207D01*
X174558207Y-104108188D01*
X174559285Y-104100000D01*
X174540228Y-103955246D01*
X174532336Y-103936193D01*
X174499647Y-103857274D01*
X174492058Y-103786684D01*
X174523837Y-103723197D01*
X174584895Y-103686970D01*
X174648290Y-103687347D01*
X174655246Y-103690228D01*
X174800000Y-103709285D01*
X174808188Y-103708207D01*
X174836149Y-103704526D01*
X174944754Y-103690228D01*
X174951684Y-103687357D01*
X175022310Y-103689039D01*
X175081106Y-103728834D01*
X175109053Y-103794099D01*
X175100353Y-103857274D01*
X175067664Y-103936193D01*
X175059772Y-103955246D01*
X175040715Y-104100000D01*
X175041793Y-104108188D01*
X175054961Y-104208207D01*
X175059772Y-104244754D01*
X175115645Y-104379642D01*
X175204526Y-104495474D01*
X175211076Y-104500500D01*
X175211079Y-104500503D01*
X175313804Y-104579327D01*
X175320357Y-104584355D01*
X175455246Y-104640228D01*
X175600000Y-104659285D01*
X175608188Y-104658207D01*
X175736566Y-104641306D01*
X175744754Y-104640228D01*
X175879643Y-104584355D01*
X175886196Y-104579327D01*
X175988921Y-104500503D01*
X175988924Y-104500500D01*
X175995474Y-104495474D01*
X176084355Y-104379642D01*
X176140228Y-104244754D01*
X176145040Y-104208207D01*
X176158207Y-104108188D01*
X176159285Y-104100000D01*
X176140228Y-103955246D01*
X176084355Y-103820358D01*
X175995474Y-103704526D01*
X175988924Y-103699500D01*
X175988921Y-103699497D01*
X175886196Y-103620673D01*
X175886194Y-103620672D01*
X175879643Y-103615645D01*
X175762779Y-103567238D01*
X175752383Y-103562932D01*
X175744754Y-103559772D01*
X175600000Y-103540715D01*
X175455246Y-103559772D01*
X175448316Y-103562643D01*
X175377690Y-103560961D01*
X175318894Y-103521166D01*
X175290947Y-103455901D01*
X175299647Y-103392726D01*
X175337068Y-103302383D01*
X175340228Y-103294754D01*
X175344663Y-103261072D01*
X175358207Y-103158188D01*
X175359285Y-103150000D01*
X175340228Y-103005246D01*
X175284355Y-102870358D01*
X175195474Y-102754526D01*
X175188924Y-102749500D01*
X175188921Y-102749497D01*
X175086196Y-102670673D01*
X175086194Y-102670672D01*
X175079643Y-102665645D01*
X174944754Y-102609772D01*
X174800000Y-102590715D01*
X174791812Y-102591793D01*
X174663432Y-102608694D01*
X174663430Y-102608695D01*
X174655246Y-102609772D01*
X174607430Y-102629578D01*
X174527986Y-102662485D01*
X174527984Y-102662486D01*
X174520358Y-102665645D01*
X174404526Y-102754526D01*
X174315645Y-102870358D01*
X174259772Y-103005246D01*
X174240715Y-103150000D01*
X174241793Y-103158188D01*
X174255338Y-103261072D01*
X174259772Y-103294754D01*
X174262932Y-103302383D01*
X174300353Y-103392726D01*
X174307942Y-103463316D01*
X174276163Y-103526803D01*
X174215105Y-103563030D01*
X174151710Y-103562653D01*
X174144754Y-103559772D01*
X174000000Y-103540715D01*
X173991812Y-103541793D01*
X173863432Y-103558694D01*
X173863430Y-103558695D01*
X173855246Y-103559772D01*
X173847381Y-103563030D01*
X173727986Y-103612485D01*
X173727984Y-103612486D01*
X173720358Y-103615645D01*
X173675586Y-103650000D01*
X173623160Y-103690228D01*
X173604526Y-103704526D01*
X173515645Y-103820358D01*
X173459772Y-103955246D01*
X173440715Y-104100000D01*
X163024416Y-104100000D01*
X163088921Y-104050503D01*
X163088924Y-104050500D01*
X163095474Y-104045474D01*
X163184355Y-103929642D01*
X163240228Y-103794754D01*
X163248907Y-103728834D01*
X163258207Y-103658188D01*
X163259285Y-103650000D01*
X163247835Y-103563030D01*
X163241306Y-103513432D01*
X163241305Y-103513430D01*
X163240228Y-103505246D01*
X163219788Y-103455901D01*
X163187515Y-103377986D01*
X163187514Y-103377984D01*
X163184355Y-103370358D01*
X163095474Y-103254526D01*
X163088924Y-103249500D01*
X163088921Y-103249497D01*
X162986196Y-103170673D01*
X162986194Y-103170672D01*
X162979643Y-103165645D01*
X162844754Y-103109772D01*
X162700000Y-103090715D01*
X162691812Y-103091793D01*
X162563432Y-103108694D01*
X162563430Y-103108695D01*
X162555246Y-103109772D01*
X162507430Y-103129578D01*
X162427986Y-103162485D01*
X162427984Y-103162486D01*
X162420358Y-103165645D01*
X162304526Y-103254526D01*
X162215645Y-103370358D01*
X162212486Y-103377984D01*
X162212485Y-103377986D01*
X162180212Y-103455901D01*
X162159772Y-103505246D01*
X162158695Y-103513430D01*
X162158694Y-103513432D01*
X162152165Y-103563030D01*
X162140715Y-103650000D01*
X122754500Y-103650000D01*
X122754500Y-101500000D01*
X138340715Y-101500000D01*
X138341793Y-101508188D01*
X138358602Y-101635865D01*
X138359772Y-101644754D01*
X138362931Y-101652380D01*
X138393078Y-101725160D01*
X138415645Y-101779642D01*
X138504526Y-101895474D01*
X138511076Y-101900500D01*
X138511079Y-101900503D01*
X138613804Y-101979327D01*
X138620357Y-101984355D01*
X138755246Y-102040228D01*
X138900000Y-102059285D01*
X138908188Y-102058207D01*
X139036566Y-102041306D01*
X139044754Y-102040228D01*
X139179643Y-101984355D01*
X139186196Y-101979327D01*
X139288921Y-101900503D01*
X139288924Y-101900500D01*
X139295474Y-101895474D01*
X139384355Y-101779642D01*
X139406923Y-101725160D01*
X139437069Y-101652380D01*
X139440228Y-101644754D01*
X139441399Y-101635865D01*
X139458207Y-101508188D01*
X139459285Y-101500000D01*
X139440228Y-101355246D01*
X139409313Y-101280611D01*
X139387515Y-101227986D01*
X139387514Y-101227984D01*
X139384355Y-101220358D01*
X139317746Y-101133551D01*
X139300501Y-101111077D01*
X139300500Y-101111076D01*
X139295474Y-101104526D01*
X139288924Y-101099500D01*
X139288921Y-101099497D01*
X139186196Y-101020673D01*
X139186194Y-101020672D01*
X139179643Y-101015645D01*
X139141873Y-101000000D01*
X145440715Y-101000000D01*
X145441793Y-101008188D01*
X145455338Y-101111072D01*
X145459772Y-101144754D01*
X145462931Y-101152380D01*
X145491089Y-101220358D01*
X145515645Y-101279642D01*
X145526663Y-101294001D01*
X145595017Y-101383081D01*
X145604526Y-101395474D01*
X145611076Y-101400500D01*
X145611079Y-101400503D01*
X145704850Y-101472456D01*
X145720357Y-101484355D01*
X145855246Y-101540228D01*
X146000000Y-101559285D01*
X146008188Y-101558207D01*
X146136566Y-101541306D01*
X146144754Y-101540228D01*
X146279643Y-101484355D01*
X146295150Y-101472456D01*
X146388921Y-101400503D01*
X146388924Y-101400500D01*
X146395474Y-101395474D01*
X146400501Y-101388923D01*
X146406343Y-101383081D01*
X146407408Y-101384146D01*
X146457372Y-101347661D01*
X146528243Y-101343437D01*
X146590147Y-101378199D01*
X146599049Y-101388472D01*
X146599497Y-101388920D01*
X146604526Y-101395474D01*
X146611076Y-101400500D01*
X146611079Y-101400503D01*
X146704850Y-101472456D01*
X146720357Y-101484355D01*
X146855246Y-101540228D01*
X147000000Y-101559285D01*
X147008188Y-101558207D01*
X147136566Y-101541306D01*
X147144754Y-101540228D01*
X147279643Y-101484355D01*
X147295150Y-101472456D01*
X147388921Y-101400503D01*
X147388924Y-101400500D01*
X147395474Y-101395474D01*
X147400501Y-101388923D01*
X147406343Y-101383081D01*
X147407408Y-101384146D01*
X147457372Y-101347661D01*
X147528243Y-101343437D01*
X147590147Y-101378199D01*
X147599049Y-101388472D01*
X147599497Y-101388920D01*
X147604526Y-101395474D01*
X147611076Y-101400500D01*
X147611079Y-101400503D01*
X147704850Y-101472456D01*
X147720357Y-101484355D01*
X147855246Y-101540228D01*
X148000000Y-101559285D01*
X148008188Y-101558207D01*
X148136566Y-101541306D01*
X148144754Y-101540228D01*
X148279643Y-101484355D01*
X148295150Y-101472456D01*
X148388921Y-101400503D01*
X148388924Y-101400500D01*
X148395474Y-101395474D01*
X148404984Y-101383081D01*
X148473337Y-101294001D01*
X148484355Y-101279642D01*
X148508912Y-101220358D01*
X148537069Y-101152380D01*
X148540228Y-101144754D01*
X148544663Y-101111072D01*
X148558207Y-101008188D01*
X148559285Y-101000000D01*
X149440715Y-101000000D01*
X149441793Y-101008188D01*
X149455338Y-101111072D01*
X149459772Y-101144754D01*
X149462931Y-101152380D01*
X149491089Y-101220358D01*
X149515645Y-101279642D01*
X149526663Y-101294001D01*
X149595017Y-101383081D01*
X149604526Y-101395474D01*
X149611076Y-101400500D01*
X149611079Y-101400503D01*
X149704850Y-101472456D01*
X149720357Y-101484355D01*
X149855246Y-101540228D01*
X150000000Y-101559285D01*
X150008188Y-101558207D01*
X150136566Y-101541306D01*
X150144754Y-101540228D01*
X150279643Y-101484355D01*
X150295150Y-101472456D01*
X150388921Y-101400503D01*
X150388924Y-101400500D01*
X150395474Y-101395474D01*
X150404984Y-101383081D01*
X150473337Y-101294001D01*
X150484355Y-101279642D01*
X150508912Y-101220358D01*
X150537069Y-101152380D01*
X150540228Y-101144754D01*
X150544663Y-101111072D01*
X150558207Y-101008188D01*
X150559285Y-101000000D01*
X150543946Y-100883484D01*
X150541306Y-100863432D01*
X150541305Y-100863430D01*
X150540228Y-100855246D01*
X150511152Y-100785052D01*
X150487515Y-100727986D01*
X150487514Y-100727984D01*
X150484355Y-100720358D01*
X150395474Y-100604526D01*
X150388924Y-100599500D01*
X150388921Y-100599497D01*
X150286196Y-100520673D01*
X150286194Y-100520672D01*
X150279643Y-100515645D01*
X150144754Y-100459772D01*
X150000000Y-100440715D01*
X149991812Y-100441793D01*
X149863432Y-100458694D01*
X149863430Y-100458695D01*
X149855246Y-100459772D01*
X149830455Y-100470041D01*
X149727986Y-100512485D01*
X149727984Y-100512486D01*
X149720358Y-100515645D01*
X149604526Y-100604526D01*
X149515645Y-100720358D01*
X149512486Y-100727984D01*
X149512485Y-100727986D01*
X149488848Y-100785052D01*
X149459772Y-100855246D01*
X149458695Y-100863430D01*
X149458694Y-100863432D01*
X149456054Y-100883484D01*
X149440715Y-101000000D01*
X148559285Y-101000000D01*
X148543946Y-100883484D01*
X148541306Y-100863432D01*
X148541305Y-100863430D01*
X148540228Y-100855246D01*
X148511152Y-100785052D01*
X148487515Y-100727986D01*
X148487514Y-100727984D01*
X148484355Y-100720358D01*
X148395474Y-100604526D01*
X148388924Y-100599500D01*
X148388921Y-100599497D01*
X148286196Y-100520673D01*
X148286194Y-100520672D01*
X148279643Y-100515645D01*
X148144754Y-100459772D01*
X148000000Y-100440715D01*
X147991812Y-100441793D01*
X147863432Y-100458694D01*
X147863430Y-100458695D01*
X147855246Y-100459772D01*
X147830455Y-100470041D01*
X147727986Y-100512485D01*
X147727984Y-100512486D01*
X147720358Y-100515645D01*
X147604526Y-100604526D01*
X147599503Y-100611072D01*
X147593658Y-100616917D01*
X147592594Y-100615853D01*
X147542628Y-100652339D01*
X147471757Y-100656563D01*
X147409853Y-100621801D01*
X147400951Y-100611528D01*
X147400503Y-100611080D01*
X147395474Y-100604526D01*
X147388924Y-100599500D01*
X147388921Y-100599497D01*
X147286196Y-100520673D01*
X147286194Y-100520672D01*
X147279643Y-100515645D01*
X147144754Y-100459772D01*
X147000000Y-100440715D01*
X146991812Y-100441793D01*
X146863432Y-100458694D01*
X146863430Y-100458695D01*
X146855246Y-100459772D01*
X146830455Y-100470041D01*
X146727986Y-100512485D01*
X146727984Y-100512486D01*
X146720358Y-100515645D01*
X146604526Y-100604526D01*
X146599503Y-100611072D01*
X146593658Y-100616917D01*
X146592594Y-100615853D01*
X146542628Y-100652339D01*
X146471757Y-100656563D01*
X146409853Y-100621801D01*
X146400951Y-100611528D01*
X146400503Y-100611080D01*
X146395474Y-100604526D01*
X146388924Y-100599500D01*
X146388921Y-100599497D01*
X146286196Y-100520673D01*
X146286194Y-100520672D01*
X146279643Y-100515645D01*
X146144754Y-100459772D01*
X146000000Y-100440715D01*
X145991812Y-100441793D01*
X145863432Y-100458694D01*
X145863430Y-100458695D01*
X145855246Y-100459772D01*
X145830455Y-100470041D01*
X145727986Y-100512485D01*
X145727984Y-100512486D01*
X145720358Y-100515645D01*
X145604526Y-100604526D01*
X145515645Y-100720358D01*
X145512486Y-100727984D01*
X145512485Y-100727986D01*
X145488848Y-100785052D01*
X145459772Y-100855246D01*
X145458695Y-100863430D01*
X145458694Y-100863432D01*
X145456054Y-100883484D01*
X145440715Y-101000000D01*
X139141873Y-101000000D01*
X139044754Y-100959772D01*
X138900000Y-100940715D01*
X138891812Y-100941793D01*
X138763432Y-100958694D01*
X138763430Y-100958695D01*
X138755246Y-100959772D01*
X138713114Y-100977224D01*
X138627986Y-101012485D01*
X138627984Y-101012486D01*
X138620358Y-101015645D01*
X138504526Y-101104526D01*
X138415645Y-101220358D01*
X138412486Y-101227984D01*
X138412485Y-101227986D01*
X138390687Y-101280611D01*
X138359772Y-101355246D01*
X138340715Y-101500000D01*
X122754500Y-101500000D01*
X122754500Y-100500000D01*
X134540715Y-100500000D01*
X134541793Y-100508188D01*
X134555424Y-100611724D01*
X134559772Y-100644754D01*
X134569136Y-100667361D01*
X134606734Y-100758128D01*
X134615645Y-100779642D01*
X134704526Y-100895474D01*
X134711076Y-100900500D01*
X134711079Y-100900503D01*
X134813804Y-100979327D01*
X134820357Y-100984355D01*
X134955246Y-101040228D01*
X135100000Y-101059285D01*
X135108188Y-101058207D01*
X135236566Y-101041306D01*
X135244754Y-101040228D01*
X135379643Y-100984355D01*
X135386196Y-100979327D01*
X135488921Y-100900503D01*
X135488924Y-100900500D01*
X135495474Y-100895474D01*
X135584355Y-100779642D01*
X135593267Y-100758128D01*
X135630864Y-100667361D01*
X135640228Y-100644754D01*
X135644577Y-100611724D01*
X135658207Y-100508188D01*
X135659285Y-100500000D01*
X135651480Y-100440715D01*
X135641306Y-100363432D01*
X135641305Y-100363430D01*
X135640228Y-100355246D01*
X135593149Y-100241588D01*
X135587515Y-100227986D01*
X135587514Y-100227984D01*
X135584355Y-100220358D01*
X135495474Y-100104526D01*
X135488924Y-100099500D01*
X135488921Y-100099497D01*
X135386196Y-100020673D01*
X135386194Y-100020672D01*
X135379643Y-100015645D01*
X135244754Y-99959772D01*
X135100000Y-99940715D01*
X135091812Y-99941793D01*
X134963432Y-99958694D01*
X134963430Y-99958695D01*
X134955246Y-99959772D01*
X134942719Y-99964961D01*
X134827986Y-100012485D01*
X134827984Y-100012486D01*
X134820358Y-100015645D01*
X134736537Y-100079963D01*
X134724905Y-100088889D01*
X134704526Y-100104526D01*
X134615645Y-100220358D01*
X134612486Y-100227984D01*
X134612485Y-100227986D01*
X134606851Y-100241588D01*
X134559772Y-100355246D01*
X134558695Y-100363430D01*
X134558694Y-100363432D01*
X134548520Y-100440715D01*
X134540715Y-100500000D01*
X122754500Y-100500000D01*
X122754500Y-98800000D01*
X134540715Y-98800000D01*
X134541793Y-98808188D01*
X134555627Y-98913266D01*
X134559772Y-98944754D01*
X134615645Y-99079642D01*
X134620672Y-99086193D01*
X134681875Y-99165954D01*
X134704526Y-99195474D01*
X134711076Y-99200500D01*
X134711079Y-99200503D01*
X134804274Y-99272014D01*
X134820357Y-99284355D01*
X134955246Y-99340228D01*
X135100000Y-99359285D01*
X135108188Y-99358207D01*
X135236566Y-99341306D01*
X135244754Y-99340228D01*
X135379643Y-99284355D01*
X135395726Y-99272014D01*
X135488921Y-99200503D01*
X135488924Y-99200500D01*
X135495474Y-99195474D01*
X135518126Y-99165954D01*
X135579328Y-99086193D01*
X135584355Y-99079642D01*
X135617344Y-99000000D01*
X141090715Y-99000000D01*
X141109772Y-99144754D01*
X141127555Y-99187686D01*
X141151543Y-99245596D01*
X141165645Y-99279642D01*
X141254526Y-99395474D01*
X141261076Y-99400500D01*
X141261079Y-99400503D01*
X141363804Y-99479327D01*
X141370357Y-99484355D01*
X141505246Y-99540228D01*
X141650000Y-99559285D01*
X141658188Y-99558207D01*
X141786566Y-99541306D01*
X141794754Y-99540228D01*
X141929643Y-99484355D01*
X141936196Y-99479327D01*
X142038921Y-99400503D01*
X142038924Y-99400500D01*
X142045474Y-99395474D01*
X142134355Y-99279642D01*
X142148458Y-99245596D01*
X142172445Y-99187686D01*
X142190228Y-99144754D01*
X142209285Y-99000000D01*
X156640715Y-99000000D01*
X156659772Y-99144754D01*
X156677555Y-99187686D01*
X156701543Y-99245596D01*
X156715645Y-99279642D01*
X156804526Y-99395474D01*
X156811076Y-99400500D01*
X156811079Y-99400503D01*
X156913804Y-99479327D01*
X156920357Y-99484355D01*
X157055246Y-99540228D01*
X157200000Y-99559285D01*
X157208188Y-99558207D01*
X157336566Y-99541306D01*
X157344754Y-99540228D01*
X157467466Y-99489399D01*
X164240800Y-99489399D01*
X164257318Y-99657862D01*
X164310748Y-99818479D01*
X164398435Y-99963267D01*
X164403326Y-99968332D01*
X164403327Y-99968333D01*
X164427062Y-99992911D01*
X164516021Y-100085031D01*
X164657660Y-100177717D01*
X164816315Y-100236720D01*
X164823296Y-100237651D01*
X164823298Y-100237652D01*
X164977118Y-100258176D01*
X164977122Y-100258176D01*
X164984099Y-100259107D01*
X164991110Y-100258469D01*
X164991114Y-100258469D01*
X165145652Y-100244405D01*
X165152673Y-100243766D01*
X165313659Y-100191458D01*
X165406258Y-100136258D01*
X171553357Y-100136258D01*
X171557992Y-100191458D01*
X171568173Y-100312689D01*
X171569431Y-100327674D01*
X171571130Y-100333599D01*
X171618016Y-100497110D01*
X171622378Y-100512323D01*
X171625197Y-100517808D01*
X171675586Y-100615853D01*
X171710182Y-100683170D01*
X171714008Y-100687997D01*
X171825669Y-100828880D01*
X171825673Y-100828885D01*
X171829498Y-100833710D01*
X171834192Y-100837705D01*
X171956495Y-100941793D01*
X171975781Y-100958207D01*
X171981159Y-100961213D01*
X171981161Y-100961214D01*
X172035910Y-100991812D01*
X172143461Y-101051920D01*
X172326149Y-101111279D01*
X172516888Y-101134023D01*
X172523023Y-101133551D01*
X172523025Y-101133551D01*
X172702269Y-101119759D01*
X172702273Y-101119758D01*
X172708411Y-101119286D01*
X172893425Y-101067629D01*
X172898929Y-101064849D01*
X172898931Y-101064848D01*
X173059381Y-100983799D01*
X173059383Y-100983798D01*
X173064882Y-100981020D01*
X173216250Y-100862758D01*
X173277570Y-100791719D01*
X173337737Y-100722015D01*
X173337738Y-100722013D01*
X173341766Y-100717347D01*
X173436647Y-100550326D01*
X173497280Y-100368057D01*
X173521355Y-100177482D01*
X173521739Y-100150000D01*
X173502994Y-99958827D01*
X173497158Y-99939495D01*
X173449255Y-99780836D01*
X173447474Y-99774936D01*
X173357294Y-99605330D01*
X173235887Y-99456472D01*
X173231138Y-99452543D01*
X173092629Y-99337958D01*
X173092625Y-99337956D01*
X173087879Y-99334029D01*
X172918908Y-99242666D01*
X172827159Y-99214265D01*
X172741296Y-99187686D01*
X172741293Y-99187685D01*
X172735409Y-99185864D01*
X172729284Y-99185220D01*
X172729283Y-99185220D01*
X172550499Y-99166429D01*
X172550498Y-99166429D01*
X172544371Y-99165785D01*
X172465144Y-99172995D01*
X172359211Y-99182636D01*
X172359208Y-99182637D01*
X172353072Y-99183195D01*
X172347166Y-99184933D01*
X172347162Y-99184934D01*
X172206980Y-99226192D01*
X172168798Y-99237429D01*
X172163338Y-99240283D01*
X172163339Y-99240283D01*
X172004027Y-99323569D01*
X172004023Y-99323572D01*
X171998567Y-99326424D01*
X171993767Y-99330284D01*
X171993766Y-99330284D01*
X171983199Y-99338780D01*
X171848864Y-99446788D01*
X171725391Y-99593937D01*
X171722423Y-99599335D01*
X171722420Y-99599340D01*
X171669606Y-99695410D01*
X171632851Y-99762267D01*
X171630990Y-99768134D01*
X171630989Y-99768136D01*
X171605952Y-99847063D01*
X171574769Y-99945365D01*
X171553357Y-100136258D01*
X165406258Y-100136258D01*
X165416533Y-100130133D01*
X165453004Y-100108392D01*
X165453006Y-100108391D01*
X165459056Y-100104784D01*
X165581638Y-99988052D01*
X165585539Y-99982181D01*
X165671410Y-99852935D01*
X165671411Y-99852933D01*
X165675311Y-99847063D01*
X165735420Y-99688824D01*
X165747996Y-99599340D01*
X165758427Y-99525123D01*
X165758427Y-99525118D01*
X165758978Y-99521200D01*
X165759274Y-99500000D01*
X165740406Y-99331784D01*
X165684738Y-99171929D01*
X165595038Y-99028379D01*
X165475764Y-98908269D01*
X165332844Y-98817569D01*
X165305442Y-98807812D01*
X165180016Y-98763149D01*
X165180011Y-98763148D01*
X165173381Y-98760787D01*
X165166395Y-98759954D01*
X165166391Y-98759953D01*
X165047287Y-98745751D01*
X165005301Y-98740745D01*
X164998298Y-98741481D01*
X164998297Y-98741481D01*
X164843965Y-98757701D01*
X164843961Y-98757702D01*
X164836957Y-98758438D01*
X164830286Y-98760709D01*
X164683387Y-98810717D01*
X164683384Y-98810718D01*
X164676717Y-98812988D01*
X164670719Y-98816678D01*
X164670717Y-98816679D01*
X164538543Y-98897993D01*
X164538541Y-98897995D01*
X164532544Y-98901684D01*
X164411605Y-99020117D01*
X164407794Y-99026031D01*
X164407792Y-99026033D01*
X164354254Y-99109107D01*
X164319909Y-99162400D01*
X164307871Y-99195474D01*
X164264425Y-99314840D01*
X164264424Y-99314845D01*
X164262015Y-99321463D01*
X164240800Y-99489399D01*
X157467466Y-99489399D01*
X157479643Y-99484355D01*
X157486196Y-99479327D01*
X157588921Y-99400503D01*
X157588924Y-99400500D01*
X157595474Y-99395474D01*
X157684355Y-99279642D01*
X157698458Y-99245596D01*
X157722445Y-99187686D01*
X157740228Y-99144754D01*
X157759285Y-99000000D01*
X157750934Y-98936568D01*
X157741306Y-98863432D01*
X157741305Y-98863430D01*
X157740228Y-98855246D01*
X157702080Y-98763149D01*
X157687515Y-98727986D01*
X157687514Y-98727984D01*
X157684355Y-98720358D01*
X157595474Y-98604526D01*
X157588924Y-98599500D01*
X157588921Y-98599497D01*
X157486196Y-98520673D01*
X157486194Y-98520672D01*
X157479643Y-98515645D01*
X157344754Y-98459772D01*
X157200000Y-98440715D01*
X157191812Y-98441793D01*
X157063432Y-98458694D01*
X157063430Y-98458695D01*
X157055246Y-98459772D01*
X157007430Y-98479578D01*
X156927986Y-98512485D01*
X156927984Y-98512486D01*
X156920358Y-98515645D01*
X156804526Y-98604526D01*
X156715645Y-98720358D01*
X156712486Y-98727984D01*
X156712485Y-98727986D01*
X156697920Y-98763149D01*
X156659772Y-98855246D01*
X156658695Y-98863430D01*
X156658694Y-98863432D01*
X156649066Y-98936568D01*
X156640715Y-99000000D01*
X142209285Y-99000000D01*
X142200934Y-98936568D01*
X142191306Y-98863432D01*
X142191305Y-98863430D01*
X142190228Y-98855246D01*
X142152080Y-98763149D01*
X142137515Y-98727986D01*
X142137514Y-98727984D01*
X142134355Y-98720358D01*
X142045474Y-98604526D01*
X142038924Y-98599500D01*
X142038921Y-98599497D01*
X141936196Y-98520673D01*
X141936194Y-98520672D01*
X141929643Y-98515645D01*
X141794754Y-98459772D01*
X141650000Y-98440715D01*
X141641812Y-98441793D01*
X141513432Y-98458694D01*
X141513430Y-98458695D01*
X141505246Y-98459772D01*
X141457430Y-98479578D01*
X141377986Y-98512485D01*
X141377984Y-98512486D01*
X141370358Y-98515645D01*
X141254526Y-98604526D01*
X141165645Y-98720358D01*
X141162486Y-98727984D01*
X141162485Y-98727986D01*
X141147920Y-98763149D01*
X141109772Y-98855246D01*
X141108695Y-98863430D01*
X141108694Y-98863432D01*
X141099066Y-98936568D01*
X141090715Y-99000000D01*
X135617344Y-99000000D01*
X135640228Y-98944754D01*
X135644374Y-98913266D01*
X135658207Y-98808188D01*
X135659285Y-98800000D01*
X135640228Y-98655246D01*
X135584355Y-98520358D01*
X135495474Y-98404526D01*
X135488924Y-98399500D01*
X135488921Y-98399497D01*
X135386196Y-98320673D01*
X135386194Y-98320672D01*
X135379643Y-98315645D01*
X135244754Y-98259772D01*
X135100000Y-98240715D01*
X135091812Y-98241793D01*
X134963432Y-98258694D01*
X134963430Y-98258695D01*
X134955246Y-98259772D01*
X134907430Y-98279578D01*
X134827986Y-98312485D01*
X134827984Y-98312486D01*
X134820358Y-98315645D01*
X134704526Y-98404526D01*
X134615645Y-98520358D01*
X134559772Y-98655246D01*
X134540715Y-98800000D01*
X122754500Y-98800000D01*
X122754500Y-97100000D01*
X134540715Y-97100000D01*
X134559772Y-97244754D01*
X134615645Y-97379642D01*
X134704526Y-97495474D01*
X134711076Y-97500500D01*
X134711079Y-97500503D01*
X134787685Y-97559285D01*
X134820357Y-97584355D01*
X134955246Y-97640228D01*
X135100000Y-97659285D01*
X135108188Y-97658207D01*
X135236566Y-97641306D01*
X135244754Y-97640228D01*
X135379643Y-97584355D01*
X135412315Y-97559285D01*
X135488921Y-97500503D01*
X135488924Y-97500500D01*
X135495474Y-97495474D01*
X135584355Y-97379642D01*
X135640228Y-97244754D01*
X135659285Y-97100000D01*
X135646120Y-97000000D01*
X149440715Y-97000000D01*
X149459772Y-97144754D01*
X149462931Y-97152380D01*
X149504353Y-97252380D01*
X149515645Y-97279642D01*
X149520672Y-97286193D01*
X149592378Y-97379642D01*
X149604526Y-97395474D01*
X149611076Y-97400500D01*
X149611079Y-97400503D01*
X149713804Y-97479327D01*
X149720357Y-97484355D01*
X149855246Y-97540228D01*
X150000000Y-97559285D01*
X150008188Y-97558207D01*
X150136566Y-97541306D01*
X150144754Y-97540228D01*
X150279643Y-97484355D01*
X150286196Y-97479327D01*
X150388921Y-97400503D01*
X150388924Y-97400500D01*
X150395474Y-97395474D01*
X150407623Y-97379642D01*
X150479328Y-97286193D01*
X150484355Y-97279642D01*
X150495648Y-97252380D01*
X150537069Y-97152380D01*
X150540228Y-97144754D01*
X150559285Y-97000000D01*
X152690715Y-97000000D01*
X152709772Y-97144754D01*
X152712931Y-97152380D01*
X152754353Y-97252380D01*
X152765645Y-97279642D01*
X152770672Y-97286193D01*
X152842378Y-97379642D01*
X152854526Y-97395474D01*
X152861076Y-97400500D01*
X152861079Y-97400503D01*
X152963804Y-97479327D01*
X152970357Y-97484355D01*
X153105246Y-97540228D01*
X153250000Y-97559285D01*
X153258188Y-97558207D01*
X153386566Y-97541306D01*
X153394754Y-97540228D01*
X153529643Y-97484355D01*
X153536196Y-97479327D01*
X153638921Y-97400503D01*
X153638924Y-97400500D01*
X153645474Y-97395474D01*
X153657623Y-97379642D01*
X153729328Y-97286193D01*
X153734355Y-97279642D01*
X153745648Y-97252380D01*
X153787069Y-97152380D01*
X153790228Y-97144754D01*
X153809285Y-97000000D01*
X153797342Y-96909285D01*
X153791306Y-96863432D01*
X153791305Y-96863430D01*
X153790228Y-96855246D01*
X153763296Y-96790228D01*
X153737515Y-96727986D01*
X153737514Y-96727984D01*
X153734355Y-96720358D01*
X153680753Y-96650503D01*
X153650501Y-96611077D01*
X153650500Y-96611076D01*
X153645474Y-96604526D01*
X153638924Y-96599500D01*
X153638921Y-96599497D01*
X153536196Y-96520673D01*
X153536194Y-96520672D01*
X153529643Y-96515645D01*
X153394754Y-96459772D01*
X153250000Y-96440715D01*
X153241812Y-96441793D01*
X153113432Y-96458694D01*
X153113430Y-96458695D01*
X153105246Y-96459772D01*
X153057430Y-96479578D01*
X152977986Y-96512485D01*
X152977984Y-96512486D01*
X152970358Y-96515645D01*
X152854526Y-96604526D01*
X152765645Y-96720358D01*
X152762486Y-96727984D01*
X152762485Y-96727986D01*
X152736704Y-96790228D01*
X152709772Y-96855246D01*
X152708695Y-96863430D01*
X152708694Y-96863432D01*
X152702658Y-96909285D01*
X152690715Y-97000000D01*
X150559285Y-97000000D01*
X150547342Y-96909285D01*
X150541306Y-96863432D01*
X150541305Y-96863430D01*
X150540228Y-96855246D01*
X150513296Y-96790228D01*
X150487515Y-96727986D01*
X150487514Y-96727984D01*
X150484355Y-96720358D01*
X150430753Y-96650503D01*
X150400501Y-96611077D01*
X150400500Y-96611076D01*
X150395474Y-96604526D01*
X150388924Y-96599500D01*
X150388921Y-96599497D01*
X150286196Y-96520673D01*
X150286194Y-96520672D01*
X150279643Y-96515645D01*
X150144754Y-96459772D01*
X150000000Y-96440715D01*
X149991812Y-96441793D01*
X149863432Y-96458694D01*
X149863430Y-96458695D01*
X149855246Y-96459772D01*
X149807430Y-96479578D01*
X149727986Y-96512485D01*
X149727984Y-96512486D01*
X149720358Y-96515645D01*
X149604526Y-96604526D01*
X149515645Y-96720358D01*
X149512486Y-96727984D01*
X149512485Y-96727986D01*
X149486704Y-96790228D01*
X149459772Y-96855246D01*
X149458695Y-96863430D01*
X149458694Y-96863432D01*
X149452658Y-96909285D01*
X149440715Y-97000000D01*
X135646120Y-97000000D01*
X135640228Y-96955246D01*
X135613296Y-96890228D01*
X135587515Y-96827986D01*
X135587514Y-96827984D01*
X135584355Y-96820358D01*
X135530753Y-96750503D01*
X135500501Y-96711077D01*
X135500500Y-96711076D01*
X135495474Y-96704526D01*
X135488924Y-96699500D01*
X135488921Y-96699497D01*
X135386196Y-96620673D01*
X135386194Y-96620672D01*
X135379643Y-96615645D01*
X135244754Y-96559772D01*
X135100000Y-96540715D01*
X135091812Y-96541793D01*
X134963432Y-96558694D01*
X134963430Y-96558695D01*
X134955246Y-96559772D01*
X134907430Y-96579578D01*
X134827986Y-96612485D01*
X134827984Y-96612486D01*
X134820358Y-96615645D01*
X134704526Y-96704526D01*
X134699503Y-96711072D01*
X134685496Y-96729327D01*
X134615645Y-96820358D01*
X134612486Y-96827984D01*
X134612485Y-96827986D01*
X134586704Y-96890228D01*
X134559772Y-96955246D01*
X134540715Y-97100000D01*
X122754500Y-97100000D01*
X122754500Y-96250000D01*
X167440715Y-96250000D01*
X167459772Y-96394754D01*
X167462931Y-96402380D01*
X167504353Y-96502380D01*
X167515645Y-96529642D01*
X167538765Y-96559772D01*
X167592378Y-96629642D01*
X167604526Y-96645474D01*
X167611076Y-96650500D01*
X167611079Y-96650503D01*
X167713804Y-96729327D01*
X167720357Y-96734355D01*
X167855246Y-96790228D01*
X168000000Y-96809285D01*
X168008188Y-96808207D01*
X168136566Y-96791306D01*
X168144754Y-96790228D01*
X168279643Y-96734355D01*
X168286196Y-96729327D01*
X168388921Y-96650503D01*
X168388924Y-96650500D01*
X168395474Y-96645474D01*
X168407623Y-96629642D01*
X168461235Y-96559772D01*
X168484355Y-96529642D01*
X168495648Y-96502380D01*
X168537069Y-96402380D01*
X168540228Y-96394754D01*
X168546120Y-96350000D01*
X170690715Y-96350000D01*
X170691793Y-96358188D01*
X170705583Y-96462932D01*
X170709772Y-96494754D01*
X170720508Y-96520672D01*
X170755242Y-96604526D01*
X170765645Y-96629642D01*
X170781652Y-96650503D01*
X170823106Y-96704526D01*
X170854526Y-96745474D01*
X170861076Y-96750500D01*
X170861079Y-96750503D01*
X170963804Y-96829327D01*
X170970357Y-96834355D01*
X171105246Y-96890228D01*
X171250000Y-96909285D01*
X171258188Y-96908207D01*
X171386566Y-96891306D01*
X171394754Y-96890228D01*
X171529643Y-96834355D01*
X171536196Y-96829327D01*
X171638921Y-96750503D01*
X171638924Y-96750500D01*
X171645474Y-96745474D01*
X171676895Y-96704526D01*
X171718348Y-96650503D01*
X171734355Y-96629642D01*
X171744759Y-96604526D01*
X171779492Y-96520672D01*
X171790228Y-96494754D01*
X171794418Y-96462932D01*
X171808207Y-96358188D01*
X171809285Y-96350000D01*
X171790228Y-96205246D01*
X171734355Y-96070358D01*
X171734805Y-96070172D01*
X171719373Y-96006560D01*
X171742593Y-95939468D01*
X171798400Y-95895580D01*
X171869075Y-95888831D01*
X171926893Y-95916600D01*
X171975781Y-95958207D01*
X171981159Y-95961213D01*
X171981161Y-95961214D01*
X172059621Y-96005063D01*
X172143461Y-96051920D01*
X172326149Y-96111279D01*
X172516888Y-96134023D01*
X172523023Y-96133551D01*
X172523025Y-96133551D01*
X172702269Y-96119759D01*
X172702273Y-96119758D01*
X172708411Y-96119286D01*
X172893425Y-96067629D01*
X172898929Y-96064849D01*
X172898931Y-96064848D01*
X173059381Y-95983799D01*
X173059383Y-95983798D01*
X173064882Y-95981020D01*
X173216250Y-95862758D01*
X173223356Y-95854526D01*
X173337737Y-95722015D01*
X173337738Y-95722013D01*
X173341766Y-95717347D01*
X173436647Y-95550326D01*
X173497280Y-95368057D01*
X173521355Y-95177482D01*
X173521739Y-95150000D01*
X173502994Y-94958827D01*
X173497158Y-94939495D01*
X173449255Y-94780836D01*
X173447474Y-94774936D01*
X173357294Y-94605330D01*
X173235887Y-94456472D01*
X173231138Y-94452543D01*
X173092629Y-94337958D01*
X173092625Y-94337956D01*
X173087879Y-94334029D01*
X172918908Y-94242666D01*
X172827158Y-94214265D01*
X172741296Y-94187686D01*
X172741293Y-94187685D01*
X172735409Y-94185864D01*
X172729284Y-94185220D01*
X172729283Y-94185220D01*
X172550499Y-94166429D01*
X172550498Y-94166429D01*
X172544371Y-94165785D01*
X172465144Y-94172995D01*
X172359211Y-94182636D01*
X172359208Y-94182637D01*
X172353072Y-94183195D01*
X172347166Y-94184933D01*
X172347162Y-94184934D01*
X172206980Y-94226192D01*
X172168798Y-94237429D01*
X172163338Y-94240283D01*
X172163339Y-94240283D01*
X172004027Y-94323569D01*
X172004023Y-94323572D01*
X171998567Y-94326424D01*
X171993767Y-94330284D01*
X171993766Y-94330284D01*
X171860953Y-94437068D01*
X171848864Y-94446788D01*
X171725391Y-94593937D01*
X171722423Y-94599335D01*
X171722420Y-94599340D01*
X171676175Y-94683460D01*
X171632851Y-94762267D01*
X171630990Y-94768134D01*
X171630989Y-94768136D01*
X171576631Y-94939495D01*
X171574769Y-94945365D01*
X171553357Y-95136258D01*
X171569431Y-95327674D01*
X171571130Y-95333599D01*
X171607170Y-95459285D01*
X171622378Y-95512323D01*
X171710182Y-95683170D01*
X171726675Y-95703979D01*
X171753313Y-95769789D01*
X171740143Y-95839553D01*
X171691346Y-95891122D01*
X171622415Y-95908123D01*
X171551227Y-95882207D01*
X171536196Y-95870673D01*
X171536194Y-95870672D01*
X171529643Y-95865645D01*
X171394754Y-95809772D01*
X171250000Y-95790715D01*
X171241812Y-95791793D01*
X171113432Y-95808694D01*
X171113430Y-95808695D01*
X171105246Y-95809772D01*
X171057430Y-95829578D01*
X170977986Y-95862485D01*
X170977984Y-95862486D01*
X170970358Y-95865645D01*
X170854526Y-95954526D01*
X170849503Y-95961072D01*
X170834196Y-95981020D01*
X170765645Y-96070358D01*
X170762486Y-96077984D01*
X170762485Y-96077986D01*
X170751194Y-96105246D01*
X170709772Y-96205246D01*
X170690715Y-96350000D01*
X168546120Y-96350000D01*
X168559285Y-96250000D01*
X168544017Y-96134023D01*
X168541306Y-96113432D01*
X168541305Y-96113430D01*
X168540228Y-96105246D01*
X168489923Y-95983799D01*
X168487515Y-95977986D01*
X168487514Y-95977984D01*
X168484355Y-95970358D01*
X168421797Y-95888831D01*
X168400501Y-95861077D01*
X168400500Y-95861076D01*
X168395474Y-95854526D01*
X168388924Y-95849500D01*
X168388921Y-95849497D01*
X168286196Y-95770673D01*
X168286194Y-95770672D01*
X168279643Y-95765645D01*
X168144754Y-95709772D01*
X168000000Y-95690715D01*
X167991812Y-95691793D01*
X167863432Y-95708694D01*
X167863430Y-95708695D01*
X167855246Y-95709772D01*
X167836959Y-95717347D01*
X167727986Y-95762485D01*
X167727984Y-95762486D01*
X167720358Y-95765645D01*
X167604526Y-95854526D01*
X167515645Y-95970358D01*
X167512486Y-95977984D01*
X167512485Y-95977986D01*
X167510077Y-95983799D01*
X167459772Y-96105246D01*
X167458695Y-96113430D01*
X167458694Y-96113432D01*
X167455983Y-96134023D01*
X167440715Y-96250000D01*
X122754500Y-96250000D01*
X122754500Y-94900000D01*
X158190715Y-94900000D01*
X158191793Y-94908188D01*
X158204473Y-95004500D01*
X158209772Y-95044754D01*
X158212931Y-95052380D01*
X158254826Y-95153522D01*
X158265645Y-95179642D01*
X158354526Y-95295474D01*
X158361076Y-95300500D01*
X158361079Y-95300503D01*
X158463804Y-95379327D01*
X158470357Y-95384355D01*
X158605246Y-95440228D01*
X158750000Y-95459285D01*
X158758188Y-95458207D01*
X158886566Y-95441306D01*
X158894754Y-95440228D01*
X159029643Y-95384355D01*
X159036196Y-95379327D01*
X159138921Y-95300503D01*
X159138924Y-95300500D01*
X159145474Y-95295474D01*
X159234355Y-95179642D01*
X159245175Y-95153522D01*
X159287069Y-95052380D01*
X159290228Y-95044754D01*
X159295528Y-95004500D01*
X159308207Y-94908188D01*
X159309285Y-94900000D01*
X159301144Y-94838165D01*
X159291306Y-94763432D01*
X159291305Y-94763430D01*
X159290228Y-94755246D01*
X159270278Y-94707084D01*
X159237515Y-94627986D01*
X159237514Y-94627984D01*
X159234355Y-94620358D01*
X159145474Y-94504526D01*
X159138924Y-94499500D01*
X159138921Y-94499497D01*
X159036196Y-94420673D01*
X159036194Y-94420672D01*
X159029643Y-94415645D01*
X158894754Y-94359772D01*
X158750000Y-94340715D01*
X158741812Y-94341793D01*
X158613432Y-94358694D01*
X158613430Y-94358695D01*
X158605246Y-94359772D01*
X158558037Y-94379327D01*
X158477986Y-94412485D01*
X158477984Y-94412486D01*
X158470358Y-94415645D01*
X158354526Y-94504526D01*
X158265645Y-94620358D01*
X158262486Y-94627984D01*
X158262485Y-94627986D01*
X158229722Y-94707084D01*
X158209772Y-94755246D01*
X158208695Y-94763430D01*
X158208694Y-94763432D01*
X158198856Y-94838165D01*
X158190715Y-94900000D01*
X122754500Y-94900000D01*
X122754500Y-93900000D01*
X134540715Y-93900000D01*
X134541793Y-93908188D01*
X134556433Y-94019389D01*
X134559772Y-94044754D01*
X134562931Y-94052380D01*
X134610137Y-94166344D01*
X134615645Y-94179642D01*
X134704526Y-94295474D01*
X134711076Y-94300500D01*
X134711079Y-94300503D01*
X134792438Y-94362932D01*
X134820357Y-94384355D01*
X134955246Y-94440228D01*
X135100000Y-94459285D01*
X135108188Y-94458207D01*
X135236566Y-94441306D01*
X135244754Y-94440228D01*
X135379643Y-94384355D01*
X135407562Y-94362932D01*
X135488921Y-94300503D01*
X135488924Y-94300500D01*
X135495474Y-94295474D01*
X135584355Y-94179642D01*
X135589864Y-94166344D01*
X135637069Y-94052380D01*
X135640228Y-94044754D01*
X135643568Y-94019389D01*
X135658207Y-93908188D01*
X135659285Y-93900000D01*
X135640228Y-93755246D01*
X135611033Y-93684763D01*
X135587515Y-93627986D01*
X135587514Y-93627984D01*
X135584355Y-93620358D01*
X135495474Y-93504526D01*
X135488924Y-93499500D01*
X135488921Y-93499497D01*
X135386196Y-93420673D01*
X135386194Y-93420672D01*
X135379643Y-93415645D01*
X135244754Y-93359772D01*
X135100000Y-93340715D01*
X135091812Y-93341793D01*
X134963432Y-93358694D01*
X134963430Y-93358695D01*
X134955246Y-93359772D01*
X134907430Y-93379578D01*
X134827986Y-93412485D01*
X134827984Y-93412486D01*
X134820358Y-93415645D01*
X134760162Y-93461835D01*
X134723160Y-93490228D01*
X134704526Y-93504526D01*
X134615645Y-93620358D01*
X134612486Y-93627984D01*
X134612485Y-93627986D01*
X134588967Y-93684763D01*
X134559772Y-93755246D01*
X134540715Y-93900000D01*
X122754500Y-93900000D01*
X122754500Y-92950000D01*
X140090715Y-92950000D01*
X140091982Y-92959622D01*
X140104699Y-93056217D01*
X140109772Y-93094754D01*
X140165645Y-93229642D01*
X140254526Y-93345474D01*
X140261076Y-93350500D01*
X140261079Y-93350503D01*
X140350248Y-93418925D01*
X140370357Y-93434355D01*
X140505246Y-93490228D01*
X140650000Y-93509285D01*
X140658188Y-93508207D01*
X140686149Y-93504526D01*
X140794754Y-93490228D01*
X140929643Y-93434355D01*
X140949752Y-93418925D01*
X141038921Y-93350503D01*
X141038924Y-93350500D01*
X141045474Y-93345474D01*
X141134355Y-93229642D01*
X141190228Y-93094754D01*
X141192602Y-93076728D01*
X141196787Y-93044934D01*
X141225510Y-92980007D01*
X141230504Y-92976713D01*
X141414302Y-92976713D01*
X141415945Y-92977742D01*
X141446631Y-93044935D01*
X141454866Y-93107485D01*
X141459772Y-93144754D01*
X141462931Y-93152380D01*
X141497648Y-93236193D01*
X141515645Y-93279642D01*
X141541003Y-93312689D01*
X141570019Y-93350503D01*
X141604526Y-93395474D01*
X141611076Y-93400500D01*
X141611079Y-93400503D01*
X141713804Y-93479327D01*
X141720357Y-93484355D01*
X141855246Y-93540228D01*
X142000000Y-93559285D01*
X142008188Y-93558207D01*
X142136566Y-93541306D01*
X142144754Y-93540228D01*
X142279643Y-93484355D01*
X142286196Y-93479327D01*
X142388921Y-93400503D01*
X142388924Y-93400500D01*
X142395474Y-93395474D01*
X142429982Y-93350503D01*
X142458997Y-93312689D01*
X142484355Y-93279642D01*
X142502353Y-93236193D01*
X142537069Y-93152380D01*
X142540228Y-93144754D01*
X142545135Y-93107485D01*
X142558207Y-93008188D01*
X142559285Y-93000000D01*
X142553780Y-92958188D01*
X142541306Y-92863432D01*
X142541305Y-92863430D01*
X142540228Y-92855246D01*
X142484355Y-92720358D01*
X142439915Y-92662442D01*
X142400501Y-92611077D01*
X142400500Y-92611076D01*
X142395474Y-92604526D01*
X142388924Y-92599500D01*
X142388921Y-92599497D01*
X142286196Y-92520673D01*
X142286194Y-92520672D01*
X142279643Y-92515645D01*
X142144754Y-92459772D01*
X142117683Y-92456208D01*
X142008188Y-92441793D01*
X142000000Y-92440715D01*
X141991812Y-92441793D01*
X141863432Y-92458694D01*
X141863430Y-92458695D01*
X141855246Y-92459772D01*
X141828929Y-92470673D01*
X141727986Y-92512485D01*
X141727984Y-92512486D01*
X141720358Y-92515645D01*
X141604526Y-92604526D01*
X141515645Y-92720358D01*
X141459772Y-92855246D01*
X141458695Y-92863428D01*
X141458694Y-92863431D01*
X141453213Y-92905066D01*
X141424490Y-92969993D01*
X141414302Y-92976713D01*
X141230504Y-92976713D01*
X141235698Y-92973287D01*
X141234055Y-92972258D01*
X141203369Y-92905065D01*
X141191306Y-92813432D01*
X141191305Y-92813430D01*
X141190228Y-92805246D01*
X141153124Y-92715669D01*
X141137515Y-92677986D01*
X141137514Y-92677984D01*
X141134355Y-92670358D01*
X141079986Y-92599503D01*
X141050501Y-92561077D01*
X141050500Y-92561076D01*
X141045474Y-92554526D01*
X141038924Y-92549500D01*
X141038921Y-92549497D01*
X140936196Y-92470673D01*
X140936194Y-92470672D01*
X140929643Y-92465645D01*
X140794754Y-92409772D01*
X140650000Y-92390715D01*
X140641812Y-92391793D01*
X140513432Y-92408694D01*
X140513430Y-92408695D01*
X140505246Y-92409772D01*
X140457430Y-92429578D01*
X140377986Y-92462485D01*
X140377984Y-92462486D01*
X140370358Y-92465645D01*
X140254526Y-92554526D01*
X140165645Y-92670358D01*
X140162486Y-92677984D01*
X140162485Y-92677986D01*
X140146876Y-92715669D01*
X140109772Y-92805246D01*
X140108695Y-92813430D01*
X140108694Y-92813432D01*
X140100580Y-92875066D01*
X140090715Y-92950000D01*
X122754500Y-92950000D01*
X122754500Y-91800000D01*
X151440715Y-91800000D01*
X151459772Y-91944754D01*
X151515645Y-92079642D01*
X151520672Y-92086193D01*
X151587682Y-92173522D01*
X151604526Y-92195474D01*
X151611076Y-92200500D01*
X151611079Y-92200503D01*
X151713804Y-92279327D01*
X151720357Y-92284355D01*
X151855246Y-92340228D01*
X152000000Y-92359285D01*
X152008188Y-92358207D01*
X152136566Y-92341306D01*
X152144754Y-92340228D01*
X152279643Y-92284355D01*
X152286196Y-92279327D01*
X152388921Y-92200503D01*
X152388924Y-92200500D01*
X152395474Y-92195474D01*
X152412319Y-92173522D01*
X152479328Y-92086193D01*
X152484355Y-92079642D01*
X152540228Y-91944754D01*
X152559285Y-91800000D01*
X152540228Y-91655246D01*
X152517344Y-91600000D01*
X155440715Y-91600000D01*
X155459772Y-91744754D01*
X155515645Y-91879642D01*
X155604526Y-91995474D01*
X155611076Y-92000500D01*
X155611079Y-92000503D01*
X155704274Y-92072014D01*
X155720357Y-92084355D01*
X155855246Y-92140228D01*
X156000000Y-92159285D01*
X156008188Y-92158207D01*
X156136566Y-92141306D01*
X156144754Y-92140228D01*
X156279643Y-92084355D01*
X156295726Y-92072014D01*
X156388921Y-92000503D01*
X156388924Y-92000500D01*
X156395474Y-91995474D01*
X156484355Y-91879642D01*
X156540228Y-91744754D01*
X156559285Y-91600000D01*
X156544060Y-91484355D01*
X156541306Y-91463432D01*
X156541305Y-91463430D01*
X156540228Y-91455246D01*
X156517751Y-91400983D01*
X156487515Y-91327986D01*
X156487514Y-91327984D01*
X156484355Y-91320358D01*
X156435881Y-91257185D01*
X156400501Y-91211077D01*
X156400500Y-91211076D01*
X156395474Y-91204526D01*
X156388924Y-91199500D01*
X156388921Y-91199497D01*
X156291748Y-91124933D01*
X159870500Y-91124933D01*
X159870501Y-92875066D01*
X159885266Y-92949301D01*
X159892161Y-92959620D01*
X159892162Y-92959622D01*
X159932516Y-93020015D01*
X159941516Y-93033484D01*
X160025699Y-93089734D01*
X160099933Y-93104500D01*
X160974858Y-93104500D01*
X161850066Y-93104499D01*
X161885818Y-93097388D01*
X161912126Y-93092156D01*
X161912128Y-93092155D01*
X161924301Y-93089734D01*
X161934621Y-93082839D01*
X161934622Y-93082838D01*
X161998168Y-93040377D01*
X162008484Y-93033484D01*
X162064734Y-92949301D01*
X162079500Y-92875067D01*
X162079499Y-91970964D01*
X162406148Y-91970964D01*
X162419424Y-92173522D01*
X162420845Y-92179118D01*
X162420846Y-92179123D01*
X162441119Y-92258945D01*
X162469392Y-92370269D01*
X162471809Y-92375512D01*
X162509010Y-92456208D01*
X162554377Y-92554616D01*
X162671533Y-92720389D01*
X162816938Y-92862035D01*
X162985720Y-92974812D01*
X162991023Y-92977090D01*
X162991026Y-92977092D01*
X163148936Y-93044935D01*
X163172228Y-93054942D01*
X163245244Y-93071464D01*
X163364579Y-93098467D01*
X163364584Y-93098468D01*
X163370216Y-93099742D01*
X163375987Y-93099969D01*
X163375989Y-93099969D01*
X163435756Y-93102317D01*
X163573053Y-93107712D01*
X163680348Y-93092155D01*
X163768231Y-93079413D01*
X163768236Y-93079412D01*
X163773945Y-93078584D01*
X163779409Y-93076729D01*
X163779414Y-93076728D01*
X163960693Y-93015192D01*
X163960698Y-93015190D01*
X163966165Y-93013334D01*
X164143276Y-92914147D01*
X164182969Y-92881135D01*
X164294913Y-92788031D01*
X164299345Y-92784345D01*
X164358011Y-92713807D01*
X164425453Y-92632718D01*
X164425455Y-92632715D01*
X164429147Y-92628276D01*
X164521745Y-92462931D01*
X164525510Y-92456208D01*
X164525511Y-92456206D01*
X164528334Y-92451165D01*
X164530190Y-92445698D01*
X164530192Y-92445693D01*
X164591728Y-92264414D01*
X164591729Y-92264409D01*
X164593584Y-92258945D01*
X164594412Y-92253236D01*
X164594413Y-92253231D01*
X164619627Y-92079327D01*
X164622712Y-92058053D01*
X164624232Y-92000000D01*
X164621564Y-91970964D01*
X164946148Y-91970964D01*
X164959424Y-92173522D01*
X164960845Y-92179118D01*
X164960846Y-92179123D01*
X164981119Y-92258945D01*
X165009392Y-92370269D01*
X165011809Y-92375512D01*
X165049010Y-92456208D01*
X165094377Y-92554616D01*
X165211533Y-92720389D01*
X165356938Y-92862035D01*
X165525720Y-92974812D01*
X165531023Y-92977090D01*
X165531026Y-92977092D01*
X165688936Y-93044935D01*
X165712228Y-93054942D01*
X165785244Y-93071464D01*
X165904579Y-93098467D01*
X165904584Y-93098468D01*
X165910216Y-93099742D01*
X165915987Y-93099969D01*
X165915989Y-93099969D01*
X165975756Y-93102317D01*
X166113053Y-93107712D01*
X166220348Y-93092155D01*
X166308231Y-93079413D01*
X166308236Y-93079412D01*
X166313945Y-93078584D01*
X166319409Y-93076729D01*
X166319414Y-93076728D01*
X166500693Y-93015192D01*
X166500698Y-93015190D01*
X166506165Y-93013334D01*
X166683276Y-92914147D01*
X166722969Y-92881135D01*
X166834913Y-92788031D01*
X166839345Y-92784345D01*
X166898011Y-92713807D01*
X166965453Y-92632718D01*
X166965455Y-92632715D01*
X166969147Y-92628276D01*
X167061745Y-92462931D01*
X167065510Y-92456208D01*
X167065511Y-92456206D01*
X167068334Y-92451165D01*
X167070190Y-92445698D01*
X167070192Y-92445693D01*
X167131728Y-92264414D01*
X167131729Y-92264409D01*
X167133584Y-92258945D01*
X167134412Y-92253236D01*
X167134413Y-92253231D01*
X167159627Y-92079327D01*
X167162712Y-92058053D01*
X167164232Y-92000000D01*
X167145658Y-91797859D01*
X167143953Y-91791812D01*
X167092125Y-91608046D01*
X167092124Y-91608044D01*
X167090557Y-91602487D01*
X167079978Y-91581033D01*
X167003331Y-91425609D01*
X167000776Y-91420428D01*
X166988902Y-91404526D01*
X166931746Y-91327986D01*
X166879320Y-91257779D01*
X166730258Y-91119987D01*
X166725375Y-91116906D01*
X166725371Y-91116903D01*
X166563464Y-91014748D01*
X166558581Y-91011667D01*
X166370039Y-90936446D01*
X166364379Y-90935320D01*
X166364375Y-90935319D01*
X166176613Y-90897971D01*
X166176610Y-90897971D01*
X166170946Y-90896844D01*
X166165171Y-90896768D01*
X166165167Y-90896768D01*
X166063793Y-90895441D01*
X165967971Y-90894187D01*
X165962274Y-90895166D01*
X165962273Y-90895166D01*
X165874397Y-90910266D01*
X165767910Y-90928564D01*
X165577463Y-90998824D01*
X165403010Y-91102612D01*
X165398670Y-91106418D01*
X165398666Y-91106421D01*
X165279330Y-91211077D01*
X165250392Y-91236455D01*
X165246817Y-91240990D01*
X165246816Y-91240991D01*
X165217722Y-91277897D01*
X165124720Y-91395869D01*
X165122031Y-91400980D01*
X165122029Y-91400983D01*
X165109073Y-91425609D01*
X165030203Y-91575515D01*
X164970007Y-91769378D01*
X164946148Y-91970964D01*
X164621564Y-91970964D01*
X164605658Y-91797859D01*
X164603953Y-91791812D01*
X164552125Y-91608046D01*
X164552124Y-91608044D01*
X164550557Y-91602487D01*
X164539978Y-91581033D01*
X164463331Y-91425609D01*
X164460776Y-91420428D01*
X164448902Y-91404526D01*
X164391746Y-91327986D01*
X164339320Y-91257779D01*
X164190258Y-91119987D01*
X164185375Y-91116906D01*
X164185371Y-91116903D01*
X164023464Y-91014748D01*
X164018581Y-91011667D01*
X163830039Y-90936446D01*
X163824379Y-90935320D01*
X163824375Y-90935319D01*
X163636613Y-90897971D01*
X163636610Y-90897971D01*
X163630946Y-90896844D01*
X163625171Y-90896768D01*
X163625167Y-90896768D01*
X163523793Y-90895441D01*
X163427971Y-90894187D01*
X163422274Y-90895166D01*
X163422273Y-90895166D01*
X163334397Y-90910266D01*
X163227910Y-90928564D01*
X163037463Y-90998824D01*
X162863010Y-91102612D01*
X162858670Y-91106418D01*
X162858666Y-91106421D01*
X162739330Y-91211077D01*
X162710392Y-91236455D01*
X162706817Y-91240990D01*
X162706816Y-91240991D01*
X162677722Y-91277897D01*
X162584720Y-91395869D01*
X162582031Y-91400980D01*
X162582029Y-91400983D01*
X162569073Y-91425609D01*
X162490203Y-91575515D01*
X162430007Y-91769378D01*
X162406148Y-91970964D01*
X162079499Y-91970964D01*
X162079499Y-91124934D01*
X162072388Y-91089182D01*
X162067156Y-91062874D01*
X162067155Y-91062872D01*
X162064734Y-91050699D01*
X162057219Y-91039451D01*
X162015377Y-90976832D01*
X162008484Y-90966516D01*
X161924301Y-90910266D01*
X161850067Y-90895500D01*
X160975142Y-90895500D01*
X160099934Y-90895501D01*
X160064182Y-90902612D01*
X160037874Y-90907844D01*
X160037872Y-90907845D01*
X160025699Y-90910266D01*
X160015379Y-90917161D01*
X160015378Y-90917162D01*
X159954985Y-90957516D01*
X159941516Y-90966516D01*
X159885266Y-91050699D01*
X159870500Y-91124933D01*
X156291748Y-91124933D01*
X156286196Y-91120673D01*
X156286194Y-91120672D01*
X156279643Y-91115645D01*
X156144754Y-91059772D01*
X156000000Y-91040715D01*
X155991812Y-91041793D01*
X155863432Y-91058694D01*
X155863430Y-91058695D01*
X155855246Y-91059772D01*
X155807430Y-91079578D01*
X155727986Y-91112485D01*
X155727984Y-91112486D01*
X155720358Y-91115645D01*
X155604526Y-91204526D01*
X155515645Y-91320358D01*
X155512486Y-91327984D01*
X155512485Y-91327986D01*
X155482249Y-91400983D01*
X155459772Y-91455246D01*
X155458695Y-91463430D01*
X155458694Y-91463432D01*
X155455940Y-91484355D01*
X155440715Y-91600000D01*
X152517344Y-91600000D01*
X152484355Y-91520358D01*
X152479329Y-91513807D01*
X152479326Y-91513803D01*
X152441821Y-91464925D01*
X152416221Y-91398705D01*
X152430486Y-91329156D01*
X152480088Y-91278361D01*
X152527192Y-91263070D01*
X152583356Y-91256522D01*
X152626393Y-91251505D01*
X152626395Y-91251505D01*
X152633665Y-91250657D01*
X152640543Y-91248161D01*
X152640545Y-91248160D01*
X152791136Y-91193498D01*
X152798015Y-91191001D01*
X152944233Y-91095136D01*
X153064475Y-90968205D01*
X153068150Y-90961878D01*
X153068153Y-90961874D01*
X153148615Y-90823347D01*
X153152292Y-90817017D01*
X153202973Y-90649682D01*
X153213799Y-90475176D01*
X153184190Y-90302859D01*
X153161432Y-90249375D01*
X153118600Y-90148713D01*
X153118599Y-90148711D01*
X153115733Y-90141976D01*
X153012102Y-90001157D01*
X152878854Y-89887955D01*
X152723138Y-89808442D01*
X152716033Y-89806703D01*
X152716029Y-89806702D01*
X152622597Y-89783840D01*
X152553307Y-89766885D01*
X152547705Y-89766537D01*
X152547702Y-89766537D01*
X152544205Y-89766320D01*
X152544195Y-89766320D01*
X152542266Y-89766200D01*
X152416221Y-89766200D01*
X152324818Y-89776856D01*
X152293607Y-89780495D01*
X152293605Y-89780495D01*
X152286335Y-89781343D01*
X152279457Y-89783839D01*
X152279455Y-89783840D01*
X152134192Y-89836568D01*
X152121985Y-89840999D01*
X151975767Y-89936864D01*
X151855525Y-90063795D01*
X151851850Y-90070122D01*
X151851847Y-90070126D01*
X151810114Y-90141976D01*
X151767708Y-90214983D01*
X151765587Y-90221987D01*
X151765585Y-90221991D01*
X151754290Y-90259285D01*
X151717027Y-90382318D01*
X151706201Y-90556824D01*
X151707441Y-90564040D01*
X151707441Y-90564042D01*
X151715522Y-90611072D01*
X151735810Y-90729141D01*
X151738676Y-90735875D01*
X151738676Y-90735877D01*
X151789469Y-90855246D01*
X151804267Y-90890024D01*
X151907898Y-91030843D01*
X151918034Y-91039454D01*
X151956997Y-91098799D01*
X151957691Y-91169793D01*
X151919893Y-91229891D01*
X151869065Y-91257185D01*
X151863432Y-91258694D01*
X151855246Y-91259772D01*
X151847617Y-91262932D01*
X151727986Y-91312485D01*
X151727984Y-91312486D01*
X151720358Y-91315645D01*
X151604526Y-91404526D01*
X151515645Y-91520358D01*
X151459772Y-91655246D01*
X151440715Y-91800000D01*
X122754500Y-91800000D01*
X122754500Y-91000000D01*
X149640715Y-91000000D01*
X149641793Y-91008188D01*
X149657163Y-91124934D01*
X149659772Y-91144754D01*
X149662931Y-91152380D01*
X149709628Y-91265115D01*
X149715645Y-91279642D01*
X149804526Y-91395474D01*
X149811076Y-91400500D01*
X149811079Y-91400503D01*
X149913804Y-91479327D01*
X149920357Y-91484355D01*
X150055246Y-91540228D01*
X150200000Y-91559285D01*
X150208188Y-91558207D01*
X150336566Y-91541306D01*
X150344754Y-91540228D01*
X150479643Y-91484355D01*
X150486196Y-91479327D01*
X150588921Y-91400503D01*
X150588924Y-91400500D01*
X150595474Y-91395474D01*
X150684355Y-91279642D01*
X150690373Y-91265115D01*
X150737069Y-91152380D01*
X150740228Y-91144754D01*
X150742838Y-91124934D01*
X150758207Y-91008188D01*
X150759285Y-91000000D01*
X150750144Y-90930565D01*
X150741306Y-90863432D01*
X150741305Y-90863430D01*
X150740228Y-90855246D01*
X150720422Y-90807430D01*
X150687515Y-90727986D01*
X150687514Y-90727984D01*
X150684355Y-90720358D01*
X150595474Y-90604526D01*
X150588924Y-90599500D01*
X150588921Y-90599497D01*
X150486196Y-90520673D01*
X150486194Y-90520672D01*
X150479643Y-90515645D01*
X150344754Y-90459772D01*
X150200000Y-90440715D01*
X150191812Y-90441793D01*
X150063432Y-90458694D01*
X150063430Y-90458695D01*
X150055246Y-90459772D01*
X150018058Y-90475176D01*
X149927986Y-90512485D01*
X149927984Y-90512486D01*
X149920358Y-90515645D01*
X149804526Y-90604526D01*
X149715645Y-90720358D01*
X149712486Y-90727984D01*
X149712485Y-90727986D01*
X149679578Y-90807430D01*
X149659772Y-90855246D01*
X149658695Y-90863430D01*
X149658694Y-90863432D01*
X149649856Y-90930565D01*
X149640715Y-91000000D01*
X122754500Y-91000000D01*
X122754500Y-89700000D01*
X146440715Y-89700000D01*
X146441793Y-89708188D01*
X146451753Y-89783840D01*
X146459772Y-89844754D01*
X146462931Y-89852380D01*
X146501658Y-89945874D01*
X146515645Y-89979642D01*
X146604526Y-90095474D01*
X146611076Y-90100500D01*
X146611079Y-90100503D01*
X146713804Y-90179327D01*
X146720357Y-90184355D01*
X146855246Y-90240228D01*
X147000000Y-90259285D01*
X147008188Y-90258207D01*
X147136566Y-90241306D01*
X147144754Y-90240228D01*
X147279643Y-90184355D01*
X147286196Y-90179327D01*
X147388921Y-90100503D01*
X147388924Y-90100500D01*
X147395474Y-90095474D01*
X147484355Y-89979642D01*
X147498343Y-89945874D01*
X147537069Y-89852380D01*
X147540228Y-89844754D01*
X147548248Y-89783840D01*
X147558207Y-89708188D01*
X147559285Y-89700000D01*
X147550554Y-89633682D01*
X147541306Y-89563432D01*
X147541305Y-89563430D01*
X147540228Y-89555246D01*
X147534254Y-89540824D01*
X156786201Y-89540824D01*
X156815810Y-89713141D01*
X156818676Y-89719875D01*
X156818676Y-89719877D01*
X156870215Y-89840999D01*
X156884267Y-89874024D01*
X156987898Y-90014843D01*
X157121146Y-90128045D01*
X157276862Y-90207558D01*
X157283967Y-90209297D01*
X157283971Y-90209298D01*
X157335845Y-90221991D01*
X157446693Y-90249115D01*
X157452295Y-90249463D01*
X157452298Y-90249463D01*
X157455795Y-90249680D01*
X157455805Y-90249680D01*
X157457734Y-90249800D01*
X157583779Y-90249800D01*
X157675182Y-90239144D01*
X157706393Y-90235505D01*
X157706395Y-90235505D01*
X157713665Y-90234657D01*
X157720543Y-90232161D01*
X157720545Y-90232160D01*
X157871136Y-90177498D01*
X157878015Y-90175001D01*
X158024233Y-90079136D01*
X158144475Y-89952205D01*
X158148150Y-89945878D01*
X158148153Y-89945874D01*
X158228615Y-89807347D01*
X158232292Y-89801017D01*
X158237495Y-89783840D01*
X158280851Y-89640688D01*
X158282973Y-89633682D01*
X158293799Y-89459176D01*
X158264190Y-89286859D01*
X158241432Y-89233375D01*
X158198600Y-89132713D01*
X158198599Y-89132711D01*
X158195733Y-89125976D01*
X158092102Y-88985157D01*
X157958854Y-88871955D01*
X157852454Y-88817624D01*
X157809654Y-88795769D01*
X157809652Y-88795768D01*
X157803138Y-88792442D01*
X157796033Y-88790703D01*
X157796029Y-88790702D01*
X157702597Y-88767840D01*
X157633307Y-88750885D01*
X157627705Y-88750537D01*
X157627702Y-88750537D01*
X157624205Y-88750320D01*
X157624195Y-88750320D01*
X157622266Y-88750200D01*
X157496221Y-88750200D01*
X157404818Y-88760856D01*
X157373607Y-88764495D01*
X157373605Y-88764495D01*
X157366335Y-88765343D01*
X157359457Y-88767839D01*
X157359455Y-88767840D01*
X157222303Y-88817624D01*
X157201985Y-88824999D01*
X157055767Y-88920864D01*
X156935525Y-89047795D01*
X156931850Y-89054122D01*
X156931847Y-89054126D01*
X156893394Y-89120329D01*
X156847708Y-89198983D01*
X156845587Y-89205987D01*
X156845585Y-89205991D01*
X156837265Y-89233463D01*
X156797027Y-89366318D01*
X156786201Y-89540824D01*
X147534254Y-89540824D01*
X147520422Y-89507430D01*
X147487515Y-89427986D01*
X147487514Y-89427984D01*
X147484355Y-89420358D01*
X147395474Y-89304526D01*
X147388924Y-89299500D01*
X147388921Y-89299497D01*
X147286196Y-89220673D01*
X147286194Y-89220672D01*
X147279643Y-89215645D01*
X147144754Y-89159772D01*
X147108416Y-89154988D01*
X147008188Y-89141793D01*
X147000000Y-89140715D01*
X146991812Y-89141793D01*
X146863432Y-89158694D01*
X146863430Y-89158695D01*
X146855246Y-89159772D01*
X146807430Y-89179578D01*
X146727986Y-89212485D01*
X146727984Y-89212486D01*
X146720358Y-89215645D01*
X146604526Y-89304526D01*
X146515645Y-89420358D01*
X146512486Y-89427984D01*
X146512485Y-89427986D01*
X146479578Y-89507430D01*
X146459772Y-89555246D01*
X146458695Y-89563430D01*
X146458694Y-89563432D01*
X146449446Y-89633682D01*
X146440715Y-89700000D01*
X122754500Y-89700000D01*
X122754500Y-88400000D01*
X145140715Y-88400000D01*
X145141793Y-88408188D01*
X145156186Y-88517513D01*
X145159772Y-88544754D01*
X145162931Y-88552380D01*
X145211917Y-88670641D01*
X145215645Y-88679642D01*
X145234241Y-88703877D01*
X145291125Y-88778009D01*
X145304526Y-88795474D01*
X145311076Y-88800500D01*
X145311079Y-88800503D01*
X145399860Y-88868627D01*
X145420357Y-88884355D01*
X145555246Y-88940228D01*
X145700000Y-88959285D01*
X145708188Y-88958207D01*
X145836566Y-88941306D01*
X145844754Y-88940228D01*
X145979643Y-88884355D01*
X146000140Y-88868627D01*
X146088921Y-88800503D01*
X146088924Y-88800500D01*
X146095474Y-88795474D01*
X146108876Y-88778009D01*
X146165759Y-88703877D01*
X146184355Y-88679642D01*
X146188084Y-88670641D01*
X146237069Y-88552380D01*
X146240228Y-88544754D01*
X146242852Y-88524824D01*
X151706201Y-88524824D01*
X151707441Y-88532040D01*
X151707441Y-88532042D01*
X151710936Y-88552380D01*
X151735810Y-88697141D01*
X151738676Y-88703875D01*
X151738676Y-88703877D01*
X151790215Y-88824999D01*
X151804267Y-88858024D01*
X151907898Y-88998843D01*
X152041146Y-89112045D01*
X152196862Y-89191558D01*
X152203967Y-89193297D01*
X152203971Y-89193298D01*
X152255845Y-89205991D01*
X152366693Y-89233115D01*
X152372295Y-89233463D01*
X152372298Y-89233463D01*
X152375795Y-89233680D01*
X152375805Y-89233680D01*
X152377734Y-89233800D01*
X152503779Y-89233800D01*
X152595182Y-89223144D01*
X152626393Y-89219505D01*
X152626395Y-89219505D01*
X152633665Y-89218657D01*
X152640543Y-89216161D01*
X152640545Y-89216160D01*
X152791136Y-89161498D01*
X152798015Y-89159001D01*
X152944233Y-89063136D01*
X153064475Y-88936205D01*
X153068150Y-88929878D01*
X153068153Y-88929874D01*
X153148615Y-88791347D01*
X153152292Y-88785017D01*
X153157495Y-88767840D01*
X153200851Y-88624688D01*
X153202973Y-88617682D01*
X153211301Y-88483435D01*
X153235482Y-88416684D01*
X153291914Y-88373602D01*
X153362678Y-88367869D01*
X153413761Y-88391274D01*
X153450357Y-88419355D01*
X153585246Y-88475228D01*
X153730000Y-88494285D01*
X153738188Y-88493207D01*
X153739031Y-88493096D01*
X170840729Y-88493096D01*
X170858113Y-88650553D01*
X170860723Y-88657684D01*
X170860723Y-88657686D01*
X170909636Y-88791347D01*
X170912553Y-88799319D01*
X170916789Y-88805622D01*
X170916789Y-88805623D01*
X170964548Y-88876695D01*
X171000908Y-88930805D01*
X171006527Y-88935918D01*
X171006528Y-88935919D01*
X171032207Y-88959285D01*
X171118076Y-89037419D01*
X171257293Y-89113008D01*
X171410522Y-89153207D01*
X171494477Y-89154526D01*
X171561319Y-89155576D01*
X171561322Y-89155576D01*
X171568916Y-89155695D01*
X171723332Y-89120329D01*
X171847611Y-89057824D01*
X171858072Y-89052563D01*
X171858075Y-89052561D01*
X171864855Y-89049151D01*
X171870626Y-89044222D01*
X171870629Y-89044220D01*
X171979536Y-88951204D01*
X171979536Y-88951203D01*
X171985314Y-88946269D01*
X172077755Y-88817624D01*
X172136842Y-88670641D01*
X172145419Y-88610377D01*
X172158581Y-88517891D01*
X172158581Y-88517888D01*
X172159162Y-88513807D01*
X172159307Y-88500000D01*
X172158616Y-88494285D01*
X172148940Y-88414329D01*
X172140276Y-88342733D01*
X172117332Y-88282014D01*
X172111964Y-88211221D01*
X172145721Y-88148763D01*
X172207887Y-88114471D01*
X172267171Y-88115600D01*
X172403171Y-88151279D01*
X172403175Y-88151280D01*
X172410522Y-88153207D01*
X172494477Y-88154526D01*
X172561319Y-88155576D01*
X172561322Y-88155576D01*
X172568916Y-88155695D01*
X172689900Y-88127986D01*
X172715932Y-88122024D01*
X172715933Y-88122024D01*
X172723332Y-88120329D01*
X172724271Y-88119857D01*
X172792356Y-88115769D01*
X172854275Y-88150504D01*
X172887586Y-88213201D01*
X172881560Y-88284344D01*
X172861406Y-88336037D01*
X172860414Y-88343570D01*
X172860414Y-88343571D01*
X172842001Y-88483436D01*
X172840729Y-88493096D01*
X172858113Y-88650553D01*
X172860723Y-88657684D01*
X172860723Y-88657686D01*
X172909636Y-88791347D01*
X172912553Y-88799319D01*
X172916789Y-88805622D01*
X172916789Y-88805623D01*
X172964548Y-88876695D01*
X173000908Y-88930805D01*
X173006527Y-88935918D01*
X173006528Y-88935919D01*
X173032207Y-88959285D01*
X173118076Y-89037419D01*
X173257293Y-89113008D01*
X173410522Y-89153207D01*
X173494477Y-89154526D01*
X173561319Y-89155576D01*
X173561322Y-89155576D01*
X173568916Y-89155695D01*
X173723332Y-89120329D01*
X173847611Y-89057824D01*
X173858072Y-89052563D01*
X173858075Y-89052561D01*
X173864855Y-89049151D01*
X173870626Y-89044222D01*
X173870629Y-89044220D01*
X173979536Y-88951204D01*
X173979536Y-88951203D01*
X173985314Y-88946269D01*
X174077755Y-88817624D01*
X174136842Y-88670641D01*
X174145419Y-88610377D01*
X174158581Y-88517891D01*
X174158581Y-88517888D01*
X174159162Y-88513807D01*
X174159307Y-88500000D01*
X174158616Y-88494285D01*
X174148940Y-88414329D01*
X174140276Y-88342733D01*
X174084280Y-88194546D01*
X173994553Y-88063992D01*
X173876275Y-87958611D01*
X173868889Y-87954700D01*
X173789158Y-87912485D01*
X173736274Y-87884484D01*
X173582633Y-87845892D01*
X173575034Y-87845852D01*
X173575033Y-87845852D01*
X173509181Y-87845507D01*
X173424221Y-87845062D01*
X173416841Y-87846834D01*
X173416839Y-87846834D01*
X173270184Y-87882043D01*
X173269705Y-87880047D01*
X173209326Y-87884304D01*
X173147048Y-87850216D01*
X173113086Y-87787870D01*
X173119325Y-87714215D01*
X173134008Y-87677690D01*
X173136842Y-87670641D01*
X173159162Y-87513807D01*
X173159307Y-87500000D01*
X173140276Y-87342733D01*
X173117332Y-87282014D01*
X173111964Y-87211221D01*
X173145721Y-87148763D01*
X173207887Y-87114471D01*
X173267171Y-87115600D01*
X173403171Y-87151279D01*
X173403175Y-87151280D01*
X173410522Y-87153207D01*
X173494477Y-87154526D01*
X173561319Y-87155576D01*
X173561322Y-87155576D01*
X173568916Y-87155695D01*
X173723332Y-87120329D01*
X173835347Y-87063992D01*
X173858072Y-87052563D01*
X173858075Y-87052561D01*
X173864855Y-87049151D01*
X173870626Y-87044222D01*
X173870629Y-87044220D01*
X173979536Y-86951204D01*
X173979536Y-86951203D01*
X173985314Y-86946269D01*
X174077755Y-86817624D01*
X174136842Y-86670641D01*
X174159162Y-86513807D01*
X174159307Y-86500000D01*
X174140276Y-86342733D01*
X174084280Y-86194546D01*
X174053710Y-86150066D01*
X173998855Y-86070251D01*
X173998854Y-86070249D01*
X173994553Y-86063992D01*
X173876275Y-85958611D01*
X173868889Y-85954700D01*
X173742988Y-85888039D01*
X173742989Y-85888039D01*
X173736274Y-85884484D01*
X173582633Y-85845892D01*
X173575034Y-85845852D01*
X173575033Y-85845852D01*
X173509181Y-85845507D01*
X173424221Y-85845062D01*
X173416841Y-85846834D01*
X173416839Y-85846834D01*
X173277563Y-85880271D01*
X173277560Y-85880272D01*
X173270184Y-85882043D01*
X173129414Y-85954700D01*
X173010039Y-86058838D01*
X172918950Y-86188444D01*
X172913802Y-86201649D01*
X172874225Y-86303159D01*
X172861406Y-86336037D01*
X172860414Y-86343570D01*
X172860414Y-86343571D01*
X172843531Y-86471813D01*
X172840729Y-86493096D01*
X172843774Y-86520672D01*
X172853755Y-86611077D01*
X172858113Y-86650553D01*
X172860723Y-86657684D01*
X172860723Y-86657686D01*
X172882936Y-86718386D01*
X172887562Y-86789232D01*
X172853152Y-86851332D01*
X172790630Y-86884971D01*
X172733915Y-86883891D01*
X172590004Y-86847743D01*
X172590000Y-86847743D01*
X172582633Y-86845892D01*
X172575034Y-86845852D01*
X172575033Y-86845852D01*
X172509181Y-86845507D01*
X172424221Y-86845062D01*
X172416841Y-86846834D01*
X172416839Y-86846834D01*
X172270184Y-86882043D01*
X172269705Y-86880047D01*
X172209326Y-86884304D01*
X172147048Y-86850216D01*
X172113086Y-86787870D01*
X172119325Y-86714215D01*
X172134008Y-86677690D01*
X172136842Y-86670641D01*
X172159162Y-86513807D01*
X172159307Y-86500000D01*
X172140276Y-86342733D01*
X172084280Y-86194546D01*
X172053710Y-86150066D01*
X171998855Y-86070251D01*
X171998854Y-86070249D01*
X171994553Y-86063992D01*
X171876275Y-85958611D01*
X171868889Y-85954700D01*
X171742988Y-85888039D01*
X171742989Y-85888039D01*
X171736274Y-85884484D01*
X171582633Y-85845892D01*
X171575034Y-85845852D01*
X171575033Y-85845852D01*
X171509181Y-85845507D01*
X171424221Y-85845062D01*
X171416841Y-85846834D01*
X171416839Y-85846834D01*
X171277563Y-85880271D01*
X171277560Y-85880272D01*
X171270184Y-85882043D01*
X171129414Y-85954700D01*
X171010039Y-86058838D01*
X170918950Y-86188444D01*
X170913802Y-86201649D01*
X170874225Y-86303159D01*
X170861406Y-86336037D01*
X170860414Y-86343570D01*
X170860414Y-86343571D01*
X170843531Y-86471813D01*
X170840729Y-86493096D01*
X170843774Y-86520672D01*
X170853755Y-86611077D01*
X170858113Y-86650553D01*
X170860723Y-86657684D01*
X170860723Y-86657686D01*
X170908862Y-86789232D01*
X170912553Y-86799319D01*
X170916789Y-86805622D01*
X170916789Y-86805623D01*
X170969782Y-86884484D01*
X171000908Y-86930805D01*
X171006527Y-86935918D01*
X171006528Y-86935919D01*
X171067954Y-86991812D01*
X171118076Y-87037419D01*
X171257293Y-87113008D01*
X171410522Y-87153207D01*
X171494477Y-87154526D01*
X171561319Y-87155576D01*
X171561322Y-87155576D01*
X171568916Y-87155695D01*
X171659744Y-87134893D01*
X171715932Y-87122024D01*
X171715933Y-87122024D01*
X171723332Y-87120329D01*
X171724271Y-87119857D01*
X171792356Y-87115769D01*
X171854275Y-87150504D01*
X171887586Y-87213201D01*
X171881560Y-87284344D01*
X171861406Y-87336037D01*
X171860414Y-87343570D01*
X171860414Y-87343571D01*
X171841880Y-87484355D01*
X171840729Y-87493096D01*
X171858113Y-87650553D01*
X171860723Y-87657684D01*
X171860723Y-87657686D01*
X171882936Y-87718386D01*
X171887562Y-87789232D01*
X171853152Y-87851332D01*
X171790630Y-87884971D01*
X171733915Y-87883891D01*
X171590004Y-87847743D01*
X171590000Y-87847743D01*
X171582633Y-87845892D01*
X171575034Y-87845852D01*
X171575033Y-87845852D01*
X171509181Y-87845507D01*
X171424221Y-87845062D01*
X171416841Y-87846834D01*
X171416839Y-87846834D01*
X171277563Y-87880271D01*
X171277560Y-87880272D01*
X171270184Y-87882043D01*
X171129414Y-87954700D01*
X171010039Y-88058838D01*
X170918950Y-88188444D01*
X170861406Y-88336037D01*
X170860414Y-88343570D01*
X170860414Y-88343571D01*
X170842001Y-88483436D01*
X170840729Y-88493096D01*
X153739031Y-88493096D01*
X153866566Y-88476306D01*
X153874754Y-88475228D01*
X154009643Y-88419355D01*
X154034867Y-88400000D01*
X154118921Y-88335503D01*
X154118924Y-88335500D01*
X154125474Y-88330474D01*
X154214355Y-88214642D01*
X154225272Y-88188288D01*
X154256454Y-88113008D01*
X154270228Y-88079754D01*
X154275709Y-88038126D01*
X154288207Y-87943188D01*
X154289285Y-87935000D01*
X154283103Y-87888039D01*
X154271306Y-87798432D01*
X154271305Y-87798430D01*
X154270228Y-87790246D01*
X154214355Y-87655358D01*
X154215862Y-87654734D01*
X154201375Y-87595036D01*
X154224592Y-87527943D01*
X154266538Y-87494554D01*
X154264859Y-87491646D01*
X154272014Y-87487515D01*
X154279643Y-87484355D01*
X154286196Y-87479327D01*
X154388921Y-87400503D01*
X154388924Y-87400500D01*
X154395474Y-87395474D01*
X154484355Y-87279642D01*
X154540228Y-87144754D01*
X154543221Y-87122024D01*
X154558207Y-87008188D01*
X154559285Y-87000000D01*
X154552211Y-86946269D01*
X154541306Y-86863432D01*
X154541305Y-86863430D01*
X154540228Y-86855246D01*
X154484355Y-86720358D01*
X154430792Y-86650553D01*
X154400501Y-86611077D01*
X154400500Y-86611076D01*
X154395474Y-86604526D01*
X154388924Y-86599500D01*
X154388921Y-86599497D01*
X154286196Y-86520673D01*
X154286194Y-86520672D01*
X154279643Y-86515645D01*
X154144754Y-86459772D01*
X154000000Y-86440715D01*
X153991812Y-86441793D01*
X153863432Y-86458694D01*
X153863430Y-86458695D01*
X153855246Y-86459772D01*
X153834520Y-86468357D01*
X153727986Y-86512485D01*
X153727984Y-86512486D01*
X153720358Y-86515645D01*
X153604526Y-86604526D01*
X153515645Y-86720358D01*
X153459772Y-86855246D01*
X153458695Y-86863430D01*
X153458694Y-86863432D01*
X153447789Y-86946269D01*
X153440715Y-87000000D01*
X153441793Y-87008188D01*
X153456780Y-87122024D01*
X153459772Y-87144754D01*
X153464255Y-87155576D01*
X153515645Y-87279642D01*
X153514138Y-87280266D01*
X153528625Y-87339964D01*
X153505408Y-87407057D01*
X153463461Y-87440447D01*
X153465140Y-87443355D01*
X153457987Y-87447485D01*
X153450358Y-87450645D01*
X153334526Y-87539526D01*
X153245645Y-87655358D01*
X153242486Y-87662984D01*
X153242485Y-87662986D01*
X153209578Y-87742430D01*
X153189772Y-87790246D01*
X153188695Y-87798430D01*
X153188694Y-87798432D01*
X153187632Y-87806502D01*
X153181122Y-87855955D01*
X153180911Y-87857555D01*
X153152189Y-87922483D01*
X153092924Y-87961575D01*
X153021933Y-87962420D01*
X152974410Y-87937135D01*
X152884433Y-87860695D01*
X152878854Y-87855955D01*
X152766203Y-87798432D01*
X152729654Y-87779769D01*
X152729652Y-87779768D01*
X152723138Y-87776442D01*
X152716033Y-87774703D01*
X152716029Y-87774702D01*
X152622597Y-87751840D01*
X152553307Y-87734885D01*
X152547705Y-87734537D01*
X152547702Y-87734537D01*
X152544205Y-87734320D01*
X152544195Y-87734320D01*
X152542266Y-87734200D01*
X152416221Y-87734200D01*
X152324818Y-87744856D01*
X152293607Y-87748495D01*
X152293605Y-87748495D01*
X152286335Y-87749343D01*
X152279457Y-87751839D01*
X152279455Y-87751840D01*
X152148653Y-87799319D01*
X152121985Y-87808999D01*
X151975767Y-87904864D01*
X151855525Y-88031795D01*
X151851850Y-88038122D01*
X151851847Y-88038126D01*
X151803116Y-88122024D01*
X151767708Y-88182983D01*
X151765587Y-88189987D01*
X151765585Y-88189991D01*
X151743342Y-88263432D01*
X151717027Y-88350318D01*
X151706201Y-88524824D01*
X146242852Y-88524824D01*
X146243815Y-88517513D01*
X146258207Y-88408188D01*
X146259285Y-88400000D01*
X146249932Y-88328957D01*
X146241306Y-88263432D01*
X146241305Y-88263430D01*
X146240228Y-88255246D01*
X146213198Y-88189991D01*
X146187515Y-88127986D01*
X146187514Y-88127984D01*
X146184355Y-88120358D01*
X146095474Y-88004526D01*
X146088924Y-87999500D01*
X146088921Y-87999497D01*
X145986196Y-87920673D01*
X145986194Y-87920672D01*
X145979643Y-87915645D01*
X145844754Y-87859772D01*
X145700000Y-87840715D01*
X145691812Y-87841793D01*
X145563432Y-87858694D01*
X145563430Y-87858695D01*
X145555246Y-87859772D01*
X145507430Y-87879578D01*
X145427986Y-87912485D01*
X145427984Y-87912486D01*
X145420358Y-87915645D01*
X145304526Y-88004526D01*
X145215645Y-88120358D01*
X145212486Y-88127984D01*
X145212485Y-88127986D01*
X145186802Y-88189991D01*
X145159772Y-88255246D01*
X145158695Y-88263430D01*
X145158694Y-88263432D01*
X145150068Y-88328957D01*
X145140715Y-88400000D01*
X122754500Y-88400000D01*
X122754500Y-84792186D01*
X132891018Y-84792186D01*
X132916579Y-85060100D01*
X132917664Y-85064534D01*
X132917665Y-85064540D01*
X132979461Y-85317080D01*
X132980547Y-85321518D01*
X133081583Y-85570963D01*
X133217569Y-85803210D01*
X133293559Y-85898231D01*
X133367484Y-85990669D01*
X133385658Y-86013395D01*
X133582327Y-86197113D01*
X133803457Y-86350516D01*
X134044416Y-86470391D01*
X134048750Y-86471812D01*
X134048753Y-86471813D01*
X134295823Y-86552807D01*
X134295829Y-86552808D01*
X134300156Y-86554227D01*
X134304647Y-86555007D01*
X134304648Y-86555007D01*
X134561538Y-86599611D01*
X134561546Y-86599612D01*
X134565319Y-86600267D01*
X134569156Y-86600458D01*
X134648777Y-86604422D01*
X134648785Y-86604422D01*
X134650348Y-86604500D01*
X134818374Y-86604500D01*
X134820642Y-86604335D01*
X134820654Y-86604335D01*
X134951457Y-86594844D01*
X135018425Y-86589985D01*
X135022880Y-86589001D01*
X135022883Y-86589001D01*
X135276770Y-86532947D01*
X135276772Y-86532946D01*
X135281226Y-86531963D01*
X135532900Y-86436613D01*
X135637900Y-86378291D01*
X135764179Y-86308149D01*
X135764180Y-86308148D01*
X135768172Y-86305931D01*
X135838718Y-86252092D01*
X135978491Y-86145421D01*
X135978495Y-86145417D01*
X135982116Y-86142654D01*
X135991552Y-86133002D01*
X136162030Y-85958611D01*
X136170249Y-85950203D01*
X136215878Y-85887515D01*
X136325942Y-85736304D01*
X136325947Y-85736297D01*
X136328630Y-85732610D01*
X136453941Y-85494433D01*
X136538407Y-85255246D01*
X136542034Y-85244975D01*
X136542034Y-85244974D01*
X136543557Y-85240662D01*
X136577727Y-85067299D01*
X136594720Y-84981083D01*
X136594721Y-84981077D01*
X136595601Y-84976611D01*
X136598636Y-84915645D01*
X136608755Y-84712383D01*
X136608755Y-84712377D01*
X136608982Y-84707814D01*
X136583421Y-84439900D01*
X136575156Y-84406120D01*
X136573642Y-84399933D01*
X142370500Y-84399933D01*
X142370501Y-86150066D01*
X142376898Y-86182228D01*
X142380761Y-86201649D01*
X142385266Y-86224301D01*
X142392161Y-86234620D01*
X142392162Y-86234622D01*
X142432516Y-86295015D01*
X142441516Y-86308484D01*
X142525699Y-86364734D01*
X142599933Y-86379500D01*
X143474858Y-86379500D01*
X144350066Y-86379499D01*
X144385818Y-86372388D01*
X144412126Y-86367156D01*
X144412128Y-86367155D01*
X144424301Y-86364734D01*
X144434621Y-86357839D01*
X144434622Y-86357838D01*
X144498168Y-86315377D01*
X144508484Y-86308484D01*
X144564734Y-86224301D01*
X144579500Y-86150067D01*
X144579499Y-85245964D01*
X144906148Y-85245964D01*
X144919424Y-85448522D01*
X144920845Y-85454118D01*
X144920846Y-85454123D01*
X144941119Y-85533945D01*
X144969392Y-85645269D01*
X144971809Y-85650512D01*
X145007792Y-85728565D01*
X145054377Y-85829616D01*
X145057710Y-85834332D01*
X145145256Y-85958207D01*
X145171533Y-85995389D01*
X145175675Y-85999424D01*
X145231541Y-86053846D01*
X145316938Y-86137035D01*
X145485720Y-86249812D01*
X145491023Y-86252090D01*
X145491026Y-86252092D01*
X145621503Y-86308149D01*
X145672228Y-86329942D01*
X145732460Y-86343571D01*
X145864579Y-86373467D01*
X145864584Y-86373468D01*
X145870216Y-86374742D01*
X145875987Y-86374969D01*
X145875989Y-86374969D01*
X145935756Y-86377317D01*
X146073053Y-86382712D01*
X146180348Y-86367155D01*
X146268231Y-86354413D01*
X146268236Y-86354412D01*
X146273945Y-86353584D01*
X146279409Y-86351729D01*
X146279414Y-86351728D01*
X146460693Y-86290192D01*
X146460698Y-86290190D01*
X146466165Y-86288334D01*
X146643276Y-86189147D01*
X146651596Y-86182228D01*
X146794913Y-86063031D01*
X146799345Y-86059345D01*
X146886378Y-85954700D01*
X146925453Y-85907718D01*
X146925455Y-85907715D01*
X146929147Y-85903276D01*
X147028334Y-85726165D01*
X147030190Y-85720698D01*
X147030192Y-85720693D01*
X147091728Y-85539414D01*
X147091729Y-85539409D01*
X147093584Y-85533945D01*
X147094412Y-85528236D01*
X147094413Y-85528231D01*
X147122179Y-85336727D01*
X147122712Y-85333053D01*
X147124232Y-85275000D01*
X147121564Y-85245964D01*
X147446148Y-85245964D01*
X147459424Y-85448522D01*
X147460845Y-85454118D01*
X147460846Y-85454123D01*
X147481119Y-85533945D01*
X147509392Y-85645269D01*
X147511809Y-85650512D01*
X147547792Y-85728565D01*
X147594377Y-85829616D01*
X147597710Y-85834332D01*
X147685256Y-85958207D01*
X147711533Y-85995389D01*
X147715675Y-85999424D01*
X147771541Y-86053846D01*
X147856938Y-86137035D01*
X148025720Y-86249812D01*
X148031023Y-86252090D01*
X148031026Y-86252092D01*
X148161503Y-86308149D01*
X148212228Y-86329942D01*
X148272460Y-86343571D01*
X148404579Y-86373467D01*
X148404584Y-86373468D01*
X148410216Y-86374742D01*
X148415987Y-86374969D01*
X148415989Y-86374969D01*
X148475756Y-86377317D01*
X148613053Y-86382712D01*
X148720348Y-86367155D01*
X148808231Y-86354413D01*
X148808236Y-86354412D01*
X148813945Y-86353584D01*
X148819409Y-86351729D01*
X148819414Y-86351728D01*
X149000693Y-86290192D01*
X149000698Y-86290190D01*
X149006165Y-86288334D01*
X149183276Y-86189147D01*
X149191596Y-86182228D01*
X149334913Y-86063031D01*
X149339345Y-86059345D01*
X149426378Y-85954700D01*
X149465453Y-85907718D01*
X149465455Y-85907715D01*
X149469147Y-85903276D01*
X149568334Y-85726165D01*
X149570190Y-85720698D01*
X149570192Y-85720693D01*
X149631728Y-85539414D01*
X149631729Y-85539409D01*
X149633584Y-85533945D01*
X149634412Y-85528236D01*
X149634413Y-85528231D01*
X149653005Y-85400000D01*
X160740715Y-85400000D01*
X160741793Y-85408188D01*
X160757597Y-85528231D01*
X160759772Y-85544754D01*
X160779578Y-85592570D01*
X160799090Y-85639674D01*
X160815645Y-85679642D01*
X160904526Y-85795474D01*
X160911076Y-85800500D01*
X160911079Y-85800503D01*
X161013804Y-85879327D01*
X161020357Y-85884355D01*
X161155246Y-85940228D01*
X161300000Y-85959285D01*
X161308188Y-85958207D01*
X161344231Y-85953462D01*
X161444754Y-85940228D01*
X161579643Y-85884355D01*
X161586196Y-85879327D01*
X161688921Y-85800503D01*
X161688924Y-85800500D01*
X161695474Y-85795474D01*
X161784355Y-85679642D01*
X161800911Y-85639674D01*
X161820422Y-85592570D01*
X161840228Y-85544754D01*
X161842404Y-85528231D01*
X161858207Y-85408188D01*
X161859285Y-85400000D01*
X161848369Y-85317080D01*
X161841306Y-85263432D01*
X161841305Y-85263430D01*
X161840228Y-85255246D01*
X161784355Y-85120358D01*
X161695474Y-85004526D01*
X161688924Y-84999500D01*
X161688921Y-84999497D01*
X161586196Y-84920673D01*
X161586194Y-84920672D01*
X161579643Y-84915645D01*
X161444754Y-84859772D01*
X161300000Y-84840715D01*
X161291812Y-84841793D01*
X161163432Y-84858694D01*
X161163430Y-84858695D01*
X161155246Y-84859772D01*
X161124984Y-84872307D01*
X161027986Y-84912485D01*
X161027984Y-84912486D01*
X161020358Y-84915645D01*
X160904526Y-85004526D01*
X160815645Y-85120358D01*
X160759772Y-85255246D01*
X160758695Y-85263430D01*
X160758694Y-85263432D01*
X160751631Y-85317080D01*
X160740715Y-85400000D01*
X149653005Y-85400000D01*
X149662179Y-85336727D01*
X149662712Y-85333053D01*
X149664232Y-85275000D01*
X149652797Y-85150551D01*
X149646187Y-85078613D01*
X149646186Y-85078610D01*
X149645658Y-85072859D01*
X149640776Y-85055548D01*
X149592125Y-84883046D01*
X149592124Y-84883044D01*
X149590557Y-84877487D01*
X149583380Y-84862932D01*
X149503331Y-84700609D01*
X149500776Y-84695428D01*
X149379320Y-84532779D01*
X149343860Y-84500000D01*
X158940715Y-84500000D01*
X158959772Y-84644754D01*
X159015645Y-84779642D01*
X159028766Y-84796742D01*
X159094990Y-84883046D01*
X159104526Y-84895474D01*
X159111076Y-84900500D01*
X159111079Y-84900503D01*
X159213804Y-84979327D01*
X159220357Y-84984355D01*
X159355246Y-85040228D01*
X159500000Y-85059285D01*
X159508188Y-85058207D01*
X159528386Y-85055548D01*
X159644754Y-85040228D01*
X159779643Y-84984355D01*
X159786196Y-84979327D01*
X159888921Y-84900503D01*
X159888924Y-84900500D01*
X159895474Y-84895474D01*
X159905011Y-84883046D01*
X159971234Y-84796742D01*
X159974730Y-84792186D01*
X163391018Y-84792186D01*
X163416579Y-85060100D01*
X163417664Y-85064534D01*
X163417665Y-85064540D01*
X163479461Y-85317080D01*
X163480547Y-85321518D01*
X163581583Y-85570963D01*
X163717569Y-85803210D01*
X163793559Y-85898231D01*
X163867484Y-85990669D01*
X163885658Y-86013395D01*
X164082327Y-86197113D01*
X164303457Y-86350516D01*
X164544416Y-86470391D01*
X164548750Y-86471812D01*
X164548753Y-86471813D01*
X164795823Y-86552807D01*
X164795829Y-86552808D01*
X164800156Y-86554227D01*
X164804647Y-86555007D01*
X164804648Y-86555007D01*
X165061538Y-86599611D01*
X165061546Y-86599612D01*
X165065319Y-86600267D01*
X165069156Y-86600458D01*
X165148777Y-86604422D01*
X165148785Y-86604422D01*
X165150348Y-86604500D01*
X165318374Y-86604500D01*
X165320642Y-86604335D01*
X165320654Y-86604335D01*
X165451457Y-86594844D01*
X165518425Y-86589985D01*
X165522880Y-86589001D01*
X165522883Y-86589001D01*
X165776770Y-86532947D01*
X165776772Y-86532946D01*
X165781226Y-86531963D01*
X166032900Y-86436613D01*
X166137900Y-86378291D01*
X166264179Y-86308149D01*
X166264180Y-86308148D01*
X166268172Y-86305931D01*
X166338718Y-86252092D01*
X166478491Y-86145421D01*
X166478495Y-86145417D01*
X166482116Y-86142654D01*
X166491552Y-86133002D01*
X166662030Y-85958611D01*
X166670249Y-85950203D01*
X166715878Y-85887515D01*
X166825942Y-85736304D01*
X166825947Y-85736297D01*
X166828630Y-85732610D01*
X166953941Y-85494433D01*
X167038407Y-85255246D01*
X167042034Y-85244975D01*
X167042034Y-85244974D01*
X167043557Y-85240662D01*
X167077727Y-85067299D01*
X167094720Y-84981083D01*
X167094721Y-84981077D01*
X167095601Y-84976611D01*
X167098636Y-84915645D01*
X167108755Y-84712383D01*
X167108755Y-84712377D01*
X167108982Y-84707814D01*
X167083421Y-84439900D01*
X167075156Y-84406120D01*
X167020539Y-84182920D01*
X167019453Y-84178482D01*
X166918417Y-83929037D01*
X166782431Y-83696790D01*
X166640525Y-83519345D01*
X166617194Y-83490171D01*
X166617193Y-83490169D01*
X166614342Y-83486605D01*
X166417673Y-83302887D01*
X166196543Y-83149484D01*
X165955584Y-83029609D01*
X165951250Y-83028188D01*
X165951247Y-83028187D01*
X165704177Y-82947193D01*
X165704171Y-82947192D01*
X165699844Y-82945773D01*
X165695352Y-82944993D01*
X165438462Y-82900389D01*
X165438454Y-82900388D01*
X165434681Y-82899733D01*
X165424718Y-82899237D01*
X165351223Y-82895578D01*
X165351215Y-82895578D01*
X165349652Y-82895500D01*
X165181626Y-82895500D01*
X165179358Y-82895665D01*
X165179346Y-82895665D01*
X165048543Y-82905156D01*
X164981575Y-82910015D01*
X164977120Y-82910999D01*
X164977117Y-82910999D01*
X164723230Y-82967053D01*
X164723228Y-82967054D01*
X164718774Y-82968037D01*
X164467100Y-83063387D01*
X164231828Y-83194069D01*
X164228196Y-83196841D01*
X164021509Y-83354579D01*
X164021505Y-83354583D01*
X164017884Y-83357346D01*
X163829751Y-83549797D01*
X163827066Y-83553486D01*
X163674058Y-83763696D01*
X163674053Y-83763703D01*
X163671370Y-83767390D01*
X163546059Y-84005567D01*
X163456443Y-84259338D01*
X163440964Y-84337872D01*
X163407502Y-84507648D01*
X163404399Y-84523389D01*
X163404172Y-84527942D01*
X163404172Y-84527945D01*
X163394991Y-84712383D01*
X163391018Y-84792186D01*
X159974730Y-84792186D01*
X159984355Y-84779642D01*
X160040228Y-84644754D01*
X160059285Y-84500000D01*
X160043173Y-84377612D01*
X160041306Y-84363432D01*
X160041305Y-84363430D01*
X160040228Y-84355246D01*
X159984355Y-84220358D01*
X159895474Y-84104526D01*
X159888924Y-84099500D01*
X159888921Y-84099497D01*
X159786196Y-84020673D01*
X159786194Y-84020672D01*
X159779643Y-84015645D01*
X159644754Y-83959772D01*
X159500000Y-83940715D01*
X159491812Y-83941793D01*
X159363432Y-83958694D01*
X159363430Y-83958695D01*
X159355246Y-83959772D01*
X159307430Y-83979578D01*
X159227986Y-84012485D01*
X159227984Y-84012486D01*
X159220358Y-84015645D01*
X159104526Y-84104526D01*
X159015645Y-84220358D01*
X158959772Y-84355246D01*
X158958695Y-84363430D01*
X158958694Y-84363432D01*
X158956827Y-84377612D01*
X158940715Y-84500000D01*
X149343860Y-84500000D01*
X149230258Y-84394987D01*
X149225375Y-84391906D01*
X149225371Y-84391903D01*
X149063464Y-84289748D01*
X149058581Y-84286667D01*
X148870039Y-84211446D01*
X148864379Y-84210320D01*
X148864375Y-84210319D01*
X148676613Y-84172971D01*
X148676610Y-84172971D01*
X148670946Y-84171844D01*
X148665171Y-84171768D01*
X148665167Y-84171768D01*
X148563793Y-84170441D01*
X148467971Y-84169187D01*
X148462274Y-84170166D01*
X148462273Y-84170166D01*
X148388050Y-84182920D01*
X148267910Y-84203564D01*
X148077463Y-84273824D01*
X147903010Y-84377612D01*
X147898670Y-84381418D01*
X147898666Y-84381421D01*
X147837047Y-84435460D01*
X147750392Y-84511455D01*
X147624720Y-84670869D01*
X147622031Y-84675980D01*
X147622029Y-84675983D01*
X147609073Y-84700609D01*
X147530203Y-84850515D01*
X147470007Y-85044378D01*
X147446148Y-85245964D01*
X147121564Y-85245964D01*
X147112797Y-85150551D01*
X147106187Y-85078613D01*
X147106186Y-85078610D01*
X147105658Y-85072859D01*
X147100776Y-85055548D01*
X147052125Y-84883046D01*
X147052124Y-84883044D01*
X147050557Y-84877487D01*
X147043380Y-84862932D01*
X146963331Y-84700609D01*
X146960776Y-84695428D01*
X146839320Y-84532779D01*
X146690258Y-84394987D01*
X146685375Y-84391906D01*
X146685371Y-84391903D01*
X146523464Y-84289748D01*
X146518581Y-84286667D01*
X146330039Y-84211446D01*
X146324379Y-84210320D01*
X146324375Y-84210319D01*
X146136613Y-84172971D01*
X146136610Y-84172971D01*
X146130946Y-84171844D01*
X146125171Y-84171768D01*
X146125167Y-84171768D01*
X146023793Y-84170441D01*
X145927971Y-84169187D01*
X145922274Y-84170166D01*
X145922273Y-84170166D01*
X145848050Y-84182920D01*
X145727910Y-84203564D01*
X145537463Y-84273824D01*
X145363010Y-84377612D01*
X145358670Y-84381418D01*
X145358666Y-84381421D01*
X145297047Y-84435460D01*
X145210392Y-84511455D01*
X145084720Y-84670869D01*
X145082031Y-84675980D01*
X145082029Y-84675983D01*
X145069073Y-84700609D01*
X144990203Y-84850515D01*
X144930007Y-85044378D01*
X144906148Y-85245964D01*
X144579499Y-85245964D01*
X144579499Y-84399934D01*
X144564734Y-84325699D01*
X144538654Y-84286667D01*
X144515377Y-84251832D01*
X144508484Y-84241516D01*
X144424301Y-84185266D01*
X144350067Y-84170500D01*
X143475142Y-84170500D01*
X142599934Y-84170501D01*
X142564182Y-84177612D01*
X142537874Y-84182844D01*
X142537872Y-84182845D01*
X142525699Y-84185266D01*
X142515379Y-84192161D01*
X142515378Y-84192162D01*
X142482985Y-84213807D01*
X142441516Y-84241516D01*
X142385266Y-84325699D01*
X142370500Y-84399933D01*
X136573642Y-84399933D01*
X136520539Y-84182920D01*
X136519453Y-84178482D01*
X136418417Y-83929037D01*
X136282431Y-83696790D01*
X136140525Y-83519345D01*
X136117194Y-83490171D01*
X136117193Y-83490169D01*
X136114342Y-83486605D01*
X135917673Y-83302887D01*
X135696543Y-83149484D01*
X135455584Y-83029609D01*
X135451250Y-83028188D01*
X135451247Y-83028187D01*
X135204177Y-82947193D01*
X135204171Y-82947192D01*
X135199844Y-82945773D01*
X135195352Y-82944993D01*
X134938462Y-82900389D01*
X134938454Y-82900388D01*
X134934681Y-82899733D01*
X134924718Y-82899237D01*
X134851223Y-82895578D01*
X134851215Y-82895578D01*
X134849652Y-82895500D01*
X134681626Y-82895500D01*
X134679358Y-82895665D01*
X134679346Y-82895665D01*
X134548543Y-82905156D01*
X134481575Y-82910015D01*
X134477120Y-82910999D01*
X134477117Y-82910999D01*
X134223230Y-82967053D01*
X134223228Y-82967054D01*
X134218774Y-82968037D01*
X133967100Y-83063387D01*
X133731828Y-83194069D01*
X133728196Y-83196841D01*
X133521509Y-83354579D01*
X133521505Y-83354583D01*
X133517884Y-83357346D01*
X133329751Y-83549797D01*
X133327066Y-83553486D01*
X133174058Y-83763696D01*
X133174053Y-83763703D01*
X133171370Y-83767390D01*
X133046059Y-84005567D01*
X132956443Y-84259338D01*
X132940964Y-84337872D01*
X132907502Y-84507648D01*
X132904399Y-84523389D01*
X132904172Y-84527942D01*
X132904172Y-84527945D01*
X132894991Y-84712383D01*
X132891018Y-84792186D01*
X122754500Y-84792186D01*
X122754500Y-82705964D01*
X142366148Y-82705964D01*
X142369570Y-82758176D01*
X142378571Y-82895500D01*
X142379424Y-82908522D01*
X142380845Y-82914118D01*
X142380846Y-82914123D01*
X142418755Y-83063387D01*
X142429392Y-83105269D01*
X142431809Y-83110512D01*
X142469010Y-83191208D01*
X142514377Y-83289616D01*
X142517710Y-83294332D01*
X142562244Y-83357346D01*
X142631533Y-83455389D01*
X142776938Y-83597035D01*
X142945720Y-83709812D01*
X142951023Y-83712090D01*
X142951026Y-83712092D01*
X143126921Y-83787662D01*
X143132228Y-83789942D01*
X143205244Y-83806464D01*
X143324579Y-83833467D01*
X143324584Y-83833468D01*
X143330216Y-83834742D01*
X143335987Y-83834969D01*
X143335989Y-83834969D01*
X143395756Y-83837317D01*
X143533053Y-83842712D01*
X143633499Y-83828148D01*
X143728231Y-83814413D01*
X143728236Y-83814412D01*
X143733945Y-83813584D01*
X143739409Y-83811729D01*
X143739414Y-83811728D01*
X143920693Y-83750192D01*
X143920698Y-83750190D01*
X143926165Y-83748334D01*
X144103276Y-83649147D01*
X144165934Y-83597035D01*
X144254913Y-83523031D01*
X144259345Y-83519345D01*
X144389147Y-83363276D01*
X144488334Y-83186165D01*
X144490190Y-83180698D01*
X144490192Y-83180693D01*
X144551728Y-82999414D01*
X144551729Y-82999409D01*
X144553584Y-82993945D01*
X144554412Y-82988236D01*
X144554413Y-82988231D01*
X144582179Y-82796727D01*
X144582712Y-82793053D01*
X144584232Y-82735000D01*
X144581564Y-82705964D01*
X144906148Y-82705964D01*
X144909570Y-82758176D01*
X144918571Y-82895500D01*
X144919424Y-82908522D01*
X144920845Y-82914118D01*
X144920846Y-82914123D01*
X144958755Y-83063387D01*
X144969392Y-83105269D01*
X144971809Y-83110512D01*
X145009010Y-83191208D01*
X145054377Y-83289616D01*
X145057710Y-83294332D01*
X145102244Y-83357346D01*
X145171533Y-83455389D01*
X145316938Y-83597035D01*
X145485720Y-83709812D01*
X145491023Y-83712090D01*
X145491026Y-83712092D01*
X145666921Y-83787662D01*
X145672228Y-83789942D01*
X145745244Y-83806464D01*
X145864579Y-83833467D01*
X145864584Y-83833468D01*
X145870216Y-83834742D01*
X145875987Y-83834969D01*
X145875989Y-83834969D01*
X145935756Y-83837317D01*
X146073053Y-83842712D01*
X146173499Y-83828148D01*
X146268231Y-83814413D01*
X146268236Y-83814412D01*
X146273945Y-83813584D01*
X146279409Y-83811729D01*
X146279414Y-83811728D01*
X146460693Y-83750192D01*
X146460698Y-83750190D01*
X146466165Y-83748334D01*
X146643276Y-83649147D01*
X146705934Y-83597035D01*
X146794913Y-83523031D01*
X146799345Y-83519345D01*
X146929147Y-83363276D01*
X147028334Y-83186165D01*
X147030190Y-83180698D01*
X147030192Y-83180693D01*
X147091728Y-82999414D01*
X147091729Y-82999409D01*
X147093584Y-82993945D01*
X147094412Y-82988236D01*
X147094413Y-82988231D01*
X147122179Y-82796727D01*
X147122712Y-82793053D01*
X147124232Y-82735000D01*
X147121564Y-82705964D01*
X147446148Y-82705964D01*
X147449570Y-82758176D01*
X147458571Y-82895500D01*
X147459424Y-82908522D01*
X147460845Y-82914118D01*
X147460846Y-82914123D01*
X147498755Y-83063387D01*
X147509392Y-83105269D01*
X147511809Y-83110512D01*
X147549010Y-83191208D01*
X147594377Y-83289616D01*
X147597710Y-83294332D01*
X147642244Y-83357346D01*
X147711533Y-83455389D01*
X147856938Y-83597035D01*
X148025720Y-83709812D01*
X148031023Y-83712090D01*
X148031026Y-83712092D01*
X148206921Y-83787662D01*
X148212228Y-83789942D01*
X148285244Y-83806464D01*
X148404579Y-83833467D01*
X148404584Y-83833468D01*
X148410216Y-83834742D01*
X148415987Y-83834969D01*
X148415989Y-83834969D01*
X148475756Y-83837317D01*
X148613053Y-83842712D01*
X148713499Y-83828148D01*
X148808231Y-83814413D01*
X148808236Y-83814412D01*
X148813945Y-83813584D01*
X148819409Y-83811729D01*
X148819414Y-83811728D01*
X149000693Y-83750192D01*
X149000698Y-83750190D01*
X149006165Y-83748334D01*
X149183276Y-83649147D01*
X149245934Y-83597035D01*
X149334913Y-83523031D01*
X149339345Y-83519345D01*
X149469147Y-83363276D01*
X149568334Y-83186165D01*
X149570190Y-83180698D01*
X149570192Y-83180693D01*
X149631728Y-82999414D01*
X149631729Y-82999409D01*
X149633584Y-82993945D01*
X149634412Y-82988236D01*
X149634413Y-82988231D01*
X149662179Y-82796727D01*
X149662712Y-82793053D01*
X149664232Y-82735000D01*
X149645658Y-82532859D01*
X149644090Y-82527299D01*
X149592125Y-82343046D01*
X149592124Y-82343044D01*
X149590557Y-82337487D01*
X149581184Y-82318479D01*
X149503331Y-82160609D01*
X149500776Y-82155428D01*
X149379320Y-81992779D01*
X149375664Y-81989399D01*
X170740800Y-81989399D01*
X170757318Y-82157862D01*
X170810748Y-82318479D01*
X170898435Y-82463267D01*
X170903326Y-82468332D01*
X170903327Y-82468333D01*
X170960270Y-82527299D01*
X171016021Y-82585031D01*
X171157660Y-82677717D01*
X171316315Y-82736720D01*
X171323296Y-82737651D01*
X171323298Y-82737652D01*
X171477118Y-82758176D01*
X171477122Y-82758176D01*
X171484099Y-82759107D01*
X171491110Y-82758469D01*
X171491114Y-82758469D01*
X171645652Y-82744405D01*
X171652673Y-82743766D01*
X171813659Y-82691458D01*
X171959056Y-82604784D01*
X172081638Y-82488052D01*
X172085539Y-82482181D01*
X172171410Y-82352935D01*
X172171411Y-82352933D01*
X172175311Y-82347063D01*
X172235420Y-82188824D01*
X172258978Y-82021200D01*
X172259274Y-82000000D01*
X172258085Y-81989399D01*
X172740800Y-81989399D01*
X172757318Y-82157862D01*
X172810748Y-82318479D01*
X172898435Y-82463267D01*
X172903326Y-82468332D01*
X172903327Y-82468333D01*
X172960270Y-82527299D01*
X173016021Y-82585031D01*
X173157660Y-82677717D01*
X173316315Y-82736720D01*
X173323296Y-82737651D01*
X173323298Y-82737652D01*
X173477118Y-82758176D01*
X173477122Y-82758176D01*
X173484099Y-82759107D01*
X173491110Y-82758469D01*
X173491114Y-82758469D01*
X173645652Y-82744405D01*
X173652673Y-82743766D01*
X173813659Y-82691458D01*
X173959056Y-82604784D01*
X174081638Y-82488052D01*
X174085539Y-82482181D01*
X174171410Y-82352935D01*
X174171411Y-82352933D01*
X174175311Y-82347063D01*
X174235420Y-82188824D01*
X174258978Y-82021200D01*
X174259274Y-82000000D01*
X174240406Y-81831784D01*
X174184738Y-81671929D01*
X174095038Y-81528379D01*
X173975764Y-81408269D01*
X173832844Y-81317569D01*
X173805442Y-81307812D01*
X173680016Y-81263149D01*
X173680011Y-81263148D01*
X173673381Y-81260787D01*
X173666395Y-81259954D01*
X173666391Y-81259953D01*
X173547287Y-81245751D01*
X173505301Y-81240745D01*
X173498298Y-81241481D01*
X173498297Y-81241481D01*
X173343965Y-81257701D01*
X173343961Y-81257702D01*
X173336957Y-81258438D01*
X173330286Y-81260709D01*
X173183387Y-81310717D01*
X173183384Y-81310718D01*
X173176717Y-81312988D01*
X173170719Y-81316678D01*
X173170717Y-81316679D01*
X173038543Y-81397993D01*
X173038541Y-81397995D01*
X173032544Y-81401684D01*
X172911605Y-81520117D01*
X172819909Y-81662400D01*
X172817498Y-81669025D01*
X172764425Y-81814840D01*
X172764424Y-81814845D01*
X172762015Y-81821463D01*
X172740800Y-81989399D01*
X172258085Y-81989399D01*
X172240406Y-81831784D01*
X172184738Y-81671929D01*
X172095038Y-81528379D01*
X171975764Y-81408269D01*
X171832844Y-81317569D01*
X171805442Y-81307812D01*
X171680016Y-81263149D01*
X171680011Y-81263148D01*
X171673381Y-81260787D01*
X171666395Y-81259954D01*
X171666391Y-81259953D01*
X171547287Y-81245751D01*
X171505301Y-81240745D01*
X171498298Y-81241481D01*
X171498297Y-81241481D01*
X171343965Y-81257701D01*
X171343961Y-81257702D01*
X171336957Y-81258438D01*
X171330286Y-81260709D01*
X171183387Y-81310717D01*
X171183384Y-81310718D01*
X171176717Y-81312988D01*
X171170719Y-81316678D01*
X171170717Y-81316679D01*
X171038543Y-81397993D01*
X171038541Y-81397995D01*
X171032544Y-81401684D01*
X170911605Y-81520117D01*
X170819909Y-81662400D01*
X170817498Y-81669025D01*
X170764425Y-81814840D01*
X170764424Y-81814845D01*
X170762015Y-81821463D01*
X170740800Y-81989399D01*
X149375664Y-81989399D01*
X149230258Y-81854987D01*
X149225375Y-81851906D01*
X149225371Y-81851903D01*
X149063464Y-81749748D01*
X149058581Y-81746667D01*
X148870039Y-81671446D01*
X148864379Y-81670320D01*
X148864375Y-81670319D01*
X148676613Y-81632971D01*
X148676610Y-81632971D01*
X148670946Y-81631844D01*
X148665171Y-81631768D01*
X148665167Y-81631768D01*
X148563793Y-81630441D01*
X148467971Y-81629187D01*
X148462274Y-81630166D01*
X148462273Y-81630166D01*
X148309159Y-81656476D01*
X148267910Y-81663564D01*
X148077463Y-81733824D01*
X147903010Y-81837612D01*
X147898670Y-81841418D01*
X147898666Y-81841421D01*
X147878723Y-81858911D01*
X147750392Y-81971455D01*
X147746817Y-81975990D01*
X147746816Y-81975991D01*
X147717722Y-82012897D01*
X147624720Y-82130869D01*
X147622031Y-82135980D01*
X147622029Y-82135983D01*
X147610518Y-82157862D01*
X147530203Y-82310515D01*
X147470007Y-82504378D01*
X147446148Y-82705964D01*
X147121564Y-82705964D01*
X147105658Y-82532859D01*
X147104090Y-82527299D01*
X147052125Y-82343046D01*
X147052124Y-82343044D01*
X147050557Y-82337487D01*
X147041184Y-82318479D01*
X146963331Y-82160609D01*
X146960776Y-82155428D01*
X146839320Y-81992779D01*
X146690258Y-81854987D01*
X146685375Y-81851906D01*
X146685371Y-81851903D01*
X146523464Y-81749748D01*
X146518581Y-81746667D01*
X146330039Y-81671446D01*
X146324379Y-81670320D01*
X146324375Y-81670319D01*
X146136613Y-81632971D01*
X146136610Y-81632971D01*
X146130946Y-81631844D01*
X146125171Y-81631768D01*
X146125167Y-81631768D01*
X146023793Y-81630441D01*
X145927971Y-81629187D01*
X145922274Y-81630166D01*
X145922273Y-81630166D01*
X145769159Y-81656476D01*
X145727910Y-81663564D01*
X145537463Y-81733824D01*
X145363010Y-81837612D01*
X145358670Y-81841418D01*
X145358666Y-81841421D01*
X145338723Y-81858911D01*
X145210392Y-81971455D01*
X145206817Y-81975990D01*
X145206816Y-81975991D01*
X145177722Y-82012897D01*
X145084720Y-82130869D01*
X145082031Y-82135980D01*
X145082029Y-82135983D01*
X145070518Y-82157862D01*
X144990203Y-82310515D01*
X144930007Y-82504378D01*
X144906148Y-82705964D01*
X144581564Y-82705964D01*
X144565658Y-82532859D01*
X144564090Y-82527299D01*
X144512125Y-82343046D01*
X144512124Y-82343044D01*
X144510557Y-82337487D01*
X144501184Y-82318479D01*
X144423331Y-82160609D01*
X144420776Y-82155428D01*
X144299320Y-81992779D01*
X144150258Y-81854987D01*
X144145375Y-81851906D01*
X144145371Y-81851903D01*
X143983464Y-81749748D01*
X143978581Y-81746667D01*
X143790039Y-81671446D01*
X143784379Y-81670320D01*
X143784375Y-81670319D01*
X143596613Y-81632971D01*
X143596610Y-81632971D01*
X143590946Y-81631844D01*
X143585171Y-81631768D01*
X143585167Y-81631768D01*
X143483793Y-81630441D01*
X143387971Y-81629187D01*
X143382274Y-81630166D01*
X143382273Y-81630166D01*
X143229159Y-81656476D01*
X143187910Y-81663564D01*
X142997463Y-81733824D01*
X142823010Y-81837612D01*
X142818670Y-81841418D01*
X142818666Y-81841421D01*
X142798723Y-81858911D01*
X142670392Y-81971455D01*
X142666817Y-81975990D01*
X142666816Y-81975991D01*
X142637722Y-82012897D01*
X142544720Y-82130869D01*
X142542031Y-82135980D01*
X142542029Y-82135983D01*
X142530518Y-82157862D01*
X142450203Y-82310515D01*
X142390007Y-82504378D01*
X142366148Y-82705964D01*
X122754500Y-82705964D01*
X122754500Y-79989399D01*
X170740800Y-79989399D01*
X170757318Y-80157862D01*
X170810748Y-80318479D01*
X170898435Y-80463267D01*
X170903326Y-80468332D01*
X170903327Y-80468333D01*
X170927062Y-80492911D01*
X171016021Y-80585031D01*
X171157660Y-80677717D01*
X171316315Y-80736720D01*
X171323296Y-80737651D01*
X171323298Y-80737652D01*
X171477118Y-80758176D01*
X171477122Y-80758176D01*
X171484099Y-80759107D01*
X171491110Y-80758469D01*
X171491114Y-80758469D01*
X171645652Y-80744405D01*
X171652673Y-80743766D01*
X171813659Y-80691458D01*
X171959056Y-80604784D01*
X172081638Y-80488052D01*
X172085539Y-80482181D01*
X172171410Y-80352935D01*
X172171411Y-80352933D01*
X172175311Y-80347063D01*
X172235420Y-80188824D01*
X172258978Y-80021200D01*
X172259274Y-80000000D01*
X172258085Y-79989399D01*
X172740800Y-79989399D01*
X172757318Y-80157862D01*
X172810748Y-80318479D01*
X172898435Y-80463267D01*
X172903326Y-80468332D01*
X172903327Y-80468333D01*
X172927062Y-80492911D01*
X173016021Y-80585031D01*
X173157660Y-80677717D01*
X173316315Y-80736720D01*
X173323296Y-80737651D01*
X173323298Y-80737652D01*
X173477118Y-80758176D01*
X173477122Y-80758176D01*
X173484099Y-80759107D01*
X173491110Y-80758469D01*
X173491114Y-80758469D01*
X173645652Y-80744405D01*
X173652673Y-80743766D01*
X173813659Y-80691458D01*
X173959056Y-80604784D01*
X174081638Y-80488052D01*
X174085539Y-80482181D01*
X174171410Y-80352935D01*
X174171411Y-80352933D01*
X174175311Y-80347063D01*
X174235420Y-80188824D01*
X174258978Y-80021200D01*
X174259274Y-80000000D01*
X174240406Y-79831784D01*
X174184738Y-79671929D01*
X174095038Y-79528379D01*
X173975764Y-79408269D01*
X173832844Y-79317569D01*
X173805442Y-79307812D01*
X173680016Y-79263149D01*
X173680011Y-79263148D01*
X173673381Y-79260787D01*
X173666395Y-79259954D01*
X173666391Y-79259953D01*
X173547287Y-79245751D01*
X173505301Y-79240745D01*
X173498298Y-79241481D01*
X173498297Y-79241481D01*
X173343965Y-79257701D01*
X173343961Y-79257702D01*
X173336957Y-79258438D01*
X173330286Y-79260709D01*
X173183387Y-79310717D01*
X173183384Y-79310718D01*
X173176717Y-79312988D01*
X173170719Y-79316678D01*
X173170717Y-79316679D01*
X173038543Y-79397993D01*
X173038541Y-79397995D01*
X173032544Y-79401684D01*
X172911605Y-79520117D01*
X172819909Y-79662400D01*
X172817498Y-79669025D01*
X172764425Y-79814840D01*
X172764424Y-79814845D01*
X172762015Y-79821463D01*
X172740800Y-79989399D01*
X172258085Y-79989399D01*
X172240406Y-79831784D01*
X172184738Y-79671929D01*
X172095038Y-79528379D01*
X171975764Y-79408269D01*
X171832844Y-79317569D01*
X171805442Y-79307812D01*
X171680016Y-79263149D01*
X171680011Y-79263148D01*
X171673381Y-79260787D01*
X171666395Y-79259954D01*
X171666391Y-79259953D01*
X171547287Y-79245751D01*
X171505301Y-79240745D01*
X171498298Y-79241481D01*
X171498297Y-79241481D01*
X171343965Y-79257701D01*
X171343961Y-79257702D01*
X171336957Y-79258438D01*
X171330286Y-79260709D01*
X171183387Y-79310717D01*
X171183384Y-79310718D01*
X171176717Y-79312988D01*
X171170719Y-79316678D01*
X171170717Y-79316679D01*
X171038543Y-79397993D01*
X171038541Y-79397995D01*
X171032544Y-79401684D01*
X170911605Y-79520117D01*
X170819909Y-79662400D01*
X170817498Y-79669025D01*
X170764425Y-79814840D01*
X170764424Y-79814845D01*
X170762015Y-79821463D01*
X170740800Y-79989399D01*
X122754500Y-79989399D01*
X122754500Y-77537476D01*
X122756921Y-77512894D01*
X122757065Y-77512170D01*
X122759486Y-77500000D01*
X122757065Y-77487830D01*
X122757065Y-77477401D01*
X122756060Y-77464265D01*
X122772318Y-77091898D01*
X122773276Y-77080948D01*
X122825877Y-76681404D01*
X122827786Y-76670579D01*
X122915008Y-76277146D01*
X122917853Y-76266528D01*
X123039033Y-75882194D01*
X123042792Y-75871865D01*
X123197013Y-75499541D01*
X123201659Y-75489579D01*
X123387734Y-75132133D01*
X123393230Y-75122613D01*
X123609755Y-74782738D01*
X123616059Y-74773734D01*
X123731257Y-74623604D01*
X123861393Y-74454007D01*
X123868445Y-74445603D01*
X124029485Y-74269860D01*
X124140709Y-74148481D01*
X124148481Y-74140709D01*
X124369499Y-73938182D01*
X124445603Y-73868445D01*
X124454007Y-73861393D01*
X124773734Y-73616059D01*
X124782738Y-73609755D01*
X125122613Y-73393230D01*
X125132133Y-73387734D01*
X125204781Y-73349916D01*
X125489588Y-73201655D01*
X125499532Y-73197017D01*
X125871872Y-73042789D01*
X125882187Y-73039036D01*
X126266529Y-72917853D01*
X126277146Y-72915008D01*
X126670587Y-72827785D01*
X126681396Y-72825878D01*
X127080949Y-72773276D01*
X127091897Y-72772318D01*
X127143588Y-72770061D01*
X127464265Y-72756060D01*
X127477401Y-72757065D01*
X127487830Y-72757065D01*
X127500000Y-72759486D01*
X127512897Y-72756921D01*
X127537476Y-72754500D01*
X172462524Y-72754500D01*
X172487103Y-72756921D01*
G37*
%TD.AperFunction*%
%TD*%
M02*
