%TF.GenerationSoftware,KiCad,Pcbnew,(6.0.9)*%
%TF.CreationDate,2022-11-01T00:51:48+09:00*%
%TF.ProjectId,STM32-FC,53544d33-322d-4464-932e-6b696361645f,rev?*%
%TF.SameCoordinates,Original*%
%TF.FileFunction,Copper,L1,Top*%
%TF.FilePolarity,Positive*%
%FSLAX46Y46*%
G04 Gerber Fmt 4.6, Leading zero omitted, Abs format (unit mm)*
G04 Created by KiCad (PCBNEW (6.0.9)) date 2022-11-01 00:51:48*
%MOMM*%
%LPD*%
G01*
G04 APERTURE LIST*
G04 Aperture macros list*
%AMRoundRect*
0 Rectangle with rounded corners*
0 $1 Rounding radius*
0 $2 $3 $4 $5 $6 $7 $8 $9 X,Y pos of 4 corners*
0 Add a 4 corners polygon primitive as box body*
4,1,4,$2,$3,$4,$5,$6,$7,$8,$9,$2,$3,0*
0 Add four circle primitives for the rounded corners*
1,1,$1+$1,$2,$3*
1,1,$1+$1,$4,$5*
1,1,$1+$1,$6,$7*
1,1,$1+$1,$8,$9*
0 Add four rect primitives between the rounded corners*
20,1,$1+$1,$2,$3,$4,$5,0*
20,1,$1+$1,$4,$5,$6,$7,0*
20,1,$1+$1,$6,$7,$8,$9,0*
20,1,$1+$1,$8,$9,$2,$3,0*%
%AMFreePoly0*
4,1,6,1.000000,0.000000,0.500000,-0.750000,-0.500000,-0.750000,-0.500000,0.750000,0.500000,0.750000,1.000000,0.000000,1.000000,0.000000,$1*%
%AMFreePoly1*
4,1,6,0.500000,-0.750000,-0.650000,-0.750000,-0.150000,0.000000,-0.650000,0.750000,0.500000,0.750000,0.500000,-0.750000,0.500000,-0.750000,$1*%
G04 Aperture macros list end*
%TA.AperFunction,SMDPad,CuDef*%
%ADD10RoundRect,0.237500X0.237500X-0.300000X0.237500X0.300000X-0.237500X0.300000X-0.237500X-0.300000X0*%
%TD*%
%TA.AperFunction,SMDPad,CuDef*%
%ADD11RoundRect,0.237500X0.300000X0.237500X-0.300000X0.237500X-0.300000X-0.237500X0.300000X-0.237500X0*%
%TD*%
%TA.AperFunction,SMDPad,CuDef*%
%ADD12RoundRect,0.237500X-0.250000X-0.237500X0.250000X-0.237500X0.250000X0.237500X-0.250000X0.237500X0*%
%TD*%
%TA.AperFunction,SMDPad,CuDef*%
%ADD13RoundRect,0.237500X-0.237500X0.300000X-0.237500X-0.300000X0.237500X-0.300000X0.237500X0.300000X0*%
%TD*%
%TA.AperFunction,SMDPad,CuDef*%
%ADD14RoundRect,0.237500X-0.300000X-0.237500X0.300000X-0.237500X0.300000X0.237500X-0.300000X0.237500X0*%
%TD*%
%TA.AperFunction,SMDPad,CuDef*%
%ADD15RoundRect,0.237500X0.250000X0.237500X-0.250000X0.237500X-0.250000X-0.237500X0.250000X-0.237500X0*%
%TD*%
%TA.AperFunction,ComponentPad*%
%ADD16R,1.700000X1.700000*%
%TD*%
%TA.AperFunction,ComponentPad*%
%ADD17O,1.700000X1.700000*%
%TD*%
%TA.AperFunction,SMDPad,CuDef*%
%ADD18R,2.400000X2.000000*%
%TD*%
%TA.AperFunction,SMDPad,CuDef*%
%ADD19RoundRect,0.237500X-0.237500X0.250000X-0.237500X-0.250000X0.237500X-0.250000X0.237500X0.250000X0*%
%TD*%
%TA.AperFunction,SMDPad,CuDef*%
%ADD20R,0.500000X0.350000*%
%TD*%
%TA.AperFunction,SMDPad,CuDef*%
%ADD21R,1.500000X2.000000*%
%TD*%
%TA.AperFunction,SMDPad,CuDef*%
%ADD22R,3.800000X2.000000*%
%TD*%
%TA.AperFunction,SMDPad,CuDef*%
%ADD23RoundRect,0.075000X-0.700000X-0.075000X0.700000X-0.075000X0.700000X0.075000X-0.700000X0.075000X0*%
%TD*%
%TA.AperFunction,SMDPad,CuDef*%
%ADD24RoundRect,0.075000X-0.075000X-0.700000X0.075000X-0.700000X0.075000X0.700000X-0.075000X0.700000X0*%
%TD*%
%TA.AperFunction,SMDPad,CuDef*%
%ADD25R,0.350000X0.590000*%
%TD*%
%TA.AperFunction,SMDPad,CuDef*%
%ADD26R,0.590000X0.350000*%
%TD*%
%TA.AperFunction,SMDPad,CuDef*%
%ADD27R,1.350000X0.400000*%
%TD*%
%TA.AperFunction,SMDPad,CuDef*%
%ADD28R,1.900000X1.200000*%
%TD*%
%TA.AperFunction,ComponentPad*%
%ADD29C,1.450000*%
%TD*%
%TA.AperFunction,ComponentPad*%
%ADD30O,1.900000X1.200000*%
%TD*%
%TA.AperFunction,SMDPad,CuDef*%
%ADD31R,1.900000X1.500000*%
%TD*%
%TA.AperFunction,SMDPad,CuDef*%
%ADD32R,1.000000X0.750000*%
%TD*%
%TA.AperFunction,SMDPad,CuDef*%
%ADD33RoundRect,0.237500X-0.287500X-0.237500X0.287500X-0.237500X0.287500X0.237500X-0.287500X0.237500X0*%
%TD*%
%TA.AperFunction,SMDPad,CuDef*%
%ADD34R,0.600000X1.300000*%
%TD*%
%TA.AperFunction,SMDPad,CuDef*%
%ADD35FreePoly0,0.000000*%
%TD*%
%TA.AperFunction,SMDPad,CuDef*%
%ADD36FreePoly1,0.000000*%
%TD*%
%TA.AperFunction,SMDPad,CuDef*%
%ADD37RoundRect,0.031500X-0.173500X-0.143500X0.173500X-0.143500X0.173500X0.143500X-0.173500X0.143500X0*%
%TD*%
%TA.AperFunction,SMDPad,CuDef*%
%ADD38RoundRect,0.031500X0.143500X-0.173500X0.143500X0.173500X-0.143500X0.173500X-0.143500X-0.173500X0*%
%TD*%
%TA.AperFunction,SMDPad,CuDef*%
%ADD39RoundRect,0.150000X0.512500X0.150000X-0.512500X0.150000X-0.512500X-0.150000X0.512500X-0.150000X0*%
%TD*%
%TA.AperFunction,SMDPad,CuDef*%
%ADD40R,0.900000X1.200000*%
%TD*%
%TA.AperFunction,ConnectorPad*%
%ADD41C,0.787400*%
%TD*%
%TA.AperFunction,ViaPad*%
%ADD42C,0.600000*%
%TD*%
%TA.AperFunction,ViaPad*%
%ADD43C,0.800000*%
%TD*%
%TA.AperFunction,ViaPad*%
%ADD44C,1.000000*%
%TD*%
%TA.AperFunction,Conductor*%
%ADD45C,0.500000*%
%TD*%
%TA.AperFunction,Conductor*%
%ADD46C,0.200000*%
%TD*%
%TA.AperFunction,Conductor*%
%ADD47C,0.800000*%
%TD*%
G04 APERTURE END LIST*
D10*
%TO.P,C16,1*%
%TO.N,+3.3V*%
X175850000Y-107162500D03*
%TO.P,C16,2*%
%TO.N,GND*%
X175850000Y-105437500D03*
%TD*%
%TO.P,C15,1*%
%TO.N,+3.3V*%
X174350000Y-107162500D03*
%TO.P,C15,2*%
%TO.N,GND*%
X174350000Y-105437500D03*
%TD*%
D11*
%TO.P,C14,1*%
%TO.N,+5V*%
X165462500Y-103650000D03*
%TO.P,C14,2*%
%TO.N,GND*%
X163737500Y-103650000D03*
%TD*%
D12*
%TO.P,R11,1*%
%TO.N,Net-(D5-Pad1)*%
X132287500Y-95400000D03*
%TO.P,R11,2*%
%TO.N,GND*%
X134112500Y-95400000D03*
%TD*%
D13*
%TO.P,C5,1*%
%TO.N,/OSC_OUT*%
X140650000Y-97287500D03*
%TO.P,C5,2*%
%TO.N,GND*%
X140650000Y-99012500D03*
%TD*%
D10*
%TO.P,C12,1*%
%TO.N,+3.3V*%
X139900000Y-102862500D03*
%TO.P,C12,2*%
%TO.N,GND*%
X139900000Y-101137500D03*
%TD*%
D13*
%TO.P,C20,1*%
%TO.N,+3.3V*%
X152900000Y-111637500D03*
%TO.P,C20,2*%
%TO.N,GND*%
X152900000Y-113362500D03*
%TD*%
D14*
%TO.P,C9,1*%
%TO.N,+3.3V*%
X153737500Y-107750000D03*
%TO.P,C9,2*%
%TO.N,GND*%
X155462500Y-107750000D03*
%TD*%
D10*
%TO.P,C3,1*%
%TO.N,+3.3V*%
X143000000Y-94362500D03*
%TO.P,C3,2*%
%TO.N,GND*%
X143000000Y-92637500D03*
%TD*%
D15*
%TO.P,R3,1*%
%TO.N,+3.3V*%
X153912500Y-81000000D03*
%TO.P,R3,2*%
%TO.N,/UART4_RX*%
X152087500Y-81000000D03*
%TD*%
D16*
%TO.P,J3,1,Pin_1*%
%TO.N,/UART4_TX*%
X143475000Y-85275000D03*
D17*
%TO.P,J3,2,Pin_2*%
%TO.N,/UART4_RX*%
X143475000Y-82735000D03*
%TO.P,J3,3,Pin_3*%
%TO.N,/UART5_TX*%
X146015000Y-85275000D03*
%TO.P,J3,4,Pin_4*%
%TO.N,/UART5_RX*%
X146015000Y-82735000D03*
%TO.P,J3,5,Pin_5*%
%TO.N,/UART6_TX*%
X148555000Y-85275000D03*
%TO.P,J3,6,Pin_6*%
%TO.N,/UART6_RX*%
X148555000Y-82735000D03*
%TD*%
D15*
%TO.P,R7,1*%
%TO.N,+3.3V*%
X153912500Y-84000000D03*
%TO.P,R7,2*%
%TO.N,/UART6_RX*%
X152087500Y-84000000D03*
%TD*%
D18*
%TO.P,Y1,1,1*%
%TO.N,/OSC_IN*%
X138000000Y-94650000D03*
%TO.P,Y1,2,2*%
%TO.N,/OSC_OUT*%
X138000000Y-98350000D03*
%TD*%
D19*
%TO.P,R8,1*%
%TO.N,Net-(D2-Pad1)*%
X163700000Y-106887500D03*
%TO.P,R8,2*%
%TO.N,GND*%
X163700000Y-108712500D03*
%TD*%
D20*
%TO.P,U6,1,GND*%
%TO.N,GND*%
X157700000Y-113475000D03*
%TO.P,U6,2,CSB*%
%TO.N,/BARO_NSS*%
X157700000Y-112825000D03*
%TO.P,U6,3,SDI*%
%TO.N,/SPI1_MOSI*%
X157700000Y-112175000D03*
%TO.P,U6,4,SCK*%
%TO.N,/SPI1_SCK*%
X157700000Y-111525000D03*
%TO.P,U6,5,SDO*%
%TO.N,/SPI1_MISO*%
X159300000Y-111525000D03*
%TO.P,U6,6,VDDIO*%
%TO.N,+3.3V*%
X159300000Y-112175000D03*
%TO.P,U6,7,GND*%
%TO.N,GND*%
X159300000Y-112825000D03*
%TO.P,U6,8,VDD*%
%TO.N,+3.3V*%
X159300000Y-113475000D03*
%TD*%
D21*
%TO.P,U3,1,GND*%
%TO.N,GND*%
X172300000Y-103650000D03*
D22*
%TO.P,U3,2,VO*%
%TO.N,+3.3V*%
X170000000Y-109950000D03*
D21*
X170000000Y-103650000D03*
%TO.P,U3,3,VI*%
%TO.N,+5V*%
X167700000Y-103650000D03*
%TD*%
D23*
%TO.P,U1,1,VBAT*%
%TO.N,+3.3V*%
X144325000Y-96250000D03*
%TO.P,U1,2,PC13*%
%TO.N,unconnected-(U1-Pad2)*%
X144325000Y-96750000D03*
%TO.P,U1,3,PC14*%
%TO.N,unconnected-(U1-Pad3)*%
X144325000Y-97250000D03*
%TO.P,U1,4,PC15*%
%TO.N,unconnected-(U1-Pad4)*%
X144325000Y-97750000D03*
%TO.P,U1,5,PH0*%
%TO.N,/OSC_IN*%
X144325000Y-98250000D03*
%TO.P,U1,6,PH1*%
%TO.N,/OSC_OUT*%
X144325000Y-98750000D03*
%TO.P,U1,7,NRST*%
%TO.N,/NRST*%
X144325000Y-99250000D03*
%TO.P,U1,8,PC0*%
%TO.N,/LED_RED*%
X144325000Y-99750000D03*
%TO.P,U1,9,PC1*%
%TO.N,/LED_GREEN*%
X144325000Y-100250000D03*
%TO.P,U1,10,PC2*%
%TO.N,/LED_BLUE*%
X144325000Y-100750000D03*
%TO.P,U1,11,PC3*%
%TO.N,unconnected-(U1-Pad11)*%
X144325000Y-101250000D03*
%TO.P,U1,12,VSSA*%
%TO.N,GND*%
X144325000Y-101750000D03*
%TO.P,U1,13,VDDA*%
%TO.N,+3.3V*%
X144325000Y-102250000D03*
%TO.P,U1,14,PA0*%
%TO.N,/TIM5_CH1*%
X144325000Y-102750000D03*
%TO.P,U1,15,PA1*%
%TO.N,/TIM5_CH2*%
X144325000Y-103250000D03*
%TO.P,U1,16,PA2*%
%TO.N,/TIM5_CH3*%
X144325000Y-103750000D03*
D24*
%TO.P,U1,17,PA3*%
%TO.N,/TIM5_CH4*%
X146250000Y-105675000D03*
%TO.P,U1,18,VSS*%
%TO.N,GND*%
X146750000Y-105675000D03*
%TO.P,U1,19,VDD*%
%TO.N,+3.3V*%
X147250000Y-105675000D03*
%TO.P,U1,20,PA4*%
%TO.N,unconnected-(U1-Pad20)*%
X147750000Y-105675000D03*
%TO.P,U1,21,PA5*%
%TO.N,/SPI1_SCK*%
X148250000Y-105675000D03*
%TO.P,U1,22,PA6*%
%TO.N,/SPI1_MISO*%
X148750000Y-105675000D03*
%TO.P,U1,23,PA7*%
%TO.N,/SPI1_MOSI*%
X149250000Y-105675000D03*
%TO.P,U1,24,PC4*%
%TO.N,unconnected-(U1-Pad24)*%
X149750000Y-105675000D03*
%TO.P,U1,25,PC5*%
%TO.N,unconnected-(U1-Pad25)*%
X150250000Y-105675000D03*
%TO.P,U1,26,PB0*%
%TO.N,/GYRO_NSS*%
X150750000Y-105675000D03*
%TO.P,U1,27,PB1*%
%TO.N,/ACC_NSS*%
X151250000Y-105675000D03*
%TO.P,U1,28,PB2*%
%TO.N,/MAG_NSS*%
X151750000Y-105675000D03*
%TO.P,U1,29,PB10*%
%TO.N,/BARO_NSS*%
X152250000Y-105675000D03*
%TO.P,U1,30,PB11*%
%TO.N,unconnected-(U1-Pad30)*%
X152750000Y-105675000D03*
%TO.P,U1,31,VCAP_1*%
%TO.N,/VCAP1*%
X153250000Y-105675000D03*
%TO.P,U1,32,VDD*%
%TO.N,+3.3V*%
X153750000Y-105675000D03*
D23*
%TO.P,U1,33,PB12*%
%TO.N,unconnected-(U1-Pad33)*%
X155675000Y-103750000D03*
%TO.P,U1,34,PB13*%
%TO.N,unconnected-(U1-Pad34)*%
X155675000Y-103250000D03*
%TO.P,U1,35,PB14*%
%TO.N,unconnected-(U1-Pad35)*%
X155675000Y-102750000D03*
%TO.P,U1,36,PB15*%
%TO.N,unconnected-(U1-Pad36)*%
X155675000Y-102250000D03*
%TO.P,U1,37,PC6*%
%TO.N,/UART6_TX*%
X155675000Y-101750000D03*
%TO.P,U1,38,PC7*%
%TO.N,/UART6_RX*%
X155675000Y-101250000D03*
%TO.P,U1,39,PC8*%
%TO.N,unconnected-(U1-Pad39)*%
X155675000Y-100750000D03*
%TO.P,U1,40,PC9*%
%TO.N,unconnected-(U1-Pad40)*%
X155675000Y-100250000D03*
%TO.P,U1,41,PA8*%
%TO.N,unconnected-(U1-Pad41)*%
X155675000Y-99750000D03*
%TO.P,U1,42,PA9*%
%TO.N,unconnected-(U1-Pad42)*%
X155675000Y-99250000D03*
%TO.P,U1,43,PA10*%
%TO.N,/UART1_RX*%
X155675000Y-98750000D03*
%TO.P,U1,44,PA11*%
%TO.N,/USB_D-*%
X155675000Y-98250000D03*
%TO.P,U1,45,PA12*%
%TO.N,/USB_D+*%
X155675000Y-97750000D03*
%TO.P,U1,46,PA13*%
%TO.N,/SWDIO*%
X155675000Y-97250000D03*
%TO.P,U1,47,VCAP_2*%
%TO.N,/VCAP2*%
X155675000Y-96750000D03*
%TO.P,U1,48,VDD*%
%TO.N,+3.3V*%
X155675000Y-96250000D03*
D24*
%TO.P,U1,49,PA14*%
%TO.N,/SWCLK*%
X153750000Y-94325000D03*
%TO.P,U1,50,PA15*%
%TO.N,unconnected-(U1-Pad50)*%
X153250000Y-94325000D03*
%TO.P,U1,51,PC10*%
%TO.N,/UART4_TX*%
X152750000Y-94325000D03*
%TO.P,U1,52,PC11*%
%TO.N,/UART4_RX*%
X152250000Y-94325000D03*
%TO.P,U1,53,PC12*%
%TO.N,/UART5_TX*%
X151750000Y-94325000D03*
%TO.P,U1,54,PD2*%
%TO.N,/UART5_RX*%
X151250000Y-94325000D03*
%TO.P,U1,55,PB3*%
%TO.N,unconnected-(U1-Pad55)*%
X150750000Y-94325000D03*
%TO.P,U1,56,PB4*%
%TO.N,unconnected-(U1-Pad56)*%
X150250000Y-94325000D03*
%TO.P,U1,57,PB5*%
%TO.N,unconnected-(U1-Pad57)*%
X149750000Y-94325000D03*
%TO.P,U1,58,PB6*%
%TO.N,unconnected-(U1-Pad58)*%
X149250000Y-94325000D03*
%TO.P,U1,59,PB7*%
%TO.N,unconnected-(U1-Pad59)*%
X148750000Y-94325000D03*
%TO.P,U1,60,BOOT0*%
%TO.N,/BOOT0*%
X148250000Y-94325000D03*
%TO.P,U1,61,PB8*%
%TO.N,unconnected-(U1-Pad61)*%
X147750000Y-94325000D03*
%TO.P,U1,62,PB9*%
%TO.N,unconnected-(U1-Pad62)*%
X147250000Y-94325000D03*
%TO.P,U1,63,VSS*%
%TO.N,GND*%
X146750000Y-94325000D03*
%TO.P,U1,64,VDD*%
%TO.N,+3.3V*%
X146250000Y-94325000D03*
%TD*%
D11*
%TO.P,C7,1*%
%TO.N,GND*%
X157362500Y-106000000D03*
%TO.P,C7,2*%
%TO.N,/VCAP1*%
X155637500Y-106000000D03*
%TD*%
D13*
%TO.P,C23,1*%
%TO.N,+3.3V*%
X161000000Y-111637500D03*
%TO.P,C23,2*%
%TO.N,GND*%
X161000000Y-113362500D03*
%TD*%
%TO.P,C19,1*%
%TO.N,+3.3V*%
X154400000Y-111637500D03*
%TO.P,C19,2*%
%TO.N,GND*%
X154400000Y-113362500D03*
%TD*%
D10*
%TO.P,C8,1*%
%TO.N,/VCAP2*%
X156000000Y-94362500D03*
%TO.P,C8,2*%
%TO.N,GND*%
X156000000Y-92637500D03*
%TD*%
D25*
%TO.P,U4,1,INT2*%
%TO.N,unconnected-(U4-Pad1)*%
X147500000Y-113165000D03*
%TO.P,U4,2,NC*%
%TO.N,GND*%
X147000000Y-113165000D03*
%TO.P,U4,3,VDD*%
%TO.N,+3.3V*%
X146500000Y-113165000D03*
%TO.P,U4,4,GNDA*%
%TO.N,GND*%
X146000000Y-113165000D03*
%TO.P,U4,5,CSB2*%
%TO.N,/GYRO_NSS*%
X145500000Y-113165000D03*
%TO.P,U4,6,GNDIO*%
%TO.N,GND*%
X145000000Y-113165000D03*
%TO.P,U4,7,PS*%
X144500000Y-113165000D03*
D26*
%TO.P,U4,8,SCL/SCK*%
%TO.N,/SPI1_SCK*%
X144085000Y-112000000D03*
D25*
%TO.P,U4,9,SDA/SDI*%
%TO.N,/SPI1_MOSI*%
X144500000Y-110835000D03*
%TO.P,U4,10,SDO2*%
%TO.N,/SPI1_MISO*%
X145000000Y-110835000D03*
%TO.P,U4,11,VDDIO*%
%TO.N,+3.3V*%
X145500000Y-110835000D03*
%TO.P,U4,12,INT3*%
%TO.N,unconnected-(U4-Pad12)*%
X146000000Y-110835000D03*
%TO.P,U4,13,INT4*%
%TO.N,unconnected-(U4-Pad13)*%
X146500000Y-110835000D03*
%TO.P,U4,14,CSB1*%
%TO.N,/ACC_NSS*%
X147000000Y-110835000D03*
%TO.P,U4,15,SDO1*%
%TO.N,/SPI1_MISO*%
X147500000Y-110835000D03*
D26*
%TO.P,U4,16,INT1*%
%TO.N,unconnected-(U4-Pad16)*%
X147915000Y-112000000D03*
%TD*%
D10*
%TO.P,C10,1*%
%TO.N,+3.3V*%
X157750000Y-96262500D03*
%TO.P,C10,2*%
%TO.N,GND*%
X157750000Y-94537500D03*
%TD*%
D27*
%TO.P,J1,1,VBUS*%
%TO.N,VBUS*%
X172537500Y-98950000D03*
%TO.P,J1,2,D-*%
%TO.N,/USB_CONN_D-*%
X172537500Y-98300000D03*
%TO.P,J1,3,D+*%
%TO.N,/USB_CONN_D+*%
X172537500Y-97650000D03*
%TO.P,J1,4,ID*%
%TO.N,unconnected-(J1-Pad4)*%
X172537500Y-97000000D03*
%TO.P,J1,5,GND*%
%TO.N,GND*%
X172537500Y-96350000D03*
D28*
%TO.P,J1,6,Shield*%
%TO.N,unconnected-(J1-Pad6)*%
X175237500Y-100550000D03*
D29*
X172537500Y-95150000D03*
D30*
X175237500Y-101150000D03*
D29*
X172537500Y-100150000D03*
D28*
X175237500Y-94750000D03*
D31*
X175237500Y-96650000D03*
X175237500Y-98650000D03*
D30*
X175237500Y-94150000D03*
%TD*%
D10*
%TO.P,C2,1*%
%TO.N,GND*%
X129800000Y-106862500D03*
%TO.P,C2,2*%
%TO.N,/NRST*%
X129800000Y-105137500D03*
%TD*%
D12*
%TO.P,R6,1*%
%TO.N,+3.3V*%
X157675000Y-81750000D03*
%TO.P,R6,2*%
%TO.N,/UART1_RX*%
X159500000Y-81750000D03*
%TD*%
D10*
%TO.P,C13,1*%
%TO.N,+3.3V*%
X141400000Y-102862500D03*
%TO.P,C13,2*%
%TO.N,GND*%
X141400000Y-101137500D03*
%TD*%
D13*
%TO.P,C18,1*%
%TO.N,+3.3V*%
X142400000Y-111437500D03*
%TO.P,C18,2*%
%TO.N,GND*%
X142400000Y-113162500D03*
%TD*%
D32*
%TO.P,SW1,1,A*%
%TO.N,/NRST*%
X137500000Y-104125000D03*
X131500000Y-104125000D03*
%TO.P,SW1,2,B*%
%TO.N,GND*%
X137500000Y-107875000D03*
X131500000Y-107875000D03*
%TD*%
D12*
%TO.P,R10,1*%
%TO.N,Net-(D4-Pad1)*%
X132287500Y-93900000D03*
%TO.P,R10,2*%
%TO.N,GND*%
X134112500Y-93900000D03*
%TD*%
D14*
%TO.P,C22,1*%
%TO.N,/Sensors/MAG_C1*%
X149637500Y-115000000D03*
%TO.P,C22,2*%
%TO.N,GND*%
X151362500Y-115000000D03*
%TD*%
%TO.P,C21,1*%
%TO.N,+3.3V*%
X151237500Y-110100000D03*
%TO.P,C21,2*%
%TO.N,GND*%
X152962500Y-110100000D03*
%TD*%
D13*
%TO.P,C4,1*%
%TO.N,GND*%
X140650000Y-93987500D03*
%TO.P,C4,2*%
%TO.N,/OSC_IN*%
X140650000Y-95712500D03*
%TD*%
D11*
%TO.P,C6,1*%
%TO.N,+3.3V*%
X147862500Y-107750000D03*
%TO.P,C6,2*%
%TO.N,GND*%
X146137500Y-107750000D03*
%TD*%
%TO.P,C17,1*%
%TO.N,+3.3V*%
X147112500Y-114800000D03*
%TO.P,C17,2*%
%TO.N,GND*%
X145387500Y-114800000D03*
%TD*%
D33*
%TO.P,D3,1,K*%
%TO.N,Net-(D3-Pad1)*%
X132325000Y-100500000D03*
%TO.P,D3,2,A*%
%TO.N,/LED_RED*%
X134075000Y-100500000D03*
%TD*%
D34*
%TO.P,Q1,1,B*%
%TO.N,Net-(Q1-Pad1)*%
X158550000Y-85400000D03*
%TO.P,Q1,2,E*%
%TO.N,GND*%
X160450000Y-85400000D03*
%TO.P,Q1,3,C*%
%TO.N,/UART1_RX*%
X159500000Y-83300000D03*
%TD*%
D12*
%TO.P,R9,1*%
%TO.N,Net-(D3-Pad1)*%
X132287500Y-92400000D03*
%TO.P,R9,2*%
%TO.N,GND*%
X134112500Y-92400000D03*
%TD*%
D15*
%TO.P,R1,1*%
%TO.N,/BOOT0*%
X148500000Y-88400000D03*
%TO.P,R1,2*%
%TO.N,GND*%
X146675000Y-88400000D03*
%TD*%
D11*
%TO.P,C24,1*%
%TO.N,+3.3V*%
X159362500Y-115150000D03*
%TO.P,C24,2*%
%TO.N,GND*%
X157637500Y-115150000D03*
%TD*%
D35*
%TO.P,JP1,1,A*%
%TO.N,/PWM_5V*%
X158775000Y-123000000D03*
D36*
%TO.P,JP1,2,B*%
%TO.N,+5V*%
X160225000Y-123000000D03*
%TD*%
D37*
%TO.P,U5,1,SCL/SPC*%
%TO.N,/SPI1_SCK*%
X149740000Y-111750000D03*
%TO.P,U5,2,NC1*%
%TO.N,unconnected-(U5-Pad2)*%
X149740000Y-112250000D03*
%TO.P,U5,3,CS*%
%TO.N,/MAG_NSS*%
X149740000Y-112750000D03*
%TO.P,U5,4,SDA/SDI/SDO*%
%TO.N,/SPI1_MOSI*%
X149740000Y-113250000D03*
D38*
%TO.P,U5,5,C1*%
%TO.N,/Sensors/MAG_C1*%
X150250000Y-113260000D03*
%TO.P,U5,6,GND*%
%TO.N,GND*%
X150750000Y-113260000D03*
D37*
%TO.P,U5,7,INT/DRDY/SDO*%
%TO.N,/SPI1_MISO*%
X151260000Y-113250000D03*
%TO.P,U5,8,GND*%
%TO.N,GND*%
X151260000Y-112750000D03*
%TO.P,U5,9,VDD*%
%TO.N,+3.3V*%
X151260000Y-112250000D03*
%TO.P,U5,10,VDD_IO*%
X151260000Y-111750000D03*
D38*
%TO.P,U5,11,NC2*%
%TO.N,unconnected-(U5-Pad11)*%
X150750000Y-111740000D03*
%TO.P,U5,12,NC3*%
%TO.N,unconnected-(U5-Pad12)*%
X150250000Y-111740000D03*
%TD*%
D16*
%TO.P,J4,1,CH1*%
%TO.N,/TIM5_CH1*%
X148190000Y-120460000D03*
D17*
%TO.P,J4,2,CH2*%
%TO.N,/TIM5_CH2*%
X150730000Y-120460000D03*
%TO.P,J4,3,CH3*%
%TO.N,/TIM5_CH3*%
X153270000Y-120460000D03*
%TO.P,J4,4,CH4*%
%TO.N,/TIM5_CH4*%
X155810000Y-120460000D03*
%TO.P,J4,5,5V*%
%TO.N,/PWM_5V*%
X150730000Y-123000000D03*
X148190000Y-123000000D03*
X153270000Y-123000000D03*
X155810000Y-123000000D03*
%TO.P,J4,6,GND*%
%TO.N,GND*%
X150730000Y-125540000D03*
X155810000Y-125540000D03*
X148190000Y-125540000D03*
X153270000Y-125540000D03*
%TD*%
D33*
%TO.P,D4,1,K*%
%TO.N,Net-(D4-Pad1)*%
X132325000Y-98800000D03*
%TO.P,D4,2,A*%
%TO.N,/LED_GREEN*%
X134075000Y-98800000D03*
%TD*%
D15*
%TO.P,R4,1*%
%TO.N,/UART1_RX_INV*%
X161112500Y-87200000D03*
%TO.P,R4,2*%
%TO.N,Net-(Q1-Pad1)*%
X159287500Y-87200000D03*
%TD*%
D16*
%TO.P,J2,1,Pin_1*%
%TO.N,/UART1_RX_INV*%
X160975000Y-92000000D03*
D17*
%TO.P,J2,2,Pin_2*%
%TO.N,+5V*%
X163515000Y-92000000D03*
%TO.P,J2,3,Pin_3*%
%TO.N,GND*%
X166055000Y-92000000D03*
%TD*%
D39*
%TO.P,U2,1,I/O1*%
%TO.N,/USB_CONN_D-*%
X169137500Y-98950000D03*
%TO.P,U2,2,GND*%
%TO.N,GND*%
X169137500Y-98000000D03*
%TO.P,U2,3,I/O2*%
%TO.N,/USB_CONN_D+*%
X169137500Y-97050000D03*
%TO.P,U2,4,I/O2*%
%TO.N,/USB_D+*%
X166862500Y-97050000D03*
%TO.P,U2,5,VBUS*%
%TO.N,VBUS*%
X166862500Y-98000000D03*
%TO.P,U2,6,I/O1*%
%TO.N,/USB_D-*%
X166862500Y-98950000D03*
%TD*%
D33*
%TO.P,D5,1,K*%
%TO.N,Net-(D5-Pad1)*%
X132325000Y-97100000D03*
%TO.P,D5,2,A*%
%TO.N,/LED_BLUE*%
X134075000Y-97100000D03*
%TD*%
D40*
%TO.P,D1,1,K*%
%TO.N,+5V*%
X167350000Y-101000000D03*
%TO.P,D1,2,A*%
%TO.N,VBUS*%
X170650000Y-101000000D03*
%TD*%
D19*
%TO.P,R2,1*%
%TO.N,+3.3V*%
X164500000Y-95587500D03*
%TO.P,R2,2*%
%TO.N,/USB_D+*%
X164500000Y-97412500D03*
%TD*%
D14*
%TO.P,C11,1*%
%TO.N,+3.3V*%
X145637500Y-92250000D03*
%TO.P,C11,2*%
%TO.N,GND*%
X147362500Y-92250000D03*
%TD*%
D15*
%TO.P,R5,1*%
%TO.N,+3.3V*%
X153912500Y-82500000D03*
%TO.P,R5,2*%
%TO.N,/UART5_RX*%
X152087500Y-82500000D03*
%TD*%
D14*
%TO.P,C1,1*%
%TO.N,+3.3V*%
X145637500Y-90700000D03*
%TO.P,C1,2*%
%TO.N,GND*%
X147362500Y-90700000D03*
%TD*%
D41*
%TO.P,J5,1,Pin_1*%
%TO.N,+3.3V*%
X156270000Y-88865000D03*
%TO.P,J5,2,Pin_2*%
%TO.N,/SWDIO*%
X156270000Y-90135000D03*
%TO.P,J5,3,Pin_3*%
%TO.N,/NRST*%
X155000000Y-88865000D03*
%TO.P,J5,4,Pin_4*%
%TO.N,/SWCLK*%
X155000000Y-90135000D03*
%TO.P,J5,5,Pin_5*%
%TO.N,GND*%
X153730000Y-88865000D03*
%TO.P,J5,6,Pin_6*%
%TO.N,unconnected-(J5-Pad6)*%
X153730000Y-90135000D03*
%TD*%
D33*
%TO.P,D2,1,K*%
%TO.N,Net-(D2-Pad1)*%
X163725000Y-105300000D03*
%TO.P,D2,2,A*%
%TO.N,+5V*%
X165475000Y-105300000D03*
%TD*%
D42*
%TO.N,/SPI1_SCK*%
X149000000Y-116000000D03*
%TO.N,/GYRO_NSS*%
X150300000Y-107150000D03*
%TO.N,/ACC_NSS*%
X150300000Y-108200000D03*
%TO.N,GND*%
X142000000Y-93000000D03*
X163700000Y-109700000D03*
D43*
X173500000Y-88500000D03*
D42*
X173100000Y-105300000D03*
X155400000Y-113000000D03*
X145750000Y-115800000D03*
X147000000Y-89700000D03*
D43*
X171500000Y-86500000D03*
D42*
X175600000Y-104100000D03*
X162000000Y-113000000D03*
X174000000Y-104100000D03*
X162700000Y-103650000D03*
X156000000Y-91600000D03*
X152600000Y-109100000D03*
X145700000Y-88400000D03*
X146500000Y-108750000D03*
D43*
X172500000Y-87500000D03*
D42*
X140650000Y-92950000D03*
X155100000Y-108750000D03*
X141650000Y-99000000D03*
X152400000Y-115000000D03*
X171250000Y-96350000D03*
X161300000Y-85400000D03*
X135100000Y-93900000D03*
X174800000Y-103150000D03*
X168000000Y-96250000D03*
D43*
X171500000Y-88500000D03*
D42*
X158400000Y-106000000D03*
X141400000Y-112800000D03*
X158750000Y-94900000D03*
D43*
X128700000Y-106850000D03*
X173500000Y-86500000D03*
D42*
X158000000Y-116150000D03*
X138900000Y-101500000D03*
X153730000Y-87935000D03*
%TO.N,/NRST*%
X150000000Y-97000000D03*
X154000000Y-87000000D03*
D44*
%TO.N,+5V*%
X165000000Y-99500000D03*
X173500000Y-82000000D03*
X173500000Y-80000000D03*
X171500000Y-82000000D03*
X171500000Y-80000000D03*
D42*
%TO.N,/UART1_RX*%
X157200000Y-99000000D03*
X159500000Y-84500000D03*
%TO.N,+3.3V*%
X142000000Y-94000000D03*
X156700000Y-81750000D03*
X138900000Y-102500000D03*
X155400000Y-112000000D03*
X169500000Y-106500000D03*
X146750000Y-115800000D03*
X156270000Y-87935000D03*
X171000000Y-108000000D03*
X147500000Y-108750000D03*
X171000000Y-106500000D03*
X146000000Y-89700000D03*
X151600000Y-109100000D03*
X164500000Y-94600000D03*
X153910000Y-85000000D03*
X141400000Y-111800000D03*
X158750000Y-95900000D03*
X169500000Y-108000000D03*
X172500000Y-107500000D03*
X154100000Y-108750000D03*
X159000000Y-116150000D03*
X162000000Y-112000000D03*
%TO.N,/LED_RED*%
X135100000Y-100500000D03*
X148000000Y-101000000D03*
%TO.N,/LED_GREEN*%
X135100000Y-98800000D03*
X147000000Y-101000000D03*
%TO.N,/LED_BLUE*%
X146000000Y-101000000D03*
X135100000Y-97100000D03*
%TO.N,/TIM5_CH4*%
X141700000Y-106900000D03*
X144600000Y-106900000D03*
%TO.N,/SPI1_SCK*%
X143800000Y-110200000D03*
X148800000Y-112600000D03*
X144900000Y-112100000D03*
%TO.N,/ACC_NSS*%
X146800000Y-110100000D03*
%TO.N,/GYRO_NSS*%
X144000000Y-113900000D03*
%TO.N,/MAG_NSS*%
X150500000Y-112500000D03*
X151725000Y-107700000D03*
%TO.N,/BARO_NSS*%
X152600000Y-107100000D03*
X158500000Y-112500000D03*
%TO.N,/UART6_TX*%
X150000000Y-101000000D03*
%TO.N,/UART6_RX*%
X153250000Y-97000000D03*
X152000000Y-91800000D03*
%TO.N,/UART5_TX*%
X150200000Y-91000000D03*
%TD*%
D45*
%TO.N,+5V*%
X165462500Y-103650000D02*
X165462500Y-105287500D01*
X165462500Y-105287500D02*
X165475000Y-105300000D01*
X167700000Y-103650000D02*
X165462500Y-103650000D01*
%TO.N,GND*%
X163737500Y-103650000D02*
X162700000Y-103650000D01*
D46*
%TO.N,/SPI1_SCK*%
X148800000Y-112200000D02*
X148800000Y-112600000D01*
X149250000Y-111750000D02*
X148800000Y-112200000D01*
D45*
%TO.N,+3.3V*%
X146750000Y-115162500D02*
X146750000Y-115800000D01*
X147112500Y-114800000D02*
X146750000Y-115162500D01*
%TO.N,GND*%
X145750000Y-115162500D02*
X145750000Y-115800000D01*
X145387500Y-114800000D02*
X145750000Y-115162500D01*
D46*
%TO.N,/SPI1_MOSI*%
X149250000Y-113250000D02*
X149740000Y-113250000D01*
X148300000Y-114200000D02*
X149250000Y-113250000D01*
X148300000Y-116300000D02*
X148300000Y-114200000D01*
X140700000Y-111500000D02*
X142400000Y-109800000D01*
X140700000Y-113100000D02*
X140700000Y-111500000D01*
X144300000Y-116700000D02*
X140700000Y-113100000D01*
X147900000Y-116700000D02*
X144300000Y-116700000D01*
X148300000Y-116300000D02*
X147900000Y-116700000D01*
X148700000Y-116700000D02*
X148300000Y-116300000D01*
X157700000Y-112175000D02*
X157325000Y-112175000D01*
X157325000Y-112175000D02*
X157100000Y-112400000D01*
X157100000Y-112400000D02*
X157100000Y-114200000D01*
X157100000Y-114200000D02*
X154600000Y-116700000D01*
X154600000Y-116700000D02*
X148700000Y-116700000D01*
%TO.N,/ACC_NSS*%
X151250000Y-107250000D02*
X150300000Y-108200000D01*
X151250000Y-105675000D02*
X151250000Y-107250000D01*
%TO.N,/GYRO_NSS*%
X150750000Y-106700000D02*
X150300000Y-107150000D01*
X150750000Y-105675000D02*
X150750000Y-106700000D01*
%TO.N,GND*%
X140650000Y-93987500D02*
X140650000Y-92950000D01*
X146750000Y-105675000D02*
X146750000Y-107137500D01*
X157700000Y-115087500D02*
X157637500Y-115150000D01*
D45*
X142637500Y-93000000D02*
X143000000Y-92637500D01*
D46*
X150750000Y-113260000D02*
X150750000Y-114387500D01*
D45*
X152600000Y-109100000D02*
X152600000Y-109737500D01*
X139900000Y-101137500D02*
X141400000Y-101137500D01*
D46*
X131500000Y-107875000D02*
X130812500Y-107875000D01*
D45*
X152900000Y-113362500D02*
X154400000Y-113362500D01*
D46*
X141637500Y-99012500D02*
X141650000Y-99000000D01*
D45*
X155400000Y-113000000D02*
X154762500Y-113000000D01*
X147000000Y-90337500D02*
X147362500Y-90700000D01*
D46*
X150750000Y-114387500D02*
X151362500Y-115000000D01*
X146750000Y-94325000D02*
X146750000Y-92862500D01*
D45*
X158112500Y-94900000D02*
X157750000Y-94537500D01*
X129800000Y-106862500D02*
X128712500Y-106862500D01*
D46*
X153730000Y-88865000D02*
X153730000Y-87935000D01*
X152287500Y-112750000D02*
X151260000Y-112750000D01*
X140650000Y-99012500D02*
X141637500Y-99012500D01*
D45*
X158000000Y-116150000D02*
X158000000Y-115512500D01*
X142037500Y-112800000D02*
X142400000Y-113162500D01*
D46*
X146750000Y-107137500D02*
X146137500Y-107750000D01*
D45*
X158750000Y-94900000D02*
X158112500Y-94900000D01*
X163700000Y-108712500D02*
X163700000Y-109700000D01*
D46*
X144325000Y-101750000D02*
X142012500Y-101750000D01*
D45*
X146500000Y-108112500D02*
X146137500Y-107750000D01*
X156000000Y-92637500D02*
X156000000Y-91600000D01*
X147362500Y-90700000D02*
X147362500Y-92250000D01*
X154762500Y-113000000D02*
X154400000Y-113362500D01*
X161362500Y-113000000D02*
X161000000Y-113362500D01*
D46*
X142012500Y-101750000D02*
X141400000Y-101137500D01*
X145000000Y-113165000D02*
X144500000Y-113165000D01*
X146170000Y-112500000D02*
X146000000Y-112670000D01*
X144497500Y-113162500D02*
X142400000Y-113162500D01*
D45*
X128712500Y-106862500D02*
X128700000Y-106850000D01*
X151362500Y-115000000D02*
X152400000Y-115000000D01*
X152600000Y-109737500D02*
X152962500Y-110100000D01*
D46*
X147000000Y-113165000D02*
X147000000Y-112670000D01*
D45*
X147000000Y-89700000D02*
X147000000Y-90337500D01*
X142000000Y-93000000D02*
X142637500Y-93000000D01*
D46*
X168000000Y-97211396D02*
X168000000Y-96250000D01*
D45*
X155100000Y-108112500D02*
X155462500Y-107750000D01*
X157362500Y-106000000D02*
X158400000Y-106000000D01*
D46*
X159300000Y-112825000D02*
X160462500Y-112825000D01*
X134112500Y-92400000D02*
X134112500Y-93900000D01*
D45*
X158000000Y-115512500D02*
X157637500Y-115150000D01*
D46*
X160450000Y-85400000D02*
X161300000Y-85400000D01*
X144500000Y-113165000D02*
X144497500Y-113162500D01*
D45*
X155100000Y-108750000D02*
X155100000Y-108112500D01*
X138900000Y-101500000D02*
X139537500Y-101500000D01*
D46*
X146000000Y-114187500D02*
X145387500Y-114800000D01*
X146000000Y-112670000D02*
X146000000Y-113165000D01*
X157700000Y-113475000D02*
X157700000Y-115087500D01*
X160462500Y-112825000D02*
X161000000Y-113362500D01*
X130812500Y-107875000D02*
X129800000Y-106862500D01*
D45*
X141400000Y-112800000D02*
X142037500Y-112800000D01*
D46*
X168788604Y-98000000D02*
X168000000Y-97211396D01*
X146750000Y-92862500D02*
X147362500Y-92250000D01*
D45*
X134112500Y-93900000D02*
X135100000Y-93900000D01*
D46*
X137500000Y-107875000D02*
X131500000Y-107875000D01*
X146000000Y-113165000D02*
X146000000Y-114187500D01*
D45*
X146500000Y-108750000D02*
X146500000Y-108112500D01*
D46*
X146675000Y-88400000D02*
X145700000Y-88400000D01*
X147000000Y-112670000D02*
X146830000Y-112500000D01*
D45*
X162000000Y-113000000D02*
X161362500Y-113000000D01*
D46*
X146830000Y-112500000D02*
X146170000Y-112500000D01*
X134112500Y-93900000D02*
X134112500Y-95400000D01*
D45*
X139537500Y-101500000D02*
X139900000Y-101137500D01*
D46*
X169137500Y-98000000D02*
X168788604Y-98000000D01*
X152287500Y-112750000D02*
X152900000Y-113362500D01*
X172537500Y-96350000D02*
X171250000Y-96350000D01*
%TO.N,/NRST*%
X144325000Y-99250000D02*
X147750000Y-99250000D01*
X144325000Y-99250000D02*
X143250000Y-99250000D01*
X142500000Y-100000000D02*
X139000000Y-100000000D01*
X155000000Y-88000000D02*
X154000000Y-87000000D01*
X143250000Y-99250000D02*
X142500000Y-100000000D01*
X147750000Y-99250000D02*
X150000000Y-97000000D01*
X131500000Y-104125000D02*
X137500000Y-104125000D01*
X130812500Y-104125000D02*
X131500000Y-104125000D01*
X137500000Y-101500000D02*
X137500000Y-104125000D01*
X139000000Y-100000000D02*
X137500000Y-101500000D01*
X155000000Y-88865000D02*
X155000000Y-88000000D01*
X130812500Y-104125000D02*
X129800000Y-105137500D01*
%TO.N,/OSC_IN*%
X138000000Y-94650000D02*
X139600000Y-94650000D01*
X141200000Y-96250000D02*
X141850000Y-96250000D01*
X139600000Y-94650000D02*
X141200000Y-96250000D01*
X143150000Y-98250000D02*
X144325000Y-98250000D01*
X142600000Y-97000000D02*
X142600000Y-97700000D01*
X141850000Y-96250000D02*
X142600000Y-97000000D01*
X142600000Y-97700000D02*
X143150000Y-98250000D01*
%TO.N,/OSC_OUT*%
X144325000Y-98750000D02*
X143000000Y-98750000D01*
X141187500Y-96750000D02*
X140650000Y-97287500D01*
X139587500Y-98350000D02*
X138000000Y-98350000D01*
X143000000Y-98750000D02*
X142100000Y-97850000D01*
X142100000Y-97200000D02*
X141650000Y-96750000D01*
X141650000Y-96750000D02*
X141187500Y-96750000D01*
X140650000Y-97287500D02*
X139587500Y-98350000D01*
X142100000Y-97850000D02*
X142100000Y-97200000D01*
%TO.N,/VCAP1*%
X153475000Y-104500000D02*
X154137500Y-104500000D01*
X153250000Y-104725000D02*
X153475000Y-104500000D01*
X153250000Y-105675000D02*
X153250000Y-104725000D01*
X154137500Y-104500000D02*
X155637500Y-106000000D01*
%TO.N,/VCAP2*%
X155675000Y-96750000D02*
X154750000Y-96750000D01*
X154550000Y-96550000D02*
X154550000Y-95812500D01*
X154750000Y-96750000D02*
X154550000Y-96550000D01*
X154550000Y-95812500D02*
X156000000Y-94362500D01*
D45*
%TO.N,+5V*%
X160225000Y-123000000D02*
X162800000Y-123000000D01*
X169000000Y-116800000D02*
X169000000Y-113700000D01*
D47*
X166500000Y-101000000D02*
X165000000Y-99500000D01*
D45*
X162800000Y-123000000D02*
X169000000Y-116800000D01*
X169000000Y-113700000D02*
X165475000Y-110175000D01*
X165475000Y-110175000D02*
X165475000Y-105300000D01*
D47*
X167350000Y-101000000D02*
X166500000Y-101000000D01*
D46*
%TO.N,VBUS*%
X166862500Y-98000000D02*
X167211396Y-98000000D01*
X168000000Y-98788604D02*
X168000000Y-99400000D01*
X168000000Y-99400000D02*
X169600000Y-101000000D01*
X167211396Y-98000000D02*
X168000000Y-98788604D01*
X169600000Y-101000000D02*
X170650000Y-101000000D01*
%TO.N,/USB_CONN_D-*%
X170136396Y-98300000D02*
X169486396Y-98950000D01*
X172537500Y-98300000D02*
X170136396Y-98300000D01*
X169486396Y-98950000D02*
X169137500Y-98950000D01*
%TO.N,/USB_CONN_D+*%
X170086396Y-97650000D02*
X172537500Y-97650000D01*
X169486396Y-97050000D02*
X169137500Y-97050000D01*
X170086396Y-97650000D02*
X169486396Y-97050000D01*
D45*
%TO.N,unconnected-(J1-Pad6)*%
X173537500Y-94150000D02*
X172537500Y-95150000D01*
X175237500Y-96650000D02*
X175237500Y-94750000D01*
X173537500Y-101150000D02*
X172537500Y-100150000D01*
X175237500Y-101150000D02*
X173537500Y-101150000D01*
X175237500Y-100550000D02*
X175237500Y-98650000D01*
X175237500Y-94150000D02*
X173537500Y-94150000D01*
X175237500Y-98650000D02*
X175237500Y-96650000D01*
D46*
%TO.N,/UART1_RX*%
X155675000Y-98750000D02*
X156950000Y-98750000D01*
X156950000Y-98750000D02*
X157200000Y-99000000D01*
X159500000Y-83300000D02*
X159500000Y-81750000D01*
X159500000Y-83300000D02*
X159500000Y-84500000D01*
%TO.N,Net-(Q1-Pad1)*%
X158550000Y-85400000D02*
X158550000Y-86462500D01*
X158550000Y-86462500D02*
X159287500Y-87200000D01*
%TO.N,/BOOT0*%
X148250000Y-93150000D02*
X148250000Y-94325000D01*
X148500000Y-92900000D02*
X148250000Y-93150000D01*
X148500000Y-88400000D02*
X148500000Y-92900000D01*
D45*
%TO.N,+3.3V*%
X139537500Y-102500000D02*
X139900000Y-102862500D01*
D46*
X146250000Y-92862500D02*
X145637500Y-92250000D01*
D45*
X147500000Y-108750000D02*
X147500000Y-108112500D01*
D46*
X151260000Y-110122500D02*
X151237500Y-110100000D01*
D45*
X154100000Y-108750000D02*
X154100000Y-108112500D01*
X142037500Y-111800000D02*
X142400000Y-111437500D01*
D46*
X145500000Y-111300000D02*
X145362500Y-111437500D01*
X153912500Y-82500000D02*
X153912500Y-84000000D01*
X143000000Y-95800000D02*
X143000000Y-94362500D01*
D45*
X141400000Y-111800000D02*
X142037500Y-111800000D01*
D46*
X159300000Y-113475000D02*
X159300000Y-115087500D01*
X147250000Y-107137500D02*
X147862500Y-107750000D01*
X156270000Y-88865000D02*
X156270000Y-87935000D01*
D45*
X161362500Y-112000000D02*
X161000000Y-111637500D01*
X141400000Y-102862500D02*
X139900000Y-102862500D01*
D46*
X153912500Y-81000000D02*
X153912500Y-82500000D01*
X146500000Y-114187500D02*
X147112500Y-114800000D01*
X151260000Y-111750000D02*
X151260000Y-110122500D01*
X145500000Y-110835000D02*
X145500000Y-111300000D01*
D45*
X145637500Y-90700000D02*
X145637500Y-92250000D01*
D46*
X153750000Y-107737500D02*
X153750000Y-105675000D01*
X153912500Y-84997500D02*
X153910000Y-85000000D01*
D45*
X147500000Y-108112500D02*
X147862500Y-107750000D01*
X154762500Y-112000000D02*
X154400000Y-111637500D01*
X143000000Y-94362500D02*
X142637500Y-94000000D01*
X159000000Y-115512500D02*
X159362500Y-115150000D01*
D46*
X160462500Y-112175000D02*
X161000000Y-111637500D01*
D45*
X146000000Y-89700000D02*
X146000000Y-90337500D01*
D46*
X143450000Y-96250000D02*
X144325000Y-96250000D01*
X143000000Y-95800000D02*
X143450000Y-96250000D01*
X164500000Y-95587500D02*
X164500000Y-94600000D01*
D45*
X142637500Y-94000000D02*
X142000000Y-94000000D01*
X151600000Y-109100000D02*
X151600000Y-109737500D01*
D46*
X159300000Y-112175000D02*
X160462500Y-112175000D01*
X142012500Y-102250000D02*
X144325000Y-102250000D01*
X142400000Y-111437500D02*
X145362500Y-111437500D01*
X159300000Y-115087500D02*
X159362500Y-115150000D01*
D45*
X138900000Y-102500000D02*
X139537500Y-102500000D01*
X158750000Y-95900000D02*
X158112500Y-95900000D01*
D46*
X146500000Y-113165000D02*
X146500000Y-114187500D01*
D45*
X154100000Y-108112500D02*
X153737500Y-107750000D01*
D46*
X141400000Y-102862500D02*
X142012500Y-102250000D01*
X147250000Y-105675000D02*
X147250000Y-107137500D01*
D45*
X151600000Y-109737500D02*
X151237500Y-110100000D01*
D46*
X155675000Y-96250000D02*
X157737500Y-96250000D01*
X153737500Y-107750000D02*
X153750000Y-107737500D01*
D45*
X155400000Y-112000000D02*
X154762500Y-112000000D01*
D46*
X157675000Y-81750000D02*
X156700000Y-81750000D01*
D45*
X158112500Y-95900000D02*
X157750000Y-96262500D01*
X146000000Y-90337500D02*
X145637500Y-90700000D01*
D46*
X146250000Y-94325000D02*
X146250000Y-92862500D01*
X157737500Y-96250000D02*
X157750000Y-96262500D01*
D45*
X162000000Y-112000000D02*
X161362500Y-112000000D01*
D46*
X152287500Y-112250000D02*
X151260000Y-112250000D01*
X153912500Y-84000000D02*
X153912500Y-84997500D01*
D45*
X152900000Y-111637500D02*
X154400000Y-111637500D01*
X159000000Y-116150000D02*
X159000000Y-115512500D01*
D46*
X152287500Y-112250000D02*
X152900000Y-111637500D01*
%TO.N,/UART1_RX_INV*%
X160975000Y-87337500D02*
X160975000Y-92000000D01*
X161112500Y-87200000D02*
X160975000Y-87337500D01*
%TO.N,/LED_RED*%
X144325000Y-99750000D02*
X146750000Y-99750000D01*
X146750000Y-99750000D02*
X148000000Y-101000000D01*
X134075000Y-100500000D02*
X135100000Y-100500000D01*
%TO.N,/LED_GREEN*%
X134075000Y-98800000D02*
X135100000Y-98800000D01*
X144325000Y-100250000D02*
X146250000Y-100250000D01*
X146250000Y-100250000D02*
X147000000Y-101000000D01*
%TO.N,/LED_BLUE*%
X144325000Y-100750000D02*
X145750000Y-100750000D01*
X134075000Y-97100000D02*
X135100000Y-97100000D01*
X145750000Y-100750000D02*
X146000000Y-101000000D01*
%TO.N,/TIM5_CH1*%
X143460000Y-120460000D02*
X148190000Y-120460000D01*
X138700000Y-115700000D02*
X143460000Y-120460000D01*
X144325000Y-102750000D02*
X142950000Y-102750000D01*
X138700000Y-107000000D02*
X138700000Y-115700000D01*
X142950000Y-102750000D02*
X138700000Y-107000000D01*
%TO.N,/TIM5_CH2*%
X150730000Y-120460000D02*
X149270000Y-119000000D01*
X139200000Y-115200000D02*
X139200000Y-107200000D01*
X143150000Y-103250000D02*
X144325000Y-103250000D01*
X143000000Y-119000000D02*
X139200000Y-115200000D01*
X139200000Y-107200000D02*
X143150000Y-103250000D01*
X149270000Y-119000000D02*
X143000000Y-119000000D01*
%TO.N,/TIM5_CH3*%
X139700000Y-114700000D02*
X143300000Y-118300000D01*
X151110000Y-118300000D02*
X153270000Y-120460000D01*
X143300000Y-118300000D02*
X151110000Y-118300000D01*
X144325000Y-103750000D02*
X143350000Y-103750000D01*
X143350000Y-103750000D02*
X139700000Y-107400000D01*
X139700000Y-107400000D02*
X139700000Y-114700000D01*
%TO.N,/TIM5_CH4*%
X146000000Y-106900000D02*
X144600000Y-106900000D01*
X140200000Y-114200000D02*
X140200000Y-108400000D01*
X140200000Y-108400000D02*
X141700000Y-106900000D01*
X143600000Y-117600000D02*
X140200000Y-114200000D01*
X152950000Y-117600000D02*
X143600000Y-117600000D01*
X146250000Y-105675000D02*
X146250000Y-106650000D01*
X155810000Y-120460000D02*
X152950000Y-117600000D01*
X146250000Y-106650000D02*
X146000000Y-106900000D01*
%TO.N,/SPI1_SCK*%
X143800000Y-106700000D02*
X143800000Y-110200000D01*
X149740000Y-111750000D02*
X149250000Y-111750000D01*
X148000000Y-104400000D02*
X146100000Y-104400000D01*
X144085000Y-112000000D02*
X144800000Y-112000000D01*
X146100000Y-104400000D02*
X143800000Y-106700000D01*
X149250000Y-111750000D02*
X149000000Y-111500000D01*
X149000000Y-111500000D02*
X146200000Y-111500000D01*
X148250000Y-105675000D02*
X148250000Y-104650000D01*
X157700000Y-111525000D02*
X156975000Y-111525000D01*
X145600000Y-112100000D02*
X144900000Y-112100000D01*
X146200000Y-111500000D02*
X145600000Y-112100000D01*
X144800000Y-112000000D02*
X144900000Y-112100000D01*
X156975000Y-111525000D02*
X156600000Y-111900000D01*
X156600000Y-113900000D02*
X154500000Y-116000000D01*
X148250000Y-104650000D02*
X148000000Y-104400000D01*
X156600000Y-111900000D02*
X156600000Y-113900000D01*
X154500000Y-116000000D02*
X149000000Y-116000000D01*
%TO.N,/SPI1_MISO*%
X152300000Y-114300000D02*
X155400000Y-114300000D01*
X151100000Y-108400000D02*
X152900000Y-108400000D01*
X148900000Y-108800000D02*
X150700000Y-108800000D01*
X151260000Y-113260000D02*
X152300000Y-114300000D01*
X152900000Y-108400000D02*
X154500000Y-110000000D01*
X147900000Y-109800000D02*
X147500000Y-109800000D01*
X148900000Y-108800000D02*
X147900000Y-109800000D01*
X145000000Y-110835000D02*
X145000000Y-109900000D01*
X158700000Y-110500000D02*
X159300000Y-111100000D01*
X155400000Y-114300000D02*
X156100000Y-113600000D01*
X148750000Y-106850000D02*
X148750000Y-105675000D01*
X148900000Y-107000000D02*
X148750000Y-106850000D01*
X155600000Y-110000000D02*
X156100000Y-110500000D01*
X151260000Y-113250000D02*
X151260000Y-113260000D01*
X150700000Y-108800000D02*
X151100000Y-108400000D01*
X156100000Y-110500000D02*
X158700000Y-110500000D01*
X154500000Y-110000000D02*
X155600000Y-110000000D01*
X145400000Y-109500000D02*
X147200000Y-109500000D01*
X159300000Y-111100000D02*
X159300000Y-111525000D01*
X148900000Y-108800000D02*
X148900000Y-107000000D01*
X145000000Y-109900000D02*
X145400000Y-109500000D01*
X156100000Y-113600000D02*
X156100000Y-110500000D01*
X147200000Y-109500000D02*
X147500000Y-109800000D01*
X147500000Y-109800000D02*
X147500000Y-110835000D01*
%TO.N,/SPI1_MOSI*%
X149250000Y-105675000D02*
X149250000Y-104650000D01*
X145600000Y-103900000D02*
X142400000Y-107100000D01*
X143435000Y-110835000D02*
X144500000Y-110835000D01*
X148500000Y-103900000D02*
X145600000Y-103900000D01*
X142400000Y-109800000D02*
X143435000Y-110835000D01*
X149250000Y-104650000D02*
X148500000Y-103900000D01*
X142400000Y-107100000D02*
X142400000Y-109800000D01*
%TO.N,/ACC_NSS*%
X147000000Y-110300000D02*
X146800000Y-110100000D01*
X147000000Y-110835000D02*
X147000000Y-110300000D01*
%TO.N,/GYRO_NSS*%
X145500000Y-113165000D02*
X145500000Y-113735000D01*
X145335000Y-113900000D02*
X144000000Y-113900000D01*
X145500000Y-113735000D02*
X145335000Y-113900000D01*
%TO.N,/MAG_NSS*%
X150250000Y-112750000D02*
X150500000Y-112500000D01*
X149740000Y-112750000D02*
X150250000Y-112750000D01*
X151750000Y-107675000D02*
X151725000Y-107700000D01*
X151750000Y-105675000D02*
X151750000Y-107675000D01*
%TO.N,/BARO_NSS*%
X158175000Y-112825000D02*
X158500000Y-112500000D01*
X157700000Y-112825000D02*
X158175000Y-112825000D01*
X152250000Y-106750000D02*
X152600000Y-107100000D01*
X152250000Y-105675000D02*
X152250000Y-106750000D01*
%TO.N,/UART6_TX*%
X150000000Y-101000000D02*
X150750000Y-101750000D01*
X150750000Y-101750000D02*
X155675000Y-101750000D01*
%TO.N,/UART6_RX*%
X148555000Y-82735000D02*
X150822500Y-82735000D01*
X154000000Y-101250000D02*
X153250000Y-100500000D01*
X155675000Y-101250000D02*
X154000000Y-101250000D01*
X152087500Y-84000000D02*
X151000000Y-85087500D01*
X151000000Y-90800000D02*
X152000000Y-91800000D01*
X150822500Y-82735000D02*
X152087500Y-84000000D01*
X153250000Y-100500000D02*
X153250000Y-97000000D01*
X151000000Y-85087500D02*
X151000000Y-90800000D01*
%TO.N,/USB_D-*%
X165950000Y-98950000D02*
X165250000Y-98250000D01*
X166862500Y-98950000D02*
X165950000Y-98950000D01*
X165250000Y-98250000D02*
X155675000Y-98250000D01*
%TO.N,/USB_D+*%
X166825000Y-97087500D02*
X165912500Y-97087500D01*
X165912500Y-97087500D02*
X165250000Y-97750000D01*
X166862500Y-97050000D02*
X166825000Y-97087500D01*
X155675000Y-97750000D02*
X165250000Y-97750000D01*
%TO.N,/SWDIO*%
X154650000Y-97250000D02*
X154100000Y-96700000D01*
X154500000Y-91905000D02*
X156270000Y-90135000D01*
X154500000Y-95115165D02*
X154500000Y-91905000D01*
X154100000Y-96700000D02*
X154100000Y-95515165D01*
X154100000Y-95515165D02*
X154500000Y-95115165D01*
X155675000Y-97250000D02*
X154650000Y-97250000D01*
%TO.N,/SWCLK*%
X155000000Y-90135000D02*
X153750000Y-91385000D01*
X153750000Y-91385000D02*
X153750000Y-94325000D01*
D45*
%TO.N,Net-(D2-Pad1)*%
X163725000Y-105300000D02*
X163725000Y-106862500D01*
X163725000Y-106862500D02*
X163700000Y-106887500D01*
D46*
%TO.N,/UART4_TX*%
X145600000Y-95900000D02*
X144300000Y-94600000D01*
X143475000Y-87475000D02*
X143475000Y-85275000D01*
X144300000Y-94600000D02*
X144300000Y-88300000D01*
X152750000Y-94325000D02*
X152750000Y-95350000D01*
X144300000Y-88300000D02*
X143475000Y-87475000D01*
X152200000Y-95900000D02*
X145600000Y-95900000D01*
X152750000Y-95350000D02*
X152200000Y-95900000D01*
%TO.N,/UART4_RX*%
X143475000Y-82735000D02*
X145210000Y-81000000D01*
X143475000Y-82735000D02*
X144750000Y-84010000D01*
X144750000Y-94450000D02*
X145800000Y-95500000D01*
X145210000Y-81000000D02*
X152087500Y-81000000D01*
X145800000Y-95500000D02*
X152000000Y-95500000D01*
X152250000Y-95250000D02*
X152250000Y-94325000D01*
X144750000Y-84010000D02*
X144750000Y-94450000D01*
X152000000Y-95500000D02*
X152250000Y-95250000D01*
%TO.N,/UART5_TX*%
X151750000Y-92550000D02*
X150200000Y-91000000D01*
X151750000Y-94325000D02*
X151750000Y-92550000D01*
%TO.N,/UART5_RX*%
X151250000Y-94325000D02*
X151250000Y-93250000D01*
X146015000Y-82735000D02*
X147250000Y-81500000D01*
X147300000Y-84020000D02*
X146015000Y-82735000D01*
X151250000Y-93250000D02*
X149400000Y-91400000D01*
X149400000Y-87950000D02*
X147300000Y-85850000D01*
X151087500Y-81500000D02*
X152087500Y-82500000D01*
X147250000Y-81500000D02*
X151087500Y-81500000D01*
X149400000Y-91400000D02*
X149400000Y-87950000D01*
X147300000Y-85850000D02*
X147300000Y-84020000D01*
%TO.N,Net-(D3-Pad1)*%
X132287500Y-92400000D02*
X130900000Y-93787500D01*
X130900000Y-93787500D02*
X130900000Y-99075000D01*
X130900000Y-99075000D02*
X132325000Y-100500000D01*
%TO.N,Net-(D4-Pad1)*%
X132287500Y-93900000D02*
X131400000Y-94787500D01*
X131400000Y-97875000D02*
X132325000Y-98800000D01*
X131400000Y-94787500D02*
X131400000Y-97875000D01*
%TO.N,Net-(D5-Pad1)*%
X132287500Y-95400000D02*
X132287500Y-96862500D01*
D45*
%TO.N,/PWM_5V*%
X155810000Y-123000000D02*
X153270000Y-123000000D01*
X158775000Y-123000000D02*
X155810000Y-123000000D01*
X150730000Y-123000000D02*
X148190000Y-123000000D01*
X153270000Y-123000000D02*
X150730000Y-123000000D01*
D46*
%TO.N,/Sensors/MAG_C1*%
X150250000Y-113260000D02*
X150250000Y-114387500D01*
X150250000Y-114387500D02*
X149637500Y-115000000D01*
%TD*%
%TA.AperFunction,Conductor*%
%TO.N,GND*%
G36*
X174942121Y-85020002D02*
G01*
X174988614Y-85073658D01*
X175000000Y-85126000D01*
X175000000Y-89874000D01*
X174979998Y-89942121D01*
X174926342Y-89988614D01*
X174874000Y-90000000D01*
X170126000Y-90000000D01*
X170057879Y-89979998D01*
X170011386Y-89926342D01*
X170000000Y-89874000D01*
X170000000Y-85126000D01*
X170020002Y-85057879D01*
X170073658Y-85011386D01*
X170126000Y-85000000D01*
X174874000Y-85000000D01*
X174942121Y-85020002D01*
G37*
%TD.AperFunction*%
%TD*%
%TA.AperFunction,Conductor*%
%TO.N,VBUS*%
G36*
X171826981Y-98752421D02*
G01*
X171837433Y-98754500D01*
X171897277Y-98754500D01*
X173099000Y-98754499D01*
X173167121Y-98774501D01*
X173213614Y-98828157D01*
X173225000Y-98880499D01*
X173225000Y-99024000D01*
X173204998Y-99092121D01*
X173151342Y-99138614D01*
X173099000Y-99150000D01*
X171850000Y-99150000D01*
X171842525Y-99162459D01*
X171118574Y-100369044D01*
X171100000Y-100400000D01*
X171100000Y-101474000D01*
X171079998Y-101542121D01*
X171026342Y-101588614D01*
X170974000Y-101600000D01*
X170326000Y-101600000D01*
X170257879Y-101579998D01*
X170211386Y-101526342D01*
X170200000Y-101474000D01*
X170200000Y-100436690D01*
X170219699Y-100369044D01*
X171212866Y-98808354D01*
X171266313Y-98761621D01*
X171319167Y-98750000D01*
X171802400Y-98750000D01*
X171826981Y-98752421D01*
G37*
%TD.AperFunction*%
%TD*%
%TA.AperFunction,Conductor*%
%TO.N,+3.3V*%
G36*
X170692121Y-102670002D02*
G01*
X170738614Y-102723658D01*
X170750000Y-102776000D01*
X170750000Y-105000000D01*
X172375000Y-106625000D01*
X176199000Y-106625000D01*
X176267121Y-106645002D01*
X176313614Y-106698658D01*
X176325000Y-106751000D01*
X176325000Y-107574000D01*
X176304998Y-107642121D01*
X176251342Y-107688614D01*
X176199000Y-107700000D01*
X173875000Y-107700000D01*
X171900000Y-108950000D01*
X171900000Y-110824000D01*
X171879998Y-110892121D01*
X171826342Y-110938614D01*
X171774000Y-110950000D01*
X168226000Y-110950000D01*
X168157879Y-110929998D01*
X168111386Y-110876342D01*
X168100000Y-110824000D01*
X168100000Y-108966558D01*
X168104278Y-108934004D01*
X168725229Y-106612188D01*
X169250000Y-104650000D01*
X169250000Y-102776000D01*
X169270002Y-102707879D01*
X169323658Y-102661386D01*
X169376000Y-102650000D01*
X170624000Y-102650000D01*
X170692121Y-102670002D01*
G37*
%TD.AperFunction*%
%TD*%
%TA.AperFunction,Conductor*%
%TO.N,+5V*%
G36*
X167742121Y-100420002D02*
G01*
X167788614Y-100473658D01*
X167800000Y-100526000D01*
X167800000Y-101600000D01*
X167809250Y-101614942D01*
X168431133Y-102619523D01*
X168450000Y-102685844D01*
X168450000Y-104524000D01*
X168429998Y-104592121D01*
X168376342Y-104638614D01*
X168324000Y-104650000D01*
X167076000Y-104650000D01*
X167007879Y-104629998D01*
X166961386Y-104576342D01*
X166950000Y-104524000D01*
X166950000Y-102650000D01*
X166900143Y-101603003D01*
X166900000Y-101597010D01*
X166900000Y-100526000D01*
X166920002Y-100457879D01*
X166973658Y-100411386D01*
X167026000Y-100400000D01*
X167674000Y-100400000D01*
X167742121Y-100420002D01*
G37*
%TD.AperFunction*%
%TD*%
%TA.AperFunction,Conductor*%
%TO.N,GND*%
G36*
X175265931Y-102670002D02*
G01*
X175286905Y-102686905D01*
X176288095Y-103688095D01*
X176322121Y-103750407D01*
X176325000Y-103777190D01*
X176325000Y-105849000D01*
X176304998Y-105917121D01*
X176251342Y-105963614D01*
X176199000Y-105975000D01*
X172927190Y-105975000D01*
X172859069Y-105954998D01*
X172838095Y-105938095D01*
X171586905Y-104686905D01*
X171552879Y-104624593D01*
X171550000Y-104597810D01*
X171550000Y-102776000D01*
X171570002Y-102707879D01*
X171623658Y-102661386D01*
X171676000Y-102650000D01*
X175197810Y-102650000D01*
X175265931Y-102670002D01*
G37*
%TD.AperFunction*%
%TD*%
%TA.AperFunction,Conductor*%
%TO.N,+5V*%
G36*
X174942121Y-78520002D02*
G01*
X174988614Y-78573658D01*
X175000000Y-78626000D01*
X175000000Y-83374000D01*
X174979998Y-83442121D01*
X174926342Y-83488614D01*
X174874000Y-83500000D01*
X170126000Y-83500000D01*
X170057879Y-83479998D01*
X170011386Y-83426342D01*
X170000000Y-83374000D01*
X170000000Y-78626000D01*
X170020002Y-78557879D01*
X170073658Y-78511386D01*
X170126000Y-78500000D01*
X174874000Y-78500000D01*
X174942121Y-78520002D01*
G37*
%TD.AperFunction*%
%TD*%
M02*
