%TF.GenerationSoftware,KiCad,Pcbnew,(6.0.9)*%
%TF.CreationDate,2022-11-01T00:51:48+09:00*%
%TF.ProjectId,STM32-FC,53544d33-322d-4464-932e-6b696361645f,rev?*%
%TF.SameCoordinates,Original*%
%TF.FileFunction,Paste,Top*%
%TF.FilePolarity,Positive*%
%FSLAX46Y46*%
G04 Gerber Fmt 4.6, Leading zero omitted, Abs format (unit mm)*
G04 Created by KiCad (PCBNEW (6.0.9)) date 2022-11-01 00:51:48*
%MOMM*%
%LPD*%
G01*
G04 APERTURE LIST*
G04 Aperture macros list*
%AMRoundRect*
0 Rectangle with rounded corners*
0 $1 Rounding radius*
0 $2 $3 $4 $5 $6 $7 $8 $9 X,Y pos of 4 corners*
0 Add a 4 corners polygon primitive as box body*
4,1,4,$2,$3,$4,$5,$6,$7,$8,$9,$2,$3,0*
0 Add four circle primitives for the rounded corners*
1,1,$1+$1,$2,$3*
1,1,$1+$1,$4,$5*
1,1,$1+$1,$6,$7*
1,1,$1+$1,$8,$9*
0 Add four rect primitives between the rounded corners*
20,1,$1+$1,$2,$3,$4,$5,0*
20,1,$1+$1,$4,$5,$6,$7,0*
20,1,$1+$1,$6,$7,$8,$9,0*
20,1,$1+$1,$8,$9,$2,$3,0*%
G04 Aperture macros list end*
%ADD10RoundRect,0.237500X0.237500X-0.300000X0.237500X0.300000X-0.237500X0.300000X-0.237500X-0.300000X0*%
%ADD11RoundRect,0.237500X0.300000X0.237500X-0.300000X0.237500X-0.300000X-0.237500X0.300000X-0.237500X0*%
%ADD12RoundRect,0.237500X-0.250000X-0.237500X0.250000X-0.237500X0.250000X0.237500X-0.250000X0.237500X0*%
%ADD13RoundRect,0.237500X-0.237500X0.300000X-0.237500X-0.300000X0.237500X-0.300000X0.237500X0.300000X0*%
%ADD14RoundRect,0.237500X-0.300000X-0.237500X0.300000X-0.237500X0.300000X0.237500X-0.300000X0.237500X0*%
%ADD15RoundRect,0.237500X0.250000X0.237500X-0.250000X0.237500X-0.250000X-0.237500X0.250000X-0.237500X0*%
%ADD16R,2.400000X2.000000*%
%ADD17RoundRect,0.237500X-0.237500X0.250000X-0.237500X-0.250000X0.237500X-0.250000X0.237500X0.250000X0*%
%ADD18R,0.500000X0.350000*%
%ADD19R,1.500000X2.000000*%
%ADD20R,3.800000X2.000000*%
%ADD21RoundRect,0.075000X-0.700000X-0.075000X0.700000X-0.075000X0.700000X0.075000X-0.700000X0.075000X0*%
%ADD22RoundRect,0.075000X-0.075000X-0.700000X0.075000X-0.700000X0.075000X0.700000X-0.075000X0.700000X0*%
%ADD23R,0.350000X0.590000*%
%ADD24R,0.590000X0.350000*%
%ADD25R,1.350000X0.400000*%
%ADD26R,1.900000X1.500000*%
%ADD27R,1.000000X0.750000*%
%ADD28RoundRect,0.237500X-0.287500X-0.237500X0.287500X-0.237500X0.287500X0.237500X-0.287500X0.237500X0*%
%ADD29R,0.600000X1.300000*%
%ADD30RoundRect,0.031500X-0.173500X-0.143500X0.173500X-0.143500X0.173500X0.143500X-0.173500X0.143500X0*%
%ADD31RoundRect,0.031500X0.143500X-0.173500X0.143500X0.173500X-0.143500X0.173500X-0.143500X-0.173500X0*%
%ADD32RoundRect,0.150000X0.512500X0.150000X-0.512500X0.150000X-0.512500X-0.150000X0.512500X-0.150000X0*%
%ADD33R,0.900000X1.200000*%
G04 APERTURE END LIST*
D10*
%TO.C,C16*%
X175850000Y-107162500D03*
X175850000Y-105437500D03*
%TD*%
%TO.C,C15*%
X174350000Y-107162500D03*
X174350000Y-105437500D03*
%TD*%
D11*
%TO.C,C14*%
X165462500Y-103650000D03*
X163737500Y-103650000D03*
%TD*%
D12*
%TO.C,R11*%
X132287500Y-95400000D03*
X134112500Y-95400000D03*
%TD*%
D13*
%TO.C,C5*%
X140650000Y-97287500D03*
X140650000Y-99012500D03*
%TD*%
D10*
%TO.C,C12*%
X139900000Y-102862500D03*
X139900000Y-101137500D03*
%TD*%
D13*
%TO.C,C20*%
X152900000Y-111637500D03*
X152900000Y-113362500D03*
%TD*%
D14*
%TO.C,C9*%
X153737500Y-107750000D03*
X155462500Y-107750000D03*
%TD*%
D10*
%TO.C,C3*%
X143000000Y-94362500D03*
X143000000Y-92637500D03*
%TD*%
D15*
%TO.C,R3*%
X153912500Y-81000000D03*
X152087500Y-81000000D03*
%TD*%
%TO.C,R7*%
X153912500Y-84000000D03*
X152087500Y-84000000D03*
%TD*%
D16*
%TO.C,Y1*%
X138000000Y-94650000D03*
X138000000Y-98350000D03*
%TD*%
D17*
%TO.C,R8*%
X163700000Y-106887500D03*
X163700000Y-108712500D03*
%TD*%
D18*
%TO.C,U6*%
X157700000Y-113475000D03*
X157700000Y-112825000D03*
X157700000Y-112175000D03*
X157700000Y-111525000D03*
X159300000Y-111525000D03*
X159300000Y-112175000D03*
X159300000Y-112825000D03*
X159300000Y-113475000D03*
%TD*%
D19*
%TO.C,U3*%
X172300000Y-103650000D03*
D20*
X170000000Y-109950000D03*
D19*
X170000000Y-103650000D03*
X167700000Y-103650000D03*
%TD*%
D21*
%TO.C,U1*%
X144325000Y-96250000D03*
X144325000Y-96750000D03*
X144325000Y-97250000D03*
X144325000Y-97750000D03*
X144325000Y-98250000D03*
X144325000Y-98750000D03*
X144325000Y-99250000D03*
X144325000Y-99750000D03*
X144325000Y-100250000D03*
X144325000Y-100750000D03*
X144325000Y-101250000D03*
X144325000Y-101750000D03*
X144325000Y-102250000D03*
X144325000Y-102750000D03*
X144325000Y-103250000D03*
X144325000Y-103750000D03*
D22*
X146250000Y-105675000D03*
X146750000Y-105675000D03*
X147250000Y-105675000D03*
X147750000Y-105675000D03*
X148250000Y-105675000D03*
X148750000Y-105675000D03*
X149250000Y-105675000D03*
X149750000Y-105675000D03*
X150250000Y-105675000D03*
X150750000Y-105675000D03*
X151250000Y-105675000D03*
X151750000Y-105675000D03*
X152250000Y-105675000D03*
X152750000Y-105675000D03*
X153250000Y-105675000D03*
X153750000Y-105675000D03*
D21*
X155675000Y-103750000D03*
X155675000Y-103250000D03*
X155675000Y-102750000D03*
X155675000Y-102250000D03*
X155675000Y-101750000D03*
X155675000Y-101250000D03*
X155675000Y-100750000D03*
X155675000Y-100250000D03*
X155675000Y-99750000D03*
X155675000Y-99250000D03*
X155675000Y-98750000D03*
X155675000Y-98250000D03*
X155675000Y-97750000D03*
X155675000Y-97250000D03*
X155675000Y-96750000D03*
X155675000Y-96250000D03*
D22*
X153750000Y-94325000D03*
X153250000Y-94325000D03*
X152750000Y-94325000D03*
X152250000Y-94325000D03*
X151750000Y-94325000D03*
X151250000Y-94325000D03*
X150750000Y-94325000D03*
X150250000Y-94325000D03*
X149750000Y-94325000D03*
X149250000Y-94325000D03*
X148750000Y-94325000D03*
X148250000Y-94325000D03*
X147750000Y-94325000D03*
X147250000Y-94325000D03*
X146750000Y-94325000D03*
X146250000Y-94325000D03*
%TD*%
D11*
%TO.C,C7*%
X157362500Y-106000000D03*
X155637500Y-106000000D03*
%TD*%
D13*
%TO.C,C23*%
X161000000Y-111637500D03*
X161000000Y-113362500D03*
%TD*%
%TO.C,C19*%
X154400000Y-111637500D03*
X154400000Y-113362500D03*
%TD*%
D10*
%TO.C,C8*%
X156000000Y-94362500D03*
X156000000Y-92637500D03*
%TD*%
D23*
%TO.C,U4*%
X147500000Y-113165000D03*
X147000000Y-113165000D03*
X146500000Y-113165000D03*
X146000000Y-113165000D03*
X145500000Y-113165000D03*
X145000000Y-113165000D03*
X144500000Y-113165000D03*
D24*
X144085000Y-112000000D03*
D23*
X144500000Y-110835000D03*
X145000000Y-110835000D03*
X145500000Y-110835000D03*
X146000000Y-110835000D03*
X146500000Y-110835000D03*
X147000000Y-110835000D03*
X147500000Y-110835000D03*
D24*
X147915000Y-112000000D03*
%TD*%
D10*
%TO.C,C10*%
X157750000Y-96262500D03*
X157750000Y-94537500D03*
%TD*%
D25*
%TO.C,J1*%
X172537500Y-98950000D03*
X172537500Y-98300000D03*
X172537500Y-97650000D03*
X172537500Y-97000000D03*
X172537500Y-96350000D03*
D26*
X175237500Y-96650000D03*
X175237500Y-98650000D03*
%TD*%
D10*
%TO.C,C2*%
X129800000Y-106862500D03*
X129800000Y-105137500D03*
%TD*%
D12*
%TO.C,R6*%
X157675000Y-81750000D03*
X159500000Y-81750000D03*
%TD*%
D10*
%TO.C,C13*%
X141400000Y-102862500D03*
X141400000Y-101137500D03*
%TD*%
D13*
%TO.C,C18*%
X142400000Y-111437500D03*
X142400000Y-113162500D03*
%TD*%
D27*
%TO.C,SW1*%
X137500000Y-104125000D03*
X131500000Y-104125000D03*
X137500000Y-107875000D03*
X131500000Y-107875000D03*
%TD*%
D12*
%TO.C,R10*%
X132287500Y-93900000D03*
X134112500Y-93900000D03*
%TD*%
D14*
%TO.C,C22*%
X149637500Y-115000000D03*
X151362500Y-115000000D03*
%TD*%
%TO.C,C21*%
X151237500Y-110100000D03*
X152962500Y-110100000D03*
%TD*%
D13*
%TO.C,C4*%
X140650000Y-93987500D03*
X140650000Y-95712500D03*
%TD*%
D11*
%TO.C,C6*%
X147862500Y-107750000D03*
X146137500Y-107750000D03*
%TD*%
%TO.C,C17*%
X147112500Y-114800000D03*
X145387500Y-114800000D03*
%TD*%
D28*
%TO.C,D3*%
X132325000Y-100500000D03*
X134075000Y-100500000D03*
%TD*%
D29*
%TO.C,Q1*%
X158550000Y-85400000D03*
X160450000Y-85400000D03*
X159500000Y-83300000D03*
%TD*%
D12*
%TO.C,R9*%
X132287500Y-92400000D03*
X134112500Y-92400000D03*
%TD*%
D15*
%TO.C,R1*%
X148500000Y-88400000D03*
X146675000Y-88400000D03*
%TD*%
D11*
%TO.C,C24*%
X159362500Y-115150000D03*
X157637500Y-115150000D03*
%TD*%
D30*
%TO.C,U5*%
X149740000Y-111750000D03*
X149740000Y-112250000D03*
X149740000Y-112750000D03*
X149740000Y-113250000D03*
D31*
X150250000Y-113260000D03*
X150750000Y-113260000D03*
D30*
X151260000Y-113250000D03*
X151260000Y-112750000D03*
X151260000Y-112250000D03*
X151260000Y-111750000D03*
D31*
X150750000Y-111740000D03*
X150250000Y-111740000D03*
%TD*%
D28*
%TO.C,D4*%
X132325000Y-98800000D03*
X134075000Y-98800000D03*
%TD*%
D15*
%TO.C,R4*%
X161112500Y-87200000D03*
X159287500Y-87200000D03*
%TD*%
D32*
%TO.C,U2*%
X169137500Y-98950000D03*
X169137500Y-98000000D03*
X169137500Y-97050000D03*
X166862500Y-97050000D03*
X166862500Y-98000000D03*
X166862500Y-98950000D03*
%TD*%
D28*
%TO.C,D5*%
X132325000Y-97100000D03*
X134075000Y-97100000D03*
%TD*%
D33*
%TO.C,D1*%
X167350000Y-101000000D03*
X170650000Y-101000000D03*
%TD*%
D17*
%TO.C,R2*%
X164500000Y-95587500D03*
X164500000Y-97412500D03*
%TD*%
D14*
%TO.C,C11*%
X145637500Y-92250000D03*
X147362500Y-92250000D03*
%TD*%
D15*
%TO.C,R5*%
X153912500Y-82500000D03*
X152087500Y-82500000D03*
%TD*%
D14*
%TO.C,C1*%
X145637500Y-90700000D03*
X147362500Y-90700000D03*
%TD*%
D28*
%TO.C,D2*%
X163725000Y-105300000D03*
X165475000Y-105300000D03*
%TD*%
M02*
