%TF.GenerationSoftware,KiCad,Pcbnew,(6.0.9)*%
%TF.CreationDate,2022-11-01T00:51:48+09:00*%
%TF.ProjectId,STM32-FC,53544d33-322d-4464-932e-6b696361645f,rev?*%
%TF.SameCoordinates,Original*%
%TF.FileFunction,Legend,Top*%
%TF.FilePolarity,Positive*%
%FSLAX46Y46*%
G04 Gerber Fmt 4.6, Leading zero omitted, Abs format (unit mm)*
G04 Created by KiCad (PCBNEW (6.0.9)) date 2022-11-01 00:51:48*
%MOMM*%
%LPD*%
G01*
G04 APERTURE LIST*
G04 Aperture macros list*
%AMRoundRect*
0 Rectangle with rounded corners*
0 $1 Rounding radius*
0 $2 $3 $4 $5 $6 $7 $8 $9 X,Y pos of 4 corners*
0 Add a 4 corners polygon primitive as box body*
4,1,4,$2,$3,$4,$5,$6,$7,$8,$9,$2,$3,0*
0 Add four circle primitives for the rounded corners*
1,1,$1+$1,$2,$3*
1,1,$1+$1,$4,$5*
1,1,$1+$1,$6,$7*
1,1,$1+$1,$8,$9*
0 Add four rect primitives between the rounded corners*
20,1,$1+$1,$2,$3,$4,$5,0*
20,1,$1+$1,$4,$5,$6,$7,0*
20,1,$1+$1,$6,$7,$8,$9,0*
20,1,$1+$1,$8,$9,$2,$3,0*%
%AMFreePoly0*
4,1,6,1.000000,0.000000,0.500000,-0.750000,-0.500000,-0.750000,-0.500000,0.750000,0.500000,0.750000,1.000000,0.000000,1.000000,0.000000,$1*%
%AMFreePoly1*
4,1,6,0.500000,-0.750000,-0.650000,-0.750000,-0.150000,0.000000,-0.650000,0.750000,0.500000,0.750000,0.500000,-0.750000,0.500000,-0.750000,$1*%
G04 Aperture macros list end*
%ADD10C,0.150000*%
%ADD11C,0.120000*%
%ADD12C,0.100000*%
%ADD13C,0.127000*%
%ADD14C,0.200000*%
%ADD15RoundRect,0.237500X0.237500X-0.300000X0.237500X0.300000X-0.237500X0.300000X-0.237500X-0.300000X0*%
%ADD16RoundRect,0.237500X0.300000X0.237500X-0.300000X0.237500X-0.300000X-0.237500X0.300000X-0.237500X0*%
%ADD17RoundRect,0.237500X-0.250000X-0.237500X0.250000X-0.237500X0.250000X0.237500X-0.250000X0.237500X0*%
%ADD18RoundRect,0.237500X-0.237500X0.300000X-0.237500X-0.300000X0.237500X-0.300000X0.237500X0.300000X0*%
%ADD19RoundRect,0.237500X-0.300000X-0.237500X0.300000X-0.237500X0.300000X0.237500X-0.300000X0.237500X0*%
%ADD20RoundRect,0.237500X0.250000X0.237500X-0.250000X0.237500X-0.250000X-0.237500X0.250000X-0.237500X0*%
%ADD21R,1.700000X1.700000*%
%ADD22O,1.700000X1.700000*%
%ADD23R,2.400000X2.000000*%
%ADD24RoundRect,0.237500X-0.237500X0.250000X-0.237500X-0.250000X0.237500X-0.250000X0.237500X0.250000X0*%
%ADD25R,0.500000X0.350000*%
%ADD26R,1.500000X2.000000*%
%ADD27R,3.800000X2.000000*%
%ADD28RoundRect,0.075000X-0.700000X-0.075000X0.700000X-0.075000X0.700000X0.075000X-0.700000X0.075000X0*%
%ADD29RoundRect,0.075000X-0.075000X-0.700000X0.075000X-0.700000X0.075000X0.700000X-0.075000X0.700000X0*%
%ADD30R,0.350000X0.590000*%
%ADD31R,0.590000X0.350000*%
%ADD32C,3.200000*%
%ADD33R,1.350000X0.400000*%
%ADD34R,1.900000X1.200000*%
%ADD35C,1.450000*%
%ADD36O,1.900000X1.200000*%
%ADD37R,1.900000X1.500000*%
%ADD38R,1.000000X0.750000*%
%ADD39RoundRect,0.237500X-0.287500X-0.237500X0.287500X-0.237500X0.287500X0.237500X-0.287500X0.237500X0*%
%ADD40R,0.600000X1.300000*%
%ADD41FreePoly0,0.000000*%
%ADD42FreePoly1,0.000000*%
%ADD43RoundRect,0.031500X-0.173500X-0.143500X0.173500X-0.143500X0.173500X0.143500X-0.173500X0.143500X0*%
%ADD44RoundRect,0.031500X0.143500X-0.173500X0.143500X0.173500X-0.143500X0.173500X-0.143500X-0.173500X0*%
%ADD45RoundRect,0.150000X0.512500X0.150000X-0.512500X0.150000X-0.512500X-0.150000X0.512500X-0.150000X0*%
%ADD46R,0.900000X1.200000*%
%ADD47C,0.990600*%
%ADD48C,0.787400*%
G04 APERTURE END LIST*
D10*
X135000000Y-121000000D02*
X135000000Y-124000000D01*
X129000000Y-121000000D02*
X129000000Y-124000000D01*
X135000000Y-121000000D02*
X138000000Y-121000000D01*
X132000000Y-121000000D02*
X129000000Y-121000000D01*
X150414285Y-117747619D02*
X150461904Y-117700000D01*
X150557142Y-117652380D01*
X150795238Y-117652380D01*
X150890476Y-117700000D01*
X150938095Y-117747619D01*
X150985714Y-117842857D01*
X150985714Y-117938095D01*
X150938095Y-118080952D01*
X150366666Y-118652380D01*
X150985714Y-118652380D01*
X168035595Y-90647380D02*
X168035595Y-91456904D01*
X168083214Y-91552142D01*
X168130833Y-91599761D01*
X168226071Y-91647380D01*
X168416547Y-91647380D01*
X168511785Y-91599761D01*
X168559404Y-91552142D01*
X168607023Y-91456904D01*
X168607023Y-90647380D01*
X169035595Y-91361666D02*
X169511785Y-91361666D01*
X168940357Y-91647380D02*
X169273690Y-90647380D01*
X169607023Y-91647380D01*
X170511785Y-91647380D02*
X170178452Y-91171190D01*
X169940357Y-91647380D02*
X169940357Y-90647380D01*
X170321309Y-90647380D01*
X170416547Y-90695000D01*
X170464166Y-90742619D01*
X170511785Y-90837857D01*
X170511785Y-90980714D01*
X170464166Y-91075952D01*
X170416547Y-91123571D01*
X170321309Y-91171190D01*
X169940357Y-91171190D01*
X170797500Y-90647380D02*
X171368928Y-90647380D01*
X171083214Y-91647380D02*
X171083214Y-90647380D01*
X172226071Y-91647380D02*
X171654642Y-91647380D01*
X171940357Y-91647380D02*
X171940357Y-90647380D01*
X171845119Y-90790238D01*
X171749880Y-90885476D01*
X171654642Y-90933095D01*
X168035595Y-93257380D02*
X168035595Y-92590714D01*
X168035595Y-92257380D02*
X167987976Y-92305000D01*
X168035595Y-92352619D01*
X168083214Y-92305000D01*
X168035595Y-92257380D01*
X168035595Y-92352619D01*
X168511785Y-92590714D02*
X168511785Y-93257380D01*
X168511785Y-92685952D02*
X168559404Y-92638333D01*
X168654642Y-92590714D01*
X168797500Y-92590714D01*
X168892738Y-92638333D01*
X168940357Y-92733571D01*
X168940357Y-93257380D01*
X169321309Y-92590714D02*
X169559404Y-93257380D01*
X169797500Y-92590714D01*
X170226071Y-92257380D02*
X170130833Y-92447857D01*
X171035595Y-93209761D02*
X170940357Y-93257380D01*
X170749880Y-93257380D01*
X170654642Y-93209761D01*
X170607023Y-93114523D01*
X170607023Y-92733571D01*
X170654642Y-92638333D01*
X170749880Y-92590714D01*
X170940357Y-92590714D01*
X171035595Y-92638333D01*
X171083214Y-92733571D01*
X171083214Y-92828809D01*
X170607023Y-92924047D01*
X171940357Y-93257380D02*
X171940357Y-92257380D01*
X171940357Y-93209761D02*
X171845119Y-93257380D01*
X171654642Y-93257380D01*
X171559404Y-93209761D01*
X171511785Y-93162142D01*
X171464166Y-93066904D01*
X171464166Y-92781190D01*
X171511785Y-92685952D01*
X171559404Y-92638333D01*
X171654642Y-92590714D01*
X171845119Y-92590714D01*
X171940357Y-92638333D01*
X163309523Y-89052380D02*
X162833333Y-89052380D01*
X162785714Y-89528571D01*
X162833333Y-89480952D01*
X162928571Y-89433333D01*
X163166666Y-89433333D01*
X163261904Y-89480952D01*
X163309523Y-89528571D01*
X163357142Y-89623809D01*
X163357142Y-89861904D01*
X163309523Y-89957142D01*
X163261904Y-90004761D01*
X163166666Y-90052380D01*
X162928571Y-90052380D01*
X162833333Y-90004761D01*
X162785714Y-89957142D01*
X163642857Y-89052380D02*
X163976190Y-90052380D01*
X164309523Y-89052380D01*
X145407261Y-122452380D02*
X144931071Y-122452380D01*
X144883452Y-122928571D01*
X144931071Y-122880952D01*
X145026309Y-122833333D01*
X145264404Y-122833333D01*
X145359642Y-122880952D01*
X145407261Y-122928571D01*
X145454880Y-123023809D01*
X145454880Y-123261904D01*
X145407261Y-123357142D01*
X145359642Y-123404761D01*
X145264404Y-123452380D01*
X145026309Y-123452380D01*
X144931071Y-123404761D01*
X144883452Y-123357142D01*
X145740595Y-122452380D02*
X146073928Y-123452380D01*
X146407261Y-122452380D01*
X132500000Y-121076190D02*
X132500000Y-121552380D01*
X132166666Y-120552380D02*
X132500000Y-121076190D01*
X132833333Y-120552380D01*
X135468928Y-97028571D02*
X135611785Y-97076190D01*
X135659404Y-97123809D01*
X135707023Y-97219047D01*
X135707023Y-97361904D01*
X135659404Y-97457142D01*
X135611785Y-97504761D01*
X135516547Y-97552380D01*
X135135595Y-97552380D01*
X135135595Y-96552380D01*
X135468928Y-96552380D01*
X135564166Y-96600000D01*
X135611785Y-96647619D01*
X135659404Y-96742857D01*
X135659404Y-96838095D01*
X135611785Y-96933333D01*
X135564166Y-96980952D01*
X135468928Y-97028571D01*
X135135595Y-97028571D01*
X152966666Y-117652380D02*
X153585714Y-117652380D01*
X153252380Y-118033333D01*
X153395238Y-118033333D01*
X153490476Y-118080952D01*
X153538095Y-118128571D01*
X153585714Y-118223809D01*
X153585714Y-118461904D01*
X153538095Y-118557142D01*
X153490476Y-118604761D01*
X153395238Y-118652380D01*
X153109523Y-118652380D01*
X153014285Y-118604761D01*
X152966666Y-118557142D01*
X130404761Y-123452380D02*
X130404761Y-122452380D01*
X130880952Y-123452380D02*
X130880952Y-122452380D01*
X131214285Y-123166666D01*
X131547619Y-122452380D01*
X131547619Y-123452380D01*
X132023809Y-122452380D02*
X132023809Y-123261904D01*
X132071428Y-123357142D01*
X132119047Y-123404761D01*
X132214285Y-123452380D01*
X132404761Y-123452380D01*
X132500000Y-123404761D01*
X132547619Y-123357142D01*
X132595238Y-123261904D01*
X132595238Y-122452380D01*
X136361904Y-123452380D02*
X136361904Y-122452380D01*
X136695238Y-123166666D01*
X137028571Y-122452380D01*
X137028571Y-123452380D01*
X137933333Y-123452380D02*
X137933333Y-122928571D01*
X137885714Y-122833333D01*
X137790476Y-122785714D01*
X137600000Y-122785714D01*
X137504761Y-122833333D01*
X137933333Y-123404761D02*
X137838095Y-123452380D01*
X137600000Y-123452380D01*
X137504761Y-123404761D01*
X137457142Y-123309523D01*
X137457142Y-123214285D01*
X137504761Y-123119047D01*
X137600000Y-123071428D01*
X137838095Y-123071428D01*
X137933333Y-123023809D01*
X138838095Y-122785714D02*
X138838095Y-123595238D01*
X138790476Y-123690476D01*
X138742857Y-123738095D01*
X138647619Y-123785714D01*
X138504761Y-123785714D01*
X138409523Y-123738095D01*
X138838095Y-123404761D02*
X138742857Y-123452380D01*
X138552380Y-123452380D01*
X138457142Y-123404761D01*
X138409523Y-123357142D01*
X138361904Y-123261904D01*
X138361904Y-122976190D01*
X138409523Y-122880952D01*
X138457142Y-122833333D01*
X138552380Y-122785714D01*
X138742857Y-122785714D01*
X138838095Y-122833333D01*
X145164404Y-118557142D02*
X145116785Y-118604761D01*
X144973928Y-118652380D01*
X144878690Y-118652380D01*
X144735833Y-118604761D01*
X144640595Y-118509523D01*
X144592976Y-118414285D01*
X144545357Y-118223809D01*
X144545357Y-118080952D01*
X144592976Y-117890476D01*
X144640595Y-117795238D01*
X144735833Y-117700000D01*
X144878690Y-117652380D01*
X144973928Y-117652380D01*
X145116785Y-117700000D01*
X145164404Y-117747619D01*
X145592976Y-118652380D02*
X145592976Y-117652380D01*
X145592976Y-118128571D02*
X146164404Y-118128571D01*
X146164404Y-118652380D02*
X146164404Y-117652380D01*
X136685714Y-91347380D02*
X136685714Y-90347380D01*
X136685714Y-90823571D02*
X137257142Y-90823571D01*
X137257142Y-91347380D02*
X137257142Y-90347380D01*
X137685714Y-91299761D02*
X137828571Y-91347380D01*
X138066666Y-91347380D01*
X138161904Y-91299761D01*
X138209523Y-91252142D01*
X138257142Y-91156904D01*
X138257142Y-91061666D01*
X138209523Y-90966428D01*
X138161904Y-90918809D01*
X138066666Y-90871190D01*
X137876190Y-90823571D01*
X137780952Y-90775952D01*
X137733333Y-90728333D01*
X137685714Y-90633095D01*
X137685714Y-90537857D01*
X137733333Y-90442619D01*
X137780952Y-90395000D01*
X137876190Y-90347380D01*
X138114285Y-90347380D01*
X138257142Y-90395000D01*
X138685714Y-90823571D02*
X139019047Y-90823571D01*
X139161904Y-91347380D02*
X138685714Y-91347380D01*
X138685714Y-90347380D01*
X139161904Y-90347380D01*
X136304761Y-92385952D02*
X136209523Y-92338333D01*
X136161904Y-92290714D01*
X136114285Y-92195476D01*
X136114285Y-92147857D01*
X136161904Y-92052619D01*
X136209523Y-92005000D01*
X136304761Y-91957380D01*
X136495238Y-91957380D01*
X136590476Y-92005000D01*
X136638095Y-92052619D01*
X136685714Y-92147857D01*
X136685714Y-92195476D01*
X136638095Y-92290714D01*
X136590476Y-92338333D01*
X136495238Y-92385952D01*
X136304761Y-92385952D01*
X136209523Y-92433571D01*
X136161904Y-92481190D01*
X136114285Y-92576428D01*
X136114285Y-92766904D01*
X136161904Y-92862142D01*
X136209523Y-92909761D01*
X136304761Y-92957380D01*
X136495238Y-92957380D01*
X136590476Y-92909761D01*
X136638095Y-92862142D01*
X136685714Y-92766904D01*
X136685714Y-92576428D01*
X136638095Y-92481190D01*
X136590476Y-92433571D01*
X136495238Y-92385952D01*
X137114285Y-92957380D02*
X137114285Y-91957380D01*
X137447619Y-92671666D01*
X137780952Y-91957380D01*
X137780952Y-92957380D01*
X138257142Y-92957380D02*
X138257142Y-91957380D01*
X138257142Y-92433571D02*
X138828571Y-92433571D01*
X138828571Y-92957380D02*
X138828571Y-91957380D01*
X139209523Y-92290714D02*
X139733333Y-92290714D01*
X139209523Y-92957380D01*
X139733333Y-92957380D01*
X138173928Y-79852380D02*
X138173928Y-80661904D01*
X138221547Y-80757142D01*
X138269166Y-80804761D01*
X138364404Y-80852380D01*
X138554880Y-80852380D01*
X138650119Y-80804761D01*
X138697738Y-80757142D01*
X138745357Y-80661904D01*
X138745357Y-79852380D01*
X139173928Y-80566666D02*
X139650119Y-80566666D01*
X139078690Y-80852380D02*
X139412023Y-79852380D01*
X139745357Y-80852380D01*
X140650119Y-80852380D02*
X140316785Y-80376190D01*
X140078690Y-80852380D02*
X140078690Y-79852380D01*
X140459642Y-79852380D01*
X140554880Y-79900000D01*
X140602500Y-79947619D01*
X140650119Y-80042857D01*
X140650119Y-80185714D01*
X140602500Y-80280952D01*
X140554880Y-80328571D01*
X140459642Y-80376190D01*
X140078690Y-80376190D01*
X140935833Y-79852380D02*
X141507261Y-79852380D01*
X141221547Y-80852380D02*
X141221547Y-79852380D01*
X159797738Y-105752380D02*
X159797738Y-104752380D01*
X160178690Y-104752380D01*
X160273928Y-104800000D01*
X160321547Y-104847619D01*
X160369166Y-104942857D01*
X160369166Y-105085714D01*
X160321547Y-105180952D01*
X160273928Y-105228571D01*
X160178690Y-105276190D01*
X159797738Y-105276190D01*
X160702500Y-104752380D02*
X160940595Y-105752380D01*
X161131071Y-105038095D01*
X161321547Y-105752380D01*
X161559642Y-104752380D01*
X162512023Y-105752380D02*
X162178690Y-105276190D01*
X161940595Y-105752380D02*
X161940595Y-104752380D01*
X162321547Y-104752380D01*
X162416785Y-104800000D01*
X162464404Y-104847619D01*
X162512023Y-104942857D01*
X162512023Y-105085714D01*
X162464404Y-105180952D01*
X162416785Y-105228571D01*
X162321547Y-105276190D01*
X161940595Y-105276190D01*
X134452380Y-110052380D02*
X134119047Y-109576190D01*
X133880952Y-110052380D02*
X133880952Y-109052380D01*
X134261904Y-109052380D01*
X134357142Y-109100000D01*
X134404761Y-109147619D01*
X134452380Y-109242857D01*
X134452380Y-109385714D01*
X134404761Y-109480952D01*
X134357142Y-109528571D01*
X134261904Y-109576190D01*
X133880952Y-109576190D01*
X134833333Y-110004761D02*
X134976190Y-110052380D01*
X135214285Y-110052380D01*
X135309523Y-110004761D01*
X135357142Y-109957142D01*
X135404761Y-109861904D01*
X135404761Y-109766666D01*
X135357142Y-109671428D01*
X135309523Y-109623809D01*
X135214285Y-109576190D01*
X135023809Y-109528571D01*
X134928571Y-109480952D01*
X134880952Y-109433333D01*
X134833333Y-109338095D01*
X134833333Y-109242857D01*
X134880952Y-109147619D01*
X134928571Y-109100000D01*
X135023809Y-109052380D01*
X135261904Y-109052380D01*
X135404761Y-109100000D01*
X135690476Y-109052380D02*
X136261904Y-109052380D01*
X135976190Y-110052380D02*
X135976190Y-109052380D01*
X145809523Y-75194761D02*
X145714285Y-75242380D01*
X145523809Y-75242380D01*
X145428571Y-75194761D01*
X145380952Y-75147142D01*
X145333333Y-75051904D01*
X145333333Y-74766190D01*
X145380952Y-74670952D01*
X145428571Y-74623333D01*
X145523809Y-74575714D01*
X145714285Y-74575714D01*
X145809523Y-74623333D01*
X146666666Y-75242380D02*
X146666666Y-74718571D01*
X146619047Y-74623333D01*
X146523809Y-74575714D01*
X146333333Y-74575714D01*
X146238095Y-74623333D01*
X146666666Y-75194761D02*
X146571428Y-75242380D01*
X146333333Y-75242380D01*
X146238095Y-75194761D01*
X146190476Y-75099523D01*
X146190476Y-75004285D01*
X146238095Y-74909047D01*
X146333333Y-74861428D01*
X146571428Y-74861428D01*
X146666666Y-74813809D01*
X147095238Y-75194761D02*
X147190476Y-75242380D01*
X147380952Y-75242380D01*
X147476190Y-75194761D01*
X147523809Y-75099523D01*
X147523809Y-75051904D01*
X147476190Y-74956666D01*
X147380952Y-74909047D01*
X147238095Y-74909047D01*
X147142857Y-74861428D01*
X147095238Y-74766190D01*
X147095238Y-74718571D01*
X147142857Y-74623333D01*
X147238095Y-74575714D01*
X147380952Y-74575714D01*
X147476190Y-74623333D01*
X147809523Y-74575714D02*
X148190476Y-74575714D01*
X147952380Y-74242380D02*
X147952380Y-75099523D01*
X148000000Y-75194761D01*
X148095238Y-75242380D01*
X148190476Y-75242380D01*
X148904761Y-75194761D02*
X148809523Y-75242380D01*
X148619047Y-75242380D01*
X148523809Y-75194761D01*
X148476190Y-75099523D01*
X148476190Y-74718571D01*
X148523809Y-74623333D01*
X148619047Y-74575714D01*
X148809523Y-74575714D01*
X148904761Y-74623333D01*
X148952380Y-74718571D01*
X148952380Y-74813809D01*
X148476190Y-74909047D01*
X149380952Y-75242380D02*
X149380952Y-74575714D01*
X149380952Y-74766190D02*
X149428571Y-74670952D01*
X149476190Y-74623333D01*
X149571428Y-74575714D01*
X149666666Y-74575714D01*
X150000000Y-75242380D02*
X150000000Y-74575714D01*
X150000000Y-74242380D02*
X149952380Y-74290000D01*
X150000000Y-74337619D01*
X150047619Y-74290000D01*
X150000000Y-74242380D01*
X150000000Y-74337619D01*
X150904761Y-75242380D02*
X150904761Y-74718571D01*
X150857142Y-74623333D01*
X150761904Y-74575714D01*
X150571428Y-74575714D01*
X150476190Y-74623333D01*
X150904761Y-75194761D02*
X150809523Y-75242380D01*
X150571428Y-75242380D01*
X150476190Y-75194761D01*
X150428571Y-75099523D01*
X150428571Y-75004285D01*
X150476190Y-74909047D01*
X150571428Y-74861428D01*
X150809523Y-74861428D01*
X150904761Y-74813809D01*
X151380952Y-74575714D02*
X151380952Y-75242380D01*
X151380952Y-74670952D02*
X151428571Y-74623333D01*
X151523809Y-74575714D01*
X151666666Y-74575714D01*
X151761904Y-74623333D01*
X151809523Y-74718571D01*
X151809523Y-75242380D01*
X152285714Y-75147142D02*
X152333333Y-75194761D01*
X152285714Y-75242380D01*
X152238095Y-75194761D01*
X152285714Y-75147142D01*
X152285714Y-75242380D01*
X152761904Y-74575714D02*
X152761904Y-75242380D01*
X152761904Y-74670952D02*
X152809523Y-74623333D01*
X152904761Y-74575714D01*
X153047619Y-74575714D01*
X153142857Y-74623333D01*
X153190476Y-74718571D01*
X153190476Y-75242380D01*
X154047619Y-75194761D02*
X153952380Y-75242380D01*
X153761904Y-75242380D01*
X153666666Y-75194761D01*
X153619047Y-75099523D01*
X153619047Y-74718571D01*
X153666666Y-74623333D01*
X153761904Y-74575714D01*
X153952380Y-74575714D01*
X154047619Y-74623333D01*
X154095238Y-74718571D01*
X154095238Y-74813809D01*
X153619047Y-74909047D01*
X154380952Y-74575714D02*
X154761904Y-74575714D01*
X154523809Y-74242380D02*
X154523809Y-75099523D01*
X154571428Y-75194761D01*
X154666666Y-75242380D01*
X154761904Y-75242380D01*
X138476190Y-76804761D02*
X138619047Y-76852380D01*
X138857142Y-76852380D01*
X138952380Y-76804761D01*
X139000000Y-76757142D01*
X139047619Y-76661904D01*
X139047619Y-76566666D01*
X139000000Y-76471428D01*
X138952380Y-76423809D01*
X138857142Y-76376190D01*
X138666666Y-76328571D01*
X138571428Y-76280952D01*
X138523809Y-76233333D01*
X138476190Y-76138095D01*
X138476190Y-76042857D01*
X138523809Y-75947619D01*
X138571428Y-75900000D01*
X138666666Y-75852380D01*
X138904761Y-75852380D01*
X139047619Y-75900000D01*
X139333333Y-75852380D02*
X139904761Y-75852380D01*
X139619047Y-76852380D02*
X139619047Y-75852380D01*
X140238095Y-76852380D02*
X140238095Y-75852380D01*
X140571428Y-76566666D01*
X140904761Y-75852380D01*
X140904761Y-76852380D01*
X141285714Y-75852380D02*
X141904761Y-75852380D01*
X141571428Y-76233333D01*
X141714285Y-76233333D01*
X141809523Y-76280952D01*
X141857142Y-76328571D01*
X141904761Y-76423809D01*
X141904761Y-76661904D01*
X141857142Y-76757142D01*
X141809523Y-76804761D01*
X141714285Y-76852380D01*
X141428571Y-76852380D01*
X141333333Y-76804761D01*
X141285714Y-76757142D01*
X142285714Y-75947619D02*
X142333333Y-75900000D01*
X142428571Y-75852380D01*
X142666666Y-75852380D01*
X142761904Y-75900000D01*
X142809523Y-75947619D01*
X142857142Y-76042857D01*
X142857142Y-76138095D01*
X142809523Y-76280952D01*
X142238095Y-76852380D01*
X142857142Y-76852380D01*
X144380952Y-76328571D02*
X144047619Y-76328571D01*
X144047619Y-76852380D02*
X144047619Y-75852380D01*
X144523809Y-75852380D01*
X145047619Y-76852380D02*
X144952380Y-76804761D01*
X144904761Y-76709523D01*
X144904761Y-75852380D01*
X145428571Y-76852380D02*
X145428571Y-76185714D01*
X145428571Y-75852380D02*
X145380952Y-75900000D01*
X145428571Y-75947619D01*
X145476190Y-75900000D01*
X145428571Y-75852380D01*
X145428571Y-75947619D01*
X146333333Y-76185714D02*
X146333333Y-76995238D01*
X146285714Y-77090476D01*
X146238095Y-77138095D01*
X146142857Y-77185714D01*
X146000000Y-77185714D01*
X145904761Y-77138095D01*
X146333333Y-76804761D02*
X146238095Y-76852380D01*
X146047619Y-76852380D01*
X145952380Y-76804761D01*
X145904761Y-76757142D01*
X145857142Y-76661904D01*
X145857142Y-76376190D01*
X145904761Y-76280952D01*
X145952380Y-76233333D01*
X146047619Y-76185714D01*
X146238095Y-76185714D01*
X146333333Y-76233333D01*
X146809523Y-76852380D02*
X146809523Y-75852380D01*
X147238095Y-76852380D02*
X147238095Y-76328571D01*
X147190476Y-76233333D01*
X147095238Y-76185714D01*
X146952380Y-76185714D01*
X146857142Y-76233333D01*
X146809523Y-76280952D01*
X147571428Y-76185714D02*
X147952380Y-76185714D01*
X147714285Y-75852380D02*
X147714285Y-76709523D01*
X147761904Y-76804761D01*
X147857142Y-76852380D01*
X147952380Y-76852380D01*
X149619047Y-76757142D02*
X149571428Y-76804761D01*
X149428571Y-76852380D01*
X149333333Y-76852380D01*
X149190476Y-76804761D01*
X149095238Y-76709523D01*
X149047619Y-76614285D01*
X149000000Y-76423809D01*
X149000000Y-76280952D01*
X149047619Y-76090476D01*
X149095238Y-75995238D01*
X149190476Y-75900000D01*
X149333333Y-75852380D01*
X149428571Y-75852380D01*
X149571428Y-75900000D01*
X149619047Y-75947619D01*
X150190476Y-76852380D02*
X150095238Y-76804761D01*
X150047619Y-76757142D01*
X150000000Y-76661904D01*
X150000000Y-76376190D01*
X150047619Y-76280952D01*
X150095238Y-76233333D01*
X150190476Y-76185714D01*
X150333333Y-76185714D01*
X150428571Y-76233333D01*
X150476190Y-76280952D01*
X150523809Y-76376190D01*
X150523809Y-76661904D01*
X150476190Y-76757142D01*
X150428571Y-76804761D01*
X150333333Y-76852380D01*
X150190476Y-76852380D01*
X150952380Y-76185714D02*
X150952380Y-76852380D01*
X150952380Y-76280952D02*
X151000000Y-76233333D01*
X151095238Y-76185714D01*
X151238095Y-76185714D01*
X151333333Y-76233333D01*
X151380952Y-76328571D01*
X151380952Y-76852380D01*
X151714285Y-76185714D02*
X152095238Y-76185714D01*
X151857142Y-75852380D02*
X151857142Y-76709523D01*
X151904761Y-76804761D01*
X152000000Y-76852380D01*
X152095238Y-76852380D01*
X152428571Y-76852380D02*
X152428571Y-76185714D01*
X152428571Y-76376190D02*
X152476190Y-76280952D01*
X152523809Y-76233333D01*
X152619047Y-76185714D01*
X152714285Y-76185714D01*
X153190476Y-76852380D02*
X153095238Y-76804761D01*
X153047619Y-76757142D01*
X153000000Y-76661904D01*
X153000000Y-76376190D01*
X153047619Y-76280952D01*
X153095238Y-76233333D01*
X153190476Y-76185714D01*
X153333333Y-76185714D01*
X153428571Y-76233333D01*
X153476190Y-76280952D01*
X153523809Y-76376190D01*
X153523809Y-76661904D01*
X153476190Y-76757142D01*
X153428571Y-76804761D01*
X153333333Y-76852380D01*
X153190476Y-76852380D01*
X154095238Y-76852380D02*
X154000000Y-76804761D01*
X153952380Y-76709523D01*
X153952380Y-75852380D01*
X154619047Y-76852380D02*
X154523809Y-76804761D01*
X154476190Y-76709523D01*
X154476190Y-75852380D01*
X155380952Y-76804761D02*
X155285714Y-76852380D01*
X155095238Y-76852380D01*
X155000000Y-76804761D01*
X154952380Y-76709523D01*
X154952380Y-76328571D01*
X155000000Y-76233333D01*
X155095238Y-76185714D01*
X155285714Y-76185714D01*
X155380952Y-76233333D01*
X155428571Y-76328571D01*
X155428571Y-76423809D01*
X154952380Y-76519047D01*
X155857142Y-76852380D02*
X155857142Y-76185714D01*
X155857142Y-76376190D02*
X155904761Y-76280952D01*
X155952380Y-76233333D01*
X156047619Y-76185714D01*
X156142857Y-76185714D01*
X157809523Y-76852380D02*
X157476190Y-76376190D01*
X157238095Y-76852380D02*
X157238095Y-75852380D01*
X157619047Y-75852380D01*
X157714285Y-75900000D01*
X157761904Y-75947619D01*
X157809523Y-76042857D01*
X157809523Y-76185714D01*
X157761904Y-76280952D01*
X157714285Y-76328571D01*
X157619047Y-76376190D01*
X157238095Y-76376190D01*
X158619047Y-76804761D02*
X158523809Y-76852380D01*
X158333333Y-76852380D01*
X158238095Y-76804761D01*
X158190476Y-76709523D01*
X158190476Y-76328571D01*
X158238095Y-76233333D01*
X158333333Y-76185714D01*
X158523809Y-76185714D01*
X158619047Y-76233333D01*
X158666666Y-76328571D01*
X158666666Y-76423809D01*
X158190476Y-76519047D01*
X159000000Y-76185714D02*
X159238095Y-76852380D01*
X159476190Y-76185714D01*
X159857142Y-76757142D02*
X159904761Y-76804761D01*
X159857142Y-76852380D01*
X159809523Y-76804761D01*
X159857142Y-76757142D01*
X159857142Y-76852380D01*
X161047619Y-76566666D02*
X161523809Y-76566666D01*
X160952380Y-76852380D02*
X161285714Y-75852380D01*
X161619047Y-76852380D01*
X145904761Y-77557619D02*
X145952380Y-77510000D01*
X146047619Y-77462380D01*
X146285714Y-77462380D01*
X146380952Y-77510000D01*
X146428571Y-77557619D01*
X146476190Y-77652857D01*
X146476190Y-77748095D01*
X146428571Y-77890952D01*
X145857142Y-78462380D01*
X146476190Y-78462380D01*
X147095238Y-77462380D02*
X147190476Y-77462380D01*
X147285714Y-77510000D01*
X147333333Y-77557619D01*
X147380952Y-77652857D01*
X147428571Y-77843333D01*
X147428571Y-78081428D01*
X147380952Y-78271904D01*
X147333333Y-78367142D01*
X147285714Y-78414761D01*
X147190476Y-78462380D01*
X147095238Y-78462380D01*
X147000000Y-78414761D01*
X146952380Y-78367142D01*
X146904761Y-78271904D01*
X146857142Y-78081428D01*
X146857142Y-77843333D01*
X146904761Y-77652857D01*
X146952380Y-77557619D01*
X147000000Y-77510000D01*
X147095238Y-77462380D01*
X147809523Y-77557619D02*
X147857142Y-77510000D01*
X147952380Y-77462380D01*
X148190476Y-77462380D01*
X148285714Y-77510000D01*
X148333333Y-77557619D01*
X148380952Y-77652857D01*
X148380952Y-77748095D01*
X148333333Y-77890952D01*
X147761904Y-78462380D01*
X148380952Y-78462380D01*
X148761904Y-77557619D02*
X148809523Y-77510000D01*
X148904761Y-77462380D01*
X149142857Y-77462380D01*
X149238095Y-77510000D01*
X149285714Y-77557619D01*
X149333333Y-77652857D01*
X149333333Y-77748095D01*
X149285714Y-77890952D01*
X148714285Y-78462380D01*
X149333333Y-78462380D01*
X149761904Y-78367142D02*
X149809523Y-78414761D01*
X149761904Y-78462380D01*
X149714285Y-78414761D01*
X149761904Y-78367142D01*
X149761904Y-78462380D01*
X150761904Y-78462380D02*
X150190476Y-78462380D01*
X150476190Y-78462380D02*
X150476190Y-77462380D01*
X150380952Y-77605238D01*
X150285714Y-77700476D01*
X150190476Y-77748095D01*
X151714285Y-78462380D02*
X151142857Y-78462380D01*
X151428571Y-78462380D02*
X151428571Y-77462380D01*
X151333333Y-77605238D01*
X151238095Y-77700476D01*
X151142857Y-77748095D01*
X152142857Y-78367142D02*
X152190476Y-78414761D01*
X152142857Y-78462380D01*
X152095238Y-78414761D01*
X152142857Y-78367142D01*
X152142857Y-78462380D01*
X152809523Y-77462380D02*
X152904761Y-77462380D01*
X153000000Y-77510000D01*
X153047619Y-77557619D01*
X153095238Y-77652857D01*
X153142857Y-77843333D01*
X153142857Y-78081428D01*
X153095238Y-78271904D01*
X153047619Y-78367142D01*
X153000000Y-78414761D01*
X152904761Y-78462380D01*
X152809523Y-78462380D01*
X152714285Y-78414761D01*
X152666666Y-78367142D01*
X152619047Y-78271904D01*
X152571428Y-78081428D01*
X152571428Y-77843333D01*
X152619047Y-77652857D01*
X152666666Y-77557619D01*
X152714285Y-77510000D01*
X152809523Y-77462380D01*
X154095238Y-78462380D02*
X153523809Y-78462380D01*
X153809523Y-78462380D02*
X153809523Y-77462380D01*
X153714285Y-77605238D01*
X153619047Y-77700476D01*
X153523809Y-77748095D01*
X143454880Y-120952380D02*
X143454880Y-119952380D01*
X143835833Y-119952380D01*
X143931071Y-120000000D01*
X143978690Y-120047619D01*
X144026309Y-120142857D01*
X144026309Y-120285714D01*
X143978690Y-120380952D01*
X143931071Y-120428571D01*
X143835833Y-120476190D01*
X143454880Y-120476190D01*
X144359642Y-119952380D02*
X144597738Y-120952380D01*
X144788214Y-120238095D01*
X144978690Y-120952380D01*
X145216785Y-119952380D01*
X145597738Y-120952380D02*
X145597738Y-119952380D01*
X145931071Y-120666666D01*
X146264404Y-119952380D01*
X146264404Y-120952380D01*
X146238095Y-79852380D02*
X145761904Y-79852380D01*
X145714285Y-80328571D01*
X145761904Y-80280952D01*
X145857142Y-80233333D01*
X146095238Y-80233333D01*
X146190476Y-80280952D01*
X146238095Y-80328571D01*
X146285714Y-80423809D01*
X146285714Y-80661904D01*
X146238095Y-80757142D01*
X146190476Y-80804761D01*
X146095238Y-80852380D01*
X145857142Y-80852380D01*
X145761904Y-80804761D01*
X145714285Y-80757142D01*
X128666666Y-124252380D02*
X129333333Y-125252380D01*
X129333333Y-124252380D02*
X128666666Y-125252380D01*
X141952380Y-124571428D02*
X141952380Y-124000000D01*
X142952380Y-124285714D02*
X141952380Y-124285714D01*
X142952380Y-123666666D02*
X141952380Y-123666666D01*
X142952380Y-123190476D02*
X141952380Y-123190476D01*
X142666666Y-122857142D01*
X141952380Y-122523809D01*
X142952380Y-122523809D01*
X141952380Y-121571428D02*
X141952380Y-122047619D01*
X142428571Y-122095238D01*
X142380952Y-122047619D01*
X142333333Y-121952380D01*
X142333333Y-121714285D01*
X142380952Y-121619047D01*
X142428571Y-121571428D01*
X142523809Y-121523809D01*
X142761904Y-121523809D01*
X142857142Y-121571428D01*
X142904761Y-121619047D01*
X142952380Y-121714285D01*
X142952380Y-121952380D01*
X142904761Y-122047619D01*
X142857142Y-122095238D01*
X135659404Y-98300000D02*
X135564166Y-98252380D01*
X135421309Y-98252380D01*
X135278452Y-98300000D01*
X135183214Y-98395238D01*
X135135595Y-98490476D01*
X135087976Y-98680952D01*
X135087976Y-98823809D01*
X135135595Y-99014285D01*
X135183214Y-99109523D01*
X135278452Y-99204761D01*
X135421309Y-99252380D01*
X135516547Y-99252380D01*
X135659404Y-99204761D01*
X135707023Y-99157142D01*
X135707023Y-98823809D01*
X135516547Y-98823809D01*
X143690476Y-80185714D02*
X143690476Y-80852380D01*
X143452380Y-79804761D02*
X143214285Y-80519047D01*
X143833333Y-80519047D01*
X162407023Y-122552142D02*
X162359404Y-122599761D01*
X162216547Y-122647380D01*
X162121309Y-122647380D01*
X161978452Y-122599761D01*
X161883214Y-122504523D01*
X161835595Y-122409285D01*
X161787976Y-122218809D01*
X161787976Y-122075952D01*
X161835595Y-121885476D01*
X161883214Y-121790238D01*
X161978452Y-121695000D01*
X162121309Y-121647380D01*
X162216547Y-121647380D01*
X162359404Y-121695000D01*
X162407023Y-121742619D01*
X162978452Y-122647380D02*
X162883214Y-122599761D01*
X162835595Y-122552142D01*
X162787976Y-122456904D01*
X162787976Y-122171190D01*
X162835595Y-122075952D01*
X162883214Y-122028333D01*
X162978452Y-121980714D01*
X163121309Y-121980714D01*
X163216547Y-122028333D01*
X163264166Y-122075952D01*
X163311785Y-122171190D01*
X163311785Y-122456904D01*
X163264166Y-122552142D01*
X163216547Y-122599761D01*
X163121309Y-122647380D01*
X162978452Y-122647380D01*
X163740357Y-121980714D02*
X163740357Y-122647380D01*
X163740357Y-122075952D02*
X163787976Y-122028333D01*
X163883214Y-121980714D01*
X164026071Y-121980714D01*
X164121309Y-122028333D01*
X164168928Y-122123571D01*
X164168928Y-122647380D01*
X164645119Y-121980714D02*
X164645119Y-122647380D01*
X164645119Y-122075952D02*
X164692738Y-122028333D01*
X164787976Y-121980714D01*
X164930833Y-121980714D01*
X165026071Y-122028333D01*
X165073690Y-122123571D01*
X165073690Y-122647380D01*
X165930833Y-122599761D02*
X165835595Y-122647380D01*
X165645119Y-122647380D01*
X165549880Y-122599761D01*
X165502261Y-122504523D01*
X165502261Y-122123571D01*
X165549880Y-122028333D01*
X165645119Y-121980714D01*
X165835595Y-121980714D01*
X165930833Y-122028333D01*
X165978452Y-122123571D01*
X165978452Y-122218809D01*
X165502261Y-122314047D01*
X166835595Y-122599761D02*
X166740357Y-122647380D01*
X166549880Y-122647380D01*
X166454642Y-122599761D01*
X166407023Y-122552142D01*
X166359404Y-122456904D01*
X166359404Y-122171190D01*
X166407023Y-122075952D01*
X166454642Y-122028333D01*
X166549880Y-121980714D01*
X166740357Y-121980714D01*
X166835595Y-122028333D01*
X167121309Y-121980714D02*
X167502261Y-121980714D01*
X167264166Y-121647380D02*
X167264166Y-122504523D01*
X167311785Y-122599761D01*
X167407023Y-122647380D01*
X167502261Y-122647380D01*
X168454642Y-121980714D02*
X168835595Y-121980714D01*
X168597500Y-122647380D02*
X168597500Y-121790238D01*
X168645119Y-121695000D01*
X168740357Y-121647380D01*
X168835595Y-121647380D01*
X169311785Y-122647380D02*
X169216547Y-122599761D01*
X169168928Y-122552142D01*
X169121309Y-122456904D01*
X169121309Y-122171190D01*
X169168928Y-122075952D01*
X169216547Y-122028333D01*
X169311785Y-121980714D01*
X169454642Y-121980714D01*
X169549880Y-122028333D01*
X169597500Y-122075952D01*
X169645119Y-122171190D01*
X169645119Y-122456904D01*
X169597500Y-122552142D01*
X169549880Y-122599761D01*
X169454642Y-122647380D01*
X169311785Y-122647380D01*
X170073690Y-122647380D02*
X170073690Y-121980714D01*
X170073690Y-122171190D02*
X170121309Y-122075952D01*
X170168928Y-122028333D01*
X170264166Y-121980714D01*
X170359404Y-121980714D01*
X162311785Y-123257380D02*
X161835595Y-123257380D01*
X161787976Y-123733571D01*
X161835595Y-123685952D01*
X161930833Y-123638333D01*
X162168928Y-123638333D01*
X162264166Y-123685952D01*
X162311785Y-123733571D01*
X162359404Y-123828809D01*
X162359404Y-124066904D01*
X162311785Y-124162142D01*
X162264166Y-124209761D01*
X162168928Y-124257380D01*
X161930833Y-124257380D01*
X161835595Y-124209761D01*
X161787976Y-124162142D01*
X162645119Y-123257380D02*
X162978452Y-124257380D01*
X163311785Y-123257380D01*
X164549880Y-124257380D02*
X164454642Y-124209761D01*
X164407023Y-124162142D01*
X164359404Y-124066904D01*
X164359404Y-123781190D01*
X164407023Y-123685952D01*
X164454642Y-123638333D01*
X164549880Y-123590714D01*
X164692738Y-123590714D01*
X164787976Y-123638333D01*
X164835595Y-123685952D01*
X164883214Y-123781190D01*
X164883214Y-124066904D01*
X164835595Y-124162142D01*
X164787976Y-124209761D01*
X164692738Y-124257380D01*
X164549880Y-124257380D01*
X165311785Y-123590714D02*
X165311785Y-124257380D01*
X165311785Y-123685952D02*
X165359404Y-123638333D01*
X165454642Y-123590714D01*
X165597500Y-123590714D01*
X165692738Y-123638333D01*
X165740357Y-123733571D01*
X165740357Y-124257380D01*
X167264166Y-123257380D02*
X167264166Y-123971666D01*
X167216547Y-124114523D01*
X167121309Y-124209761D01*
X166978452Y-124257380D01*
X166883214Y-124257380D01*
X168168928Y-123590714D02*
X168168928Y-124257380D01*
X167930833Y-123209761D02*
X167692738Y-123924047D01*
X168311785Y-123924047D01*
X160095238Y-88770000D02*
X161095238Y-88770000D01*
X160904761Y-90052380D02*
X160571428Y-89576190D01*
X160333333Y-90052380D02*
X160333333Y-89052380D01*
X160714285Y-89052380D01*
X160809523Y-89100000D01*
X160857142Y-89147619D01*
X160904761Y-89242857D01*
X160904761Y-89385714D01*
X160857142Y-89480952D01*
X160809523Y-89528571D01*
X160714285Y-89576190D01*
X160333333Y-89576190D01*
X161095238Y-88770000D02*
X161904761Y-88770000D01*
X161238095Y-90052380D02*
X161761904Y-89385714D01*
X161238095Y-89385714D02*
X161761904Y-90052380D01*
X135000000Y-124876190D02*
X135000000Y-125352380D01*
X134666666Y-124352380D02*
X135000000Y-124876190D01*
X135333333Y-124352380D01*
X148485714Y-118652380D02*
X147914285Y-118652380D01*
X148200000Y-118652380D02*
X148200000Y-117652380D01*
X148104761Y-117795238D01*
X148009523Y-117890476D01*
X147914285Y-117938095D01*
X135707023Y-100952380D02*
X135373690Y-100476190D01*
X135135595Y-100952380D02*
X135135595Y-99952380D01*
X135516547Y-99952380D01*
X135611785Y-100000000D01*
X135659404Y-100047619D01*
X135707023Y-100142857D01*
X135707023Y-100285714D01*
X135659404Y-100380952D01*
X135611785Y-100428571D01*
X135516547Y-100476190D01*
X135135595Y-100476190D01*
X144216785Y-125100000D02*
X144121547Y-125052380D01*
X143978690Y-125052380D01*
X143835833Y-125100000D01*
X143740595Y-125195238D01*
X143692976Y-125290476D01*
X143645357Y-125480952D01*
X143645357Y-125623809D01*
X143692976Y-125814285D01*
X143740595Y-125909523D01*
X143835833Y-126004761D01*
X143978690Y-126052380D01*
X144073928Y-126052380D01*
X144216785Y-126004761D01*
X144264404Y-125957142D01*
X144264404Y-125623809D01*
X144073928Y-125623809D01*
X144692976Y-126052380D02*
X144692976Y-125052380D01*
X145264404Y-126052380D01*
X145264404Y-125052380D01*
X145740595Y-126052380D02*
X145740595Y-125052380D01*
X145978690Y-125052380D01*
X146121547Y-125100000D01*
X146216785Y-125195238D01*
X146264404Y-125290476D01*
X146312023Y-125480952D01*
X146312023Y-125623809D01*
X146264404Y-125814285D01*
X146216785Y-125909523D01*
X146121547Y-126004761D01*
X145978690Y-126052380D01*
X145740595Y-126052380D01*
X175452380Y-81090476D02*
X175452380Y-81566666D01*
X175928571Y-81614285D01*
X175880952Y-81566666D01*
X175833333Y-81471428D01*
X175833333Y-81233333D01*
X175880952Y-81138095D01*
X175928571Y-81090476D01*
X176023809Y-81042857D01*
X176261904Y-81042857D01*
X176357142Y-81090476D01*
X176404761Y-81138095D01*
X176452380Y-81233333D01*
X176452380Y-81471428D01*
X176404761Y-81566666D01*
X176357142Y-81614285D01*
X175452380Y-80757142D02*
X176452380Y-80423809D01*
X175452380Y-80090476D01*
X155990476Y-117985714D02*
X155990476Y-118652380D01*
X155752380Y-117604761D02*
X155514285Y-118319047D01*
X156133333Y-118319047D01*
X175500000Y-88261904D02*
X175452380Y-88357142D01*
X175452380Y-88500000D01*
X175500000Y-88642857D01*
X175595238Y-88738095D01*
X175690476Y-88785714D01*
X175880952Y-88833333D01*
X176023809Y-88833333D01*
X176214285Y-88785714D01*
X176309523Y-88738095D01*
X176404761Y-88642857D01*
X176452380Y-88500000D01*
X176452380Y-88404761D01*
X176404761Y-88261904D01*
X176357142Y-88214285D01*
X176023809Y-88214285D01*
X176023809Y-88404761D01*
X176452380Y-87785714D02*
X175452380Y-87785714D01*
X176452380Y-87214285D01*
X175452380Y-87214285D01*
X176452380Y-86738095D02*
X175452380Y-86738095D01*
X175452380Y-86500000D01*
X175500000Y-86357142D01*
X175595238Y-86261904D01*
X175690476Y-86214285D01*
X175880952Y-86166666D01*
X176023809Y-86166666D01*
X176214285Y-86214285D01*
X176309523Y-86261904D01*
X176404761Y-86357142D01*
X176452380Y-86500000D01*
X176452380Y-86738095D01*
X140702500Y-83252380D02*
X140369166Y-82776190D01*
X140131071Y-83252380D02*
X140131071Y-82252380D01*
X140512023Y-82252380D01*
X140607261Y-82300000D01*
X140654880Y-82347619D01*
X140702500Y-82442857D01*
X140702500Y-82585714D01*
X140654880Y-82680952D01*
X140607261Y-82728571D01*
X140512023Y-82776190D01*
X140131071Y-82776190D01*
X141035833Y-83252380D02*
X141559642Y-82585714D01*
X141035833Y-82585714D02*
X141559642Y-83252380D01*
X165238095Y-89100000D02*
X165142857Y-89052380D01*
X165000000Y-89052380D01*
X164857142Y-89100000D01*
X164761904Y-89195238D01*
X164714285Y-89290476D01*
X164666666Y-89480952D01*
X164666666Y-89623809D01*
X164714285Y-89814285D01*
X164761904Y-89909523D01*
X164857142Y-90004761D01*
X165000000Y-90052380D01*
X165095238Y-90052380D01*
X165238095Y-90004761D01*
X165285714Y-89957142D01*
X165285714Y-89623809D01*
X165095238Y-89623809D01*
X165714285Y-90052380D02*
X165714285Y-89052380D01*
X166285714Y-90052380D01*
X166285714Y-89052380D01*
X166761904Y-90052380D02*
X166761904Y-89052380D01*
X167000000Y-89052380D01*
X167142857Y-89100000D01*
X167238095Y-89195238D01*
X167285714Y-89290476D01*
X167333333Y-89480952D01*
X167333333Y-89623809D01*
X167285714Y-89814285D01*
X167238095Y-89909523D01*
X167142857Y-90004761D01*
X167000000Y-90052380D01*
X166761904Y-90052380D01*
X148790476Y-79852380D02*
X148600000Y-79852380D01*
X148504761Y-79900000D01*
X148457142Y-79947619D01*
X148361904Y-80090476D01*
X148314285Y-80280952D01*
X148314285Y-80661904D01*
X148361904Y-80757142D01*
X148409523Y-80804761D01*
X148504761Y-80852380D01*
X148695238Y-80852380D01*
X148790476Y-80804761D01*
X148838095Y-80757142D01*
X148885714Y-80661904D01*
X148885714Y-80423809D01*
X148838095Y-80328571D01*
X148790476Y-80280952D01*
X148695238Y-80233333D01*
X148504761Y-80233333D01*
X148409523Y-80280952D01*
X148361904Y-80328571D01*
X148314285Y-80423809D01*
X140226309Y-84752380D02*
X140797738Y-84752380D01*
X140512023Y-85752380D02*
X140512023Y-84752380D01*
X141035833Y-85752380D02*
X141559642Y-85085714D01*
X141035833Y-85085714D02*
X141559642Y-85752380D01*
X138266666Y-120452380D02*
X138933333Y-121452380D01*
X138933333Y-120452380D02*
X138266666Y-121452380D01*
%TO.C,C16*%
X176207142Y-110092738D02*
X176254761Y-110140357D01*
X176302380Y-110283214D01*
X176302380Y-110378452D01*
X176254761Y-110521309D01*
X176159523Y-110616547D01*
X176064285Y-110664166D01*
X175873809Y-110711785D01*
X175730952Y-110711785D01*
X175540476Y-110664166D01*
X175445238Y-110616547D01*
X175350000Y-110521309D01*
X175302380Y-110378452D01*
X175302380Y-110283214D01*
X175350000Y-110140357D01*
X175397619Y-110092738D01*
X176302380Y-109140357D02*
X176302380Y-109711785D01*
X176302380Y-109426071D02*
X175302380Y-109426071D01*
X175445238Y-109521309D01*
X175540476Y-109616547D01*
X175588095Y-109711785D01*
X175302380Y-108283214D02*
X175302380Y-108473690D01*
X175350000Y-108568928D01*
X175397619Y-108616547D01*
X175540476Y-108711785D01*
X175730952Y-108759404D01*
X176111904Y-108759404D01*
X176207142Y-108711785D01*
X176254761Y-108664166D01*
X176302380Y-108568928D01*
X176302380Y-108378452D01*
X176254761Y-108283214D01*
X176207142Y-108235595D01*
X176111904Y-108187976D01*
X175873809Y-108187976D01*
X175778571Y-108235595D01*
X175730952Y-108283214D01*
X175683333Y-108378452D01*
X175683333Y-108568928D01*
X175730952Y-108664166D01*
X175778571Y-108711785D01*
X175873809Y-108759404D01*
%TO.C,C15*%
X174707142Y-110092738D02*
X174754761Y-110140357D01*
X174802380Y-110283214D01*
X174802380Y-110378452D01*
X174754761Y-110521309D01*
X174659523Y-110616547D01*
X174564285Y-110664166D01*
X174373809Y-110711785D01*
X174230952Y-110711785D01*
X174040476Y-110664166D01*
X173945238Y-110616547D01*
X173850000Y-110521309D01*
X173802380Y-110378452D01*
X173802380Y-110283214D01*
X173850000Y-110140357D01*
X173897619Y-110092738D01*
X174802380Y-109140357D02*
X174802380Y-109711785D01*
X174802380Y-109426071D02*
X173802380Y-109426071D01*
X173945238Y-109521309D01*
X174040476Y-109616547D01*
X174088095Y-109711785D01*
X173802380Y-108235595D02*
X173802380Y-108711785D01*
X174278571Y-108759404D01*
X174230952Y-108711785D01*
X174183333Y-108616547D01*
X174183333Y-108378452D01*
X174230952Y-108283214D01*
X174278571Y-108235595D01*
X174373809Y-108187976D01*
X174611904Y-108187976D01*
X174707142Y-108235595D01*
X174754761Y-108283214D01*
X174802380Y-108378452D01*
X174802380Y-108616547D01*
X174754761Y-108711785D01*
X174707142Y-108759404D01*
%TO.C,C14*%
X163957142Y-102607142D02*
X163909523Y-102654761D01*
X163766666Y-102702380D01*
X163671428Y-102702380D01*
X163528571Y-102654761D01*
X163433333Y-102559523D01*
X163385714Y-102464285D01*
X163338095Y-102273809D01*
X163338095Y-102130952D01*
X163385714Y-101940476D01*
X163433333Y-101845238D01*
X163528571Y-101750000D01*
X163671428Y-101702380D01*
X163766666Y-101702380D01*
X163909523Y-101750000D01*
X163957142Y-101797619D01*
X164909523Y-102702380D02*
X164338095Y-102702380D01*
X164623809Y-102702380D02*
X164623809Y-101702380D01*
X164528571Y-101845238D01*
X164433333Y-101940476D01*
X164338095Y-101988095D01*
X165766666Y-102035714D02*
X165766666Y-102702380D01*
X165528571Y-101654761D02*
X165290476Y-102369047D01*
X165909523Y-102369047D01*
%TO.C,R11*%
X129357142Y-95852380D02*
X129023809Y-95376190D01*
X128785714Y-95852380D02*
X128785714Y-94852380D01*
X129166666Y-94852380D01*
X129261904Y-94900000D01*
X129309523Y-94947619D01*
X129357142Y-95042857D01*
X129357142Y-95185714D01*
X129309523Y-95280952D01*
X129261904Y-95328571D01*
X129166666Y-95376190D01*
X128785714Y-95376190D01*
X130309523Y-95852380D02*
X129738095Y-95852380D01*
X130023809Y-95852380D02*
X130023809Y-94852380D01*
X129928571Y-94995238D01*
X129833333Y-95090476D01*
X129738095Y-95138095D01*
X131261904Y-95852380D02*
X130690476Y-95852380D01*
X130976190Y-95852380D02*
X130976190Y-94852380D01*
X130880952Y-94995238D01*
X130785714Y-95090476D01*
X130690476Y-95138095D01*
%TO.C,C5*%
X142457142Y-98316666D02*
X142504761Y-98364285D01*
X142552380Y-98507142D01*
X142552380Y-98602380D01*
X142504761Y-98745238D01*
X142409523Y-98840476D01*
X142314285Y-98888095D01*
X142123809Y-98935714D01*
X141980952Y-98935714D01*
X141790476Y-98888095D01*
X141695238Y-98840476D01*
X141600000Y-98745238D01*
X141552380Y-98602380D01*
X141552380Y-98507142D01*
X141600000Y-98364285D01*
X141647619Y-98316666D01*
X141552380Y-97411904D02*
X141552380Y-97888095D01*
X142028571Y-97935714D01*
X141980952Y-97888095D01*
X141933333Y-97792857D01*
X141933333Y-97554761D01*
X141980952Y-97459523D01*
X142028571Y-97411904D01*
X142123809Y-97364285D01*
X142361904Y-97364285D01*
X142457142Y-97411904D01*
X142504761Y-97459523D01*
X142552380Y-97554761D01*
X142552380Y-97792857D01*
X142504761Y-97888095D01*
X142457142Y-97935714D01*
%TO.C,C12*%
X140257142Y-105792738D02*
X140304761Y-105840357D01*
X140352380Y-105983214D01*
X140352380Y-106078452D01*
X140304761Y-106221309D01*
X140209523Y-106316547D01*
X140114285Y-106364166D01*
X139923809Y-106411785D01*
X139780952Y-106411785D01*
X139590476Y-106364166D01*
X139495238Y-106316547D01*
X139400000Y-106221309D01*
X139352380Y-106078452D01*
X139352380Y-105983214D01*
X139400000Y-105840357D01*
X139447619Y-105792738D01*
X140352380Y-104840357D02*
X140352380Y-105411785D01*
X140352380Y-105126071D02*
X139352380Y-105126071D01*
X139495238Y-105221309D01*
X139590476Y-105316547D01*
X139638095Y-105411785D01*
X139447619Y-104459404D02*
X139400000Y-104411785D01*
X139352380Y-104316547D01*
X139352380Y-104078452D01*
X139400000Y-103983214D01*
X139447619Y-103935595D01*
X139542857Y-103887976D01*
X139638095Y-103887976D01*
X139780952Y-103935595D01*
X140352380Y-104507023D01*
X140352380Y-103887976D01*
%TO.C,C20*%
X153257142Y-116292738D02*
X153304761Y-116340357D01*
X153352380Y-116483214D01*
X153352380Y-116578452D01*
X153304761Y-116721309D01*
X153209523Y-116816547D01*
X153114285Y-116864166D01*
X152923809Y-116911785D01*
X152780952Y-116911785D01*
X152590476Y-116864166D01*
X152495238Y-116816547D01*
X152400000Y-116721309D01*
X152352380Y-116578452D01*
X152352380Y-116483214D01*
X152400000Y-116340357D01*
X152447619Y-116292738D01*
X152447619Y-115911785D02*
X152400000Y-115864166D01*
X152352380Y-115768928D01*
X152352380Y-115530833D01*
X152400000Y-115435595D01*
X152447619Y-115387976D01*
X152542857Y-115340357D01*
X152638095Y-115340357D01*
X152780952Y-115387976D01*
X153352380Y-115959404D01*
X153352380Y-115340357D01*
X152352380Y-114721309D02*
X152352380Y-114626071D01*
X152400000Y-114530833D01*
X152447619Y-114483214D01*
X152542857Y-114435595D01*
X152733333Y-114387976D01*
X152971428Y-114387976D01*
X153161904Y-114435595D01*
X153257142Y-114483214D01*
X153304761Y-114530833D01*
X153352380Y-114626071D01*
X153352380Y-114721309D01*
X153304761Y-114816547D01*
X153257142Y-114864166D01*
X153161904Y-114911785D01*
X152971428Y-114959404D01*
X152733333Y-114959404D01*
X152542857Y-114911785D01*
X152447619Y-114864166D01*
X152400000Y-114816547D01*
X152352380Y-114721309D01*
%TO.C,C9*%
X157107023Y-108107142D02*
X157059404Y-108154761D01*
X156916547Y-108202380D01*
X156821309Y-108202380D01*
X156678452Y-108154761D01*
X156583214Y-108059523D01*
X156535595Y-107964285D01*
X156487976Y-107773809D01*
X156487976Y-107630952D01*
X156535595Y-107440476D01*
X156583214Y-107345238D01*
X156678452Y-107250000D01*
X156821309Y-107202380D01*
X156916547Y-107202380D01*
X157059404Y-107250000D01*
X157107023Y-107297619D01*
X157583214Y-108202380D02*
X157773690Y-108202380D01*
X157868928Y-108154761D01*
X157916547Y-108107142D01*
X158011785Y-107964285D01*
X158059404Y-107773809D01*
X158059404Y-107392857D01*
X158011785Y-107297619D01*
X157964166Y-107250000D01*
X157868928Y-107202380D01*
X157678452Y-107202380D01*
X157583214Y-107250000D01*
X157535595Y-107297619D01*
X157487976Y-107392857D01*
X157487976Y-107630952D01*
X157535595Y-107726190D01*
X157583214Y-107773809D01*
X157678452Y-107821428D01*
X157868928Y-107821428D01*
X157964166Y-107773809D01*
X158011785Y-107726190D01*
X158059404Y-107630952D01*
%TO.C,C3*%
X142833333Y-91557142D02*
X142785714Y-91604761D01*
X142642857Y-91652380D01*
X142547619Y-91652380D01*
X142404761Y-91604761D01*
X142309523Y-91509523D01*
X142261904Y-91414285D01*
X142214285Y-91223809D01*
X142214285Y-91080952D01*
X142261904Y-90890476D01*
X142309523Y-90795238D01*
X142404761Y-90700000D01*
X142547619Y-90652380D01*
X142642857Y-90652380D01*
X142785714Y-90700000D01*
X142833333Y-90747619D01*
X143166666Y-90652380D02*
X143785714Y-90652380D01*
X143452380Y-91033333D01*
X143595238Y-91033333D01*
X143690476Y-91080952D01*
X143738095Y-91128571D01*
X143785714Y-91223809D01*
X143785714Y-91461904D01*
X143738095Y-91557142D01*
X143690476Y-91604761D01*
X143595238Y-91652380D01*
X143309523Y-91652380D01*
X143214285Y-91604761D01*
X143166666Y-91557142D01*
%TO.C,R3*%
X155507023Y-81452380D02*
X155173690Y-80976190D01*
X154935595Y-81452380D02*
X154935595Y-80452380D01*
X155316547Y-80452380D01*
X155411785Y-80500000D01*
X155459404Y-80547619D01*
X155507023Y-80642857D01*
X155507023Y-80785714D01*
X155459404Y-80880952D01*
X155411785Y-80928571D01*
X155316547Y-80976190D01*
X154935595Y-80976190D01*
X155840357Y-80452380D02*
X156459404Y-80452380D01*
X156126071Y-80833333D01*
X156268928Y-80833333D01*
X156364166Y-80880952D01*
X156411785Y-80928571D01*
X156459404Y-81023809D01*
X156459404Y-81261904D01*
X156411785Y-81357142D01*
X156364166Y-81404761D01*
X156268928Y-81452380D01*
X155983214Y-81452380D01*
X155887976Y-81404761D01*
X155840357Y-81357142D01*
%TO.C,J3*%
X150766666Y-85452380D02*
X150766666Y-86166666D01*
X150719047Y-86309523D01*
X150623809Y-86404761D01*
X150480952Y-86452380D01*
X150385714Y-86452380D01*
X151147619Y-85452380D02*
X151766666Y-85452380D01*
X151433333Y-85833333D01*
X151576190Y-85833333D01*
X151671428Y-85880952D01*
X151719047Y-85928571D01*
X151766666Y-86023809D01*
X151766666Y-86261904D01*
X151719047Y-86357142D01*
X151671428Y-86404761D01*
X151576190Y-86452380D01*
X151290476Y-86452380D01*
X151195238Y-86404761D01*
X151147619Y-86357142D01*
%TO.C,R7*%
X155507023Y-84452380D02*
X155173690Y-83976190D01*
X154935595Y-84452380D02*
X154935595Y-83452380D01*
X155316547Y-83452380D01*
X155411785Y-83500000D01*
X155459404Y-83547619D01*
X155507023Y-83642857D01*
X155507023Y-83785714D01*
X155459404Y-83880952D01*
X155411785Y-83928571D01*
X155316547Y-83976190D01*
X154935595Y-83976190D01*
X155840357Y-83452380D02*
X156507023Y-83452380D01*
X156078452Y-84452380D01*
%TO.C,Y1*%
X137523809Y-100376190D02*
X137523809Y-100852380D01*
X137190476Y-99852380D02*
X137523809Y-100376190D01*
X137857142Y-99852380D01*
X138714285Y-100852380D02*
X138142857Y-100852380D01*
X138428571Y-100852380D02*
X138428571Y-99852380D01*
X138333333Y-99995238D01*
X138238095Y-100090476D01*
X138142857Y-100138095D01*
%TO.C,R8*%
X163533333Y-110652380D02*
X163200000Y-110176190D01*
X162961904Y-110652380D02*
X162961904Y-109652380D01*
X163342857Y-109652380D01*
X163438095Y-109700000D01*
X163485714Y-109747619D01*
X163533333Y-109842857D01*
X163533333Y-109985714D01*
X163485714Y-110080952D01*
X163438095Y-110128571D01*
X163342857Y-110176190D01*
X162961904Y-110176190D01*
X164104761Y-110080952D02*
X164009523Y-110033333D01*
X163961904Y-109985714D01*
X163914285Y-109890476D01*
X163914285Y-109842857D01*
X163961904Y-109747619D01*
X164009523Y-109700000D01*
X164104761Y-109652380D01*
X164295238Y-109652380D01*
X164390476Y-109700000D01*
X164438095Y-109747619D01*
X164485714Y-109842857D01*
X164485714Y-109890476D01*
X164438095Y-109985714D01*
X164390476Y-110033333D01*
X164295238Y-110080952D01*
X164104761Y-110080952D01*
X164009523Y-110128571D01*
X163961904Y-110176190D01*
X163914285Y-110271428D01*
X163914285Y-110461904D01*
X163961904Y-110557142D01*
X164009523Y-110604761D01*
X164104761Y-110652380D01*
X164295238Y-110652380D01*
X164390476Y-110604761D01*
X164438095Y-110557142D01*
X164485714Y-110461904D01*
X164485714Y-110271428D01*
X164438095Y-110176190D01*
X164390476Y-110128571D01*
X164295238Y-110080952D01*
%TO.C,U6*%
X157738095Y-109752380D02*
X157738095Y-110561904D01*
X157785714Y-110657142D01*
X157833333Y-110704761D01*
X157928571Y-110752380D01*
X158119047Y-110752380D01*
X158214285Y-110704761D01*
X158261904Y-110657142D01*
X158309523Y-110561904D01*
X158309523Y-109752380D01*
X159214285Y-109752380D02*
X159023809Y-109752380D01*
X158928571Y-109800000D01*
X158880952Y-109847619D01*
X158785714Y-109990476D01*
X158738095Y-110180952D01*
X158738095Y-110561904D01*
X158785714Y-110657142D01*
X158833333Y-110704761D01*
X158928571Y-110752380D01*
X159119047Y-110752380D01*
X159214285Y-110704761D01*
X159261904Y-110657142D01*
X159309523Y-110561904D01*
X159309523Y-110323809D01*
X159261904Y-110228571D01*
X159214285Y-110180952D01*
X159119047Y-110133333D01*
X158928571Y-110133333D01*
X158833333Y-110180952D01*
X158785714Y-110228571D01*
X158738095Y-110323809D01*
%TO.C,U3*%
X169238095Y-111352380D02*
X169238095Y-112161904D01*
X169285714Y-112257142D01*
X169333333Y-112304761D01*
X169428571Y-112352380D01*
X169619047Y-112352380D01*
X169714285Y-112304761D01*
X169761904Y-112257142D01*
X169809523Y-112161904D01*
X169809523Y-111352380D01*
X170190476Y-111352380D02*
X170809523Y-111352380D01*
X170476190Y-111733333D01*
X170619047Y-111733333D01*
X170714285Y-111780952D01*
X170761904Y-111828571D01*
X170809523Y-111923809D01*
X170809523Y-112161904D01*
X170761904Y-112257142D01*
X170714285Y-112304761D01*
X170619047Y-112352380D01*
X170333333Y-112352380D01*
X170238095Y-112304761D01*
X170190476Y-112257142D01*
%TO.C,U1*%
X157035595Y-99452380D02*
X157035595Y-100261904D01*
X157083214Y-100357142D01*
X157130833Y-100404761D01*
X157226071Y-100452380D01*
X157416547Y-100452380D01*
X157511785Y-100404761D01*
X157559404Y-100357142D01*
X157607023Y-100261904D01*
X157607023Y-99452380D01*
X158607023Y-100452380D02*
X158035595Y-100452380D01*
X158321309Y-100452380D02*
X158321309Y-99452380D01*
X158226071Y-99595238D01*
X158130833Y-99690476D01*
X158035595Y-99738095D01*
%TO.C,C7*%
X157633333Y-104957142D02*
X157585714Y-105004761D01*
X157442857Y-105052380D01*
X157347619Y-105052380D01*
X157204761Y-105004761D01*
X157109523Y-104909523D01*
X157061904Y-104814285D01*
X157014285Y-104623809D01*
X157014285Y-104480952D01*
X157061904Y-104290476D01*
X157109523Y-104195238D01*
X157204761Y-104100000D01*
X157347619Y-104052380D01*
X157442857Y-104052380D01*
X157585714Y-104100000D01*
X157633333Y-104147619D01*
X157966666Y-104052380D02*
X158633333Y-104052380D01*
X158204761Y-105052380D01*
%TO.C,C23*%
X161357142Y-116192738D02*
X161404761Y-116240357D01*
X161452380Y-116383214D01*
X161452380Y-116478452D01*
X161404761Y-116621309D01*
X161309523Y-116716547D01*
X161214285Y-116764166D01*
X161023809Y-116811785D01*
X160880952Y-116811785D01*
X160690476Y-116764166D01*
X160595238Y-116716547D01*
X160500000Y-116621309D01*
X160452380Y-116478452D01*
X160452380Y-116383214D01*
X160500000Y-116240357D01*
X160547619Y-116192738D01*
X160547619Y-115811785D02*
X160500000Y-115764166D01*
X160452380Y-115668928D01*
X160452380Y-115430833D01*
X160500000Y-115335595D01*
X160547619Y-115287976D01*
X160642857Y-115240357D01*
X160738095Y-115240357D01*
X160880952Y-115287976D01*
X161452380Y-115859404D01*
X161452380Y-115240357D01*
X160452380Y-114907023D02*
X160452380Y-114287976D01*
X160833333Y-114621309D01*
X160833333Y-114478452D01*
X160880952Y-114383214D01*
X160928571Y-114335595D01*
X161023809Y-114287976D01*
X161261904Y-114287976D01*
X161357142Y-114335595D01*
X161404761Y-114383214D01*
X161452380Y-114478452D01*
X161452380Y-114764166D01*
X161404761Y-114859404D01*
X161357142Y-114907023D01*
%TO.C,C19*%
X154757142Y-116292738D02*
X154804761Y-116340357D01*
X154852380Y-116483214D01*
X154852380Y-116578452D01*
X154804761Y-116721309D01*
X154709523Y-116816547D01*
X154614285Y-116864166D01*
X154423809Y-116911785D01*
X154280952Y-116911785D01*
X154090476Y-116864166D01*
X153995238Y-116816547D01*
X153900000Y-116721309D01*
X153852380Y-116578452D01*
X153852380Y-116483214D01*
X153900000Y-116340357D01*
X153947619Y-116292738D01*
X154852380Y-115340357D02*
X154852380Y-115911785D01*
X154852380Y-115626071D02*
X153852380Y-115626071D01*
X153995238Y-115721309D01*
X154090476Y-115816547D01*
X154138095Y-115911785D01*
X154852380Y-114864166D02*
X154852380Y-114673690D01*
X154804761Y-114578452D01*
X154757142Y-114530833D01*
X154614285Y-114435595D01*
X154423809Y-114387976D01*
X154042857Y-114387976D01*
X153947619Y-114435595D01*
X153900000Y-114483214D01*
X153852380Y-114578452D01*
X153852380Y-114768928D01*
X153900000Y-114864166D01*
X153947619Y-114911785D01*
X154042857Y-114959404D01*
X154280952Y-114959404D01*
X154376190Y-114911785D01*
X154423809Y-114864166D01*
X154471428Y-114768928D01*
X154471428Y-114578452D01*
X154423809Y-114483214D01*
X154376190Y-114435595D01*
X154280952Y-114387976D01*
%TO.C,C8*%
X157533333Y-92957142D02*
X157485714Y-93004761D01*
X157342857Y-93052380D01*
X157247619Y-93052380D01*
X157104761Y-93004761D01*
X157009523Y-92909523D01*
X156961904Y-92814285D01*
X156914285Y-92623809D01*
X156914285Y-92480952D01*
X156961904Y-92290476D01*
X157009523Y-92195238D01*
X157104761Y-92100000D01*
X157247619Y-92052380D01*
X157342857Y-92052380D01*
X157485714Y-92100000D01*
X157533333Y-92147619D01*
X158104761Y-92480952D02*
X158009523Y-92433333D01*
X157961904Y-92385714D01*
X157914285Y-92290476D01*
X157914285Y-92242857D01*
X157961904Y-92147619D01*
X158009523Y-92100000D01*
X158104761Y-92052380D01*
X158295238Y-92052380D01*
X158390476Y-92100000D01*
X158438095Y-92147619D01*
X158485714Y-92242857D01*
X158485714Y-92290476D01*
X158438095Y-92385714D01*
X158390476Y-92433333D01*
X158295238Y-92480952D01*
X158104761Y-92480952D01*
X158009523Y-92528571D01*
X157961904Y-92576190D01*
X157914285Y-92671428D01*
X157914285Y-92861904D01*
X157961904Y-92957142D01*
X158009523Y-93004761D01*
X158104761Y-93052380D01*
X158295238Y-93052380D01*
X158390476Y-93004761D01*
X158438095Y-92957142D01*
X158485714Y-92861904D01*
X158485714Y-92671428D01*
X158438095Y-92576190D01*
X158390476Y-92528571D01*
X158295238Y-92480952D01*
%TO.C,U4*%
X145238095Y-108952380D02*
X145238095Y-109761904D01*
X145285714Y-109857142D01*
X145333333Y-109904761D01*
X145428571Y-109952380D01*
X145619047Y-109952380D01*
X145714285Y-109904761D01*
X145761904Y-109857142D01*
X145809523Y-109761904D01*
X145809523Y-108952380D01*
X146714285Y-109285714D02*
X146714285Y-109952380D01*
X146476190Y-108904761D02*
X146238095Y-109619047D01*
X146857142Y-109619047D01*
%TO.C,C10*%
X159307142Y-95757142D02*
X159259523Y-95804761D01*
X159116666Y-95852380D01*
X159021428Y-95852380D01*
X158878571Y-95804761D01*
X158783333Y-95709523D01*
X158735714Y-95614285D01*
X158688095Y-95423809D01*
X158688095Y-95280952D01*
X158735714Y-95090476D01*
X158783333Y-94995238D01*
X158878571Y-94900000D01*
X159021428Y-94852380D01*
X159116666Y-94852380D01*
X159259523Y-94900000D01*
X159307142Y-94947619D01*
X160259523Y-95852380D02*
X159688095Y-95852380D01*
X159973809Y-95852380D02*
X159973809Y-94852380D01*
X159878571Y-94995238D01*
X159783333Y-95090476D01*
X159688095Y-95138095D01*
X160878571Y-94852380D02*
X160973809Y-94852380D01*
X161069047Y-94900000D01*
X161116666Y-94947619D01*
X161164285Y-95042857D01*
X161211904Y-95233333D01*
X161211904Y-95471428D01*
X161164285Y-95661904D01*
X161116666Y-95757142D01*
X161069047Y-95804761D01*
X160973809Y-95852380D01*
X160878571Y-95852380D01*
X160783333Y-95804761D01*
X160735714Y-95757142D01*
X160688095Y-95661904D01*
X160640476Y-95471428D01*
X160640476Y-95233333D01*
X160688095Y-95042857D01*
X160735714Y-94947619D01*
X160783333Y-94900000D01*
X160878571Y-94852380D01*
%TO.C,J1*%
X173666666Y-92052380D02*
X173666666Y-92766666D01*
X173619047Y-92909523D01*
X173523809Y-93004761D01*
X173380952Y-93052380D01*
X173285714Y-93052380D01*
X174666666Y-93052380D02*
X174095238Y-93052380D01*
X174380952Y-93052380D02*
X174380952Y-92052380D01*
X174285714Y-92195238D01*
X174190476Y-92290476D01*
X174095238Y-92338095D01*
%TO.C,C2*%
X129633333Y-108757142D02*
X129585714Y-108804761D01*
X129442857Y-108852380D01*
X129347619Y-108852380D01*
X129204761Y-108804761D01*
X129109523Y-108709523D01*
X129061904Y-108614285D01*
X129014285Y-108423809D01*
X129014285Y-108280952D01*
X129061904Y-108090476D01*
X129109523Y-107995238D01*
X129204761Y-107900000D01*
X129347619Y-107852380D01*
X129442857Y-107852380D01*
X129585714Y-107900000D01*
X129633333Y-107947619D01*
X130014285Y-107947619D02*
X130061904Y-107900000D01*
X130157142Y-107852380D01*
X130395238Y-107852380D01*
X130490476Y-107900000D01*
X130538095Y-107947619D01*
X130585714Y-108042857D01*
X130585714Y-108138095D01*
X130538095Y-108280952D01*
X129966666Y-108852380D01*
X130585714Y-108852380D01*
%TO.C,R6*%
X161107023Y-82202380D02*
X160773690Y-81726190D01*
X160535595Y-82202380D02*
X160535595Y-81202380D01*
X160916547Y-81202380D01*
X161011785Y-81250000D01*
X161059404Y-81297619D01*
X161107023Y-81392857D01*
X161107023Y-81535714D01*
X161059404Y-81630952D01*
X161011785Y-81678571D01*
X160916547Y-81726190D01*
X160535595Y-81726190D01*
X161964166Y-81202380D02*
X161773690Y-81202380D01*
X161678452Y-81250000D01*
X161630833Y-81297619D01*
X161535595Y-81440476D01*
X161487976Y-81630952D01*
X161487976Y-82011904D01*
X161535595Y-82107142D01*
X161583214Y-82154761D01*
X161678452Y-82202380D01*
X161868928Y-82202380D01*
X161964166Y-82154761D01*
X162011785Y-82107142D01*
X162059404Y-82011904D01*
X162059404Y-81773809D01*
X162011785Y-81678571D01*
X161964166Y-81630952D01*
X161868928Y-81583333D01*
X161678452Y-81583333D01*
X161583214Y-81630952D01*
X161535595Y-81678571D01*
X161487976Y-81773809D01*
%TO.C,C13*%
X141757142Y-105792738D02*
X141804761Y-105840357D01*
X141852380Y-105983214D01*
X141852380Y-106078452D01*
X141804761Y-106221309D01*
X141709523Y-106316547D01*
X141614285Y-106364166D01*
X141423809Y-106411785D01*
X141280952Y-106411785D01*
X141090476Y-106364166D01*
X140995238Y-106316547D01*
X140900000Y-106221309D01*
X140852380Y-106078452D01*
X140852380Y-105983214D01*
X140900000Y-105840357D01*
X140947619Y-105792738D01*
X141852380Y-104840357D02*
X141852380Y-105411785D01*
X141852380Y-105126071D02*
X140852380Y-105126071D01*
X140995238Y-105221309D01*
X141090476Y-105316547D01*
X141138095Y-105411785D01*
X140852380Y-104507023D02*
X140852380Y-103887976D01*
X141233333Y-104221309D01*
X141233333Y-104078452D01*
X141280952Y-103983214D01*
X141328571Y-103935595D01*
X141423809Y-103887976D01*
X141661904Y-103887976D01*
X141757142Y-103935595D01*
X141804761Y-103983214D01*
X141852380Y-104078452D01*
X141852380Y-104364166D01*
X141804761Y-104459404D01*
X141757142Y-104507023D01*
%TO.C,C18*%
X141757142Y-115057142D02*
X141709523Y-115104761D01*
X141566666Y-115152380D01*
X141471428Y-115152380D01*
X141328571Y-115104761D01*
X141233333Y-115009523D01*
X141185714Y-114914285D01*
X141138095Y-114723809D01*
X141138095Y-114580952D01*
X141185714Y-114390476D01*
X141233333Y-114295238D01*
X141328571Y-114200000D01*
X141471428Y-114152380D01*
X141566666Y-114152380D01*
X141709523Y-114200000D01*
X141757142Y-114247619D01*
X142709523Y-115152380D02*
X142138095Y-115152380D01*
X142423809Y-115152380D02*
X142423809Y-114152380D01*
X142328571Y-114295238D01*
X142233333Y-114390476D01*
X142138095Y-114438095D01*
X143280952Y-114580952D02*
X143185714Y-114533333D01*
X143138095Y-114485714D01*
X143090476Y-114390476D01*
X143090476Y-114342857D01*
X143138095Y-114247619D01*
X143185714Y-114200000D01*
X143280952Y-114152380D01*
X143471428Y-114152380D01*
X143566666Y-114200000D01*
X143614285Y-114247619D01*
X143661904Y-114342857D01*
X143661904Y-114390476D01*
X143614285Y-114485714D01*
X143566666Y-114533333D01*
X143471428Y-114580952D01*
X143280952Y-114580952D01*
X143185714Y-114628571D01*
X143138095Y-114676190D01*
X143090476Y-114771428D01*
X143090476Y-114961904D01*
X143138095Y-115057142D01*
X143185714Y-115104761D01*
X143280952Y-115152380D01*
X143471428Y-115152380D01*
X143566666Y-115104761D01*
X143614285Y-115057142D01*
X143661904Y-114961904D01*
X143661904Y-114771428D01*
X143614285Y-114676190D01*
X143566666Y-114628571D01*
X143471428Y-114580952D01*
%TO.C,SW1*%
X133166666Y-102904761D02*
X133309523Y-102952380D01*
X133547619Y-102952380D01*
X133642857Y-102904761D01*
X133690476Y-102857142D01*
X133738095Y-102761904D01*
X133738095Y-102666666D01*
X133690476Y-102571428D01*
X133642857Y-102523809D01*
X133547619Y-102476190D01*
X133357142Y-102428571D01*
X133261904Y-102380952D01*
X133214285Y-102333333D01*
X133166666Y-102238095D01*
X133166666Y-102142857D01*
X133214285Y-102047619D01*
X133261904Y-102000000D01*
X133357142Y-101952380D01*
X133595238Y-101952380D01*
X133738095Y-102000000D01*
X134071428Y-101952380D02*
X134309523Y-102952380D01*
X134500000Y-102238095D01*
X134690476Y-102952380D01*
X134928571Y-101952380D01*
X135833333Y-102952380D02*
X135261904Y-102952380D01*
X135547619Y-102952380D02*
X135547619Y-101952380D01*
X135452380Y-102095238D01*
X135357142Y-102190476D01*
X135261904Y-102238095D01*
%TO.C,R10*%
X129357142Y-94352380D02*
X129023809Y-93876190D01*
X128785714Y-94352380D02*
X128785714Y-93352380D01*
X129166666Y-93352380D01*
X129261904Y-93400000D01*
X129309523Y-93447619D01*
X129357142Y-93542857D01*
X129357142Y-93685714D01*
X129309523Y-93780952D01*
X129261904Y-93828571D01*
X129166666Y-93876190D01*
X128785714Y-93876190D01*
X130309523Y-94352380D02*
X129738095Y-94352380D01*
X130023809Y-94352380D02*
X130023809Y-93352380D01*
X129928571Y-93495238D01*
X129833333Y-93590476D01*
X129738095Y-93638095D01*
X130928571Y-93352380D02*
X131023809Y-93352380D01*
X131119047Y-93400000D01*
X131166666Y-93447619D01*
X131214285Y-93542857D01*
X131261904Y-93733333D01*
X131261904Y-93971428D01*
X131214285Y-94161904D01*
X131166666Y-94257142D01*
X131119047Y-94304761D01*
X131023809Y-94352380D01*
X130928571Y-94352380D01*
X130833333Y-94304761D01*
X130785714Y-94257142D01*
X130738095Y-94161904D01*
X130690476Y-93971428D01*
X130690476Y-93733333D01*
X130738095Y-93542857D01*
X130785714Y-93447619D01*
X130833333Y-93400000D01*
X130928571Y-93352380D01*
%TO.C,C22*%
X149857142Y-116857142D02*
X149809523Y-116904761D01*
X149666666Y-116952380D01*
X149571428Y-116952380D01*
X149428571Y-116904761D01*
X149333333Y-116809523D01*
X149285714Y-116714285D01*
X149238095Y-116523809D01*
X149238095Y-116380952D01*
X149285714Y-116190476D01*
X149333333Y-116095238D01*
X149428571Y-116000000D01*
X149571428Y-115952380D01*
X149666666Y-115952380D01*
X149809523Y-116000000D01*
X149857142Y-116047619D01*
X150238095Y-116047619D02*
X150285714Y-116000000D01*
X150380952Y-115952380D01*
X150619047Y-115952380D01*
X150714285Y-116000000D01*
X150761904Y-116047619D01*
X150809523Y-116142857D01*
X150809523Y-116238095D01*
X150761904Y-116380952D01*
X150190476Y-116952380D01*
X150809523Y-116952380D01*
X151190476Y-116047619D02*
X151238095Y-116000000D01*
X151333333Y-115952380D01*
X151571428Y-115952380D01*
X151666666Y-116000000D01*
X151714285Y-116047619D01*
X151761904Y-116142857D01*
X151761904Y-116238095D01*
X151714285Y-116380952D01*
X151142857Y-116952380D01*
X151761904Y-116952380D01*
%TO.C,C21*%
X154707023Y-110457142D02*
X154659404Y-110504761D01*
X154516547Y-110552380D01*
X154421309Y-110552380D01*
X154278452Y-110504761D01*
X154183214Y-110409523D01*
X154135595Y-110314285D01*
X154087976Y-110123809D01*
X154087976Y-109980952D01*
X154135595Y-109790476D01*
X154183214Y-109695238D01*
X154278452Y-109600000D01*
X154421309Y-109552380D01*
X154516547Y-109552380D01*
X154659404Y-109600000D01*
X154707023Y-109647619D01*
X155087976Y-109647619D02*
X155135595Y-109600000D01*
X155230833Y-109552380D01*
X155468928Y-109552380D01*
X155564166Y-109600000D01*
X155611785Y-109647619D01*
X155659404Y-109742857D01*
X155659404Y-109838095D01*
X155611785Y-109980952D01*
X155040357Y-110552380D01*
X155659404Y-110552380D01*
X156611785Y-110552380D02*
X156040357Y-110552380D01*
X156326071Y-110552380D02*
X156326071Y-109552380D01*
X156230833Y-109695238D01*
X156135595Y-109790476D01*
X156040357Y-109838095D01*
%TO.C,C4*%
X141257142Y-92292976D02*
X141304761Y-92340595D01*
X141352380Y-92483452D01*
X141352380Y-92578690D01*
X141304761Y-92721547D01*
X141209523Y-92816785D01*
X141114285Y-92864404D01*
X140923809Y-92912023D01*
X140780952Y-92912023D01*
X140590476Y-92864404D01*
X140495238Y-92816785D01*
X140400000Y-92721547D01*
X140352380Y-92578690D01*
X140352380Y-92483452D01*
X140400000Y-92340595D01*
X140447619Y-92292976D01*
X140685714Y-91435833D02*
X141352380Y-91435833D01*
X140304761Y-91673928D02*
X141019047Y-91912023D01*
X141019047Y-91292976D01*
%TO.C,C6*%
X144158333Y-108107142D02*
X144110714Y-108154761D01*
X143967857Y-108202380D01*
X143872619Y-108202380D01*
X143729761Y-108154761D01*
X143634523Y-108059523D01*
X143586904Y-107964285D01*
X143539285Y-107773809D01*
X143539285Y-107630952D01*
X143586904Y-107440476D01*
X143634523Y-107345238D01*
X143729761Y-107250000D01*
X143872619Y-107202380D01*
X143967857Y-107202380D01*
X144110714Y-107250000D01*
X144158333Y-107297619D01*
X145015476Y-107202380D02*
X144825000Y-107202380D01*
X144729761Y-107250000D01*
X144682142Y-107297619D01*
X144586904Y-107440476D01*
X144539285Y-107630952D01*
X144539285Y-108011904D01*
X144586904Y-108107142D01*
X144634523Y-108154761D01*
X144729761Y-108202380D01*
X144920238Y-108202380D01*
X145015476Y-108154761D01*
X145063095Y-108107142D01*
X145110714Y-108011904D01*
X145110714Y-107773809D01*
X145063095Y-107678571D01*
X145015476Y-107630952D01*
X144920238Y-107583333D01*
X144729761Y-107583333D01*
X144634523Y-107630952D01*
X144586904Y-107678571D01*
X144539285Y-107773809D01*
%TO.C,C17*%
X145607142Y-116587142D02*
X145559523Y-116634761D01*
X145416666Y-116682380D01*
X145321428Y-116682380D01*
X145178571Y-116634761D01*
X145083333Y-116539523D01*
X145035714Y-116444285D01*
X144988095Y-116253809D01*
X144988095Y-116110952D01*
X145035714Y-115920476D01*
X145083333Y-115825238D01*
X145178571Y-115730000D01*
X145321428Y-115682380D01*
X145416666Y-115682380D01*
X145559523Y-115730000D01*
X145607142Y-115777619D01*
X146559523Y-116682380D02*
X145988095Y-116682380D01*
X146273809Y-116682380D02*
X146273809Y-115682380D01*
X146178571Y-115825238D01*
X146083333Y-115920476D01*
X145988095Y-115968095D01*
X146892857Y-115682380D02*
X147559523Y-115682380D01*
X147130952Y-116682380D01*
%TO.C,D3*%
X129561904Y-100952380D02*
X129561904Y-99952380D01*
X129800000Y-99952380D01*
X129942857Y-100000000D01*
X130038095Y-100095238D01*
X130085714Y-100190476D01*
X130133333Y-100380952D01*
X130133333Y-100523809D01*
X130085714Y-100714285D01*
X130038095Y-100809523D01*
X129942857Y-100904761D01*
X129800000Y-100952380D01*
X129561904Y-100952380D01*
X130466666Y-99952380D02*
X131085714Y-99952380D01*
X130752380Y-100333333D01*
X130895238Y-100333333D01*
X130990476Y-100380952D01*
X131038095Y-100428571D01*
X131085714Y-100523809D01*
X131085714Y-100761904D01*
X131038095Y-100857142D01*
X130990476Y-100904761D01*
X130895238Y-100952380D01*
X130609523Y-100952380D01*
X130514285Y-100904761D01*
X130466666Y-100857142D01*
%TO.C,Q1*%
X156707261Y-85947619D02*
X156612023Y-85900000D01*
X156516785Y-85804761D01*
X156373928Y-85661904D01*
X156278690Y-85614285D01*
X156183452Y-85614285D01*
X156231071Y-85852380D02*
X156135833Y-85804761D01*
X156040595Y-85709523D01*
X155992976Y-85519047D01*
X155992976Y-85185714D01*
X156040595Y-84995238D01*
X156135833Y-84900000D01*
X156231071Y-84852380D01*
X156421547Y-84852380D01*
X156516785Y-84900000D01*
X156612023Y-84995238D01*
X156659642Y-85185714D01*
X156659642Y-85519047D01*
X156612023Y-85709523D01*
X156516785Y-85804761D01*
X156421547Y-85852380D01*
X156231071Y-85852380D01*
X157612023Y-85852380D02*
X157040595Y-85852380D01*
X157326309Y-85852380D02*
X157326309Y-84852380D01*
X157231071Y-84995238D01*
X157135833Y-85090476D01*
X157040595Y-85138095D01*
%TO.C,R9*%
X130333333Y-92852380D02*
X130000000Y-92376190D01*
X129761904Y-92852380D02*
X129761904Y-91852380D01*
X130142857Y-91852380D01*
X130238095Y-91900000D01*
X130285714Y-91947619D01*
X130333333Y-92042857D01*
X130333333Y-92185714D01*
X130285714Y-92280952D01*
X130238095Y-92328571D01*
X130142857Y-92376190D01*
X129761904Y-92376190D01*
X130809523Y-92852380D02*
X131000000Y-92852380D01*
X131095238Y-92804761D01*
X131142857Y-92757142D01*
X131238095Y-92614285D01*
X131285714Y-92423809D01*
X131285714Y-92042857D01*
X131238095Y-91947619D01*
X131190476Y-91900000D01*
X131095238Y-91852380D01*
X130904761Y-91852380D01*
X130809523Y-91900000D01*
X130761904Y-91947619D01*
X130714285Y-92042857D01*
X130714285Y-92280952D01*
X130761904Y-92376190D01*
X130809523Y-92423809D01*
X130904761Y-92471428D01*
X131095238Y-92471428D01*
X131190476Y-92423809D01*
X131238095Y-92376190D01*
X131285714Y-92280952D01*
%TO.C,R1*%
X150057023Y-88852380D02*
X149723690Y-88376190D01*
X149485595Y-88852380D02*
X149485595Y-87852380D01*
X149866547Y-87852380D01*
X149961785Y-87900000D01*
X150009404Y-87947619D01*
X150057023Y-88042857D01*
X150057023Y-88185714D01*
X150009404Y-88280952D01*
X149961785Y-88328571D01*
X149866547Y-88376190D01*
X149485595Y-88376190D01*
X151009404Y-88852380D02*
X150437976Y-88852380D01*
X150723690Y-88852380D02*
X150723690Y-87852380D01*
X150628452Y-87995238D01*
X150533214Y-88090476D01*
X150437976Y-88138095D01*
%TO.C,C24*%
X157857142Y-117007142D02*
X157809523Y-117054761D01*
X157666666Y-117102380D01*
X157571428Y-117102380D01*
X157428571Y-117054761D01*
X157333333Y-116959523D01*
X157285714Y-116864285D01*
X157238095Y-116673809D01*
X157238095Y-116530952D01*
X157285714Y-116340476D01*
X157333333Y-116245238D01*
X157428571Y-116150000D01*
X157571428Y-116102380D01*
X157666666Y-116102380D01*
X157809523Y-116150000D01*
X157857142Y-116197619D01*
X158238095Y-116197619D02*
X158285714Y-116150000D01*
X158380952Y-116102380D01*
X158619047Y-116102380D01*
X158714285Y-116150000D01*
X158761904Y-116197619D01*
X158809523Y-116292857D01*
X158809523Y-116388095D01*
X158761904Y-116530952D01*
X158190476Y-117102380D01*
X158809523Y-117102380D01*
X159666666Y-116435714D02*
X159666666Y-117102380D01*
X159428571Y-116054761D02*
X159190476Y-116769047D01*
X159809523Y-116769047D01*
%TO.C,JP1*%
X158666666Y-120652380D02*
X158666666Y-121366666D01*
X158619047Y-121509523D01*
X158523809Y-121604761D01*
X158380952Y-121652380D01*
X158285714Y-121652380D01*
X159142857Y-121652380D02*
X159142857Y-120652380D01*
X159523809Y-120652380D01*
X159619047Y-120700000D01*
X159666666Y-120747619D01*
X159714285Y-120842857D01*
X159714285Y-120985714D01*
X159666666Y-121080952D01*
X159619047Y-121128571D01*
X159523809Y-121176190D01*
X159142857Y-121176190D01*
X160666666Y-121652380D02*
X160095238Y-121652380D01*
X160380952Y-121652380D02*
X160380952Y-120652380D01*
X160285714Y-120795238D01*
X160190476Y-120890476D01*
X160095238Y-120938095D01*
%TO.C,U5*%
X149152380Y-110664404D02*
X149961904Y-110664404D01*
X150057142Y-110616785D01*
X150104761Y-110569166D01*
X150152380Y-110473928D01*
X150152380Y-110283452D01*
X150104761Y-110188214D01*
X150057142Y-110140595D01*
X149961904Y-110092976D01*
X149152380Y-110092976D01*
X149152380Y-109140595D02*
X149152380Y-109616785D01*
X149628571Y-109664404D01*
X149580952Y-109616785D01*
X149533333Y-109521547D01*
X149533333Y-109283452D01*
X149580952Y-109188214D01*
X149628571Y-109140595D01*
X149723809Y-109092976D01*
X149961904Y-109092976D01*
X150057142Y-109140595D01*
X150104761Y-109188214D01*
X150152380Y-109283452D01*
X150152380Y-109521547D01*
X150104761Y-109616785D01*
X150057142Y-109664404D01*
%TO.C,J4*%
X158066666Y-125052380D02*
X158066666Y-125766666D01*
X158019047Y-125909523D01*
X157923809Y-126004761D01*
X157780952Y-126052380D01*
X157685714Y-126052380D01*
X158971428Y-125385714D02*
X158971428Y-126052380D01*
X158733333Y-125004761D02*
X158495238Y-125719047D01*
X159114285Y-125719047D01*
%TO.C,D4*%
X129561904Y-99252380D02*
X129561904Y-98252380D01*
X129800000Y-98252380D01*
X129942857Y-98300000D01*
X130038095Y-98395238D01*
X130085714Y-98490476D01*
X130133333Y-98680952D01*
X130133333Y-98823809D01*
X130085714Y-99014285D01*
X130038095Y-99109523D01*
X129942857Y-99204761D01*
X129800000Y-99252380D01*
X129561904Y-99252380D01*
X130990476Y-98585714D02*
X130990476Y-99252380D01*
X130752380Y-98204761D02*
X130514285Y-98919047D01*
X131133333Y-98919047D01*
%TO.C,R4*%
X157259642Y-87652380D02*
X156926309Y-87176190D01*
X156688214Y-87652380D02*
X156688214Y-86652380D01*
X157069166Y-86652380D01*
X157164404Y-86700000D01*
X157212023Y-86747619D01*
X157259642Y-86842857D01*
X157259642Y-86985714D01*
X157212023Y-87080952D01*
X157164404Y-87128571D01*
X157069166Y-87176190D01*
X156688214Y-87176190D01*
X158116785Y-86985714D02*
X158116785Y-87652380D01*
X157878690Y-86604761D02*
X157640595Y-87319047D01*
X158259642Y-87319047D01*
%TO.C,J2*%
X163166666Y-93752380D02*
X163166666Y-94466666D01*
X163119047Y-94609523D01*
X163023809Y-94704761D01*
X162880952Y-94752380D01*
X162785714Y-94752380D01*
X163595238Y-93847619D02*
X163642857Y-93800000D01*
X163738095Y-93752380D01*
X163976190Y-93752380D01*
X164071428Y-93800000D01*
X164119047Y-93847619D01*
X164166666Y-93942857D01*
X164166666Y-94038095D01*
X164119047Y-94180952D01*
X163547619Y-94752380D01*
X164166666Y-94752380D01*
%TO.C,U2*%
X167238095Y-95052380D02*
X167238095Y-95861904D01*
X167285714Y-95957142D01*
X167333333Y-96004761D01*
X167428571Y-96052380D01*
X167619047Y-96052380D01*
X167714285Y-96004761D01*
X167761904Y-95957142D01*
X167809523Y-95861904D01*
X167809523Y-95052380D01*
X168238095Y-95147619D02*
X168285714Y-95100000D01*
X168380952Y-95052380D01*
X168619047Y-95052380D01*
X168714285Y-95100000D01*
X168761904Y-95147619D01*
X168809523Y-95242857D01*
X168809523Y-95338095D01*
X168761904Y-95480952D01*
X168190476Y-96052380D01*
X168809523Y-96052380D01*
%TO.C,D5*%
X129561904Y-97552380D02*
X129561904Y-96552380D01*
X129800000Y-96552380D01*
X129942857Y-96600000D01*
X130038095Y-96695238D01*
X130085714Y-96790476D01*
X130133333Y-96980952D01*
X130133333Y-97123809D01*
X130085714Y-97314285D01*
X130038095Y-97409523D01*
X129942857Y-97504761D01*
X129800000Y-97552380D01*
X129561904Y-97552380D01*
X131038095Y-96552380D02*
X130561904Y-96552380D01*
X130514285Y-97028571D01*
X130561904Y-96980952D01*
X130657142Y-96933333D01*
X130895238Y-96933333D01*
X130990476Y-96980952D01*
X131038095Y-97028571D01*
X131085714Y-97123809D01*
X131085714Y-97361904D01*
X131038095Y-97457142D01*
X130990476Y-97504761D01*
X130895238Y-97552380D01*
X130657142Y-97552380D01*
X130561904Y-97504761D01*
X130514285Y-97457142D01*
%TO.C,D1*%
X164861904Y-101152380D02*
X164861904Y-100152380D01*
X165100000Y-100152380D01*
X165242857Y-100200000D01*
X165338095Y-100295238D01*
X165385714Y-100390476D01*
X165433333Y-100580952D01*
X165433333Y-100723809D01*
X165385714Y-100914285D01*
X165338095Y-101009523D01*
X165242857Y-101104761D01*
X165100000Y-101152380D01*
X164861904Y-101152380D01*
X166385714Y-101152380D02*
X165814285Y-101152380D01*
X166100000Y-101152380D02*
X166100000Y-100152380D01*
X166004761Y-100295238D01*
X165909523Y-100390476D01*
X165814285Y-100438095D01*
%TO.C,R2*%
X162533333Y-96952380D02*
X162200000Y-96476190D01*
X161961904Y-96952380D02*
X161961904Y-95952380D01*
X162342857Y-95952380D01*
X162438095Y-96000000D01*
X162485714Y-96047619D01*
X162533333Y-96142857D01*
X162533333Y-96285714D01*
X162485714Y-96380952D01*
X162438095Y-96428571D01*
X162342857Y-96476190D01*
X161961904Y-96476190D01*
X162914285Y-96047619D02*
X162961904Y-96000000D01*
X163057142Y-95952380D01*
X163295238Y-95952380D01*
X163390476Y-96000000D01*
X163438095Y-96047619D01*
X163485714Y-96142857D01*
X163485714Y-96238095D01*
X163438095Y-96380952D01*
X162866666Y-96952380D01*
X163485714Y-96952380D01*
%TO.C,C11*%
X148957142Y-92607142D02*
X148909523Y-92654761D01*
X148766666Y-92702380D01*
X148671428Y-92702380D01*
X148528571Y-92654761D01*
X148433333Y-92559523D01*
X148385714Y-92464285D01*
X148338095Y-92273809D01*
X148338095Y-92130952D01*
X148385714Y-91940476D01*
X148433333Y-91845238D01*
X148528571Y-91750000D01*
X148671428Y-91702380D01*
X148766666Y-91702380D01*
X148909523Y-91750000D01*
X148957142Y-91797619D01*
X149909523Y-92702380D02*
X149338095Y-92702380D01*
X149623809Y-92702380D02*
X149623809Y-91702380D01*
X149528571Y-91845238D01*
X149433333Y-91940476D01*
X149338095Y-91988095D01*
X150861904Y-92702380D02*
X150290476Y-92702380D01*
X150576190Y-92702380D02*
X150576190Y-91702380D01*
X150480952Y-91845238D01*
X150385714Y-91940476D01*
X150290476Y-91988095D01*
%TO.C,R5*%
X155507023Y-82952380D02*
X155173690Y-82476190D01*
X154935595Y-82952380D02*
X154935595Y-81952380D01*
X155316547Y-81952380D01*
X155411785Y-82000000D01*
X155459404Y-82047619D01*
X155507023Y-82142857D01*
X155507023Y-82285714D01*
X155459404Y-82380952D01*
X155411785Y-82428571D01*
X155316547Y-82476190D01*
X154935595Y-82476190D01*
X156411785Y-81952380D02*
X155935595Y-81952380D01*
X155887976Y-82428571D01*
X155935595Y-82380952D01*
X156030833Y-82333333D01*
X156268928Y-82333333D01*
X156364166Y-82380952D01*
X156411785Y-82428571D01*
X156459404Y-82523809D01*
X156459404Y-82761904D01*
X156411785Y-82857142D01*
X156364166Y-82904761D01*
X156268928Y-82952380D01*
X156030833Y-82952380D01*
X155935595Y-82904761D01*
X155887976Y-82857142D01*
%TO.C,C1*%
X148983333Y-91057142D02*
X148935714Y-91104761D01*
X148792857Y-91152380D01*
X148697619Y-91152380D01*
X148554761Y-91104761D01*
X148459523Y-91009523D01*
X148411904Y-90914285D01*
X148364285Y-90723809D01*
X148364285Y-90580952D01*
X148411904Y-90390476D01*
X148459523Y-90295238D01*
X148554761Y-90200000D01*
X148697619Y-90152380D01*
X148792857Y-90152380D01*
X148935714Y-90200000D01*
X148983333Y-90247619D01*
X149935714Y-91152380D02*
X149364285Y-91152380D01*
X149650000Y-91152380D02*
X149650000Y-90152380D01*
X149554761Y-90295238D01*
X149459523Y-90390476D01*
X149364285Y-90438095D01*
%TO.C,J5*%
X154666666Y-86852380D02*
X154666666Y-87566666D01*
X154619047Y-87709523D01*
X154523809Y-87804761D01*
X154380952Y-87852380D01*
X154285714Y-87852380D01*
X155619047Y-86852380D02*
X155142857Y-86852380D01*
X155095238Y-87328571D01*
X155142857Y-87280952D01*
X155238095Y-87233333D01*
X155476190Y-87233333D01*
X155571428Y-87280952D01*
X155619047Y-87328571D01*
X155666666Y-87423809D01*
X155666666Y-87661904D01*
X155619047Y-87757142D01*
X155571428Y-87804761D01*
X155476190Y-87852380D01*
X155238095Y-87852380D01*
X155142857Y-87804761D01*
X155095238Y-87757142D01*
%TO.C,D2*%
X165952380Y-108011785D02*
X164952380Y-108011785D01*
X164952380Y-107773690D01*
X165000000Y-107630833D01*
X165095238Y-107535595D01*
X165190476Y-107487976D01*
X165380952Y-107440357D01*
X165523809Y-107440357D01*
X165714285Y-107487976D01*
X165809523Y-107535595D01*
X165904761Y-107630833D01*
X165952380Y-107773690D01*
X165952380Y-108011785D01*
X165047619Y-107059404D02*
X165000000Y-107011785D01*
X164952380Y-106916547D01*
X164952380Y-106678452D01*
X165000000Y-106583214D01*
X165047619Y-106535595D01*
X165142857Y-106487976D01*
X165238095Y-106487976D01*
X165380952Y-106535595D01*
X165952380Y-107107023D01*
X165952380Y-106487976D01*
D11*
%TO.C,C16*%
X175340000Y-106446267D02*
X175340000Y-106153733D01*
X176360000Y-106446267D02*
X176360000Y-106153733D01*
%TO.C,C15*%
X173840000Y-106446267D02*
X173840000Y-106153733D01*
X174860000Y-106446267D02*
X174860000Y-106153733D01*
%TO.C,C14*%
X164746267Y-104160000D02*
X164453733Y-104160000D01*
X164746267Y-103140000D02*
X164453733Y-103140000D01*
%TO.C,R11*%
X132945276Y-94877500D02*
X133454724Y-94877500D01*
X132945276Y-95922500D02*
X133454724Y-95922500D01*
%TO.C,C5*%
X141160000Y-98003733D02*
X141160000Y-98296267D01*
X140140000Y-98003733D02*
X140140000Y-98296267D01*
%TO.C,C12*%
X140410000Y-102146267D02*
X140410000Y-101853733D01*
X139390000Y-102146267D02*
X139390000Y-101853733D01*
%TO.C,C20*%
X153410000Y-112353733D02*
X153410000Y-112646267D01*
X152390000Y-112353733D02*
X152390000Y-112646267D01*
%TO.C,C9*%
X154453733Y-108260000D02*
X154746267Y-108260000D01*
X154453733Y-107240000D02*
X154746267Y-107240000D01*
%TO.C,C3*%
X142490000Y-93646267D02*
X142490000Y-93353733D01*
X143510000Y-93646267D02*
X143510000Y-93353733D01*
%TO.C,R3*%
X153254724Y-81522500D02*
X152745276Y-81522500D01*
X153254724Y-80477500D02*
X152745276Y-80477500D01*
%TO.C,J3*%
X142145000Y-86605000D02*
X142145000Y-85275000D01*
X149885000Y-86605000D02*
X149885000Y-81405000D01*
X143475000Y-86605000D02*
X142145000Y-86605000D01*
X144745000Y-86605000D02*
X149885000Y-86605000D01*
X144745000Y-86605000D02*
X144745000Y-84005000D01*
X142145000Y-84005000D02*
X142145000Y-81405000D01*
X144745000Y-84005000D02*
X142145000Y-84005000D01*
X142145000Y-81405000D02*
X149885000Y-81405000D01*
%TO.C,R7*%
X153254724Y-84522500D02*
X152745276Y-84522500D01*
X153254724Y-83477500D02*
X152745276Y-83477500D01*
%TO.C,Y1*%
X139800000Y-93450000D02*
X136200000Y-93450000D01*
X136200000Y-93450000D02*
X136200000Y-99200000D01*
X139800000Y-99200000D02*
X139800000Y-93450000D01*
%TO.C,R8*%
X163177500Y-107545276D02*
X163177500Y-108054724D01*
X164222500Y-107545276D02*
X164222500Y-108054724D01*
D12*
%TO.C,U6*%
X159600000Y-111630000D02*
X159600000Y-111150000D01*
X157400000Y-111630000D02*
X157400000Y-111150000D01*
X159600000Y-111150000D02*
X158960000Y-111150000D01*
X159600000Y-113850000D02*
X159600000Y-113370000D01*
X159600000Y-113850000D02*
X158960000Y-113850000D01*
X158040000Y-111150000D02*
X157400000Y-111150000D01*
X158040000Y-113850000D02*
X157400000Y-113850000D01*
D11*
%TO.C,U3*%
X173410000Y-108710000D02*
X172150000Y-108710000D01*
X166590000Y-108710000D02*
X167850000Y-108710000D01*
X166590000Y-104950000D02*
X166590000Y-108710000D01*
X173410000Y-102700000D02*
X173410000Y-108710000D01*
%TO.C,U1*%
X154160000Y-94890000D02*
X155110000Y-94890000D01*
X155110000Y-94890000D02*
X155110000Y-95840000D01*
X144890000Y-105110000D02*
X144890000Y-104160000D01*
X145840000Y-94890000D02*
X144890000Y-94890000D01*
X155110000Y-105110000D02*
X155110000Y-104160000D01*
X145840000Y-105110000D02*
X144890000Y-105110000D01*
X144890000Y-94890000D02*
X144890000Y-95840000D01*
X154160000Y-105110000D02*
X155110000Y-105110000D01*
X144890000Y-95840000D02*
X143550000Y-95840000D01*
%TO.C,C7*%
X156646267Y-106510000D02*
X156353733Y-106510000D01*
X156646267Y-105490000D02*
X156353733Y-105490000D01*
%TO.C,C23*%
X160490000Y-112353733D02*
X160490000Y-112646267D01*
X161510000Y-112353733D02*
X161510000Y-112646267D01*
%TO.C,C19*%
X154910000Y-112353733D02*
X154910000Y-112646267D01*
X153890000Y-112353733D02*
X153890000Y-112646267D01*
%TO.C,C8*%
X156510000Y-93646267D02*
X156510000Y-93353733D01*
X155490000Y-93646267D02*
X155490000Y-93353733D01*
D13*
%TO.C,U4*%
X148250000Y-110500000D02*
X148250000Y-111500000D01*
X148250000Y-113500000D02*
X148000000Y-113500000D01*
X143750000Y-111500000D02*
X143750000Y-110500000D01*
X143750000Y-112500000D02*
X143750000Y-113500000D01*
X148000000Y-110500000D02*
X148250000Y-110500000D01*
X143750000Y-110500000D02*
X144000000Y-110500000D01*
X143750000Y-113500000D02*
X144000000Y-113500000D01*
X148250000Y-112500000D02*
X148250000Y-113500000D01*
D14*
X147624000Y-114032000D02*
G75*
G03*
X147624000Y-114032000I-100000J0D01*
G01*
D11*
%TO.C,C10*%
X157240000Y-95546267D02*
X157240000Y-95253733D01*
X158260000Y-95546267D02*
X158260000Y-95253733D01*
%TO.C,J1*%
X172237500Y-101550000D02*
X172237500Y-101100000D01*
X171687500Y-99350000D02*
X172137500Y-99350000D01*
X174087500Y-93750000D02*
X172237500Y-93750000D01*
X171687500Y-99350000D02*
X171687500Y-98900000D01*
X174087500Y-101550000D02*
X172237500Y-101550000D01*
X176637500Y-101550000D02*
X176387500Y-101550000D01*
X172237500Y-93750000D02*
X172237500Y-94200000D01*
X176637500Y-93750000D02*
X176387500Y-93750000D01*
%TO.C,C2*%
X130310000Y-106146267D02*
X130310000Y-105853733D01*
X129290000Y-106146267D02*
X129290000Y-105853733D01*
%TO.C,R6*%
X158332776Y-81227500D02*
X158842224Y-81227500D01*
X158332776Y-82272500D02*
X158842224Y-82272500D01*
%TO.C,C13*%
X141910000Y-102146267D02*
X141910000Y-101853733D01*
X140890000Y-102146267D02*
X140890000Y-101853733D01*
%TO.C,C18*%
X142910000Y-112153733D02*
X142910000Y-112446267D01*
X141890000Y-112153733D02*
X141890000Y-112446267D01*
D13*
%TO.C,SW1*%
X136750000Y-103450000D02*
X132250000Y-103450000D01*
X137050000Y-107180000D02*
X137050000Y-104820000D01*
X136750000Y-108550000D02*
X132250000Y-108550000D01*
X131950000Y-104820000D02*
X131950000Y-107180000D01*
D14*
X130350000Y-104125000D02*
G75*
G03*
X130350000Y-104125000I-100000J0D01*
G01*
D11*
%TO.C,R10*%
X132945276Y-94422500D02*
X133454724Y-94422500D01*
X132945276Y-93377500D02*
X133454724Y-93377500D01*
%TO.C,C22*%
X150353733Y-114490000D02*
X150646267Y-114490000D01*
X150353733Y-115510000D02*
X150646267Y-115510000D01*
%TO.C,C21*%
X151953733Y-109590000D02*
X152246267Y-109590000D01*
X151953733Y-110610000D02*
X152246267Y-110610000D01*
%TO.C,C4*%
X141160000Y-94703733D02*
X141160000Y-94996267D01*
X140140000Y-94703733D02*
X140140000Y-94996267D01*
%TO.C,C6*%
X147146267Y-108260000D02*
X146853733Y-108260000D01*
X147146267Y-107240000D02*
X146853733Y-107240000D01*
%TO.C,C17*%
X146396267Y-115310000D02*
X146103733Y-115310000D01*
X146396267Y-114290000D02*
X146103733Y-114290000D01*
%TO.C,D3*%
X134000000Y-99765000D02*
X131540000Y-99765000D01*
X131540000Y-101235000D02*
X134000000Y-101235000D01*
X131540000Y-99765000D02*
X131540000Y-101235000D01*
D12*
%TO.C,Q1*%
X161150000Y-84700000D02*
X161150000Y-85175000D01*
X160850000Y-83525000D02*
X161150000Y-83525000D01*
X157850000Y-84525000D02*
X157850000Y-84800000D01*
X157850000Y-83525000D02*
X158150000Y-83525000D01*
X161150000Y-83525000D02*
X161150000Y-83975000D01*
X157850000Y-83900000D02*
X157850000Y-83525000D01*
X158175000Y-85175000D02*
X158175000Y-85950000D01*
X161150000Y-85175000D02*
X160800000Y-85175000D01*
X160925000Y-83525000D02*
X160800000Y-83525000D01*
X158125000Y-85175000D02*
X158175000Y-85175000D01*
X157850000Y-84800000D02*
X158125000Y-85175000D01*
D11*
%TO.C,R9*%
X132945276Y-92922500D02*
X133454724Y-92922500D01*
X132945276Y-91877500D02*
X133454724Y-91877500D01*
%TO.C,R1*%
X147842224Y-88922500D02*
X147332776Y-88922500D01*
X147842224Y-87877500D02*
X147332776Y-87877500D01*
%TO.C,C24*%
X158646267Y-115660000D02*
X158353733Y-115660000D01*
X158646267Y-114640000D02*
X158353733Y-114640000D01*
%TO.C,JP1*%
X158100000Y-124000000D02*
X158100000Y-122000000D01*
X158100000Y-122000000D02*
X160900000Y-122000000D01*
X160900000Y-124000000D02*
X158100000Y-124000000D01*
X160900000Y-122000000D02*
X160900000Y-124000000D01*
D13*
%TO.C,U5*%
X151550000Y-113800000D02*
X149450000Y-113800000D01*
X149450000Y-111200000D02*
X151550000Y-111200000D01*
D14*
X149076000Y-111738000D02*
G75*
G03*
X149076000Y-111738000I-100000J0D01*
G01*
D11*
%TO.C,J4*%
X146860000Y-121730000D02*
X149460000Y-121730000D01*
X149460000Y-121730000D02*
X149460000Y-119130000D01*
X146860000Y-119130000D02*
X148190000Y-119130000D01*
X146860000Y-121730000D02*
X146860000Y-126870000D01*
X149460000Y-119130000D02*
X157140000Y-119130000D01*
X146860000Y-120460000D02*
X146860000Y-119130000D01*
X146860000Y-126870000D02*
X157140000Y-126870000D01*
X157140000Y-119130000D02*
X157140000Y-126870000D01*
%TO.C,D4*%
X131540000Y-99535000D02*
X134000000Y-99535000D01*
X131540000Y-98065000D02*
X131540000Y-99535000D01*
X134000000Y-98065000D02*
X131540000Y-98065000D01*
%TO.C,R4*%
X160454724Y-87722500D02*
X159945276Y-87722500D01*
X160454724Y-86677500D02*
X159945276Y-86677500D01*
%TO.C,J2*%
X162245000Y-90670000D02*
X167385000Y-90670000D01*
X160975000Y-93330000D02*
X159645000Y-93330000D01*
X162245000Y-93330000D02*
X162245000Y-90670000D01*
X167385000Y-93330000D02*
X167385000Y-90670000D01*
X159645000Y-93330000D02*
X159645000Y-92000000D01*
X162245000Y-93330000D02*
X167385000Y-93330000D01*
%TO.C,U2*%
X168000000Y-99560000D02*
X167200000Y-99560000D01*
X168000000Y-96440000D02*
X167200000Y-96440000D01*
X168000000Y-99560000D02*
X169800000Y-99560000D01*
X168000000Y-96440000D02*
X168800000Y-96440000D01*
%TO.C,D5*%
X131540000Y-96365000D02*
X131540000Y-97835000D01*
X131540000Y-97835000D02*
X134000000Y-97835000D01*
X134000000Y-96365000D02*
X131540000Y-96365000D01*
%TO.C,D1*%
X166750000Y-102000000D02*
X170650000Y-102000000D01*
X166750000Y-100000000D02*
X166750000Y-102000000D01*
X166750000Y-100000000D02*
X170650000Y-100000000D01*
%TO.C,R2*%
X163977500Y-96245276D02*
X163977500Y-96754724D01*
X165022500Y-96245276D02*
X165022500Y-96754724D01*
%TO.C,C11*%
X146353733Y-92760000D02*
X146646267Y-92760000D01*
X146353733Y-91740000D02*
X146646267Y-91740000D01*
%TO.C,R5*%
X153254724Y-81977500D02*
X152745276Y-81977500D01*
X153254724Y-83022500D02*
X152745276Y-83022500D01*
%TO.C,C1*%
X146353733Y-90190000D02*
X146646267Y-90190000D01*
X146353733Y-91210000D02*
X146646267Y-91210000D01*
%TO.C,J5*%
X156270000Y-88230000D02*
X156905000Y-88230000D01*
X156905000Y-88230000D02*
X156905000Y-88865000D01*
%TO.C,D2*%
X162940000Y-106035000D02*
X165400000Y-106035000D01*
X165400000Y-104565000D02*
X162940000Y-104565000D01*
X162940000Y-104565000D02*
X162940000Y-106035000D01*
%TD*%
%LPC*%
D15*
%TO.C,C16*%
X175850000Y-107162500D03*
X175850000Y-105437500D03*
%TD*%
%TO.C,C15*%
X174350000Y-107162500D03*
X174350000Y-105437500D03*
%TD*%
D16*
%TO.C,C14*%
X165462500Y-103650000D03*
X163737500Y-103650000D03*
%TD*%
D17*
%TO.C,R11*%
X132287500Y-95400000D03*
X134112500Y-95400000D03*
%TD*%
D18*
%TO.C,C5*%
X140650000Y-97287500D03*
X140650000Y-99012500D03*
%TD*%
D15*
%TO.C,C12*%
X139900000Y-102862500D03*
X139900000Y-101137500D03*
%TD*%
D18*
%TO.C,C20*%
X152900000Y-111637500D03*
X152900000Y-113362500D03*
%TD*%
D19*
%TO.C,C9*%
X153737500Y-107750000D03*
X155462500Y-107750000D03*
%TD*%
D15*
%TO.C,C3*%
X143000000Y-94362500D03*
X143000000Y-92637500D03*
%TD*%
D20*
%TO.C,R3*%
X153912500Y-81000000D03*
X152087500Y-81000000D03*
%TD*%
D21*
%TO.C,J3*%
X143475000Y-85275000D03*
D22*
X143475000Y-82735000D03*
X146015000Y-85275000D03*
X146015000Y-82735000D03*
X148555000Y-85275000D03*
X148555000Y-82735000D03*
%TD*%
D20*
%TO.C,R7*%
X153912500Y-84000000D03*
X152087500Y-84000000D03*
%TD*%
D23*
%TO.C,Y1*%
X138000000Y-94650000D03*
X138000000Y-98350000D03*
%TD*%
D24*
%TO.C,R8*%
X163700000Y-106887500D03*
X163700000Y-108712500D03*
%TD*%
D25*
%TO.C,U6*%
X157700000Y-113475000D03*
X157700000Y-112825000D03*
X157700000Y-112175000D03*
X157700000Y-111525000D03*
X159300000Y-111525000D03*
X159300000Y-112175000D03*
X159300000Y-112825000D03*
X159300000Y-113475000D03*
%TD*%
D26*
%TO.C,U3*%
X172300000Y-103650000D03*
D27*
X170000000Y-109950000D03*
D26*
X170000000Y-103650000D03*
X167700000Y-103650000D03*
%TD*%
D28*
%TO.C,U1*%
X144325000Y-96250000D03*
X144325000Y-96750000D03*
X144325000Y-97250000D03*
X144325000Y-97750000D03*
X144325000Y-98250000D03*
X144325000Y-98750000D03*
X144325000Y-99250000D03*
X144325000Y-99750000D03*
X144325000Y-100250000D03*
X144325000Y-100750000D03*
X144325000Y-101250000D03*
X144325000Y-101750000D03*
X144325000Y-102250000D03*
X144325000Y-102750000D03*
X144325000Y-103250000D03*
X144325000Y-103750000D03*
D29*
X146250000Y-105675000D03*
X146750000Y-105675000D03*
X147250000Y-105675000D03*
X147750000Y-105675000D03*
X148250000Y-105675000D03*
X148750000Y-105675000D03*
X149250000Y-105675000D03*
X149750000Y-105675000D03*
X150250000Y-105675000D03*
X150750000Y-105675000D03*
X151250000Y-105675000D03*
X151750000Y-105675000D03*
X152250000Y-105675000D03*
X152750000Y-105675000D03*
X153250000Y-105675000D03*
X153750000Y-105675000D03*
D28*
X155675000Y-103750000D03*
X155675000Y-103250000D03*
X155675000Y-102750000D03*
X155675000Y-102250000D03*
X155675000Y-101750000D03*
X155675000Y-101250000D03*
X155675000Y-100750000D03*
X155675000Y-100250000D03*
X155675000Y-99750000D03*
X155675000Y-99250000D03*
X155675000Y-98750000D03*
X155675000Y-98250000D03*
X155675000Y-97750000D03*
X155675000Y-97250000D03*
X155675000Y-96750000D03*
X155675000Y-96250000D03*
D29*
X153750000Y-94325000D03*
X153250000Y-94325000D03*
X152750000Y-94325000D03*
X152250000Y-94325000D03*
X151750000Y-94325000D03*
X151250000Y-94325000D03*
X150750000Y-94325000D03*
X150250000Y-94325000D03*
X149750000Y-94325000D03*
X149250000Y-94325000D03*
X148750000Y-94325000D03*
X148250000Y-94325000D03*
X147750000Y-94325000D03*
X147250000Y-94325000D03*
X146750000Y-94325000D03*
X146250000Y-94325000D03*
%TD*%
D16*
%TO.C,C7*%
X157362500Y-106000000D03*
X155637500Y-106000000D03*
%TD*%
D18*
%TO.C,C23*%
X161000000Y-111637500D03*
X161000000Y-113362500D03*
%TD*%
%TO.C,C19*%
X154400000Y-111637500D03*
X154400000Y-113362500D03*
%TD*%
D15*
%TO.C,C8*%
X156000000Y-94362500D03*
X156000000Y-92637500D03*
%TD*%
D30*
%TO.C,U4*%
X147500000Y-113165000D03*
X147000000Y-113165000D03*
X146500000Y-113165000D03*
X146000000Y-113165000D03*
X145500000Y-113165000D03*
X145000000Y-113165000D03*
X144500000Y-113165000D03*
D31*
X144085000Y-112000000D03*
D30*
X144500000Y-110835000D03*
X145000000Y-110835000D03*
X145500000Y-110835000D03*
X146000000Y-110835000D03*
X146500000Y-110835000D03*
X147000000Y-110835000D03*
X147500000Y-110835000D03*
D31*
X147915000Y-112000000D03*
%TD*%
D15*
%TO.C,C10*%
X157750000Y-96262500D03*
X157750000Y-94537500D03*
%TD*%
D32*
%TO.C,H2*%
X165250000Y-84750000D03*
%TD*%
D33*
%TO.C,J1*%
X172537500Y-98950000D03*
X172537500Y-98300000D03*
X172537500Y-97650000D03*
X172537500Y-97000000D03*
X172537500Y-96350000D03*
D34*
X175237500Y-100550000D03*
D35*
X172537500Y-95150000D03*
D36*
X175237500Y-101150000D03*
D35*
X172537500Y-100150000D03*
D34*
X175237500Y-94750000D03*
D37*
X175237500Y-96650000D03*
X175237500Y-98650000D03*
D36*
X175237500Y-94150000D03*
%TD*%
D15*
%TO.C,C2*%
X129800000Y-106862500D03*
X129800000Y-105137500D03*
%TD*%
D17*
%TO.C,R6*%
X157675000Y-81750000D03*
X159500000Y-81750000D03*
%TD*%
D15*
%TO.C,C13*%
X141400000Y-102862500D03*
X141400000Y-101137500D03*
%TD*%
D18*
%TO.C,C18*%
X142400000Y-111437500D03*
X142400000Y-113162500D03*
%TD*%
D32*
%TO.C,H3*%
X134750000Y-115250000D03*
%TD*%
D38*
%TO.C,SW1*%
X137500000Y-104125000D03*
X131500000Y-104125000D03*
X137500000Y-107875000D03*
X131500000Y-107875000D03*
%TD*%
D17*
%TO.C,R10*%
X132287500Y-93900000D03*
X134112500Y-93900000D03*
%TD*%
D19*
%TO.C,C22*%
X149637500Y-115000000D03*
X151362500Y-115000000D03*
%TD*%
%TO.C,C21*%
X151237500Y-110100000D03*
X152962500Y-110100000D03*
%TD*%
D18*
%TO.C,C4*%
X140650000Y-93987500D03*
X140650000Y-95712500D03*
%TD*%
D16*
%TO.C,C6*%
X147862500Y-107750000D03*
X146137500Y-107750000D03*
%TD*%
%TO.C,C17*%
X147112500Y-114800000D03*
X145387500Y-114800000D03*
%TD*%
D39*
%TO.C,D3*%
X132325000Y-100500000D03*
X134075000Y-100500000D03*
%TD*%
D40*
%TO.C,Q1*%
X158550000Y-85400000D03*
X160450000Y-85400000D03*
X159500000Y-83300000D03*
%TD*%
D17*
%TO.C,R9*%
X132287500Y-92400000D03*
X134112500Y-92400000D03*
%TD*%
D20*
%TO.C,R1*%
X148500000Y-88400000D03*
X146675000Y-88400000D03*
%TD*%
D16*
%TO.C,C24*%
X159362500Y-115150000D03*
X157637500Y-115150000D03*
%TD*%
D32*
%TO.C,H1*%
X134750000Y-84750000D03*
%TD*%
D41*
%TO.C,JP1*%
X158775000Y-123000000D03*
D42*
X160225000Y-123000000D03*
%TD*%
D43*
%TO.C,U5*%
X149740000Y-111750000D03*
X149740000Y-112250000D03*
X149740000Y-112750000D03*
X149740000Y-113250000D03*
D44*
X150250000Y-113260000D03*
X150750000Y-113260000D03*
D43*
X151260000Y-113250000D03*
X151260000Y-112750000D03*
X151260000Y-112250000D03*
X151260000Y-111750000D03*
D44*
X150750000Y-111740000D03*
X150250000Y-111740000D03*
%TD*%
D21*
%TO.C,J4*%
X148190000Y-120460000D03*
D22*
X150730000Y-120460000D03*
X153270000Y-120460000D03*
X155810000Y-120460000D03*
X150730000Y-123000000D03*
X148190000Y-123000000D03*
X153270000Y-123000000D03*
X155810000Y-123000000D03*
X150730000Y-125540000D03*
X155810000Y-125540000D03*
X148190000Y-125540000D03*
X153270000Y-125540000D03*
%TD*%
D39*
%TO.C,D4*%
X132325000Y-98800000D03*
X134075000Y-98800000D03*
%TD*%
D32*
%TO.C,H4*%
X165250000Y-115250000D03*
%TD*%
D20*
%TO.C,R4*%
X161112500Y-87200000D03*
X159287500Y-87200000D03*
%TD*%
D21*
%TO.C,J2*%
X160975000Y-92000000D03*
D22*
X163515000Y-92000000D03*
X166055000Y-92000000D03*
%TD*%
D45*
%TO.C,U2*%
X169137500Y-98950000D03*
X169137500Y-98000000D03*
X169137500Y-97050000D03*
X166862500Y-97050000D03*
X166862500Y-98000000D03*
X166862500Y-98950000D03*
%TD*%
D39*
%TO.C,D5*%
X132325000Y-97100000D03*
X134075000Y-97100000D03*
%TD*%
D46*
%TO.C,D1*%
X167350000Y-101000000D03*
X170650000Y-101000000D03*
%TD*%
D24*
%TO.C,R2*%
X164500000Y-95587500D03*
X164500000Y-97412500D03*
%TD*%
D19*
%TO.C,C11*%
X145637500Y-92250000D03*
X147362500Y-92250000D03*
%TD*%
D20*
%TO.C,R5*%
X153912500Y-82500000D03*
X152087500Y-82500000D03*
%TD*%
D19*
%TO.C,C1*%
X145637500Y-90700000D03*
X147362500Y-90700000D03*
%TD*%
D47*
%TO.C,J5*%
X157540000Y-89500000D03*
X152460000Y-90516000D03*
X152460000Y-88484000D03*
D48*
X156270000Y-88865000D03*
X156270000Y-90135000D03*
X155000000Y-88865000D03*
X155000000Y-90135000D03*
X153730000Y-88865000D03*
X153730000Y-90135000D03*
%TD*%
D39*
%TO.C,D2*%
X163725000Y-105300000D03*
X165475000Y-105300000D03*
%TD*%
G36*
X174792121Y-85170002D02*
G01*
X174838614Y-85223658D01*
X174850000Y-85276000D01*
X174850000Y-89724000D01*
X174829998Y-89792121D01*
X174776342Y-89838614D01*
X174724000Y-89850000D01*
X170276000Y-89850000D01*
X170207879Y-89829998D01*
X170161386Y-89776342D01*
X170150000Y-89724000D01*
X170150000Y-85276000D01*
X170170002Y-85207879D01*
X170223658Y-85161386D01*
X170276000Y-85150000D01*
X174724000Y-85150000D01*
X174792121Y-85170002D01*
G37*
G36*
X174792121Y-78670002D02*
G01*
X174838614Y-78723658D01*
X174850000Y-78776000D01*
X174850000Y-83224000D01*
X174829998Y-83292121D01*
X174776342Y-83338614D01*
X174724000Y-83350000D01*
X170276000Y-83350000D01*
X170207879Y-83329998D01*
X170161386Y-83276342D01*
X170150000Y-83224000D01*
X170150000Y-78776000D01*
X170170002Y-78707879D01*
X170223658Y-78661386D01*
X170276000Y-78650000D01*
X174724000Y-78650000D01*
X174792121Y-78670002D01*
G37*
M02*
